<svg width="178" height="174" viewBox="0 0 178 174" fill="none" xmlns="http://www.w3.org/2000/svg">
<path d="M88.5254 173.258C39.6341 173.258 -4.57764e-05 150.367 -4.57764e-05 122.129C-4.57764e-05 93.8916 39.6341 71.0005 88.5254 71.0005C137.417 71.0005 177.051 93.8916 177.051 122.129C177.051 150.367 137.417 173.258 88.5254 173.258Z" fill="#B0B0B0"/>
<path d="M21.8307 131.951L3.60104 121.438C3.5089 121.406 3.429 121.346 3.37245 121.267C3.3159 121.187 3.28551 121.092 3.28551 120.995C3.28551 120.897 3.3159 120.802 3.37245 120.722C3.429 120.643 3.5089 120.583 3.60104 120.551L48.6672 94.4361C48.9052 94.315 49.1685 94.252 49.4355 94.252C49.7026 94.252 49.9658 94.315 50.2039 94.4361L68.4335 104.949C68.5256 104.981 68.6055 105.041 68.6621 105.121C68.7186 105.2 68.749 105.295 68.749 105.393C68.749 105.49 68.7186 105.585 68.6621 105.665C68.6055 105.744 68.5256 105.804 68.4335 105.836L23.3673 131.951C23.1295 132.073 22.8662 132.136 22.599 132.136C22.3319 132.136 22.0685 132.073 21.8307 131.951Z" fill="#E6E6E6"/>
<path d="M48.1796 159.467C34.5312 159.467 23.4671 153.076 23.4671 145.192C23.4671 137.308 34.5312 130.917 48.1796 130.917C61.8279 130.917 72.8921 137.308 72.8921 145.192C72.8921 153.076 61.8279 159.467 48.1796 159.467Z" fill="#E6E6E6"/>
<path d="M157.602 150.177L150.665 154.198C150.168 154.449 149.618 154.58 149.061 154.58C148.504 154.58 147.955 154.449 147.458 154.198L89.0311 120.452C88.1483 119.942 88.1483 119.114 89.0311 118.604L95.9757 114.595C96.4722 114.343 97.0207 114.212 97.5771 114.212C98.1334 114.212 98.682 114.343 99.1784 114.595L157.602 148.326C158.492 148.836 158.492 149.664 157.602 150.177Z" fill="#E6E6E6"/>
<path d="M137.847 153.565L135.039 155.188C134.544 155.441 133.995 155.573 133.438 155.573C132.881 155.573 132.333 155.441 131.837 155.188L82.9659 126.963C82.0793 126.449 82.0793 125.621 82.9659 125.115L85.7732 123.493C86.2697 123.241 86.8182 123.11 87.3746 123.11C87.9309 123.11 88.4795 123.241 88.9759 123.493L137.847 151.718C138.733 152.228 138.733 153.055 137.847 153.565Z" fill="#E6E6E6"/>
<path d="M81.6102 93.5565C85.7178 95.9548 85.7178 99.8386 81.6102 102.241C77.5025 104.643 70.8497 104.639 66.7457 102.241C62.6418 99.8423 62.6418 95.9585 66.7457 93.5565C70.8497 91.1545 77.5062 91.1619 81.6102 93.5565Z" fill="#E6E6E6"/>
<path d="M25.6875 121.785L24.1213 129.553L22.5994 130.432L21.0922 129.56L19.5112 121.785L22.5994 120L25.6875 121.785Z" fill="#E0E0E0"/>
<path opacity="0.05" d="M25.6875 121.785L24.1213 129.553L22.5994 130.432L21.0922 129.56L19.5112 121.785L22.5994 120L25.6875 121.785Z" fill="black"/>
<path d="M22.5994 130.433V123.567L25.6875 121.786L24.1213 129.553L22.5994 130.433Z" fill="#EBEBEB"/>
<path opacity="0.05" d="M25.6875 121.785L24.6754 126.8L22.5994 128.001L20.5307 126.807L19.5112 121.785L22.5994 120L25.6875 121.785Z" fill="black"/>
<path d="M12.1084 113.944L10.5459 121.711L9.02395 122.591L7.51313 121.719L5.93582 113.944L9.02395 112.159L12.1084 113.944Z" fill="#E0E0E0"/>
<path opacity="0.05" d="M12.1084 113.944L10.5459 121.711L9.02395 122.591L7.51313 121.719L5.93582 113.944L9.02395 112.159L12.1084 113.944Z" fill="black"/>
<path d="M9.02395 122.591V115.725L12.1084 113.944L10.5459 121.712L9.02395 122.591Z" fill="#EBEBEB"/>
<path opacity="0.05" d="M12.1084 113.944L11.0999 118.958L9.02395 120.159L6.95534 118.966L5.93582 113.944L9.02395 112.159L12.1084 113.944Z" fill="black"/>
<path opacity="0.05" d="M65.8481 98.5863L64.2819 106.358L62.76 107.237L61.2529 106.365L59.6719 98.59L62.76 96.8052L65.8481 98.5863Z" fill="black"/>
<path d="M62.76 107.237V100.371L65.8481 98.5859L64.2819 106.357L62.76 107.237Z" fill="#EBEBEB"/>
<path opacity="0.05" d="M65.8481 98.5863L64.836 103.605L62.76 104.806L60.6914 103.612L59.6719 98.59L62.76 96.8052L65.8481 98.5863Z" fill="black"/>
<path d="M22.5996 126.749L5.77369 117.03V80.6011L22.5996 90.3198V126.749Z" fill="#E0E0E0"/>
<path d="M22.5994 90.3198L66.7236 64.833V101.262L22.5994 126.749V90.3198Z" fill="#EBEBEB"/>
<path d="M66.7231 64.8327L22.599 90.3196L5.77304 80.6008L49.8972 55.1177L66.7231 64.8327Z" fill="#F5F5F5"/>
<path d="M25.0045 108.364L64.3192 85.6562V99.026L64.7588 99.281L25.4441 121.989L25.0008 121.734L25.0045 108.364Z" fill="#E0E0E0"/>
<path d="M25.4433 108.619L64.7617 85.9111L64.758 99.2809L25.4433 121.989V108.619Z" fill="#F5F5F5"/>
<path d="M44.3458 100.245L47.615 98.3567C48.0398 98.1091 48.3833 98.2236 48.3833 98.6042C48.3525 98.8407 48.267 99.0666 48.1336 99.2642C48.0002 99.4618 47.8227 99.6255 47.615 99.7424L44.3458 101.631C43.921 101.878 43.5775 101.764 43.5775 101.383C43.6083 101.147 43.6938 100.921 43.8272 100.723C43.9605 100.526 44.1381 100.362 44.3458 100.245Z" fill="#E0E0E0"/>
<path d="M25.0008 92.2231L64.3192 69.5151L64.3155 82.8812L64.7588 83.1399L25.4441 105.848L25.0008 105.589V92.2231Z" fill="#E0E0E0"/>
<path d="M25.4441 92.4779L64.7588 69.77V83.1398L25.4441 105.848V92.4779Z" fill="#F5F5F5"/>
<path d="M44.3458 84.0855L47.615 82.1971C48.0398 81.9533 48.3833 82.0641 48.3833 82.4484C48.3525 82.6848 48.267 82.9108 48.1336 83.1084C48.0002 83.3059 47.8227 83.4697 47.615 83.5866L44.3458 85.4638C43.921 85.7077 43.5775 85.5969 43.5775 85.2125C43.611 84.9785 43.6977 84.7552 43.8309 84.5598C43.9641 84.3644 44.1402 84.2022 44.3458 84.0855Z" fill="#E0E0E0"/>
<path d="M48.6304 65.9266C50.6694 67.1054 50.6694 69.0159 48.6304 70.1947C46.5913 71.3735 43.2852 71.3698 41.2425 70.1947C39.1997 69.0196 39.2034 67.1054 41.2425 65.9266C43.2815 64.7478 46.595 64.7478 48.6304 65.9266Z" fill="#E0E0E0"/>
<path d="M41.6928 68.3246C39.916 66.5102 38.8743 61.9834 40.6067 60.5459H49.4205C51.153 61.9834 50.1113 66.5065 48.3345 68.3061L48.2865 68.3579C48.268 68.3763 48.2458 68.3948 48.2274 68.417C48.1757 68.4666 48.1215 68.5135 48.0648 68.5574L48.0242 68.5907L47.8875 68.6941C47.8136 68.7459 47.7361 68.7976 47.6585 68.842C46.8387 69.2575 45.9326 69.4741 45.0136 69.4741C44.0946 69.4741 43.1885 69.2575 42.3688 68.842C42.2912 68.7976 42.2136 68.7459 42.136 68.6941L42.0104 68.5981L41.9587 68.5574C41.9033 68.5131 41.8516 68.465 41.8036 68.4207L41.7334 68.3505C41.7209 68.3403 41.7073 68.3316 41.6928 68.3246Z" fill="#EBEBEB"/>
<path d="M48.656 59.9659C50.6655 61.1262 50.6655 63.0108 48.656 64.1712C46.6464 65.3315 43.3847 65.3352 41.3715 64.1712C39.3583 63.0072 39.362 61.1262 41.3715 59.9659C43.381 58.8055 46.6428 58.8018 48.656 59.9659Z" fill="#B0B0B0"/>
<path d="M47.23 60.7895C48.4526 61.4953 48.4526 62.6371 47.23 63.3466C46.5435 63.6964 45.784 63.8788 45.0136 63.8788C44.2432 63.8788 43.4837 63.6964 42.7972 63.3466C41.5745 62.6408 41.5745 61.499 42.7972 60.7895C43.4837 60.4397 44.2432 60.2573 45.0136 60.2573C45.784 60.2573 46.5435 60.4397 47.23 60.7895Z" fill="#F5F5F5"/>
<path d="M42.7972 62.0021C43.4842 61.654 44.2435 61.4727 45.0136 61.4727C45.7837 61.4727 46.543 61.654 47.23 62.0021C47.5274 62.1627 47.781 62.3935 47.9688 62.6746C47.7831 62.9576 47.529 63.1889 47.23 63.3472C46.5435 63.697 45.784 63.8793 45.0136 63.8793C44.2432 63.8793 43.4837 63.697 42.7972 63.3472C42.4982 63.1889 42.2441 62.9576 42.0584 62.6746C42.2462 62.3935 42.4998 62.1627 42.7972 62.0021Z" fill="#EBEBEB"/>
<path d="M46.9601 62.6744C47.5861 62.0388 48.1252 61.3231 48.5633 60.5459C49.3021 59.2341 49.4387 57.4825 49.0546 57.2644C48.6704 57.0464 47.1153 58.798 47.1153 58.798C47.258 58.0619 47.3138 57.3115 47.2815 56.5623C47.215 55.3983 46.9121 54.3451 46.5981 54.1234C46.2841 53.9017 45.5158 55.3798 45.1944 56.4478C44.873 57.5157 44.6846 58.3878 44.6846 58.3878C44.5563 57.5562 44.3636 56.7359 44.1084 55.9341C43.7205 54.8255 43.3696 54.5779 43.0962 54.6888C42.8229 54.7996 42.6419 55.3133 42.5606 56.7877C42.5321 57.4918 42.5543 58.1969 42.6271 58.8978C42.6271 58.8978 42.0804 58.2954 41.4672 57.7079C40.7986 57.0649 40.5142 56.9688 40.3221 57.0981C40.13 57.2275 40.0783 58.2067 41.1126 60.0988C41.6268 61.0576 42.2873 61.9303 43.0704 62.6855C43.0704 62.6855 44.5073 63.602 46.9601 62.6744Z" fill="#E0E0E0"/>
<path d="M21.403 82.9546L22.0568 83.2724L34.1914 76.2623L33.5376 75.9482L21.403 82.9546Z" fill="#B0B0B0"/>
<path d="M33.5371 75.948L21.9935 82.6145L20.3128 65.3387L31.8564 58.6797L33.5371 75.948Z" fill="#F9F9F9"/>
<path d="M35.4248 76.839L21.059 85.1387L19.0791 64.77L33.4449 56.4702L35.4248 76.839ZM32.4475 58.3327L20.3129 65.3538L22.0564 83.2874L34.191 76.2662L32.4475 58.3327Z" fill="#F0F0F0"/>
<path d="M34.1914 76.2628L33.5376 75.9487L31.8568 58.6804L32.4479 58.333L34.1914 76.2628Z" fill="#E0E0E0"/>
<path d="M33.4448 56.4664L32.7836 56.1597L18.4142 64.4594L19.0791 64.7661L33.4448 56.4664Z" fill="#B0B0B0"/>
<path d="M18.4142 64.4595L19.0791 64.7662L21.0591 85.1386L20.3979 84.8282L18.4142 64.4595Z" fill="#E0E0E0"/>
<path d="M33.0273 75.6198L22.3851 81.7652L22.1043 78.8569L24.0843 70.3096L25.9682 73.2252L25.5803 75.6826L28.7276 66.6143L32.7466 72.7116L33.0273 75.6198Z" fill="#F0F0F0"/>
<path d="M23.9181 66.7103C23.6969 66.8496 23.5158 67.0442 23.3927 67.2749C23.2696 67.5056 23.2088 67.7645 23.2162 68.0259C23.2643 68.4989 23.6521 68.6836 24.088 68.4323C24.3095 68.2933 24.4908 68.0987 24.6139 67.868C24.737 67.6372 24.7977 67.3783 24.7899 67.1168C24.7455 66.6401 24.354 66.459 23.9181 66.7103Z" fill="#F0F0F0"/>
<path d="M80.3103 99.1379C83.5425 95.8121 85.4411 82.2206 82.2865 79.5747H66.2474C63.0928 82.2206 64.9915 95.7973 68.22 99.1342L68.3086 99.2266L68.4195 99.3374C68.5118 99.4261 68.6078 99.5148 68.715 99.5998L68.7925 99.6626C68.8701 99.7254 68.9477 99.7883 69.0363 99.8474C69.1697 99.9459 69.3092 100.036 69.4538 100.117C72.1097 101.669 76.4242 101.669 79.0802 100.117C79.2265 100.036 79.3672 99.9442 79.5013 99.8437C79.5826 99.7883 79.6564 99.7291 79.7303 99.67L79.8264 99.5961C79.9242 99.516 80.0179 99.4309 80.1071 99.3411L80.2364 99.2155L80.3103 99.1379Z" fill="#F0F0F0"/>
<path d="M67.6405 78.4916C63.9798 80.6275 63.9798 84.0937 67.6405 86.2518C71.3012 88.4099 77.2448 88.3877 80.8944 86.2518C84.544 84.1159 84.5551 80.646 80.8944 78.4916C77.2337 76.3372 71.3012 76.352 67.6405 78.4916Z" fill="#F5F5F5"/>
<path d="M69.3986 79.5187C66.7131 81.0892 66.7131 83.6353 69.3986 85.2059C72.0841 86.7764 76.4467 86.7764 79.1359 85.2059C81.8251 83.6353 81.8214 81.0892 79.1359 79.5187C76.4504 77.9482 72.0878 77.9482 69.3986 79.5187Z" fill="#E0E0E0"/>
<path d="M79.1358 82.2165C76.4466 80.6459 72.0878 80.6459 69.3986 82.2165C68.7489 82.5685 68.1967 83.0764 67.7917 83.6946C68.1934 84.3204 68.746 84.835 69.3986 85.1912C72.0878 86.7617 76.4466 86.7617 79.1358 85.1912C79.7884 84.835 80.341 84.3204 80.7427 83.6946C80.3376 83.0764 79.7855 82.5685 79.1358 82.2165Z" fill="#B0B0B0"/>
<path d="M67.0711 54.5119L73.1624 59.3417L67.2521 56.6219C67.2651 58.5274 67.6114 60.4159 68.2753 62.2019C69.886 63.1644 71.4187 64.2517 72.8595 65.4538L68.364 63.6615C68.364 63.6615 68.0537 66.64 69.2949 71.1816C69.6162 72.3715 70.9534 74.6404 71.7957 76.3366C72.1814 77.1203 72.6195 77.8771 73.107 78.6018L73.1994 78.7423C74.2312 78.151 75.3037 77.5782 76.4168 77.0239C77.1556 75.4941 78.0901 71.7248 78.43 68.6355C79.7303 56.8104 70.7946 50.0368 63.6099 47.7642C63.6099 47.7716 66.0774 50.8683 67.0711 54.5119Z" fill="#F0F0F0"/>
<path d="M72.1617 55.0034C73.4066 56.2561 74.1343 57.9006 74.6921 59.545C75.238 61.2065 75.601 62.9227 75.7744 64.6631C76.1611 68.1385 75.7206 71.6561 74.4889 74.9287C74.4798 74.9695 74.4857 75.0122 74.5055 75.049C74.5253 75.0858 74.5577 75.1142 74.5967 75.129C74.6358 75.1439 74.6789 75.1441 74.7181 75.1297C74.7573 75.1153 74.7901 75.0873 74.8103 75.0507C76.0063 71.7194 76.3974 68.1523 75.9517 64.6409C75.7477 62.8951 75.3551 61.1766 74.7807 59.5154C74.186 57.8784 73.4287 56.234 72.1617 55.0034Z" fill="#F9F9F9"/>
<path d="M93.4312 60.7055C93.2797 60.8903 90.7789 63.865 87.0665 69.652L80.8865 70.6497L85.4448 71.4442L82.9847 75.3317L76.9081 76.5955L81.6585 77.3678C81.6585 77.3678 80.3398 82.0055 76.9414 83.9382C75.0649 85.0024 74.1451 85.165 73.5836 84.6292C73.1883 84.2597 73.096 82.0425 72.7672 80.047C72.4385 78.0515 72.3978 74.8365 74.2854 70.9416C74.7961 69.9011 75.4515 68.9381 76.2321 68.0814C80.7314 63.0632 89.2311 60.6501 93.4312 60.7055Z" fill="#F5F5F5"/>
<path d="M86.9668 62.7344C83.7715 64.1349 80.7499 66.0602 78.371 68.6728C77.1634 69.9664 76.1662 71.4415 75.4158 73.0444C74.6902 74.6509 74.2358 76.3666 74.0712 78.1218V78.1403C74.0712 78.1403 74.0712 78.1403 74.0897 78.1403C74.4182 76.4316 74.9619 74.7715 75.7076 73.1996C76.4521 71.6317 77.4079 70.1732 78.5483 68.865C80.8422 66.2486 83.8011 64.2642 86.952 62.775V62.7528L86.9668 62.7344Z" fill="#F9F9F9"/>
<path d="M56.6173 63.2626C57.1354 63.2551 57.6534 63.2785 58.1687 63.3328C60.204 63.5649 62.2028 64.0477 64.1197 64.7703C64.8289 65.0364 65.5418 65.3357 66.2437 65.672C66.5946 65.8383 66.9418 66.0156 67.2817 66.2004C68.9825 67.086 70.5232 68.2501 71.84 69.6445C72.452 70.3165 72.9793 71.0612 73.4099 71.8617C73.4654 71.9652 73.5245 72.0649 73.5762 72.1721C73.7092 72.4455 73.8274 72.7116 73.9456 72.9777C75.0012 75.2634 75.4613 77.7792 75.2828 80.2908C75.22 82.0645 74.6142 84.0933 74.2706 84.4259C74.223 84.4693 74.171 84.5077 74.1155 84.5404C73.6094 84.8619 72.8078 84.6735 71.3044 83.8346C68.2901 82.1569 67.1007 77.8888 67.1007 77.8888L71.2896 77.1756L65.9149 76.1039L63.7318 72.6968L67.7471 71.9578L62.2986 71.1263C60.5678 68.3961 58.6743 65.7726 56.6283 63.27L56.6173 63.2626Z" fill="#F0F0F0"/>
<path d="M58.1687 63.3329C60.204 63.5649 62.2028 64.0477 64.1197 64.7704C64.8289 65.0364 65.5418 65.3358 66.2437 65.672C66.5946 65.8383 66.9418 66.0157 67.2817 66.2005C68.9825 67.0861 70.5232 68.2502 71.84 69.6445C72.452 70.3166 72.9793 71.0612 73.4099 71.8618C73.4654 71.9652 73.5245 72.065 73.5762 72.1722C73.7092 72.4456 73.8274 72.7117 73.9456 72.9778C75.0012 75.2635 75.4613 77.7793 75.2828 80.2908C75.22 82.0646 74.6142 84.0934 74.2706 84.4259C74.223 84.4694 74.171 84.5078 74.1155 84.5405C74.0131 84.6012 73.9004 84.6426 73.783 84.6624C74.1524 81.9094 72.8041 74.9363 70.754 72.0687C68.6263 69.0829 63.573 64.7556 56.6247 63.2627C57.1403 63.2549 57.6559 63.2784 58.1687 63.3329Z" fill="#E6E6E6"/>
<path d="M73.8017 84.67C73.9328 82.6339 73.7999 80.5894 73.4065 78.5875C73.0393 76.5711 72.3587 74.6248 71.3896 72.819C70.3147 71.0654 68.9319 69.5206 67.3078 68.259C65.7113 66.9806 63.9493 65.924 62.0697 65.1179C62.066 65.1152 62.0614 65.1138 62.0568 65.1138C62.0522 65.1138 62.0476 65.1152 62.0439 65.1179C62.0439 65.1179 62.0439 65.1179 62.0439 65.1401C63.8399 66.0926 65.5343 67.2255 67.1009 68.5213C67.8869 69.1561 68.6275 69.8451 69.3173 70.5833C70.0206 71.3018 70.6402 72.0977 71.1642 72.9558C72.1503 74.7239 72.8545 76.6353 73.2513 78.6207C73.6755 80.6063 73.8431 82.6381 73.75 84.6663C73.75 84.6663 73.8017 84.6811 73.8017 84.67Z" fill="#F9F9F9"/>
<path d="M151.518 144.807C150.987 138.469 149.553 132.173 152.135 122.927C154.3 115.167 158.84 108.622 164.927 107.233C167.45 106.656 169.39 106.97 170.738 108.622C173.11 111.527 170.827 115.373 168.126 117.812C166.941 118.884 156.934 126.171 155.859 139.105L155.641 146.337C155.622 146.424 155.583 146.506 155.527 146.575C155.47 146.645 155.398 146.7 155.316 146.736C155.234 146.772 155.145 146.788 155.056 146.783C154.966 146.778 154.88 146.752 154.802 146.706L151.518 144.807Z" fill="#1F7BAC"/>
<path opacity="0.25" d="M151.518 144.807C150.987 138.469 149.553 132.173 152.135 122.927C154.3 115.167 158.84 108.622 164.927 107.233C167.45 106.656 169.39 106.97 170.738 108.622C173.11 111.527 170.827 115.373 168.126 117.812C166.941 118.884 156.934 126.171 155.859 139.105L155.641 146.337C155.622 146.424 155.583 146.506 155.527 146.575C155.47 146.645 155.398 146.7 155.316 146.736C155.234 146.772 155.145 146.788 155.056 146.783C154.966 146.778 154.88 146.752 154.802 146.706L151.518 144.807Z" fill="#F9F9F9"/>
<path d="M153.17 142.372C153.228 142.353 153.278 142.316 153.314 142.266C153.349 142.216 153.367 142.156 153.366 142.095C152.996 126.619 157.359 116.656 167.321 111.475C167.353 111.456 167.381 111.431 167.403 111.4C167.424 111.37 167.439 111.336 167.447 111.299C167.455 111.263 167.455 111.225 167.447 111.189C167.439 111.152 167.424 111.118 167.403 111.087C167.361 111.031 167.301 110.992 167.234 110.977C167.166 110.961 167.095 110.97 167.033 111.002C156.934 116.013 152.431 126.419 152.8 142.102C152.801 142.139 152.81 142.176 152.825 142.209C152.84 142.243 152.861 142.273 152.888 142.299C152.915 142.324 152.946 142.344 152.981 142.357C153.015 142.371 153.052 142.377 153.089 142.376L153.17 142.372Z" fill="#F9F9F9"/>
<path d="M157.669 148.362C157.78 146.115 158.777 142.376 162.449 136.844C165.626 132.066 171.226 128.814 171.994 126.027C172.914 122.702 169.962 120.196 165.267 121.552C159.623 123.186 153.395 132.354 153.277 145.827L157.669 148.362Z" fill="#1F7BAC"/>
<path opacity="0.65" d="M157.669 148.362C157.78 146.115 158.777 142.376 162.449 136.844C165.626 132.066 171.226 128.814 171.994 126.027C172.914 122.702 169.962 120.196 165.267 121.552C159.623 123.186 153.395 132.354 153.277 145.827L157.669 148.362Z" fill="#F9F9F9"/>
<path d="M155.467 145.616C155.519 145.601 155.565 145.57 155.599 145.527C155.633 145.485 155.654 145.434 155.659 145.38C157.026 133.514 164.114 126.146 167.867 124.741C167.938 124.714 167.995 124.66 168.026 124.591C168.057 124.522 168.06 124.443 168.034 124.372C168.021 124.336 168.002 124.303 167.976 124.275C167.951 124.247 167.92 124.224 167.885 124.208C167.85 124.193 167.813 124.185 167.775 124.184C167.737 124.184 167.699 124.191 167.664 124.206C163.512 125.769 156.494 133.204 155.101 145.328C155.094 145.402 155.116 145.476 155.162 145.534C155.208 145.592 155.275 145.629 155.349 145.639C155.389 145.639 155.429 145.631 155.467 145.616Z" fill="#F9F9F9"/>
<path d="M102.688 1.1137L151.197 29.1392C151.964 29.5819 152.607 30.2122 153.064 30.9709C153.522 31.7297 153.779 32.5921 153.812 33.4776V146.208C153.812 147.985 152.704 150.062 151.36 150.842C150.015 151.622 147.666 151.537 146.125 150.65L97.7901 122.731C96.9802 122.202 96.3061 121.489 95.8223 120.65C95.3385 119.812 95.0585 118.872 95.0049 117.905V5.56659C95.0049 3.78913 96.1131 1.71234 97.454 0.932626C98.7949 0.152908 101.148 0.226814 102.688 1.1137Z" fill="#1F7BAC"/>
<path opacity="0.3" d="M102.688 1.1137L151.197 29.1392C151.964 29.5819 152.607 30.2122 153.064 30.9709C153.522 31.7297 153.779 32.5921 153.812 33.4776V146.208C153.812 147.985 152.704 150.062 151.36 150.842C150.015 151.622 147.666 151.537 146.125 150.65L97.7901 122.731C96.9802 122.202 96.3061 121.489 95.8223 120.65C95.3385 119.812 95.0585 118.872 95.0049 117.905V5.56659C95.0049 3.78913 96.1131 1.71234 97.454 0.932626C98.7949 0.152908 101.148 0.226814 102.688 1.1137Z" fill="#F9F9F9"/>
<path d="M146.79 150.967C148.268 151.547 150.189 151.518 151.36 150.842C152.711 150.062 153.809 147.985 153.809 146.208V33.4773C153.778 32.6336 153.536 31.8113 153.103 31.0864L148.608 33.6399C149.387 34.5492 149.843 35.6916 149.904 36.8881V148.488C149.908 150.609 148.556 151.61 146.79 150.967Z" fill="#1F7BAC"/>
<path opacity="0.25" d="M146.79 150.967C148.268 151.547 150.189 151.518 151.36 150.842C152.711 150.062 153.809 147.985 153.809 146.208V33.4773C153.778 32.6336 153.536 31.8113 153.103 31.0864L148.608 33.6399C149.387 34.5492 149.843 35.6916 149.904 36.8881V148.488C149.908 150.609 148.556 151.61 146.79 150.967Z" fill="black"/>
<path d="M147.451 32.6199C148.166 33.0872 148.76 33.716 149.187 34.4554C149.613 35.1949 149.86 36.0244 149.908 36.8769V148.476C149.908 150.878 148.209 151.861 146.129 150.66L97.7861 122.738C96.9762 122.209 96.3022 121.496 95.8183 120.657C95.3345 119.819 95.0545 118.879 95.0009 117.912V5.57362C95.0009 3.80355 96.2531 3.07926 97.7861 3.96245L147.451 32.6199Z" fill="#1F7BAC"/>
<path d="M144.932 39.5087C145.703 40.0118 146.344 40.6895 146.804 41.4869C147.265 42.2843 147.531 43.1789 147.581 44.0983V140.1C147.581 141.789 146.399 142.472 144.936 141.63L99.4558 115.359C98.6863 114.856 98.0458 114.178 97.5857 113.382C97.1257 112.585 96.8591 111.692 96.8073 110.773V14.772C96.8073 13.0906 98.0004 12.3996 99.4558 13.2422L144.932 39.5087Z" fill="#1F7BAC"/>
<path opacity="0.45" d="M144.932 39.5087C145.703 40.0118 146.344 40.6895 146.804 41.4869C147.265 42.2843 147.531 43.1789 147.581 44.0983V140.1C147.581 141.789 146.399 142.472 144.936 141.63L99.4558 115.359C98.6863 114.856 98.0458 114.178 97.5857 113.382C97.1257 112.585 96.8591 111.692 96.8073 110.773V14.772C96.8073 13.0906 98.0004 12.3996 99.4558 13.2422L144.932 39.5087Z" fill="black"/>
<path d="M100.161 108.563V13.6484L144.932 39.5159C145.703 40.019 146.344 40.6967 146.804 41.4941C147.265 42.2915 147.531 43.1861 147.581 44.1055V139.013L102.81 113.146C102.041 112.642 101.401 111.966 100.941 111.17C100.481 110.374 100.214 109.481 100.161 108.563Z" fill="#263238"/>
<path d="M125.982 23.877L117.922 19.2246C117.442 18.9437 117.054 19.1433 117.054 19.6643C117.074 19.9568 117.163 20.2404 117.314 20.4916C117.465 20.7428 117.673 20.9545 117.922 21.1092L125.982 25.7654C126.462 26.0425 126.854 25.8467 126.854 25.3256C126.832 25.0327 126.742 24.749 126.591 24.4974C126.439 24.2457 126.231 24.0332 125.982 23.877Z" fill="black"/>
<path d="M112.167 15.8805C111.716 15.6181 111.351 15.8287 111.351 16.3498C111.366 16.6333 111.448 16.9093 111.589 17.1552C111.731 17.4012 111.929 17.6101 112.167 17.7651C112.618 18.0275 112.983 17.8168 112.983 17.2921C112.968 17.009 112.887 16.7336 112.745 16.4882C112.603 16.2429 112.405 16.0346 112.167 15.8805Z" fill="black"/>
<path d="M108.883 13.9924C108.432 13.7337 108.066 13.9443 108.066 14.4654C108.082 14.7488 108.164 15.0245 108.306 15.2704C108.448 15.5162 108.645 15.7253 108.883 15.8807C109.334 16.1393 109.699 15.9287 109.699 15.4077C109.684 15.1243 109.602 14.8485 109.46 14.6026C109.318 14.3568 109.12 14.1477 108.883 13.9924Z" fill="black"/>
<path d="M135.021 29.0871C134.57 28.8284 134.205 29.039 134.205 29.5601C134.22 29.8436 134.302 30.1196 134.443 30.3655C134.585 30.6115 134.783 30.8204 135.021 30.9754C135.472 31.2378 135.837 31.0234 135.837 30.5024C135.822 30.219 135.74 29.9432 135.598 29.6974C135.456 29.4515 135.258 29.2425 135.021 29.0871Z" fill="black"/>
<path d="M131.744 27.2028C131.294 26.9441 130.928 27.1548 130.928 27.6758C130.943 27.9592 131.026 28.235 131.167 28.4808C131.309 28.7267 131.507 28.9357 131.744 29.0911C132.195 29.3498 132.561 29.1392 132.561 28.6181C132.545 28.3347 132.463 28.059 132.321 27.8131C132.179 27.5672 131.982 27.3582 131.744 27.2028Z" fill="black"/>
<path d="M87.7422 17.333L135.553 44.9114C135.864 45.1142 136.123 45.3869 136.31 45.7077C136.496 46.0285 136.605 46.3886 136.628 46.7591V147.949C136.605 148.32 136.496 148.68 136.308 149.001C136.121 149.322 135.861 149.594 135.549 149.796L134.877 150.166C134.543 150.335 134.174 150.422 133.8 150.422C133.426 150.422 133.057 150.335 132.723 150.166L84.9127 122.543C84.6019 122.34 84.3428 122.068 84.1561 121.747C83.9695 121.426 83.8605 121.066 83.8377 120.696V19.5761C83.8606 19.2052 83.9701 18.8448 84.1574 18.5239C84.3447 18.203 84.6047 17.9306 84.9164 17.7284L85.5887 17.3589C85.9206 17.1863 86.2883 17.094 86.6624 17.0895C87.0364 17.085 87.4063 17.1684 87.7422 17.333Z" fill="#E0E0E0"/>
<path d="M83.8376 120.781C83.8376 121.73 84.5025 122.333 85.3151 122.806L132.31 149.948C133.13 150.421 133.787 150.037 133.787 149.087V48.8802C133.788 48.3605 133.652 47.8498 133.392 47.3996C133.133 46.9493 132.759 46.5754 132.31 46.3156L85.3262 19.14C85.1755 19.0559 85.0055 19.0126 84.833 19.0142C84.6604 19.0158 84.4913 19.0624 84.3421 19.1493C84.193 19.2361 84.0691 19.3604 83.9826 19.5097C83.896 19.6591 83.8499 19.8284 83.8486 20.001L83.8376 120.781Z" fill="#B0B0B0"/>
<path d="M84.8317 19.4207C84.6778 19.4207 84.5303 19.4818 84.4216 19.5906C84.3128 19.6994 84.2517 19.847 84.2517 20.0009V120.78C84.2517 121.423 84.647 121.937 85.5335 122.447L132.521 149.589C132.657 149.676 132.814 149.726 132.975 149.733C133.344 149.733 133.385 149.327 133.385 149.087V48.88C133.386 48.4311 133.268 47.9898 133.045 47.6006C132.821 47.2114 132.499 46.888 132.11 46.6628L85.1198 19.4983C85.0321 19.4479 84.9328 19.4212 84.8317 19.4207ZM84.8317 19.0068C85.0055 19.0064 85.1764 19.0523 85.3266 19.1399L132.317 46.2933C132.767 46.5531 133.141 46.927 133.4 47.3772C133.659 47.8275 133.796 48.3382 133.795 48.8579V149.087C133.795 149.759 133.459 150.151 132.971 150.151C132.736 150.142 132.507 150.072 132.306 149.948L85.323 122.805C84.4992 122.332 83.8454 121.73 83.8454 120.78V20.0009C83.8454 19.7385 83.9491 19.4868 84.1338 19.3006C84.3186 19.1144 84.5694 19.0088 84.8317 19.0068Z" fill="#E0E0E0"/>
<path d="M83.8379 19.5757V20.0006C83.8392 19.828 83.8853 19.6587 83.9719 19.5093C84.0584 19.36 84.1823 19.2357 84.3314 19.1489C84.4805 19.062 84.6497 19.0154 84.8222 19.0138C84.9948 19.0122 85.1648 19.0555 85.3155 19.1396L132.317 46.293C132.769 46.5494 133.143 46.9236 133.4 47.3758C133.408 47.3855 133.414 47.3968 133.418 47.409L136.325 45.7276C136.141 45.3926 135.874 45.1102 135.549 44.9073L87.7424 17.3326C87.4085 17.164 87.0397 17.0762 86.6656 17.0762C86.2916 17.0762 85.9228 17.164 85.5888 17.3326L84.9166 17.7021C84.6008 17.9061 84.3383 18.1825 84.1507 18.5084C83.9631 18.8342 83.8559 19.2001 83.8379 19.5757Z" fill="#F0F0F0"/>
<path d="M124.623 47.7972C124.63 47.7743 124.63 47.7499 124.623 47.727V47.3796L125.166 47.6937C125.195 47.7122 125.21 47.6937 125.21 47.6457V47.5237C125.213 47.5004 125.213 47.4769 125.21 47.4535C125.206 47.4307 125.2 47.4084 125.192 47.387L124.615 45.8128C124.609 45.7912 124.6 45.7701 124.59 45.75C124.58 45.735 124.565 45.7234 124.549 45.7167L124.475 45.6724C124.453 45.6724 124.434 45.6724 124.423 45.6724C124.417 45.6966 124.417 45.722 124.423 45.7463V46.9583L124.305 46.8881C124.283 46.8881 124.264 46.8881 124.257 46.8881C124.249 46.9121 124.249 46.9381 124.257 46.962V47.0322C124.25 47.0602 124.25 47.0893 124.257 47.1172C124.266 47.1402 124.283 47.1588 124.305 47.169L124.423 47.2392V47.5866C124.419 47.6159 124.419 47.6459 124.423 47.6752C124.435 47.6975 124.453 47.7156 124.475 47.727L124.567 47.7787C124.597 47.8083 124.612 47.8083 124.623 47.7972ZM124.601 47.0581V46.1934L124.996 47.2835L124.601 47.0581Z" fill="#455A64"/>
<path d="M123.987 47.2167C124.116 47.0039 124.172 46.7547 124.146 46.5072C124.154 46.2026 124.1 45.8996 123.987 45.6166C123.902 45.3901 123.743 45.1988 123.537 45.0734C123.471 45.0337 123.398 45.0062 123.322 44.9921C123.265 44.9783 123.204 44.9876 123.152 45.0179C123.152 45.0179 123.152 45.0179 123.152 45.0475C123.151 45.061 123.151 45.0746 123.152 45.0881L123.2 45.2692C123.205 45.2843 123.212 45.2982 123.223 45.3099H123.245C123.291 45.2944 123.341 45.2903 123.389 45.298C123.437 45.3057 123.483 45.325 123.522 45.3542C123.662 45.4398 123.77 45.5699 123.828 45.7237C123.909 45.9334 123.946 46.1571 123.939 46.3815C123.958 46.5668 123.921 46.7535 123.832 46.9173C123.758 47.006 123.662 47.0134 123.537 46.9395C123.487 46.9134 123.441 46.8811 123.4 46.8434C123.36 46.8086 123.326 46.7689 123.296 46.7252V46.1635L123.522 46.2928C123.544 46.2928 123.559 46.2928 123.57 46.2928C123.576 46.2673 123.576 46.2407 123.57 46.2152V46.1376C123.575 46.1083 123.575 46.0782 123.57 46.0489C123.559 46.0276 123.542 46.0097 123.522 45.9972L123.152 45.7903C123.127 45.7903 123.108 45.7903 123.101 45.7903C123.092 45.8192 123.092 45.85 123.101 45.879V46.6845C123.098 46.7079 123.098 46.7314 123.101 46.7547C123.102 46.7751 123.11 46.7945 123.123 46.8102C123.225 46.9853 123.372 47.1306 123.548 47.2314C123.721 47.3497 123.873 47.3423 123.987 47.2167Z" fill="#455A64"/>
<path d="M119.403 44.4455C119.401 44.5734 119.429 44.6999 119.484 44.8153C119.539 44.9306 119.62 45.0317 119.721 45.1107C119.894 45.2105 120.035 45.0774 120.035 44.8077C120.037 44.6801 120.01 44.5537 119.955 44.4383C119.901 44.3229 119.821 44.2217 119.721 44.1425C119.554 44.0427 119.403 44.1795 119.403 44.4455Z" fill="#455A64"/>
<path d="M119.721 43.3367C120.093 43.6046 120.356 43.9985 120.46 44.4453C120.49 44.5451 120.46 44.6375 120.427 44.667C120.368 44.704 120.279 44.6264 120.242 44.5044C120.17 44.1922 119.988 43.9166 119.729 43.7284C119.685 43.6974 119.634 43.6773 119.581 43.6699C119.528 43.6624 119.474 43.6678 119.423 43.6855C119.373 43.7032 119.327 43.7328 119.29 43.7717C119.253 43.8107 119.226 43.8579 119.211 43.9095C119.178 43.9908 119.09 43.9686 119.03 43.8614C118.988 43.7821 118.977 43.6902 118.997 43.6028C119.018 43.5303 119.055 43.4638 119.106 43.4086C119.157 43.3534 119.221 43.311 119.291 43.2851C119.362 43.2591 119.438 43.2503 119.513 43.2593C119.587 43.2682 119.659 43.2948 119.721 43.3367Z" fill="#455A64"/>
<path d="M119.721 42.5756C120.26 42.9685 120.651 43.5325 120.829 44.1757C120.866 44.2792 120.855 44.3864 120.803 44.4159C120.744 44.4492 120.663 44.379 120.622 44.2607C120.475 43.7326 120.152 43.2709 119.706 42.9526C119.632 42.899 119.547 42.8627 119.457 42.8462C119.367 42.8297 119.275 42.8334 119.187 42.8571C119.099 42.8808 119.017 42.924 118.948 42.9833C118.878 43.0426 118.823 43.1167 118.786 43.2001C118.749 43.2741 118.664 43.2482 118.605 43.1447C118.582 43.1043 118.567 43.0592 118.563 43.0127C118.558 42.9661 118.564 42.9191 118.579 42.875C118.623 42.7691 118.69 42.6747 118.776 42.5994C118.862 42.524 118.965 42.4697 119.075 42.4407C119.186 42.4116 119.302 42.4087 119.414 42.4321C119.526 42.4556 119.631 42.5047 119.721 42.5756Z" fill="#455A64"/>
<path d="M111.494 38.9761C111.498 38.9668 111.5 38.9567 111.5 38.9465C111.5 38.9364 111.498 38.9263 111.494 38.917C111.494 38.8918 111.487 38.8673 111.472 38.8468L111.021 38.0375L110.988 37.9783C110.978 37.9631 110.964 37.9505 110.948 37.9414L110.785 37.8453C110.779 37.8408 110.772 37.8384 110.765 37.8384C110.757 37.8384 110.75 37.8408 110.744 37.8453C110.741 37.8535 110.739 37.8623 110.739 37.8712C110.739 37.8801 110.741 37.8889 110.744 37.897V39.9701C110.74 39.9933 110.74 40.0172 110.744 40.0403C110.753 40.0601 110.767 40.0768 110.785 40.0884L110.955 40.1845C110.961 40.189 110.968 40.1914 110.975 40.1914C110.983 40.1914 110.99 40.189 110.996 40.1845C111.002 40.1678 111.002 40.1494 110.996 40.1327V38.5474L111.291 39.0722C111.3 39.0909 111.314 39.1065 111.332 39.1165C111.338 39.1205 111.345 39.1226 111.352 39.1226C111.359 39.1226 111.366 39.1205 111.372 39.1165L111.494 38.9761Z" fill="#455A64"/>
<path d="M110.441 38.3666C110.446 38.3472 110.446 38.3269 110.441 38.3075C110.438 38.283 110.43 38.2593 110.419 38.2373L109.969 37.428L109.932 37.3726C109.923 37.3558 109.911 37.3417 109.895 37.3319L109.732 37.2395C109.727 37.2343 109.719 37.2314 109.712 37.2314C109.704 37.2314 109.697 37.2343 109.692 37.2395C109.685 37.2562 109.685 37.2746 109.692 37.2913V39.3644C109.686 39.3875 109.686 39.4115 109.692 39.4346C109.7 39.4543 109.714 39.471 109.732 39.4826L109.902 39.5824C109.907 39.5866 109.914 39.5889 109.921 39.5889C109.927 39.5889 109.934 39.5866 109.939 39.5824C109.952 39.5682 109.958 39.5496 109.957 39.5307V37.9417L110.253 38.4701C110.261 38.488 110.276 38.5023 110.294 38.5107C110.299 38.514 110.306 38.5157 110.312 38.5157C110.319 38.5157 110.325 38.514 110.331 38.5107L110.441 38.3666Z" fill="#455A64"/>
<path d="M109.056 37.4762C109.051 37.472 109.045 37.4697 109.038 37.4697C109.031 37.4697 109.025 37.472 109.019 37.4762C109.013 37.4929 109.013 37.5113 109.019 37.5279V37.842C109.014 37.8652 109.014 37.8891 109.019 37.9123C109.026 37.9321 109.039 37.9491 109.056 37.9603L109.252 38.0749C109.258 38.0794 109.265 38.0818 109.272 38.0818C109.28 38.0818 109.287 38.0794 109.293 38.0749C109.299 38.0582 109.299 38.0398 109.293 38.0231V37.709C109.298 37.6859 109.298 37.6619 109.293 37.6388C109.285 37.6185 109.271 37.6015 109.252 37.5908L109.056 37.4762ZM109.056 38.5848C109.051 38.5806 109.045 38.5783 109.038 38.5783C109.031 38.5783 109.025 38.5806 109.019 38.5848C109.016 38.593 109.014 38.6018 109.014 38.6107C109.014 38.6196 109.016 38.6284 109.019 38.6366V38.9507C109.014 38.9738 109.014 38.9977 109.019 39.0209C109.027 39.0402 109.039 39.0569 109.056 39.0689L109.252 39.1798C109.258 39.185 109.265 39.1879 109.272 39.1879C109.28 39.1879 109.287 39.185 109.293 39.1798C109.299 39.1631 109.299 39.1447 109.293 39.128V38.8139C109.298 38.7908 109.298 38.7668 109.293 38.7437C109.284 38.7231 109.27 38.7052 109.252 38.692L109.056 38.5848Z" fill="#455A64"/>
<path d="M107.945 38.4441C107.95 38.4493 107.958 38.4522 107.965 38.4522C107.973 38.4522 107.98 38.4493 107.985 38.4441C107.985 38.4441 107.985 38.4183 107.985 38.3961V38.0081L108.632 38.3776C108.637 38.3828 108.645 38.3857 108.652 38.3857C108.66 38.3857 108.667 38.3828 108.673 38.3776C108.679 38.3609 108.679 38.3426 108.673 38.3259V38.0968C108.676 38.0686 108.676 38.04 108.673 38.0118L108.639 37.9194L108.004 36.3267C107.988 36.2765 107.959 36.2317 107.919 36.1974L107.76 36.105C107.742 36.105 107.731 36.105 107.72 36.105C107.716 36.1132 107.714 36.122 107.714 36.1308C107.714 36.1397 107.716 36.1485 107.72 36.1567V37.4242L107.542 37.3208C107.536 37.3163 107.529 37.3138 107.522 37.3138C107.515 37.3138 107.507 37.3163 107.502 37.3208C107.498 37.3289 107.496 37.3377 107.496 37.3466C107.496 37.3555 107.498 37.3643 107.502 37.3725V37.5979C107.496 37.6223 107.496 37.6474 107.502 37.6718C107.511 37.6908 107.525 37.7073 107.542 37.7198L107.72 37.8233V38.2113C107.715 38.2345 107.715 38.2584 107.72 38.2815C107.727 38.302 107.741 38.3191 107.76 38.3296L107.945 38.4441ZM108 37.6016V36.9143L108.37 37.8085L108 37.6016Z" fill="#455A64"/>
<path d="M107.109 35.8025C107.108 35.7781 107.102 35.7542 107.091 35.7323C107.084 35.7118 107.069 35.6947 107.05 35.6842L106.267 35.2334C106.267 35.2334 106.241 35.2334 106.23 35.2334C106.218 35.2476 106.211 35.2662 106.212 35.2851V35.5142C106.213 35.5387 106.219 35.5627 106.23 35.5845C106.237 35.6038 106.25 35.6205 106.267 35.6325L106.854 35.9725L106.877 36.3937C106.846 36.3535 106.808 36.3186 106.766 36.2903C106.737 36.2678 106.706 36.2481 106.673 36.2311C106.608 36.1909 106.535 36.1645 106.459 36.1535C106.398 36.1454 106.337 36.1599 106.286 36.1942C106.233 36.2379 106.193 36.2955 106.171 36.3605C106.14 36.4558 106.126 36.5559 106.13 36.6561C106.131 36.7804 106.144 36.9043 106.171 37.0256C106.198 37.1324 106.237 37.2354 106.289 37.3324C106.335 37.4196 106.393 37.4994 106.463 37.5689C106.524 37.6349 106.595 37.691 106.673 37.7351C106.748 37.7838 106.833 37.8153 106.921 37.8275C106.981 37.8366 107.042 37.822 107.091 37.7869C107.14 37.7513 107.176 37.7007 107.194 37.6428C107.219 37.574 107.231 37.5015 107.231 37.4284C107.239 37.4044 107.239 37.3786 107.231 37.3545C107.222 37.3355 107.208 37.319 107.191 37.3065L107.024 37.2104C107.018 37.2068 107.011 37.205 107.004 37.205C106.997 37.205 106.99 37.2068 106.984 37.2104C106.971 37.2206 106.964 37.2352 106.962 37.2511C106.956 37.2865 106.944 37.3205 106.925 37.3508C106.908 37.3693 106.886 37.3822 106.862 37.3878C106.835 37.3931 106.807 37.3931 106.781 37.3878L106.688 37.3434C106.607 37.2927 106.541 37.2196 106.5 37.1328C106.449 37.036 106.424 36.928 106.426 36.8187C106.421 36.7819 106.425 36.7446 106.438 36.7098C106.451 36.6751 106.472 36.644 106.5 36.6192C106.527 36.5996 106.56 36.5891 106.594 36.5891C106.628 36.5891 106.661 36.5996 106.688 36.6192C106.725 36.638 106.759 36.663 106.788 36.6931C106.811 36.7123 106.831 36.7347 106.847 36.7596L106.891 36.8187C106.904 36.8359 106.92 36.8498 106.939 36.8594L107.128 36.9702C107.134 36.9747 107.141 36.9771 107.148 36.9771C107.155 36.9771 107.163 36.9747 107.168 36.9702C107.172 36.962 107.174 36.9532 107.174 36.9443C107.174 36.9355 107.172 36.9267 107.168 36.9185L107.109 35.8025Z" fill="#455A64"/>
<path d="M130.614 51.5188V50.8499L130.034 50.5137V51.1825L130.614 51.5188Z" fill="#455A64"/>
<path d="M129.747 51.0155V49.6778L129.167 49.3452V50.6829L129.747 51.0155Z" fill="#455A64"/>
<path d="M128.878 50.5135V48.5106L128.298 48.1743V50.1809L128.878 50.5135Z" fill="#455A64"/>
<path d="M128.01 50.0146V47.3392L127.43 47.0029V49.6784L128.01 50.0146Z" fill="#455A64"/>
<path d="M87.3506 24.3613C87.4133 24.2689 87.4909 24.2467 87.5685 24.2911L89.7294 25.5364C89.817 25.6201 89.8849 25.7222 89.9284 25.8353C89.9718 25.9484 89.9896 26.0697 89.9806 26.1905V27.4063C89.9844 27.5361 89.951 27.6642 89.8846 27.7758C89.8639 27.8112 89.833 27.8396 89.7959 27.8571C89.7767 27.8678 89.7551 27.8734 89.7331 27.8734C89.7112 27.8734 89.6896 27.8678 89.6703 27.8571L87.5094 26.6118C87.4218 26.5273 87.3538 26.4246 87.3104 26.3109C87.267 26.1972 87.2492 26.0754 87.2582 25.954V24.7493C87.2517 24.6138 87.2837 24.4793 87.3506 24.3613ZM89.8255 27.6391C89.8511 27.5836 89.8625 27.5227 89.8587 27.4617V26.2459C89.8649 26.1536 89.8513 26.061 89.8188 25.9743C89.7863 25.8876 89.7357 25.8089 89.6703 25.7434L87.5094 24.4906C87.4984 24.4856 87.4864 24.483 87.4743 24.483C87.4622 24.483 87.4502 24.4856 87.4392 24.4906L87.4097 24.5165C87.3831 24.5717 87.3717 24.6329 87.3764 24.6939V25.9096C87.3707 26.0023 87.3849 26.095 87.4181 26.1817C87.4512 26.2684 87.5025 26.347 87.5685 26.4122L89.7294 27.6538C89.7701 27.676 89.8033 27.6723 89.8255 27.6391Z" fill="#455A64"/>
<path d="M89.2646 25.7178V27.159L89.6044 27.3511C89.611 27.355 89.6186 27.357 89.6262 27.3571C89.6339 27.3571 89.6414 27.3552 89.6481 27.3515C89.6548 27.3478 89.6604 27.3424 89.6644 27.3358C89.6684 27.3293 89.6707 27.3218 89.6709 27.3142V26.2462C89.6739 26.1783 89.663 26.1105 89.6389 26.0469C89.6147 25.9834 89.5779 25.9255 89.5305 25.8767L89.2646 25.7178Z" fill="#455A64"/>
<path d="M89.1016 25.633L88.6952 25.3965V26.834L89.1016 27.0668V25.633Z" fill="#455A64"/>
<path d="M88.5405 25.3078L88.1342 25.0713V26.5162L88.5405 26.749V25.3078Z" fill="#455A64"/>
<path d="M87.5688 24.86V25.8947C87.5691 25.9891 87.5941 26.0818 87.6414 26.1635C87.6887 26.2452 87.7567 26.3131 87.8384 26.3603L87.9751 26.4379V24.9856L87.6537 24.7972C87.6442 24.7903 87.6327 24.7866 87.6209 24.7866C87.6092 24.7867 87.5977 24.7905 87.5883 24.7975C87.5788 24.8045 87.5718 24.8143 87.5683 24.8256C87.5648 24.8368 87.565 24.8489 87.5688 24.86Z" fill="#455A64"/>
<path d="M87.1773 24.7087C87.1182 24.6754 87.0701 24.8491 87.0701 25.0782V25.3036C87.053 25.4865 87.0903 25.6703 87.1773 25.8321L87.2881 25.906V24.7752L87.1773 24.7087Z" fill="#455A64"/>
<path d="M93.2612 28.3855L91.1594 26.5156L91.8095 29.2539L92.1161 28.1157L93.2612 28.3855Z" fill="#455A64"/>
<path d="M109.755 44.3203C109.718 44.2982 109.692 44.2982 109.673 44.3203C109.648 44.3516 109.63 44.3882 109.622 44.4275L108.772 47.3173C108.77 47.3295 108.77 47.342 108.772 47.3542C108.774 47.3953 108.784 47.4356 108.802 47.4725C108.816 47.5053 108.839 47.5335 108.868 47.5538L109.116 47.6979C109.165 47.725 109.198 47.725 109.215 47.6979C109.232 47.6783 109.244 47.6557 109.252 47.6314L109.4 47.1214L110.508 47.757L110.66 48.437C110.668 48.4751 110.68 48.5123 110.697 48.5478C110.718 48.5912 110.753 48.6263 110.796 48.6476L111.044 48.7917C111.053 48.7995 111.065 48.8038 111.077 48.8038C111.089 48.8038 111.101 48.7995 111.11 48.7917C111.131 48.7684 111.142 48.7378 111.14 48.7067C111.14 48.7067 111.14 48.6772 111.14 48.6661L110.268 44.8155C110.259 44.7595 110.243 44.7048 110.22 44.6529C110.204 44.6132 110.175 44.5797 110.139 44.5568L109.755 44.3203ZM109.563 46.556L109.932 45.2553L110.301 46.9995L109.563 46.556Z" fill="#455A64"/>
<path d="M107.944 46.8733C107.945 46.9144 107.956 46.9548 107.974 46.9916C107.987 47.025 108.01 47.0535 108.04 47.0729L108.303 47.2244C108.312 47.2322 108.324 47.2365 108.336 47.2365C108.348 47.2365 108.36 47.2322 108.369 47.2244C108.39 47.201 108.4 47.1705 108.399 47.1394V43.6288C108.398 43.5877 108.388 43.5473 108.369 43.5105C108.355 43.4777 108.332 43.4495 108.303 43.4292L108.04 43.2777C108.031 43.2699 108.019 43.2656 108.007 43.2656C107.995 43.2656 107.983 43.2699 107.974 43.2777C107.953 43.3011 107.943 43.3316 107.944 43.3627V46.8733Z" fill="#455A64"/>
<path d="M107.468 45.3509C107.469 45.1499 107.449 44.9493 107.409 44.7522C107.372 44.5607 107.315 44.3736 107.239 44.1943C107.169 44.0294 107.079 43.8742 106.969 43.7323C106.87 43.6028 106.744 43.4958 106.6 43.4182C106.497 43.3554 106.377 43.3269 106.256 43.3369C106.152 43.3492 106.056 43.3992 105.987 43.4774C105.903 43.5725 105.843 43.6866 105.813 43.8099C105.771 43.969 105.751 44.1332 105.754 44.2977V44.5379C105.754 44.5787 105.763 44.6191 105.78 44.6562C105.794 44.689 105.817 44.7172 105.846 44.7375L107.006 45.4063C107.009 45.4732 106.998 45.5399 106.973 45.6022C106.956 45.6466 106.925 45.6843 106.884 45.7093C106.847 45.7317 106.802 45.7396 106.759 45.7315C106.705 45.7244 106.654 45.7068 106.607 45.6798C106.541 45.6418 106.48 45.5945 106.426 45.5394C106.383 45.4913 106.345 45.4393 106.312 45.3842C106.293 45.3505 106.272 45.3184 106.249 45.2881C106.231 45.2663 106.208 45.2487 106.183 45.2363L105.906 45.0737C105.896 45.0665 105.884 45.0627 105.872 45.0627C105.86 45.0627 105.849 45.0665 105.839 45.0737C105.828 45.0857 105.821 45.0998 105.816 45.1152C105.812 45.1305 105.811 45.1467 105.813 45.1624C105.819 45.2386 105.836 45.3134 105.865 45.3842C105.905 45.4949 105.955 45.6014 106.016 45.702C106.088 45.8215 106.171 45.9341 106.264 46.0382C106.363 46.1484 106.479 46.242 106.607 46.3154C106.716 46.3898 106.846 46.425 106.977 46.4152C107.029 46.4122 107.08 46.3982 107.127 46.374C107.173 46.3498 107.214 46.3159 107.246 46.2747C107.332 46.167 107.39 46.0403 107.416 45.9052C107.457 45.7233 107.474 45.5371 107.468 45.3509ZM106.626 44.076C106.691 44.1149 106.749 44.1635 106.799 44.2201C106.844 44.2793 106.884 44.3423 106.918 44.4086C106.95 44.4731 106.975 44.5414 106.992 44.6118C107.009 44.6735 107.02 44.7366 107.025 44.8003L106.242 44.3458C106.245 44.2945 106.254 44.2437 106.268 44.1943C106.277 44.1476 106.299 44.1042 106.33 44.0686C106.361 44.0377 106.402 44.0192 106.445 44.0169C106.509 44.0204 106.572 44.0408 106.626 44.076Z" fill="#455A64"/>
<path d="M104.886 42.5715C104.912 42.5569 104.936 42.5382 104.956 42.5161C104.971 42.5002 104.982 42.4815 104.989 42.4612C104.996 42.4408 104.999 42.4193 104.997 42.3979V41.9433C104.997 41.9113 104.989 41.8797 104.975 41.8509C104.964 41.8256 104.946 41.8038 104.923 41.7881C104.92 41.7862 104.916 41.7852 104.912 41.7852C104.908 41.7852 104.904 41.7862 104.901 41.7881L103.682 42.3461C103.655 42.3594 103.63 42.3768 103.608 42.3979C103.586 42.4333 103.577 42.4749 103.582 42.5161V42.7378C103.581 42.7884 103.589 42.8387 103.608 42.8856C103.626 42.9263 103.652 42.9706 103.682 43.0224L104.901 44.9846C104.906 44.9957 104.914 45.0057 104.923 45.0142C104.945 45.0142 104.96 45.0142 104.975 45.0142C104.983 45.0054 104.99 44.9949 104.993 44.9834C104.997 44.9719 104.998 44.9597 104.997 44.9477V44.4931C104.996 44.4365 104.982 44.3809 104.956 44.3305C104.93 44.2788 104.908 44.2308 104.886 44.1938L104.099 42.9263L104.886 42.5715Z" fill="#455A64"/>
<path d="M129.351 56.2709L128.564 56.6405C128.538 56.6548 128.513 56.6722 128.49 56.6922C128.463 56.7252 128.45 56.7677 128.453 56.8105V57.265C128.453 57.2971 128.461 57.3288 128.475 57.3574C128.484 57.3841 128.503 57.4066 128.527 57.4202H128.549L129.765 56.8585C129.794 56.8499 129.82 56.8317 129.839 56.8068C129.86 56.7727 129.869 56.7322 129.864 56.6922V56.4668C129.866 56.4175 129.857 56.3683 129.839 56.3227C129.82 56.2742 129.795 56.2283 129.765 56.186L128.549 54.22C128.544 54.2099 128.536 54.2011 128.527 54.1942C128.52 54.1874 128.511 54.1836 128.501 54.1836C128.492 54.1836 128.482 54.1874 128.475 54.1942C128.467 54.2037 128.461 54.2149 128.457 54.227C128.453 54.239 128.452 54.2518 128.453 54.2644V54.7189C128.454 54.774 128.466 54.8282 128.49 54.8778C128.516 54.9332 128.542 54.9776 128.564 55.0182L129.351 56.2709Z" fill="#1F7BAC"/>
<path d="M127.312 55.1359C127.267 54.527 127.081 53.9371 126.768 53.413C126.455 52.8889 126.024 52.4451 125.509 52.1168L124.032 51.241C123.038 50.6534 122.233 51.071 122.233 52.1685C122.275 52.7805 122.46 53.374 122.774 53.9011C123.088 54.4281 123.521 54.8739 124.039 55.2024L125.517 56.0523C126.514 56.6399 127.312 56.2186 127.312 55.1359Z" fill="#1F7BAC"/>
<path d="M133.799 141.826V149.087C133.799 150.037 133.13 150.421 132.321 149.948L85.3379 122.806C84.5142 122.333 83.8604 121.73 83.8604 120.781V112.969L133.799 141.826Z" fill="#1F7BAC"/>
<path opacity="0.65" d="M133.799 141.826V149.087C133.799 150.037 133.13 150.421 132.321 149.948L85.3379 122.806C84.5142 122.333 83.8604 121.73 83.8604 120.781V112.969L133.799 141.826Z" fill="#F9F9F9"/>
<path d="M127.312 141.966C127.529 142.139 127.704 142.359 127.822 142.61C127.941 142.862 128 143.137 127.995 143.414C127.995 143.995 127.689 144.29 127.312 144.072C127.095 143.899 126.92 143.679 126.801 143.428C126.683 143.176 126.624 142.901 126.629 142.624C126.643 142.043 126.943 141.751 127.312 141.966Z" fill="#F9F9F9"/>
<path d="M125.861 140.192L126.381 140.492V140.222C126.381 140.048 126.47 139.96 126.585 140.026L128.051 140.894C128.117 140.945 128.17 141.011 128.205 141.086C128.241 141.161 128.259 141.244 128.258 141.327V141.6L128.779 141.9C128.914 142.006 129.022 142.143 129.095 142.299C129.168 142.455 129.204 142.625 129.2 142.798V145.455C129.2 145.824 129.011 145.998 128.779 145.861L125.846 144.169C125.71 144.062 125.601 143.926 125.527 143.77C125.453 143.614 125.417 143.443 125.421 143.271V140.599C125.436 140.24 125.624 140.056 125.861 140.192ZM127.312 144.59C127.874 144.919 128.335 144.475 128.335 143.607C128.335 142.738 127.874 141.759 127.312 141.441C126.751 141.124 126.289 141.556 126.289 142.424C126.289 143.293 126.762 144.268 127.312 144.59Z" fill="#F9F9F9"/>
<path d="M120.538 136.371C121.129 136.756 121.621 137.274 121.974 137.885C122.327 138.496 122.531 139.181 122.569 139.886C122.569 141.183 121.661 141.707 120.538 141.061C119.948 140.674 119.457 140.155 119.105 139.544C118.752 138.932 118.548 138.247 118.51 137.543C118.51 136.249 119.418 135.721 120.538 136.371ZM119.429 138.481L120.294 138.969V140.022C120.301 140.085 120.332 140.143 120.379 140.185C120.426 140.227 120.487 140.25 120.551 140.25C120.614 140.25 120.675 140.227 120.722 140.185C120.769 140.143 120.8 140.085 120.807 140.022V139.265L121.398 139.605C121.435 139.63 121.479 139.643 121.524 139.642C121.569 139.641 121.613 139.629 121.652 139.606C121.691 139.584 121.723 139.551 121.746 139.512C121.779 139.454 121.788 139.385 121.771 139.32C121.754 139.255 121.711 139.199 121.653 139.165L120.807 138.673V137.532C120.8 137.469 120.769 137.411 120.722 137.369C120.675 137.327 120.614 137.304 120.551 137.304C120.487 137.304 120.426 137.327 120.379 137.369C120.332 137.411 120.301 137.469 120.294 137.532V138.382L119.703 138.038C119.644 138.004 119.574 137.995 119.509 138.013C119.443 138.03 119.388 138.073 119.354 138.132C119.32 138.191 119.311 138.261 119.329 138.326C119.346 138.392 119.389 138.448 119.448 138.481H119.429Z" fill="#F9F9F9"/>
<path d="M113.644 132.764L88.4147 118.194C87.4173 117.617 86.6084 118.027 86.6084 119.11C86.6535 119.717 86.8404 120.306 87.1541 120.827C87.4679 121.349 87.8996 121.79 88.4147 122.114L113.644 136.689C114.642 137.269 115.451 136.859 115.451 135.776C115.408 135.167 115.222 134.577 114.908 134.054C114.594 133.531 114.161 133.089 113.644 132.764Z" fill="#B0B0B0"/>
<path d="M88.3004 118.722C87.6465 118.353 87.1183 118.652 87.1183 119.406C87.1403 119.816 87.2588 120.216 87.4642 120.571C87.6696 120.927 87.9561 121.229 88.3004 121.453C88.9542 121.823 89.4824 121.523 89.4824 120.77C89.4604 120.359 89.3419 119.96 89.1365 119.604C88.9311 119.249 88.6446 118.946 88.3004 118.722Z" fill="#1F7BAC"/>
<path d="M87.6316 119.642L88.1894 119.092C88.2036 119.08 88.2199 119.071 88.2374 119.066H88.2595H88.3297C88.3454 119.07 88.3603 119.076 88.3741 119.084C88.3881 119.095 88.3995 119.109 88.4073 119.125L88.9651 120.304C88.9771 120.328 88.9826 120.355 88.9812 120.382C88.9798 120.409 88.9715 120.436 88.9571 120.459C88.9426 120.482 88.9225 120.501 88.8987 120.514C88.8749 120.527 88.8482 120.533 88.821 120.533C88.7906 120.533 88.7607 120.525 88.7351 120.508C88.7095 120.492 88.6893 120.468 88.677 120.441L88.4258 119.908V120.999C88.4248 121.041 88.4073 121.081 88.3769 121.111C88.3465 121.141 88.3057 121.157 88.2632 121.157C88.2211 121.157 88.1807 121.141 88.1509 121.111C88.1211 121.081 88.1044 121.041 88.1044 120.999V119.572L87.8163 119.846C87.7844 119.868 87.7456 119.878 87.707 119.874C87.6683 119.87 87.6323 119.853 87.6055 119.825C87.5786 119.796 87.5628 119.76 87.5608 119.721C87.5588 119.682 87.5708 119.644 87.5946 119.613L87.6316 119.642Z" fill="#B0B0B0"/>
<path d="M94.3512 49.0281C94.3512 47.2396 95.6072 46.5116 97.1586 47.4059L121.771 61.6256C122.589 62.1574 123.269 62.8747 123.757 63.7191C124.244 64.5635 124.526 65.5111 124.579 66.4849V72.6414C124.579 72.7116 124.579 72.7781 124.579 72.8483C124.579 74.6627 124.793 77.4601 126.426 78.2103C126.426 78.2103 125.351 78.5281 124.191 77.3123C123.541 76.5463 123.095 75.6286 122.894 74.6443C122.503 74.603 122.124 74.4769 121.786 74.2747L97.1586 60.055C96.3415 59.5232 95.6613 58.8059 95.1735 57.9615C94.6857 57.1171 94.404 56.1695 94.3512 55.1957V49.0281Z" fill="#E0E0E0"/>
<path d="M103.253 56.2488C103.14 56.1805 103.015 56.1352 102.884 56.1158C102.775 56.0989 102.663 56.1183 102.566 56.1712C102.463 56.2302 102.384 56.3229 102.341 56.4336C102.279 56.5885 102.25 56.7546 102.256 56.9214C102.255 57.0756 102.273 57.2294 102.308 57.3796C102.338 57.5175 102.382 57.6523 102.437 57.7824C102.486 57.9089 102.543 58.0324 102.607 58.152C102.67 58.2702 102.729 58.3811 102.781 58.4845C102.832 58.588 102.884 58.6915 102.928 58.7949C102.968 58.8892 102.992 58.9889 103.002 59.0906C103.007 59.1391 103.019 59.1866 103.039 59.231C103.052 59.2685 103.077 59.3009 103.109 59.3234L103.416 59.5008C103.428 59.5097 103.442 59.5146 103.457 59.5146C103.471 59.5146 103.485 59.5097 103.497 59.5008C103.509 59.4872 103.518 59.4713 103.523 59.4541C103.528 59.4369 103.529 59.4188 103.527 59.401C103.52 59.2451 103.498 59.0904 103.46 58.9391C103.421 58.8 103.374 58.663 103.32 58.5289C103.263 58.3983 103.204 58.2751 103.143 58.1593C103.076 58.0448 103.021 57.9339 102.965 57.8305C102.91 57.727 102.869 57.6272 102.832 57.5348C102.8 57.4498 102.782 57.3598 102.781 57.2688C102.764 57.2085 102.768 57.1445 102.792 57.0867C102.815 57.0289 102.858 56.9807 102.912 56.9498C102.966 56.9188 103.029 56.9069 103.091 56.9158C103.153 56.9247 103.21 56.954 103.253 56.999C103.522 57.1961 103.702 57.4906 103.756 57.8194C103.767 57.8621 103.78 57.9041 103.796 57.945C103.814 57.9777 103.841 58.0047 103.874 58.0226L104.199 58.2111C104.208 58.2174 104.219 58.2208 104.23 58.2208C104.242 58.2208 104.253 58.2174 104.262 58.2111C104.272 58.1996 104.279 58.186 104.284 58.1714C104.288 58.1567 104.29 58.1413 104.288 58.1261C104.28 57.9578 104.25 57.7913 104.199 57.6309C104.145 57.4446 104.071 57.2648 103.977 57.0951C103.887 56.9201 103.778 56.7554 103.652 56.6036C103.542 56.4624 103.407 56.3422 103.253 56.2488ZM103.091 59.6781C103.08 59.6694 103.066 59.6647 103.052 59.6647C103.038 59.6647 103.024 59.6694 103.013 59.6781C103.001 59.6914 102.991 59.7071 102.986 59.7244C102.98 59.7416 102.978 59.7599 102.98 59.7779V60.3359C102.98 60.3835 102.991 60.4303 103.013 60.4726C103.029 60.5117 103.056 60.5452 103.091 60.5687L103.438 60.7683C103.448 60.7773 103.461 60.7824 103.475 60.7824C103.489 60.7824 103.502 60.7773 103.512 60.7683C103.524 60.7546 103.533 60.7388 103.539 60.7217C103.544 60.7046 103.546 60.6865 103.545 60.6685V60.1216C103.545 60.0741 103.533 60.0273 103.512 59.9848C103.499 59.9464 103.473 59.9137 103.438 59.8925L103.091 59.6781Z" fill="#455A64"/>
<path d="M100.653 54.7443C100.539 54.6776 100.414 54.6337 100.283 54.6149C100.174 54.5943 100.061 54.614 99.9657 54.6704C99.8637 54.7289 99.7844 54.82 99.7404 54.929C99.6789 55.0841 99.65 55.2501 99.6554 55.4168C99.6547 55.5723 99.6721 55.7273 99.7071 55.8787C99.7379 56.0166 99.7812 56.1515 99.8364 56.2815C99.8855 56.4081 99.9422 56.5315 100.006 56.6511C100.069 56.7693 100.128 56.8802 100.18 56.9836C100.232 57.0871 100.283 57.1906 100.328 57.2941C100.367 57.3882 100.392 57.4879 100.402 57.5897C100.406 57.6381 100.419 57.6855 100.439 57.7301C100.451 57.7676 100.476 57.8 100.509 57.8225L100.815 57.9962C100.826 58.0063 100.84 58.012 100.854 58.012C100.869 58.012 100.883 58.0063 100.893 57.9962C100.919 57.9777 100.926 57.9444 100.926 57.8964C100.92 57.7405 100.898 57.5858 100.86 57.4345C100.821 57.2898 100.773 57.1478 100.716 57.0095C100.664 56.8833 100.606 56.7599 100.542 56.64C100.475 56.5254 100.42 56.4183 100.365 56.3148C100.315 56.2188 100.27 56.1202 100.232 56.0192C100.199 55.9329 100.181 55.8416 100.18 55.7494C100.166 55.6902 100.171 55.628 100.196 55.5723C100.22 55.5165 100.262 55.4701 100.315 55.4401C100.368 55.4101 100.429 55.3981 100.489 55.4059C100.549 55.4137 100.606 55.4408 100.649 55.4833C100.783 55.5793 100.897 55.7009 100.984 55.841C101.071 55.9812 101.129 56.1372 101.155 56.3C101.164 56.3445 101.177 56.3879 101.196 56.4293C101.213 56.4611 101.239 56.4879 101.27 56.5069L101.598 56.6954C101.608 56.7018 101.619 56.7052 101.63 56.7052C101.641 56.7052 101.652 56.7018 101.661 56.6954C101.671 56.6842 101.678 56.6713 101.682 56.6573C101.687 56.6434 101.688 56.6287 101.687 56.6141C101.68 56.4458 101.65 56.2793 101.598 56.1189C101.543 55.9319 101.469 55.7511 101.377 55.5794C101.285 55.4062 101.176 55.2427 101.052 55.0916C100.94 54.9536 100.805 54.8361 100.653 54.7443ZM100.494 58.1772C100.483 58.1686 100.469 58.1638 100.455 58.1638C100.441 58.1638 100.427 58.1686 100.416 58.1772C100.404 58.1905 100.395 58.2063 100.389 58.2235C100.383 58.2407 100.381 58.259 100.383 58.277V58.8202C100.383 58.8678 100.395 58.9147 100.416 58.957C100.432 58.996 100.459 59.0295 100.494 59.053L100.841 59.2526C100.851 59.2617 100.864 59.2667 100.878 59.2667C100.892 59.2667 100.905 59.2617 100.915 59.2526C100.927 59.2399 100.936 59.2248 100.942 59.2082C100.948 59.1916 100.95 59.174 100.948 59.1565V58.6096C100.948 58.562 100.937 58.5152 100.915 58.4729C100.902 58.4334 100.876 58.3996 100.841 58.3768L100.494 58.1772Z" fill="#455A64"/>
<path d="M98.0298 53.2295C97.9155 53.1635 97.7904 53.1185 97.6604 53.0965C97.5513 53.0801 97.4398 53.0995 97.3427 53.1519C97.2434 53.2143 97.1659 53.3059 97.121 53.4143C97.0572 53.5686 97.0282 53.7352 97.0361 53.9021C97.0336 54.0576 97.051 54.2128 97.0878 54.364C97.1191 54.5013 97.1611 54.636 97.2134 54.7668C97.2688 54.8961 97.3242 55.0181 97.387 55.1363L97.5606 55.4689C97.6147 55.5695 97.6628 55.6731 97.7047 55.7793C97.7455 55.8733 97.7717 55.973 97.7823 56.0749C97.7852 56.1237 97.7977 56.1715 97.8192 56.2154C97.8312 56.2524 97.8561 56.2838 97.8894 56.304L98.196 56.4814C98.2063 56.4916 98.2203 56.4973 98.2348 56.4973C98.2493 56.4973 98.2632 56.4916 98.2736 56.4814C98.286 56.4682 98.2954 56.4524 98.3011 56.4352C98.3069 56.418 98.3088 56.3997 98.3068 56.3816C98.3008 56.2258 98.2785 56.071 98.2403 55.9197C98.2018 55.7786 98.1537 55.6403 98.0963 55.5058C98.0421 55.3802 97.983 55.257 97.9189 55.1363C97.8561 55.0218 97.797 54.9146 97.7453 54.8111C97.6938 54.716 97.6494 54.6172 97.6123 54.5155C97.5778 54.4298 97.5602 54.3382 97.5606 54.2457C97.5431 54.1858 97.5464 54.1217 97.5699 54.0639C97.5933 54.006 97.6356 53.9578 97.6899 53.927C97.7442 53.8962 97.8073 53.8846 97.869 53.8942C97.9307 53.9038 97.9873 53.9339 98.0298 53.9797C98.1634 54.0752 98.2769 54.1962 98.3638 54.3357C98.4506 54.4752 98.5091 54.6305 98.5358 54.7926C98.5444 54.8372 98.5581 54.8806 98.5765 54.922C98.594 54.9538 98.6194 54.9805 98.6503 54.9996L98.9791 55.1881C98.9883 55.1944 98.9993 55.1978 99.0105 55.1978C99.0217 55.1978 99.0327 55.1944 99.0419 55.1881C99.0517 55.1763 99.059 55.1628 99.0634 55.1482C99.0678 55.1336 99.0693 55.1182 99.0678 55.1031C99.0603 54.936 99.0304 54.7707 98.9791 54.6116C98.9225 54.4251 98.8483 54.2445 98.7575 54.0721C98.666 53.8988 98.5571 53.7354 98.4324 53.5843C98.32 53.4433 98.1837 53.3232 98.0298 53.2295ZM97.8709 56.6625C97.8606 56.6523 97.8466 56.6466 97.8321 56.6466C97.8176 56.6466 97.8037 56.6523 97.7933 56.6625C97.7812 56.6752 97.772 56.6903 97.7662 56.7069C97.7605 56.7235 97.7584 56.7411 97.7601 56.7586V57.3055C97.7602 57.3531 97.7716 57.3999 97.7933 57.4422C97.809 57.4813 97.836 57.5147 97.8709 57.5383L98.2182 57.7378C98.2283 57.7469 98.2415 57.752 98.2551 57.752C98.2687 57.752 98.2819 57.7469 98.292 57.7378C98.3044 57.7246 98.3139 57.7088 98.3196 57.6916C98.3253 57.6744 98.3273 57.6561 98.3253 57.6381V57.0948C98.3252 57.0473 98.3138 57.0004 98.292 56.9581C98.2775 56.9194 98.2518 56.886 98.2182 56.862L97.8709 56.6625Z" fill="#455A64"/>
<path d="M121.125 65.3464C121.207 65.3469 121.287 65.3203 121.352 65.2707C121.417 65.2211 121.463 65.1513 121.485 65.0723C121.506 64.9932 121.5 64.9094 121.468 64.834C121.437 64.7585 121.381 64.6957 121.31 64.6553L97.5503 50.9345C97.5084 50.9099 97.462 50.8938 97.4138 50.8872C97.3657 50.8806 97.3167 50.8836 97.2697 50.8959C97.2227 50.9083 97.1786 50.9298 97.1399 50.9593C97.1012 50.9887 97.0687 51.0255 97.0443 51.0675C97.0198 51.1097 97.004 51.1563 96.9976 51.2046C96.9913 51.253 96.9946 51.3021 97.0073 51.3491C97.02 51.3962 97.0419 51.4403 97.0717 51.4788C97.1015 51.5174 97.1386 51.5496 97.1809 51.5738L120.94 65.2983C120.997 65.3302 121.06 65.3468 121.125 65.3464Z" fill="#B0B0B0"/>
<path d="M121.125 68.0549C121.207 68.0555 121.287 68.0289 121.352 67.9793C121.417 67.9297 121.463 67.8599 121.485 67.7809C121.506 67.7018 121.5 67.618 121.468 67.5425C121.437 67.4671 121.381 67.4042 121.31 67.3639L106.305 58.7168C106.22 58.6678 106.119 58.6547 106.024 58.6803C105.929 58.7059 105.848 58.7683 105.799 58.8535C105.75 58.9388 105.737 59.04 105.762 59.135C105.788 59.2299 105.85 59.3108 105.936 59.3598L120.94 68.0069C120.997 68.0388 121.06 68.0554 121.125 68.0549Z" fill="#B0B0B0"/>
<path d="M121.125 70.7825C121.19 70.7827 121.254 70.7658 121.31 70.7333C121.367 70.7009 121.413 70.6541 121.446 70.5977C121.494 70.5129 121.507 70.4124 121.481 70.3182C121.456 70.2241 121.394 70.1439 121.309 70.0951L106.304 61.4443C106.219 61.3953 106.118 61.3822 106.023 61.4078C105.928 61.4335 105.847 61.4958 105.798 61.5811C105.749 61.6663 105.736 61.7676 105.762 61.8625C105.788 61.9575 105.85 62.0383 105.935 62.0873L120.94 70.7344C120.996 70.7664 121.06 70.7829 121.125 70.7825Z" fill="#B0B0B0"/>
<path d="M128.627 79.74C129.454 80.2203 130.126 79.7104 130.126 78.6055C130.126 77.5006 129.454 76.2146 128.627 75.7379C127.799 75.2612 127.127 75.7675 127.127 76.8724C127.127 77.9773 127.799 79.2633 128.627 79.74Z" fill="#455A64"/>
<path d="M128.102 77.4888L129.159 78.0911C129.238 78.1472 129.304 78.2198 129.353 78.3041C129.401 78.3883 129.431 78.4821 129.439 78.5789L129.513 79.2256C129.247 79.8723 128.036 79.0815 127.777 78.117L127.829 77.6366C127.844 77.474 127.962 77.4075 128.102 77.4888Z" fill="#B0B0B0"/>
<path d="M128.128 76.5947C128.131 76.7815 128.178 76.9651 128.264 77.1306C128.351 77.2962 128.475 77.4392 128.627 77.5481C128.904 77.707 129.125 77.5481 129.125 77.1786C129.123 76.9917 129.076 76.8081 128.99 76.6425C128.903 76.4769 128.779 76.334 128.627 76.2252C128.353 76.0589 128.128 76.2252 128.128 76.5947Z" fill="#B0B0B0"/>
<path d="M106.556 95.9775C106.556 94.1889 107.812 93.4609 109.363 94.3589L121.771 101.521C122.589 102.052 123.269 102.77 123.757 103.614C124.244 104.458 124.526 105.406 124.579 106.38V107.599C124.579 107.67 124.579 107.736 124.579 107.806C124.579 109.621 124.793 112.418 126.426 113.168C126.426 113.168 125.351 113.486 124.191 112.27C123.541 111.504 123.095 110.587 122.894 109.602C122.503 109.561 122.124 109.435 121.786 109.233L109.363 102.067C108.546 101.536 107.866 100.818 107.378 99.9739C106.89 99.1295 106.609 98.1819 106.556 97.208V95.9775Z" fill="#E0E0E0"/>
<path d="M128.627 116.135C129.454 116.616 130.126 116.106 130.126 115.001C130.126 113.896 129.454 112.61 128.627 112.133C127.799 111.657 127.127 112.163 127.127 113.268C127.127 114.373 127.799 115.662 128.627 116.135Z" fill="#455A64"/>
<path d="M128.102 113.888L129.159 114.491C129.238 114.547 129.304 114.619 129.353 114.703C129.401 114.788 129.431 114.882 129.439 114.978L129.513 115.625C129.247 116.272 128.036 115.481 127.777 114.516L127.829 114.036C127.844 113.873 127.962 113.807 128.102 113.888Z" fill="#B0B0B0"/>
<path d="M128.128 112.994C128.131 113.181 128.178 113.364 128.264 113.53C128.351 113.696 128.475 113.838 128.627 113.947C128.904 114.106 129.125 113.947 129.125 113.578C129.123 113.391 129.076 113.207 128.99 113.042C128.903 112.876 128.779 112.733 128.627 112.625C128.353 112.458 128.128 112.628 128.128 112.994Z" fill="#B0B0B0"/>
<path d="M121.383 104.351C121.465 104.352 121.544 104.325 121.609 104.275C121.674 104.226 121.721 104.156 121.742 104.077C121.763 103.998 121.758 103.914 121.726 103.839C121.695 103.763 121.639 103.7 121.568 103.66L109.688 96.8199C109.646 96.7931 109.599 96.7752 109.55 96.7671C109.5 96.759 109.45 96.761 109.402 96.7728C109.353 96.7847 109.308 96.8062 109.268 96.8361C109.228 96.866 109.195 96.9037 109.17 96.9468C109.145 96.99 109.129 97.0377 109.123 97.0872C109.117 97.1367 109.121 97.1868 109.135 97.2347C109.149 97.2826 109.172 97.3271 109.204 97.3657C109.235 97.4043 109.274 97.4361 109.318 97.4592L121.198 104.31C121.255 104.34 121.319 104.354 121.383 104.351Z" fill="#B0B0B0"/>
<path d="M121.383 106.708C121.465 106.709 121.544 106.682 121.609 106.633C121.674 106.583 121.721 106.513 121.742 106.434C121.763 106.355 121.758 106.271 121.726 106.196C121.695 106.12 121.639 106.058 121.568 106.017L109.688 99.1772C109.646 99.1528 109.599 99.1369 109.551 99.1306C109.503 99.1242 109.453 99.1275 109.406 99.1402C109.359 99.1529 109.315 99.1748 109.277 99.2046C109.238 99.2345 109.206 99.2716 109.182 99.3139C109.134 99.3988 109.121 99.4993 109.147 99.5934C109.172 99.6876 109.234 99.7678 109.318 99.8165L121.198 106.657C121.254 106.691 121.318 106.709 121.383 106.708Z" fill="#B0B0B0"/>
<path d="M94.3512 103.53C94.3512 101.738 95.6072 101.014 97.1586 101.908L121.771 116.135C122.589 116.667 123.269 117.384 123.757 118.229C124.244 119.073 124.526 120.021 124.579 120.994V126.671C124.579 126.744 124.579 126.811 124.579 126.877C124.579 128.692 124.793 131.489 126.426 132.239C126.426 132.239 125.351 132.557 124.191 131.341C123.54 130.576 123.094 129.658 122.894 128.673C122.502 128.634 122.124 128.508 121.786 128.304L97.1586 114.084C96.3415 113.552 95.6613 112.835 95.1735 111.991C94.6857 111.146 94.404 110.199 94.3512 109.225V103.53Z" fill="#E0E0E0"/>
<path d="M128.627 135.207C129.454 135.684 130.126 135.174 130.126 134.073C130.126 132.971 129.454 131.682 128.627 131.201C127.799 130.721 127.127 131.235 127.127 132.339C127.127 133.444 127.799 134.727 128.627 135.207Z" fill="#455A64"/>
<path d="M128.102 132.953L129.159 133.559C129.238 133.615 129.304 133.687 129.353 133.772C129.401 133.856 129.431 133.95 129.439 134.046L129.513 134.689C129.247 135.336 128.036 134.549 127.777 133.581L127.829 133.104C127.844 132.938 127.962 132.871 128.102 132.953Z" fill="#B0B0B0"/>
<path d="M128.128 132.062C128.132 132.249 128.179 132.431 128.265 132.596C128.352 132.761 128.476 132.904 128.627 133.012C128.904 133.171 129.125 133.012 129.125 132.643C129.123 132.456 129.076 132.273 128.99 132.108C128.903 131.943 128.779 131.801 128.627 131.693C128.353 131.527 128.128 131.693 128.128 132.062Z" fill="#B0B0B0"/>
<path d="M121.125 119.591C121.207 119.591 121.287 119.565 121.352 119.515C121.417 119.465 121.463 119.396 121.485 119.316C121.506 119.237 121.5 119.154 121.468 119.078C121.437 119.003 121.381 118.94 121.31 118.9L97.2991 105.035C97.2572 105.01 97.2108 104.994 97.1627 104.987C97.1145 104.981 97.0655 104.984 97.0185 104.996C96.9715 105.008 96.9274 105.03 96.8887 105.059C96.85 105.089 96.8175 105.126 96.7931 105.168C96.7687 105.21 96.7528 105.256 96.7465 105.305C96.7401 105.353 96.7434 105.402 96.7561 105.449C96.7688 105.496 96.7907 105.54 96.8205 105.579C96.8503 105.617 96.8874 105.65 96.9298 105.674L120.94 119.539C120.996 119.572 121.06 119.59 121.125 119.591Z" fill="#B0B0B0"/>
<path d="M121.125 122.299C121.207 122.299 121.287 122.273 121.352 122.223C121.417 122.173 121.463 122.104 121.485 122.025C121.506 121.946 121.5 121.862 121.468 121.786C121.437 121.711 121.381 121.648 121.31 121.608L97.2991 107.769C97.2571 107.742 97.2101 107.724 97.1609 107.716C97.1118 107.708 97.0615 107.71 97.0131 107.722C96.9647 107.733 96.9192 107.755 96.8793 107.785C96.8395 107.815 96.8061 107.852 96.7812 107.896C96.7562 107.939 96.7403 107.986 96.7343 108.036C96.7283 108.085 96.7323 108.136 96.7462 108.183C96.7601 108.231 96.7835 108.276 96.815 108.314C96.8466 108.353 96.8856 108.385 96.9297 108.408L120.94 122.247C120.996 122.28 121.06 122.298 121.125 122.299Z" fill="#B0B0B0"/>
<path d="M121.125 125.026C121.207 125.027 121.287 125 121.352 124.951C121.417 124.901 121.463 124.831 121.485 124.752C121.506 124.673 121.5 124.589 121.468 124.514C121.437 124.438 121.381 124.376 121.31 124.335L97.2991 110.496C97.2571 110.469 97.2101 110.451 97.1609 110.443C97.1118 110.435 97.0615 110.437 97.0131 110.449C96.9647 110.461 96.9192 110.482 96.8793 110.512C96.8395 110.542 96.8061 110.58 96.7812 110.623C96.7562 110.666 96.7403 110.714 96.7343 110.763C96.7283 110.813 96.7323 110.863 96.7462 110.911C96.7601 110.959 96.7835 111.003 96.815 111.042C96.8466 111.081 96.8856 111.112 96.9297 111.135L120.94 124.975C120.996 125.008 121.06 125.026 121.125 125.026Z" fill="#B0B0B0"/>
<path d="M57.1271 134.867C57.1973 133.167 58.1762 115.892 58.1762 115.892L49.5693 122.092C50.9102 131.896 51.4753 134.893 51.5714 136.526C51.5407 136.663 51.5308 136.804 51.5418 136.944C51.6268 138.884 53.9688 139.852 55.8157 141.083C57.3932 142.169 59.0588 143.12 60.7952 143.928C62.125 144.505 64.7772 144.471 65.0728 143.662C62.8231 142.151 60.2263 140.503 58.4237 138.751C57.563 137.916 57.0532 136.911 57.1271 134.867Z" fill="#FFA8A7"/>
<path d="M67.7032 145.643C67.8066 145.643 68.0098 146.807 67.4631 147.328C66.8277 147.927 64.9364 148.943 62.3765 148.699C59.8166 148.455 58.4092 147.701 57.3565 146.87C56.3037 146.038 54.8298 144.867 53.6625 144.653C52.5839 144.449 51.4018 143.999 51.0472 143.673C50.6926 143.348 50.6778 141.852 50.6778 141.852L67.7032 145.643Z" fill="#263238"/>
<path d="M51.5491 136.05C51.4614 136.058 51.3797 136.098 51.3187 136.162C51.2577 136.226 51.2215 136.309 51.2167 136.397C51.1539 136.811 51.0837 138.019 50.9396 138.703C50.7401 139.653 50.5702 141.6 50.7549 142.361C50.9396 143.123 52.6869 143.596 53.8172 143.987C55.1532 144.525 56.399 145.264 57.5112 146.179C58.7449 147.14 61.3011 148.056 62.9634 148.026C65.4975 147.975 67.1117 147.213 67.5845 146.271C68.1682 145.1 67.9539 144.294 64.9803 143.023C63.8462 142.476 62.7426 141.868 61.6742 141.201C59.9698 140.154 58.6306 138.605 57.8399 136.767C57.7637 136.522 57.6076 136.31 57.3966 136.164C57.2155 136.092 57.016 136.081 56.8278 136.131C56.3476 136.216 54.9512 136.445 54.5154 136.678C54.0795 136.911 53.5845 137.121 53.614 137.628C53.6308 137.805 53.6744 137.978 53.7433 138.141C53.784 138.245 53.8135 138.382 53.7433 138.448C53.6731 138.515 53.5475 138.448 53.4663 138.382C53.1698 138.092 52.8957 137.781 52.6462 137.45C52.5058 137.277 52.3445 137.122 52.166 136.988C51.9897 136.896 51.8194 136.792 51.6562 136.678C51.6562 136.678 51.5676 136.29 51.5491 136.05Z" fill="#455A64"/>
<path d="M65.0692 143.02C61.4122 143.408 59.8792 145.817 60.3446 147.557C61.1904 147.849 62.0766 148.006 62.9711 148.023C65.5051 147.971 67.2228 147.21 67.6956 146.264C68.246 145.159 67.7104 143.932 65.0692 143.02Z" fill="#B0B0B0"/>
<path d="M60.0824 143.548C60.0618 143.55 60.0409 143.548 60.0212 143.541C60.0015 143.535 59.9833 143.524 59.9679 143.511C59.9486 143.496 59.9323 143.478 59.92 143.458C59.9077 143.437 59.8996 143.415 59.8962 143.391C59.8927 143.367 59.894 143.343 59.9 143.32C59.906 143.297 59.9165 143.275 59.931 143.256C60.3386 142.793 60.8415 142.424 61.4051 142.174C61.9688 141.924 62.5799 141.799 63.1964 141.807C63.2202 141.809 63.2434 141.815 63.2646 141.826C63.2859 141.837 63.3048 141.852 63.3203 141.87C63.3357 141.889 63.3474 141.91 63.3547 141.932C63.3619 141.955 63.3647 141.979 63.3626 142.003C63.3617 142.026 63.3561 142.049 63.346 142.071C63.3359 142.092 63.3216 142.111 63.304 142.126C63.2864 142.142 63.2658 142.154 63.2435 142.161C63.2212 142.168 63.1976 142.171 63.1742 142.169C62.6174 142.167 62.0663 142.282 61.5571 142.508C61.0478 142.733 60.5919 143.064 60.2191 143.477C60.2032 143.499 60.1826 143.516 60.1589 143.528C60.1352 143.541 60.109 143.547 60.0824 143.548Z" fill="#F0F0F0"/>
<path d="M58.6046 142.657C58.5634 142.658 58.5231 142.645 58.4901 142.62C58.4523 142.589 58.4277 142.545 58.4215 142.497C58.4153 142.449 58.428 142.4 58.4569 142.361C58.8637 141.897 59.3665 141.528 59.9303 141.278C60.4941 141.027 61.1056 140.903 61.7223 140.913C61.7466 140.914 61.7703 140.921 61.792 140.932C61.8138 140.943 61.8332 140.958 61.8491 140.976C61.8651 140.994 61.8773 141.016 61.885 141.039C61.8927 141.062 61.8958 141.086 61.8941 141.11C61.8924 141.135 61.8859 141.158 61.8751 141.18C61.8642 141.202 61.8492 141.221 61.8308 141.237C61.8125 141.253 61.7912 141.265 61.7681 141.273C61.7451 141.281 61.7207 141.284 61.6965 141.282C61.1398 141.279 60.5887 141.394 60.0794 141.618C59.5702 141.843 59.1141 142.173 58.7413 142.587C58.7247 142.607 58.704 142.624 58.6804 142.636C58.6569 142.648 58.6311 142.655 58.6046 142.657Z" fill="#F0F0F0"/>
<path d="M57.1271 141.512C57.0858 141.513 57.0453 141.5 57.0126 141.475C56.975 141.445 56.9505 141.402 56.9443 141.354C56.9381 141.307 56.9507 141.259 56.9793 141.22C57.3866 140.757 57.8895 140.387 58.4532 140.137C59.0169 139.887 59.6282 139.762 60.2448 139.771C60.2938 139.775 60.3394 139.798 60.3716 139.835C60.4038 139.872 60.42 139.92 60.4165 139.969C60.4131 140.018 60.3904 140.064 60.3533 140.096C60.3162 140.128 60.2679 140.144 60.2189 140.141C59.6621 140.139 59.1112 140.255 58.602 140.48C58.0928 140.705 57.6369 141.036 57.2638 141.449C57.2475 141.47 57.2267 141.486 57.2029 141.497C57.1792 141.508 57.1532 141.513 57.1271 141.512Z" fill="#F0F0F0"/>
<path d="M55.7053 140.362C55.6643 140.366 55.6234 140.354 55.5908 140.329C55.5715 140.315 55.5552 140.297 55.5429 140.276C55.5306 140.256 55.5225 140.233 55.5191 140.209C55.5156 140.185 55.5169 140.161 55.5229 140.138C55.5289 140.115 55.5394 140.093 55.5538 140.074C56.2187 139.146 57.7702 138.492 59.1222 138.596C59.1458 138.597 59.1689 138.603 59.1902 138.614C59.2114 138.624 59.2303 138.639 59.2458 138.657C59.2613 138.675 59.2731 138.695 59.2804 138.718C59.2877 138.741 59.2904 138.764 59.2884 138.788C59.2856 138.835 59.2642 138.88 59.229 138.911C59.1937 138.943 59.1474 138.96 59.1 138.958C57.8958 138.869 56.433 139.468 55.842 140.288C55.8269 140.311 55.8066 140.329 55.7828 140.342C55.759 140.355 55.7324 140.362 55.7053 140.362Z" fill="#F0F0F0"/>
<path d="M41.5498 121.213L32.4849 119.698C32.3667 125.074 32.7508 132.262 32.9281 137.203C32.9614 138.152 32.5587 144.575 32.8653 146.541C33.3345 149.497 37.2981 149.22 37.5899 147.468C37.8817 145.717 38.0184 138.267 38.0664 137.491C38.1846 134.257 39.9134 128.788 41.0918 123.012C41.1472 122.735 41.4944 121.49 41.5498 121.213Z" fill="#FFA8A7"/>
<path d="M39.0269 148.736C39.0269 150.462 38.8015 151.622 38.1773 152.672C37.553 153.721 36.2675 154.109 34.9266 153.891C33.5857 153.673 31.8384 152.978 31.3619 151.519C30.8854 150.059 30.8928 149.035 31.0886 147.424L39.0269 148.736Z" fill="#263238"/>
<path d="M32.906 136.656C32.363 136.726 32.3851 138.973 32.2226 141.305C32.0527 143.803 31.2806 144.874 31.1144 146.925C30.926 149.264 31.1329 150.295 32.1487 151.644C33.1645 152.993 36.5186 154.186 37.9962 152.08C39.1968 150.365 39.1303 148.547 38.8569 146.234C38.5758 144.281 38.4043 142.313 38.3435 140.34C38.3435 138.596 38.602 136.966 38.1144 136.8C38.1144 137.059 38.0812 137.384 38.0627 137.639C38.0443 137.831 38.0627 138.777 37.7487 138.803C37.7094 138.587 37.692 138.368 37.697 138.149C37.7073 138.048 37.6962 137.947 37.6644 137.852C37.6325 137.756 37.5807 137.668 37.5123 137.594C37.2467 137.445 36.9518 137.354 36.6479 137.328C36.1049 137.265 35.5619 137.214 35.0152 137.203C34.7419 137.203 34.4685 137.203 34.1952 137.203C33.9623 137.212 33.732 137.256 33.5118 137.332C33.4501 137.352 33.3932 137.385 33.3449 137.428C33.2965 137.471 33.2577 137.524 33.231 137.583C33.2125 137.671 33.2125 137.762 33.231 137.849C33.2391 138.01 33.2267 138.172 33.1941 138.33C33.1941 138.4 33.1313 138.489 33.05 138.474C32.9688 138.459 32.9577 138.396 32.954 138.341C32.9318 138.06 32.954 137.853 32.954 137.528C32.954 137.376 32.954 137.232 32.954 137.081C32.954 136.929 32.906 136.804 32.906 136.656Z" fill="#455A64"/>
<path d="M31.0554 148.285C31.0554 149.734 31.2142 150.713 32.0084 151.773C33.0243 153.122 36.6443 154.301 38.1182 152.198C38.857 151.153 38.99 149.955 39.0195 148.743C37.952 147.243 32.4886 146.873 31.0554 148.285Z" fill="#B0B0B0"/>
<path d="M37.4533 146.293H37.3868C35.8542 145.819 34.2226 145.766 32.6622 146.138C32.6122 146.152 32.5587 146.147 32.5118 146.125C32.4649 146.102 32.4278 146.064 32.4073 146.016C32.4014 145.992 32.4003 145.967 32.4042 145.943C32.4081 145.919 32.4168 145.896 32.43 145.875C32.4431 145.854 32.4603 145.836 32.4805 145.822C32.5008 145.809 32.5236 145.799 32.5477 145.794C34.1952 145.393 35.921 145.451 37.5382 145.96C37.5618 145.967 37.5838 145.978 37.6026 145.994C37.6214 146.01 37.6365 146.029 37.6471 146.051C37.6576 146.074 37.6632 146.098 37.6636 146.122C37.6639 146.147 37.6589 146.171 37.649 146.193C37.6291 146.227 37.6001 146.254 37.5655 146.271C37.5309 146.289 37.492 146.296 37.4533 146.293Z" fill="#F0F0F0"/>
<path d="M32.6772 144.386C32.6402 144.386 32.6041 144.376 32.5728 144.356C32.5415 144.337 32.5162 144.309 32.4998 144.276C32.4899 144.253 32.485 144.229 32.4853 144.204C32.4857 144.18 32.4913 144.156 32.5018 144.134C32.5123 144.112 32.5275 144.092 32.5463 144.076C32.5651 144.061 32.587 144.049 32.6107 144.043C35.0043 143.171 37.4867 144.128 37.5938 144.168C37.6169 144.176 37.6382 144.188 37.6561 144.205C37.674 144.221 37.6881 144.241 37.6976 144.264C37.707 144.286 37.7116 144.31 37.7109 144.335C37.7102 144.359 37.7043 144.383 37.6935 144.405C37.6667 144.449 37.6253 144.481 37.5767 144.498C37.5281 144.514 37.4753 144.512 37.4276 144.494C37.4017 144.494 34.9896 143.559 32.7621 144.372C32.7351 144.382 32.7062 144.387 32.6772 144.386Z" fill="#F0F0F0"/>
<path d="M32.7101 142.742C32.6736 142.742 32.638 142.732 32.6068 142.713C32.5756 142.694 32.55 142.667 32.5328 142.635C32.5227 142.613 32.5175 142.589 32.5173 142.565C32.5172 142.54 32.5221 142.516 32.5319 142.494C32.5416 142.471 32.5559 142.451 32.5739 142.435C32.5919 142.419 32.6131 142.406 32.6362 142.399C34.2847 141.8 36.0973 141.838 37.7191 142.506C37.7419 142.515 37.7626 142.528 37.7796 142.546C37.7966 142.564 37.8096 142.585 37.8177 142.608C37.8258 142.631 37.8287 142.656 37.8264 142.68C37.824 142.705 37.8164 142.728 37.804 142.75C37.7747 142.792 37.7311 142.823 37.681 142.837C37.6309 142.851 37.5776 142.846 37.5307 142.824C36.0185 142.212 34.3345 142.178 32.7988 142.727C32.7703 142.738 32.7403 142.743 32.7101 142.742Z" fill="#F0F0F0"/>
<path d="M32.747 140.894C32.7109 140.895 32.6753 140.885 32.6441 140.867C32.6128 140.849 32.5871 140.823 32.5697 140.791C32.5591 140.769 32.5533 140.745 32.5528 140.72C32.5524 140.696 32.5572 140.671 32.5671 140.649C32.5769 140.626 32.5915 140.606 32.6098 140.59C32.6281 140.574 32.6497 140.562 32.6731 140.554C35.1333 139.579 37.6858 140.662 37.793 140.71C37.8156 140.718 37.8362 140.732 37.8532 140.749C37.8703 140.766 37.8834 140.787 37.8918 140.81C37.9002 140.832 37.9037 140.857 37.9019 140.881C37.9001 140.905 37.8932 140.929 37.8816 140.95C37.8541 140.994 37.8116 141.026 37.762 141.041C37.7124 141.056 37.6591 141.052 37.612 141.031C37.5861 141.031 35.1222 139.971 32.8357 140.88C32.8073 140.89 32.7772 140.895 32.747 140.894Z" fill="#EBEBEB"/>
<path d="M35.6612 79.4777C35.0961 89.8247 33.8143 108.834 33.8143 108.834C33.6924 110.038 32.5916 115.356 32.4807 119.698C32.2997 126.667 32.5768 131.501 32.5768 131.501C32.5768 131.501 36.4148 132.931 39.1853 131.83C39.1853 131.83 42.7278 117.787 43.6549 113.268C44.7631 107.858 47.3784 97.2523 47.3784 97.2523L49.2254 111.539C49.2254 111.539 48.6455 116.627 49.2254 120.829C49.6207 123.693 50.703 131.198 50.703 131.198C50.703 131.198 54.3969 132.377 57.4075 131.416C57.4075 131.416 58.6154 112.769 58.7964 110.131C58.9774 107.492 59.5721 93.945 58.9257 77.29L35.6612 79.4777Z" fill="#455A64"/>
<path d="M47.383 97.252L48.9271 88.0136C50.8566 87.9 52.6857 87.1158 54.0986 85.7964C54.0986 85.7964 53.8585 87.9286 49.7324 89.2959L48.3176 96.9785L49.2263 111.557L47.383 97.252Z" fill="#37474F"/>
<path d="M55.7789 49.2085C58.7673 49.5559 59.9937 51.7213 61.6523 55.0989C62.9748 57.7891 65.5642 63.8642 65.5642 63.8642C65.5642 63.8642 73.6576 61.8281 75.0983 60.908C76.0883 60.2835 75.9036 59.8844 77.5363 58.8275C78.6851 58.0884 79.9078 57.7189 80.6244 56.9798C81.197 56.3996 82.102 57.3272 81.1896 58.5725C80.9011 58.9241 80.5795 59.247 80.2292 59.537C80.827 59.4174 81.4002 59.1975 81.9247 58.8866C83.2213 57.9591 83.7938 56.7766 85.3933 56.5881C86.0693 56.5068 86.2023 56.9761 85.9511 57.4972C86.0547 57.5435 86.1474 57.6111 86.2232 57.6956C86.299 57.7801 86.3561 57.8795 86.391 57.9876C86.4258 58.0956 86.4376 58.2098 86.4254 58.3227C86.4133 58.4355 86.3775 58.5446 86.3205 58.6427C86.712 58.7536 86.7416 59.5333 86.5938 59.7513C86.7933 60.0396 87.1258 60.8821 85.6519 62.5154C84.8963 63.3089 84.0522 64.0132 83.1363 64.6144C81.9612 64.9748 80.766 65.266 79.5569 65.4865C78.2109 65.7113 76.9013 66.1165 75.6635 66.6912C73.8793 67.4303 69.3653 69.7694 65.361 71.2586C62.0365 72.4966 61.0945 70.5935 59.5172 67.6335C58.4718 65.6787 56.0375 59.2044 56.0375 59.2044C54.789 55.3354 54.6227 51.5994 55.7789 49.2085Z" fill="#FFA8A7"/>
<path d="M81.3193 62.0756C79.3431 61.3365 77.1747 62.2086 76.5172 63.8087C76.5208 63.3443 76.6597 62.8911 76.9169 62.5045C77.1741 62.1179 77.5384 61.8147 77.9652 61.6321C78.7779 61.2367 80.285 61.3439 81.3193 62.0756Z" fill="#F28F8F"/>
<path d="M56.0191 49.2085C58.8265 49.7924 59.4656 50.4243 61.5083 54.552C63.5142 58.6169 65.6973 63.6499 65.6973 63.6499L70.939 62.3972C70.939 62.3972 70.6361 63.3875 71.2419 65.505C71.8477 67.6224 73.0889 68.2691 73.0889 68.2691C73.0889 68.2691 69.0477 70.32 65.8561 71.4841C62.6646 72.6481 61.9664 72.0864 60.9469 70.6119C59.9273 69.1375 55.4059 58.6612 55.4059 58.6612C55.4059 58.6612 53.6329 52.3274 56.0191 49.2085Z" fill="#455A64"/>
<path d="M70.6618 62.4676L72.7969 61.8135C72.6118 62.7753 72.6523 63.767 72.9151 64.7106C73.5393 66.8761 74.6401 67.5524 74.6401 67.5524L72.505 68.6092C72.505 68.6092 70.1446 65.919 70.6618 62.4676Z" fill="#37474F"/>
<path d="M57.6928 56.4405C57.2163 52.9854 55.6538 48.2258 50.3049 48.0151L44.5054 48.4586C42.8062 48.902 36.46 50.8716 36.46 50.8716L36.0721 64.6738C36.0721 64.6738 35.6473 73.5204 35.7766 79.3036C40.7228 82.441 52.1002 83.5718 58.8601 78.4426C59.0559 73.6682 58.1619 59.8624 57.6928 56.4405Z" fill="#F0F0F0"/>
<path d="M55.3539 36.1348C56.2404 34.1356 55.3982 31.4713 54.3639 30.2222C52.8641 28.4078 50.5185 27.6355 46.976 27.8129C44.2831 27.9644 41.6271 29.0693 41.1063 31.8297C38.938 32.4616 39.1633 36.0202 39.6952 37.5907C40.7665 40.7798 42.8979 43.5624 42.9274 45.1884L55.3539 36.1348Z" fill="#263238"/>
<path d="M55.3095 43.6214C54.8736 45.155 53.9797 46.2747 52.5575 46.489C51.8118 46.5594 51.061 46.5594 50.3153 46.489V48.551C52.6942 51.9433 45.3063 52.2057 42.7759 48.5104L42.8387 42.1913C42.8387 42.1913 41.9633 43.1743 40.5374 42.232C39.9621 41.8004 39.5535 41.1833 39.3805 40.4851C39.2075 39.7868 39.2808 39.0503 39.5881 38.3999C40.3047 36.9217 41.7232 37.5315 42.1738 37.9897C42.6245 38.4479 43.0899 39.3089 43.4593 39.1907C43.6701 39.1277 43.8616 39.0128 44.0165 38.8566C44.1714 38.7004 44.2846 38.5078 44.3459 38.2964C44.6841 37.3662 44.8481 36.3816 44.8298 35.3919C45.214 35.2009 45.5567 34.9359 45.8382 34.6122C46.4551 33.9359 46.5105 33.134 46.5401 32.3949C49.6134 31.4526 53.5253 31.8665 54.796 32.8606C55.5348 34.1576 55.5348 37.1656 55.642 38.8988C55.7946 40.4805 55.6822 42.0767 55.3095 43.6214Z" fill="#FFA8A7"/>
<path d="M50.3154 46.4852C48.7455 46.3891 45.5872 45.6353 44.7523 44.7558C43.9175 43.8763 43.5703 42.0767 43.5703 42.0767C43.5703 42.0767 43.6811 44.3419 44.3275 45.347C44.974 46.3522 46.6104 46.7956 47.6078 47.0506C48.4967 47.2453 49.3957 47.3909 50.3007 47.4866L50.3154 46.4852Z" fill="#F28F8F"/>
<path d="M49.3702 38.2041C49.3652 38.3317 49.3227 38.4549 49.248 38.5585C49.1734 38.662 49.07 38.7414 48.9506 38.7865C48.8313 38.8317 48.7012 38.8407 48.5768 38.8125C48.4523 38.7842 48.3389 38.72 48.2507 38.6277C48.1625 38.5354 48.1034 38.4192 48.0808 38.2936C48.0581 38.168 48.073 38.0384 48.1234 37.9212C48.1738 37.8039 48.2577 37.7041 48.3644 37.6341C48.4712 37.5642 48.5962 37.5272 48.7238 37.5278C48.8109 37.5288 48.897 37.5471 48.9769 37.5818C49.0569 37.6165 49.1291 37.6668 49.1893 37.7298C49.2495 37.7928 49.2966 37.8672 49.3276 37.9487C49.3587 38.0301 49.3732 38.117 49.3702 38.2041Z" fill="#263238"/>
<path d="M54.5416 36.6598L52.9643 36.3937C52.9768 36.2902 53.0102 36.1903 53.0625 36.1002C53.1148 36.01 53.1849 35.9314 53.2685 35.8692C53.3521 35.807 53.4475 35.7624 53.5489 35.7382C53.6503 35.7141 53.7555 35.7108 53.8582 35.7286C54.0693 35.7675 54.2575 35.8855 54.3845 36.0586C54.5116 36.2316 54.5677 36.4467 54.5416 36.6598Z" fill="#263238"/>
<path d="M49.104 36.3931L47.5821 36.8772C47.5457 36.7796 47.5295 36.6756 47.5345 36.5715C47.5395 36.4675 47.5656 36.3655 47.6112 36.2719C47.6568 36.1782 47.7209 36.0948 47.7998 36.0267C47.8786 35.9586 47.9704 35.9073 48.0697 35.8758C48.2755 35.8136 48.4973 35.8326 48.6896 35.9288C48.8819 36.025 49.0302 36.1911 49.104 36.3931Z" fill="#263238"/>
<path d="M54.3124 38.1082C54.3066 38.2355 54.2635 38.3584 54.1885 38.4615C54.1135 38.5645 54.0098 38.6433 53.8904 38.6879C53.771 38.7325 53.6411 38.741 53.5169 38.7124C53.3927 38.6837 53.2797 38.6192 53.1919 38.5268C53.104 38.4344 53.0453 38.3183 53.0229 38.1927C53.0005 38.0672 53.0155 37.9379 53.0661 37.8208C53.1166 37.7038 53.2004 37.6041 53.307 37.5343C53.4137 37.4645 53.5385 37.4276 53.666 37.4282C53.8414 37.434 54.0074 37.5086 54.1284 37.6358C54.2493 37.763 54.3154 37.9326 54.3124 38.1082Z" fill="#263238"/>
<path d="M51.0102 36.7373L51.4535 41.4008L53.958 40.6618L51.0102 36.7373Z" fill="#F28F8F"/>
<path d="M49.0521 41.896C48.9492 42.1776 48.9588 42.488 49.0791 42.7627C49.1993 43.0373 49.4208 43.2549 49.6975 43.3702C49.9742 43.4855 50.2846 43.4895 50.5642 43.3815C50.8438 43.2735 51.0709 43.0617 51.1982 42.7903L49.0521 41.896Z" fill="#B16668"/>
<path d="M49.237 42.5201C49.5076 42.5178 49.7697 42.6146 49.9738 42.7922C50.1779 42.9699 50.31 43.2162 50.3452 43.4845C50.1191 43.5273 49.8854 43.5029 49.6729 43.4143C49.494 43.34 49.3367 43.2218 49.2153 43.0707C49.094 42.9196 49.0125 42.7404 48.9785 42.5496C49.0632 42.53 49.15 42.5201 49.237 42.5201Z" fill="#F28F8F"/>
<path d="M58.9964 61.2109C58.3685 55.4239 57.6334 51.2815 56.0413 49.2084C56.0413 49.2084 54.645 48.7797 50.312 47.6489V48.0185C50.8663 48.4523 51.3445 48.9756 51.7268 49.5668C52.4323 50.6311 53.2745 52.4418 54.0946 55.5644C55.2028 59.8177 55.7753 69.2926 55.8307 74.4106C55.8861 79.5287 56.1152 85.6223 56.1152 85.6223C56.1152 85.6223 58.7009 85.0939 59.665 83.7746C59.654 83.7783 59.473 65.5677 58.9964 61.2109Z" fill="#1F7BAC"/>
<path d="M44.9371 55.0177C44.3867 52.6859 43.3634 49.0016 42.8537 47.8154L36.3634 50.1472C34.5829 50.9676 33.1903 52.2905 33.6373 55.2874L35.5027 68.465L35.0447 83.5088C37.804 87.7991 46.5846 87.4259 46.5846 87.4259C46.5846 87.4259 46.7323 83.021 46.4664 71.2218C46.3186 64.6108 45.6241 57.9924 44.9371 55.0177Z" fill="#1F7BAC"/>
<path d="M45.4028 57.6341C44.9071 53.994 44.0317 50.4159 42.7912 46.9582V45.9863C42.7912 45.9863 39.7843 47.5421 38.5062 48.2811C37.7905 48.6592 37.2087 49.2489 36.8403 49.9699L39.2893 49.0904C39.2893 49.0904 40.4714 49.5302 41.9194 51.1931C43.3675 52.856 45.4028 57.6341 45.4028 57.6341Z" fill="#455A64"/>
<path d="M50.3009 46.9584V48.551C51.3711 49.6457 52.2302 50.9285 52.8349 52.3351C53.5213 54.0582 54.0806 55.8293 54.5083 57.6342C54.9242 55.6254 54.88 53.5484 54.379 51.5591C53.836 49.5081 53.2449 48.806 52.8312 48.3552C52.1059 47.586 51.249 46.9527 50.3009 46.4854V46.9584Z" fill="#455A64"/>
<path d="M28.7059 82.43C28.2072 80.0724 27.4426 77.9217 27.0732 75.8597C26.1682 70.7897 26.2236 70.3869 26.6632 68.251C27.9339 62.0687 28.7798 58.8907 29.8437 55.7866C31.2806 51.5813 31.7571 51.5148 36.1862 50.3359C38.1329 52.154 38.0331 57.5788 36.7846 60.5277C35.3661 64.9141 33.4896 71.4401 33.4896 71.4401C33.5672 72.4637 33.6152 79.0229 34.317 81.9755C34.5571 82.9917 35.2516 83.4093 35.8389 83.753C36.9471 84.3997 37.3978 85.9332 38.2104 86.7832C38.8495 87.4446 39.3445 87.6626 39.2632 87.8733C39.1561 88.143 38.6315 88.3204 37.8447 88.1135C37.3079 87.9713 36.8094 87.7112 36.3856 87.3522C36.1959 87.148 35.9882 86.9613 35.7651 86.7942C35.4141 86.5984 35.3957 86.9457 35.4289 87.197C35.5053 87.6412 35.6394 88.0736 35.8278 88.483C36.1009 89.1919 36.4231 89.8809 36.792 90.545C37.1318 91.1547 37.4975 91.4356 38.0885 92.1784C38.4321 92.607 38.9086 93.0172 39.06 93.5456C39.1635 93.9152 39.182 94.4953 38.7424 94.6542C38.5392 94.7208 38.2732 94.4769 38.107 94.3734C37.9408 94.2699 37.6563 93.9817 37.3978 93.9373C37.1549 93.9336 36.913 93.9685 36.6811 94.0408C36.3083 94.097 35.9273 94.0589 35.573 93.93C35.4075 93.8689 35.2557 93.776 35.126 93.6565C35.0741 93.5904 35.0132 93.5319 34.945 93.4828C34.7123 93.3867 34.354 93.4828 34.1028 93.4052C33.5081 93.2426 33.183 92.6661 32.6252 92.437C32.3094 92.3086 32.0163 92.1301 31.7571 91.9086C31.3702 91.5761 31.0462 91.1769 30.8004 90.7298C30.0062 89.0632 29.1713 86.8866 29.0273 85.0426C28.9793 84.2297 28.8537 83.3317 28.7059 82.43Z" fill="#FFA8A7"/>
<path d="M36.4188 50.1475C33.7333 50.8533 32.3037 50.99 31.1512 52.4608C29.9987 53.9315 28.5655 59.4819 27.9005 61.9245C27.2356 64.3672 26.3749 68.5392 26.2383 69.3152C26.1016 70.0913 26.1348 71.0003 26.5375 73.4319C26.9992 76.2071 27.9486 80.8225 27.9486 80.8225C27.9486 80.8225 28.6283 81.0332 30.9037 80.5713C31.9871 80.3722 33.0577 80.1094 34.1101 79.7842L33.6594 71.4216L37.4789 59.6408C37.4789 59.6408 39.3961 52.7305 36.4188 50.1475Z" fill="#455A64"/>
<path d="M34.0585 78.2432L34.1768 80.501C34.1768 80.501 33.438 81.4544 31.1994 81.8757C29.2416 82.2452 28.0522 81.4396 28.0522 81.4396L27.6015 79.2224C28.6673 79.6329 29.8266 79.7366 30.9483 79.5218C33.2459 79.1596 34.0585 78.2432 34.0585 78.2432Z" fill="#37474F"/>
<path d="M78.8625 61.8127C78.9043 61.7895 78.9515 61.778 78.9992 61.7794H79.291V66.8975L76.2768 63.6603C76.2508 63.6299 76.2318 63.5941 76.2211 63.5555C76.2104 63.5169 76.2084 63.4765 76.2151 63.437C76.2218 63.3975 76.2371 63.36 76.2598 63.3271C76.2826 63.2941 76.3124 63.2666 76.3469 63.2465L78.8625 61.8127Z" fill="#1F7BAC"/>
<path opacity="0.3" d="M78.8625 61.8127C78.9043 61.7895 78.9515 61.778 78.9992 61.7794H79.291V66.8975L76.2768 63.6603C76.2508 63.6299 76.2318 63.5941 76.2211 63.5555C76.2104 63.5169 76.2084 63.4765 76.2151 63.437C76.2218 63.3975 76.2371 63.36 76.2598 63.3271C76.2826 63.2941 76.3124 63.2666 76.3469 63.2465L78.8625 61.8127Z" fill="#F9F9F9"/>
<path d="M76.2878 63.6611L79.291 66.9019V63.2065H76.4836C76.4318 63.2082 76.3815 63.2247 76.3386 63.2539C76.2957 63.2831 76.262 63.324 76.2415 63.3716C76.221 63.4193 76.2144 63.4718 76.2226 63.5231C76.2308 63.5743 76.2535 63.6222 76.2878 63.6611Z" fill="#1F7BAC"/>
<path d="M79.2906 60.1791C79.3133 59.7681 79.4325 59.3683 79.6385 59.0119C79.8445 58.6556 80.1315 58.3529 80.4764 58.1282C80.8434 57.9425 81.2489 57.8457 81.6603 57.8457C82.0716 57.8457 82.4771 57.9425 82.8442 58.1282L114.383 76.3278C114.728 76.5525 115.015 76.8552 115.221 77.2115C115.427 77.5679 115.546 77.9677 115.569 78.3787V88.5299C115.547 88.9415 115.428 89.3421 115.222 89.6991C115.016 90.0561 114.728 90.3595 114.383 90.5845C114.017 90.7731 113.611 90.8715 113.199 90.8715C112.787 90.8715 112.381 90.7731 112.015 90.5845L80.3914 72.3073C79.3275 71.7012 79.3165 71.0915 79.3165 70.3377L79.2906 60.1791Z" fill="#1F7BAC"/>
<path opacity="0.2" d="M115.554 88.5308C115.532 88.9424 115.413 89.343 115.207 89.7C115.001 90.057 114.714 90.3604 114.368 90.5854C114.035 90.7549 113.67 90.8514 113.297 90.8686C112.924 90.8859 112.551 90.8233 112.204 90.6852C112.762 90.8958 113.186 90.578 113.186 89.9017V79.7469C113.172 79.3344 113.053 78.9325 112.839 78.5792L115.207 77.2119C115.42 77.5654 115.539 77.9672 115.554 78.3796V88.5308Z" fill="black"/>
<path opacity="0.3" d="M79.3423 59.8433C79.479 59.3407 79.937 59.1818 80.4837 59.4959L112 77.7029C112.351 77.9191 112.639 78.2236 112.835 78.5861L115.203 77.2225C115.005 76.8606 114.717 76.5553 114.368 76.3356L82.8589 58.1175C82.4913 57.9318 82.0851 57.835 81.6732 57.835C81.2613 57.835 80.8551 57.9318 80.4874 58.1175C80.1892 58.3121 79.9338 58.5655 79.7369 58.8622C79.54 59.1589 79.4057 59.4928 79.3423 59.8433Z" fill="#F9F9F9"/>
<path d="M108.185 79.6796C108.266 79.6802 108.346 79.6536 108.411 79.604C108.476 79.5544 108.523 79.4846 108.544 79.4055C108.565 79.3265 108.56 79.2427 108.528 79.1672C108.496 79.0917 108.441 79.0289 108.369 78.9886L84.3587 65.1236C84.2743 65.0795 84.1761 65.0696 84.0846 65.0962C83.9931 65.1227 83.9154 65.1836 83.8677 65.2661C83.82 65.3487 83.806 65.4464 83.8287 65.539C83.8514 65.6316 83.9089 65.7118 83.9893 65.7629L108 79.6316C108.056 79.6635 108.12 79.6801 108.185 79.6796Z" fill="#B0B0B0"/>
<path d="M108.185 82.3888C108.266 82.3894 108.346 82.3628 108.411 82.3132C108.476 82.2636 108.523 82.1938 108.544 82.1148C108.565 82.0357 108.56 81.9519 108.528 81.8764C108.496 81.801 108.441 81.7381 108.369 81.6978L84.3587 67.8587C84.2739 67.8106 84.1735 67.7979 84.0794 67.8235C83.9852 67.8491 83.9051 67.9109 83.8563 67.9955C83.8079 68.0799 83.7946 68.18 83.8195 68.2741C83.8444 68.3682 83.9055 68.4487 83.9893 68.498L108 82.3408C108.056 82.3727 108.12 82.3893 108.185 82.3888Z" fill="#B0B0B0"/>
<path d="M108.185 85.1159C108.266 85.1165 108.346 85.0899 108.411 85.0403C108.476 84.9907 108.523 84.9209 108.544 84.8418C108.565 84.7628 108.56 84.6789 108.528 84.6035C108.496 84.528 108.441 84.4652 108.369 84.4249L84.3587 70.5858C84.2739 70.5376 84.1735 70.5249 84.0794 70.5506C83.9852 70.5762 83.9051 70.638 83.8563 70.7225C83.8079 70.8069 83.7946 70.907 83.8195 71.0011C83.8444 71.0952 83.9055 71.1757 83.9893 71.2251L108 85.0678C108.056 85.0998 108.12 85.1163 108.185 85.1159Z" fill="#B0B0B0"/>
</svg>
