<svg width="170" height="152" viewBox="0 0 170 152" fill="none" xmlns="http://www.w3.org/2000/svg">
<path d="M105.388 147.028L159.464 126.739L159.853 122.415L106.176 142.7L105.388 147.028Z" fill="#1F7BAC" stroke="#2E353A" stroke-width="0.244567" stroke-linecap="round" stroke-linejoin="round"/>
<path d="M96.2828 75.3058C95.3327 75.2986 94.4142 74.9635 93.6826 74.3572C92.7633 73.599 92.1594 72.5255 91.9886 71.3462C91.9672 71.1355 92.0276 70.9247 92.1572 70.7573C92.2868 70.5899 92.4758 70.4786 92.6851 70.4465C92.8944 70.4145 93.108 70.464 93.2818 70.5849C93.4556 70.7059 93.5764 70.889 93.619 71.0963C93.7295 71.8698 94.1234 72.5747 94.7244 73.0741C94.9857 73.2994 95.2929 73.4654 95.6246 73.5605C95.9564 73.6556 96.3048 73.6775 96.6459 73.6247C96.987 73.572 97.3125 73.4458 97.6001 73.255C97.8876 73.0641 98.1303 72.8131 98.3113 72.5193C98.4361 72.3464 98.6229 72.2284 98.8326 72.1901C99.0424 72.1518 99.2588 72.1961 99.4366 72.3137C99.6145 72.4314 99.7399 72.6132 99.7867 72.8212C99.8335 73.0293 99.798 73.2473 99.6877 73.4298C99.3786 73.9146 98.9699 74.328 98.4887 74.6427C98.0075 74.9574 97.4649 75.1661 96.8968 75.255C96.6939 75.289 96.4885 75.306 96.2828 75.3058Z" fill="#2E353A"/>
<path d="M88.4776 77.7158C86.3898 77.7158 84.5222 76.0557 84.1707 73.7604C84.1538 73.6536 84.1582 73.5445 84.1836 73.4394C84.209 73.3343 84.2548 73.2352 84.3186 73.1479C84.3823 73.0606 84.4626 72.9867 84.555 72.9304C84.6474 72.8742 84.7499 72.8368 84.8568 72.8203C85.0727 72.7918 85.2914 72.8476 85.4673 72.9762C85.6431 73.1047 85.7627 73.2961 85.8011 73.5105C86.0468 75.124 87.4062 76.259 88.8249 76.0515C89.1654 75.996 89.4903 75.8687 89.7779 75.6782C90.0656 75.4876 90.3095 75.2381 90.4934 74.9462C90.6182 74.7733 90.805 74.6553 91.0147 74.617C91.2245 74.5787 91.4409 74.623 91.6188 74.7406C91.7966 74.8583 91.922 75.0401 91.9688 75.2481C92.0156 75.4562 91.9801 75.6742 91.8698 75.8567C91.5607 76.3415 91.152 76.7549 90.6708 77.0696C90.1896 77.3843 89.647 77.5931 89.079 77.6819C88.8798 77.7097 88.6787 77.721 88.4776 77.7158Z" fill="#2E353A"/>
<path d="M81.338 80.4554C80.3884 80.449 79.4701 80.1154 78.7377 79.511C77.8194 78.752 77.2157 77.6789 77.0438 76.5C77.0224 76.2894 77.0828 76.0785 77.2124 75.9111C77.342 75.7437 77.531 75.6324 77.7403 75.6004C77.9496 75.5683 78.1632 75.6178 78.337 75.7388C78.5108 75.8597 78.6315 76.0428 78.6742 76.2502C78.7847 77.0236 79.1786 77.7285 79.7795 78.2278C80.0436 78.4491 80.3512 78.6124 80.6824 78.7073C81.0136 78.8021 81.361 78.8263 81.7022 78.7784C82.0421 78.7228 82.3664 78.5955 82.6534 78.405C82.9403 78.2144 83.1834 77.9649 83.3665 77.6731C83.5049 77.5389 83.685 77.4561 83.8769 77.4381C84.0689 77.4202 84.2612 77.4682 84.4221 77.5743C84.5831 77.6805 84.703 77.8383 84.762 78.0218C84.8211 78.2053 84.8158 78.4035 84.7471 78.5836C84.4367 79.0681 84.0271 79.4813 83.5453 79.796C83.0635 80.1106 82.5205 80.3195 81.952 80.4088C81.749 80.4414 81.5436 80.457 81.338 80.4554Z" fill="#2E353A"/>
<path d="M73.5333 82.692C71.4455 82.692 69.5779 81.0277 69.2264 78.7366C69.2046 78.6273 69.2051 78.5148 69.2279 78.4057C69.2508 78.2967 69.2954 78.1934 69.3592 78.1021C69.4229 78.0107 69.5045 77.9332 69.599 77.8743C69.6936 77.8153 69.799 77.776 69.9091 77.7589C70.0192 77.7417 70.1316 77.747 70.2395 77.7744C70.3475 77.8019 70.4488 77.8509 70.5374 77.9185C70.6259 77.9861 70.6999 78.0709 70.7548 78.1678C70.8097 78.2647 70.8444 78.3718 70.8569 78.4825C71.1067 80.096 72.4619 81.2309 73.8806 81.0234C74.2206 80.9679 74.5451 80.8411 74.8326 80.6513C75.1202 80.4616 75.3644 80.2131 75.5492 79.9223C75.6049 79.8239 75.6803 79.738 75.7706 79.67C75.8609 79.6019 75.9642 79.5531 76.0742 79.5266C76.1841 79.5001 76.2983 79.4964 76.4097 79.5159C76.5211 79.5354 76.6274 79.5775 76.7218 79.6397C76.8163 79.7019 76.8969 79.7828 76.9588 79.8775C77.0207 79.9721 77.0625 80.0785 77.0816 80.19C77.1007 80.3014 77.0967 80.4156 77.0699 80.5255C77.043 80.6353 76.9939 80.7385 76.9255 80.8286C76.6158 81.3133 76.207 81.7269 75.726 82.0422C75.245 82.3575 74.7027 82.5674 74.1347 82.6581C73.9353 82.6839 73.7343 82.6952 73.5333 82.692Z" fill="#2E353A"/>
<path d="M65.5423 85.8678C63.4587 85.8678 61.5911 84.2078 61.2354 81.9124C61.2482 81.7201 61.3263 81.538 61.4567 81.3961C61.5871 81.2541 61.762 81.1609 61.9525 81.1318C62.143 81.1027 62.3377 81.1394 62.5045 81.2359C62.6714 81.3324 62.8003 81.4829 62.87 81.6626C63.1156 83.2761 64.4751 84.4068 65.8937 84.2035C66.234 84.1472 66.5586 84.0197 66.8462 83.8292C67.1337 83.6387 67.3778 83.3896 67.5623 83.0982C67.6871 82.9253 67.8739 82.8073 68.0836 82.769C68.2934 82.7307 68.5098 82.775 68.6876 82.8927C68.8655 83.0103 68.9909 83.1921 69.0377 83.4002C69.0845 83.6082 69.049 83.8263 68.9386 84.0087C68.6289 84.4929 68.2201 84.906 67.739 85.2206C67.2579 85.5353 66.7156 85.7443 66.1478 85.834C65.947 85.8597 65.7447 85.871 65.5423 85.8678Z" fill="#2E353A"/>
<path d="M57.8048 88.701C56.8551 88.6953 55.9365 88.3617 55.2045 87.7566C54.2862 86.9976 53.6825 85.9245 53.5106 84.7456C53.4892 84.535 53.5495 84.3241 53.6792 84.1567C53.8088 83.9893 53.9978 83.878 54.2071 83.846C54.4164 83.8139 54.63 83.8634 54.8038 83.9844C54.9776 84.1053 55.0983 84.2884 55.141 84.4958C55.2515 85.2692 55.6454 85.9741 56.2463 86.4735C56.5077 86.6988 56.8148 86.8648 57.1466 86.9599C57.4784 87.055 57.8268 87.0769 58.1679 87.0241C58.5089 86.9714 58.8345 86.8452 59.122 86.6544C59.4096 86.4635 59.6522 86.2125 59.8333 85.9187C59.9717 85.7845 60.1518 85.7017 60.3437 85.6837C60.5357 85.6658 60.728 85.7138 60.8889 85.82C61.0499 85.9261 61.1698 86.0839 61.2288 86.2674C61.2879 86.4509 61.2826 86.6491 61.2139 86.8292C60.9035 87.3137 60.4939 87.7269 60.0121 88.0416C59.5303 88.3562 58.9873 88.5651 58.4188 88.6544C58.2158 88.687 58.0104 88.7026 57.8048 88.701Z" fill="#2E353A"/>
<path d="M106.87 144.39L151.62 127.903" stroke="#2E353A" stroke-width="0.122284" stroke-linecap="round" stroke-linejoin="round"/>
<path d="M105.693 145.766L134.346 135.167" stroke="#2E353A" stroke-width="0.122284" stroke-linecap="round" stroke-linejoin="round"/>
<path d="M51.5073 86.7993V91.9108L105.388 147.028L106.176 142.7L51.5073 86.7993Z" fill="#1F7BAC" stroke="#2E353A" stroke-width="0.244567" stroke-linecap="round" stroke-linejoin="round"/>
<path d="M52.3076 90.8096L84.3023 122.8" stroke="#2E353A" stroke-width="0.122284" stroke-linecap="round" stroke-linejoin="round"/>
<path d="M67.4219 104.548L100.784 138.698" stroke="#2E353A" stroke-width="0.122284" stroke-linecap="round" stroke-linejoin="round"/>
<path d="M51.5073 86.7991L106.176 142.7L159.853 122.415L104.219 69.0972L51.5073 86.7991Z" fill="white" stroke="#2E353A" stroke-width="0.244567" stroke-linecap="round" stroke-linejoin="round"/>
<path d="M50.8381 85.9182L0.205566 38.6609L52.0704 22.4878L103.821 68.2544L50.8381 85.9182Z" fill="#1F7BAC" stroke="#2E353A" stroke-width="0.244567" stroke-linecap="round" stroke-linejoin="round"/>
<path d="M7.95557 38.9749L22.7777 34.3589" stroke="#2E353A" stroke-width="0.260627" stroke-linecap="round" stroke-linejoin="round"/>
<path d="M10.145 40.6776L24.9672 36.0615" stroke="#2E353A" stroke-width="0.260627" stroke-linecap="round" stroke-linejoin="round"/>
<path d="M60.5188 87.1975C60.3576 87.1985 60.1998 87.1513 60.0657 87.062C59.887 86.9383 59.7627 86.7505 59.7185 86.5377C59.6744 86.3249 59.7138 86.1032 59.8285 85.9186C60.2516 85.2615 60.4147 84.4703 60.2859 83.6995C60.214 83.1152 59.9698 82.5656 59.5844 82.1206C59.199 81.6756 58.6899 81.3555 58.1219 81.2009C57.9168 81.1448 57.7413 81.0117 57.6319 80.8293C57.5225 80.647 57.4876 80.4295 57.5345 80.2221C57.5815 80.0148 57.7066 79.8335 57.8838 79.716C58.0611 79.5986 58.2768 79.554 58.4861 79.5916C59.3774 79.8201 60.1803 80.3092 60.7921 80.9964C61.404 81.6837 61.7969 82.5379 61.9206 83.4496C62.1141 84.6282 61.8603 85.8365 61.2091 86.8376C61.1312 86.9484 61.0279 87.0389 60.9078 87.1016C60.7877 87.1642 60.6543 87.1971 60.5188 87.1975Z" fill="#2E353A"/>
<path d="M68.2481 84.3647C68.087 84.3657 67.9292 84.3185 67.795 84.2292C67.7043 84.1697 67.6262 84.0928 67.5653 84.003C67.5044 83.9133 67.4619 83.8123 67.4403 83.706C67.4186 83.5997 67.4182 83.4901 67.4391 83.3837C67.46 83.2772 67.5018 83.176 67.5621 83.0857C67.9833 82.4279 68.1462 81.6374 68.0194 80.8667C67.9476 80.2824 67.7034 79.7327 67.318 79.2877C66.9326 78.8428 66.4234 78.5226 65.8554 78.3681C65.7446 78.3497 65.6387 78.3089 65.5442 78.2482C65.4496 78.1875 65.3685 78.1082 65.3057 78.0151C65.2429 77.9219 65.1997 77.8169 65.1789 77.7066C65.158 77.5962 65.1599 77.4827 65.1845 77.3731C65.209 77.2635 65.2556 77.16 65.3215 77.069C65.3874 76.978 65.4711 76.9014 65.5676 76.8439C65.6641 76.7864 65.7714 76.7492 65.8827 76.7346C65.9941 76.7199 66.1073 76.7282 66.2154 76.7588C67.1067 76.9872 67.9096 77.4763 68.5215 78.1636C69.1333 78.8509 69.5262 79.705 69.6499 80.6168C69.8434 81.7953 69.5897 83.0036 68.9384 84.0047C68.8605 84.1155 68.7572 84.2061 68.6371 84.2687C68.517 84.3313 68.3836 84.3643 68.2481 84.3647Z" fill="#2E353A"/>
<path d="M98.9975 73.8026C98.8525 73.7953 98.7118 73.7508 98.5889 73.6735C98.4661 73.5962 98.3652 73.4886 98.2958 73.361C98.2265 73.2334 98.1912 73.0902 98.1932 72.9451C98.1952 72.7999 98.2344 72.6577 98.3072 72.5321C98.7308 71.8768 98.8939 71.0867 98.7645 70.3172C98.6935 69.7322 98.4496 69.1816 98.0642 68.7358C97.6787 68.29 97.1692 67.9692 96.6005 67.8144C96.4948 67.7914 96.3947 67.7476 96.306 67.6856C96.2173 67.6236 96.1419 67.5446 96.084 67.4532C96.026 67.3618 95.9869 67.2598 95.9687 67.1532C95.9505 67.0465 95.9536 66.9373 95.978 66.8319C96.0304 66.6207 96.1622 66.4377 96.3459 66.321C96.5296 66.2043 96.7512 66.1628 96.9647 66.2051C97.856 66.4336 98.659 66.9227 99.2708 67.6099C99.8826 68.2972 100.276 69.1513 100.399 70.0631C100.593 71.2422 100.338 72.4512 99.6835 73.451C99.6069 73.5616 99.5042 73.6514 99.3845 73.7128C99.2649 73.7741 99.1319 73.8049 98.9975 73.8026Z" fill="#2E353A"/>
<path d="M91.1798 76.204C91.0186 76.205 90.8608 76.1578 90.7266 76.0685C90.6359 76.009 90.5578 75.9322 90.4969 75.8424C90.4361 75.7526 90.3936 75.6516 90.3719 75.5453C90.3503 75.439 90.3499 75.3295 90.3708 75.223C90.3917 75.1166 90.4335 75.0153 90.4937 74.9251C90.9153 74.2674 91.0782 73.4768 90.9511 72.706C90.8792 72.1217 90.635 71.5721 90.2496 71.1271C89.8642 70.6821 89.3551 70.3619 88.787 70.2074C88.6762 70.1891 88.5703 70.1483 88.4758 70.0876C88.3813 70.0269 88.3001 69.9475 88.2373 69.8544C88.1745 69.7613 88.1314 69.6563 88.1105 69.5459C88.0897 69.4355 88.0916 69.3221 88.1161 69.2124C88.1406 69.1028 88.1873 68.9993 88.2531 68.9084C88.319 68.8174 88.4028 68.7408 88.4993 68.6833C88.5958 68.6258 88.703 68.5886 88.8144 68.5739C88.9257 68.5593 89.0389 68.5675 89.147 68.5981C90.0389 68.8255 90.8424 69.3143 91.4544 70.0018C92.0664 70.6892 92.4589 71.5439 92.5815 72.4561C92.7751 73.6346 92.5213 74.8429 91.8701 75.8441C91.7922 75.9549 91.6888 76.0454 91.5687 76.1081C91.4486 76.1707 91.3152 76.2036 91.1798 76.204Z" fill="#2E353A"/>
<path d="M84.0396 78.9563C83.8781 78.9558 83.7203 78.9071 83.5865 78.8166C83.4078 78.6928 83.2835 78.5051 83.2394 78.2923C83.1952 78.0794 83.2346 77.8578 83.3493 77.6731C83.7747 77.0169 83.9393 76.2254 83.8109 75.4541C83.7391 74.8698 83.4949 74.3201 83.1095 73.8751C82.7241 73.4302 82.2149 73.11 81.6469 72.9555C81.5361 72.9371 81.4302 72.8963 81.3357 72.8356C81.2411 72.7749 81.16 72.6956 81.0972 72.6025C81.0344 72.5093 80.9912 72.4043 80.9704 72.294C80.9496 72.1836 80.9514 72.0701 80.976 71.9605C81.0005 71.8509 81.0471 71.7474 81.113 71.6564C81.1789 71.5654 81.2626 71.4888 81.3591 71.4313C81.4556 71.3738 81.5629 71.3366 81.6742 71.322C81.7856 71.3073 81.8988 71.3156 82.0069 71.3462C82.8982 71.5746 83.7011 72.0637 84.313 72.751C84.9248 73.4383 85.3177 74.2924 85.4414 75.2042C85.6349 76.3827 85.3812 77.591 84.7299 78.5921C84.6525 78.7037 84.5494 78.7951 84.4292 78.8585C84.3091 78.9219 84.1755 78.9554 84.0396 78.9563Z" fill="#2E353A"/>
<path d="M76.2352 81.1881C76.0743 81.1869 75.9171 81.1399 75.782 81.0526C75.6913 80.9932 75.6132 80.9163 75.5523 80.8265C75.4915 80.7367 75.449 80.6358 75.4273 80.5295C75.4057 80.4231 75.4053 80.3136 75.4262 80.2071C75.4471 80.1007 75.4889 79.9994 75.5491 79.9092C75.9703 79.2513 76.1332 78.4609 76.0065 77.6901C75.9346 77.1058 75.6904 76.5562 75.305 76.1112C74.9196 75.6662 74.4105 75.3461 73.8424 75.1915C73.7155 75.1916 73.5902 75.1631 73.4758 75.1082C73.3613 75.0533 73.2607 74.9734 73.1813 74.8744C73.1019 74.7754 73.0458 74.6598 73.0171 74.5361C72.9884 74.4125 72.9878 74.284 73.0154 74.1601C73.0431 74.0362 73.0982 73.9202 73.1767 73.8205C73.2553 73.7207 73.3552 73.64 73.4692 73.5841C73.5831 73.5282 73.7082 73.4986 73.8351 73.4976C73.962 73.4965 74.0876 73.524 74.2024 73.578C75.0945 73.8049 75.8984 74.2935 76.5105 74.9811C77.1225 75.6686 77.5149 76.5236 77.6369 77.436C77.8309 78.6145 77.5771 79.823 76.9255 80.8239C76.848 80.9356 76.7449 81.0269 76.6248 81.0903C76.5046 81.1537 76.371 81.1872 76.2352 81.1881Z" fill="#2E353A"/>
<path d="M149.52 121.123L151.603 120.357" stroke="#2E353A" stroke-width="0.122284" stroke-linecap="round" stroke-linejoin="round"/>
<path d="M108.387 136.318L147.627 121.826" stroke="#2E353A" stroke-width="0.122284" stroke-linecap="round" stroke-linejoin="round"/>
<path d="M109.487 129.767L146.937 115.936" stroke="#2E353A" stroke-width="0.122284" stroke-linecap="round" stroke-linejoin="round"/>
<path d="M103.719 131.897L106.997 130.686" stroke="#2E353A" stroke-width="0.122284" stroke-linecap="round" stroke-linejoin="round"/>
<path d="M99.0527 127.476L142.274 111.514" stroke="#2E353A" stroke-width="0.122284" stroke-linecap="round" stroke-linejoin="round"/>
<path d="M94.3896 123.059L137.607 107.097" stroke="#2E353A" stroke-width="0.122284" stroke-linecap="round" stroke-linejoin="round"/>
<path d="M131.128 103.345L132.94 102.676" stroke="#2E353A" stroke-width="0.122284" stroke-linecap="round" stroke-linejoin="round"/>
<path d="M89.7231 118.637L128.536 104.302" stroke="#2E353A" stroke-width="0.122284" stroke-linecap="round" stroke-linejoin="round"/>
<path d="M85.0557 114.216L128.277 98.2549" stroke="#2E353A" stroke-width="0.122284" stroke-linecap="round" stroke-linejoin="round"/>
<path d="M80.3892 109.799L123.611 93.8379" stroke="#2E353A" stroke-width="0.122284" stroke-linecap="round" stroke-linejoin="round"/>
<path d="M75.7266 105.378L118.944 89.4165" stroke="#2E353A" stroke-width="0.122284" stroke-linecap="round" stroke-linejoin="round"/>
<path d="M71.0601 100.957L114.277 84.9956" stroke="#2E353A" stroke-width="0.122284" stroke-linecap="round" stroke-linejoin="round"/>
<path d="M108.081 81.1417L109.614 80.5742" stroke="#2E353A" stroke-width="0.122284" stroke-linecap="round" stroke-linejoin="round"/>
<path d="M66.3926 96.5354L106.751 81.6328" stroke="#2E353A" stroke-width="0.122284" stroke-linecap="round" stroke-linejoin="round"/>
<path d="M74.6294 87.3501L104.947 76.1572" stroke="#2E353A" stroke-width="0.122284" stroke-linecap="round" stroke-linejoin="round"/>
<path d="M61.73 92.1187L70.077 89.0356" stroke="#2E353A" stroke-width="0.122284" stroke-linecap="round" stroke-linejoin="round"/>
<g style="mix-blend-mode:multiply">
<path d="M76.7217 103.548C81.0963 104.12 80.711 96.6327 79.6014 94.1214C78.7919 95.0491 78.1887 96.1382 77.8317 97.3165C77.4747 98.4948 77.3721 99.7355 77.5305 100.957C77.5766 101.527 77.7756 102.074 78.1065 102.54C78.2741 102.771 78.5063 102.948 78.7737 103.047C79.0412 103.146 79.3321 103.165 79.6099 103.099C80.0081 102.931 80.3451 102.644 80.5754 102.278C81.3801 101.211 81.9137 99.8893 82.7606 98.9111C83.9337 99.703 88.1009 101.058 87.4995 98.1445C87.1692 96.5353 87.9696 96.7174 88.8293 97.5051C89.185 97.8269 89.744 97.6533 90.1844 97.4585L94.4193 95.5951C94.9583 95.3203 95.542 95.1439 96.1429 95.0742C98.1757 94.9726 99.5055 96.8614 101.5 95.5274C102.347 94.9684 102.542 93.4523 103.618 92.8763C104.384 92.4528 105.286 92.4274 106.158 92.3088C109.157 91.9108 110.69 90.3269 113.459 88.8955" stroke="#1F7BAC" stroke-width="0.244567" stroke-linecap="round" stroke-linejoin="round"/>
</g>
<g style="mix-blend-mode:multiply">
<path d="M80.1182 108.228C81.7571 108.507 83.1588 107.012 84.6072 106.534C86.4578 105.916 87.2624 105.162 89.0411 104.395C91.3915 103.387 94.1526 102.921 93.6614 99.3684C93.3268 100.639 93.2887 102.036 93.0304 103.366C94.9361 104.311 95.4485 102.689 95.6433 101.249C96.283 101.233 96.915 101.105 97.5109 100.872C97.5109 101.139 97.5956 101.439 97.5914 101.693C98.5061 102.062 98.8618 101.812 99.0524 101.003C100.065 100.812 100.425 99.8639 101.28 99.631C101.496 102.007 102.102 104.086 101.962 106.517C100.34 106.94 100.086 104.141 100.497 102.981C100.92 101.753 102.14 101.096 102.589 99.8131C102.682 99.9698 102.61 100.152 102.661 100.321C104.702 99.1016 107.319 99.4319 109.343 98.0048C109.978 97.5559 110.432 96.6581 111.105 96.3447C112.57 95.6671 113.006 96.4633 114.099 94.8667" stroke="#1F7BAC" stroke-width="0.244567" stroke-linecap="round" stroke-linejoin="round"/>
</g>
<g style="mix-blend-mode:multiply">
<path d="M94.8726 122.182C97.8158 121.335 99.1075 114.021 98.2605 111.336C97.2695 108.088 95.9059 111.65 95.5883 113.394C95.3342 114.792 94.9276 118.476 96.232 119.539C99.1244 121.885 100.89 117.062 101.246 114.881C101.373 116.245 100.552 117.926 100.886 119.395C103.228 119.671 104.388 117.722 104.24 115.711C104.531 115.989 104.728 116.351 104.804 116.747C104.88 117.142 104.831 117.551 104.664 117.917C106.9 117.761 106.531 113.987 106.781 112.467C106.654 113.53 106.751 114.775 107.467 115.635C108.064 116.346 109.203 116.66 109.953 116.109C110.703 115.558 110.554 114.11 109.644 113.92V123.088C109.673 123.353 109.619 123.621 109.491 123.855C109.191 124.278 108.454 124.189 108.111 123.783C107.809 123.339 107.667 122.806 107.709 122.271C107.666 119.268 108.594 115.156 110.919 113.106C111.038 113.399 111.077 113.717 111.033 114.03C111.255 113.943 111.457 113.809 111.623 113.637C111.788 113.466 111.915 113.26 111.994 113.034C112.147 113.708 112.545 114.555 113.227 114.436C113.453 114.377 113.66 114.26 113.828 114.097C114.946 113.174 116.157 112.564 116.907 111.252C117.013 111.582 117.123 111.912 117.233 112.247C117.411 111.607 118.021 111.188 118.618 110.9C119.529 110.472 120.514 110.223 121.519 110.167C122.366 110.125 123.289 110.214 124.06 109.85C124.401 109.667 124.728 109.459 125.038 109.227C125.915 108.649 126.931 108.316 127.981 108.262" stroke="#1F7BAC" stroke-width="0.244567" stroke-linecap="round" stroke-linejoin="round"/>
</g>
<path d="M59.9817 41.7568C59.9817 41.7568 66.7364 33.2447 69.0233 30.1998C71.3101 27.1549 72.966 24.813 72.966 24.813C72.966 24.813 74.1856 25.7743 73.8129 26.8669C73.4403 27.9595 65.4067 38.9322 63.6195 41.7187C61.8324 44.5053 62.0823 48.033 62.2135 49.2484C62.3448 50.4638 58.8002 46.4915 59.9817 41.7568Z" fill="white" stroke="#2E353A" stroke-width="0.274008" stroke-linecap="round" stroke-linejoin="round"/>
<path d="M72.9661 24.8129C72.9661 24.8129 77.1714 18.9645 80.2925 14.0944C83.4136 9.22424 87.9704 1.91056 89.0545 0.936528C90.1386 -0.0374995 90.4012 2.50344 90.0497 4.20588C89.6982 5.90831 85.9673 10.6599 83.4475 14.556C80.9277 18.4521 79.3693 21.2556 77.201 23.8135C75.0327 26.3714 75.1598 26.4942 73.8131 26.8668C72.4664 27.2395 72.729 25.9055 72.9661 24.8129Z" fill="#2E353A" stroke="#2E353A" stroke-width="0.274008" stroke-linecap="round" stroke-linejoin="round"/>
<path d="M58.529 42.6121C58.9949 39.4571 60.0494 33.6298 62.459 31.7961C64.8687 29.9624 72.1612 31.3726 72.7668 31.4827C73.3724 31.5929 82.9686 33.7188 85.895 35.5186C88.8213 37.3184 90.7863 42.5189 91.5359 45.5299C92.2854 48.5409 93.8947 53.6398 94.1361 53.9997C94.1361 53.9997 96.5711 55.0712 97.9051 54.9441C99.2391 54.8171 101.014 48.6172 104.749 44.954C108.484 41.2908 110.424 40.7911 114.548 41.1426C118.673 41.4941 134.342 45.7417 135.93 47.3043C137.518 48.867 138.509 52.3862 138.166 54.9272C137.823 57.4681 138.323 60.2631 138.323 60.7459C138.323 61.2287 139.793 62.7999 139.437 64.1339C139.081 65.4678 138.861 68.3688 137.773 68.7541C136.684 69.1395 128.676 68.9362 122.73 68.1274C116.784 67.3185 108.514 63.7315 103.038 61.2245C97.5621 58.7174 94.8899 57.6375 90.8879 57.6672C86.8859 57.6968 79.1276 57.8662 71.9621 56.2146C64.7967 54.563 59.9265 51.5562 58.5798 50.2391C57.2331 48.9221 58.0674 45.7713 58.529 42.6121ZM101.437 57.4851C103.398 60.386 111.3 63.2445 115.552 64.4261C119.804 65.6076 130.001 67.7251 132.661 66.2555C135.321 64.786 136.718 56.041 136.472 53.0088C136.227 49.9766 134.986 48.2911 134.986 48.2911C129.747 45.0514 113.354 41.6423 109.966 43.0017C106.578 44.3611 103.339 48.7442 102.149 52.2677C100.959 55.7911 101.437 57.4851 101.437 57.4851ZM67.2063 52.5006C72.4407 55.6175 80.6945 56.5322 83.9681 56.6338C87.2417 56.7355 90.384 55.0161 90.4814 51.2555C90.5788 47.4949 88.5968 41.2018 87.8557 39.3978C87.1146 37.5937 84.6838 36.5096 84.6838 36.5096C81.4017 34.9554 67.795 31.5293 65.4912 31.9105C63.1874 32.2916 61.1716 35.7896 60.7015 40.9012C60.2315 46.0127 61.972 49.3837 67.2063 52.5006Z" fill="#2E353A" stroke="#2E353A" stroke-width="0.274008" stroke-linecap="round" stroke-linejoin="round"/>
<path d="M137.959 60.6404C137.959 60.6404 139.306 62.6943 140.267 61.2333C141.228 59.7722 153.628 45.8648 153.628 45.8648C153.628 45.8648 154.111 45.7378 153.997 46.7118C153.882 47.6858 140.902 65.1125 140.42 65.9637C139.937 66.8149 137.879 67.0732 137.396 66.7132C136.913 66.3533 137.959 60.6404 137.959 60.6404Z" fill="white" stroke="#2E353A" stroke-width="0.274008" stroke-linecap="round" stroke-linejoin="round"/>
<path d="M152.781 46.3518C153.489 45.0903 154.128 43.7911 154.695 42.4599C156.008 39.5421 156.812 33.8376 157.024 27.8918C157.236 21.946 157.448 18.4311 158.544 19.5152C159.641 20.5993 158.701 26.4308 158.498 31.0341C158.295 35.6375 156.863 40.262 156.516 42.6928C156.253 44.5265 154.847 47.4317 153.878 47.4359C152.908 47.4402 153.031 47.1988 152.781 46.3518Z" fill="#2E353A" stroke="#2E353A" stroke-width="0.274008" stroke-linecap="round" stroke-linejoin="round"/>
<path d="M72.7666 122.369L78.0984 128.403L70.1706 126.616L13.7617 92.106L16.3619 87.8584L72.7666 122.369Z" fill="white" stroke="#2E353A" stroke-width="0.309259" stroke-linecap="round" stroke-linejoin="round"/>
<g style="mix-blend-mode:multiply" opacity="0.5">
<path d="M72.7666 122.369L78.0984 128.403L70.1706 126.616L13.7617 92.106L16.3619 87.8584L72.7666 122.369Z" fill="#1F7BAC"/>
<path d="M72.7666 122.369L78.0984 128.403L70.1706 126.616L13.7617 92.106L16.3619 87.8584L72.7666 122.369Z" stroke="#2E353A" stroke-width="0.309259" stroke-linecap="round" stroke-linejoin="round"/>
</g>
<path d="M15.7712 88.8246L14.3545 91.1401L70.7622 125.652L72.1789 123.337L15.7712 88.8246Z" stroke="#2E353A" stroke-width="0.154629" stroke-linecap="round" stroke-linejoin="round"/>
<path d="M72.7791 122.381L70.1831 126.62L78.0981 128.403L72.7791 122.381Z" fill="white" stroke="#2E353A" stroke-width="0.309259" stroke-linecap="round" stroke-linejoin="round"/>
<path d="M74.1387 127.51L78.0983 128.403L75.4388 125.392L74.1387 127.51Z" fill="#1F7BAC" stroke="#2E353A" stroke-width="0.309259" stroke-linecap="round" stroke-linejoin="round"/>
<path d="M8.74746 86.1175C8.57641 86.396 8.46196 86.7055 8.41067 87.0283C8.35939 87.3512 8.37227 87.6809 8.44858 87.9987C8.52489 88.3166 8.66314 88.6162 8.8554 88.8806C9.04766 89.1449 9.29017 89.3688 9.56904 89.5393L13.7616 92.1056L16.3618 87.8707L12.1693 85.3044C11.6075 84.9593 10.9317 84.8511 10.2903 85.0035C9.64881 85.1559 9.09398 85.5565 8.74746 86.1175Z" fill="white" stroke="#2E353A" stroke-width="0.309259" stroke-linecap="round" stroke-linejoin="round"/>
<path d="M8.74746 86.1175C8.57641 86.396 8.46196 86.7055 8.41067 87.0283C8.35939 87.3512 8.37227 87.6809 8.44858 87.9987C8.52489 88.3166 8.66314 88.6162 8.8554 88.8806C9.04766 89.1449 9.29017 89.3688 9.56904 89.5393L11.5764 90.7674L14.1766 86.5325L12.1693 85.3044C11.6075 84.9593 10.9317 84.8511 10.2903 85.0035C9.64881 85.1559 9.09398 85.5565 8.74746 86.1175Z" fill="#2E353A" stroke="#2E353A" stroke-width="0.309259" stroke-linecap="round" stroke-linejoin="round"/>
<path d="M122.577 65.896L121.09 64.85C120.86 64.6887 120.597 64.5813 120.32 64.5359C120.043 64.4904 119.759 64.508 119.49 64.5875C117.918 65.0448 114.954 66.2094 114.107 67.1284C113.006 68.2634 112.659 70.3173 113.188 71.2828C113.717 72.2484 115.89 73.4808 115.89 73.4808L124.991 67.9415L122.577 65.896Z" fill="white" stroke="#2E353A" stroke-width="0.203955" stroke-miterlimit="10"/>
<g style="mix-blend-mode:multiply" opacity="0.5">
<path d="M122.577 65.896L121.09 64.85C120.86 64.6887 120.597 64.5813 120.32 64.5359C120.043 64.4904 119.759 64.508 119.49 64.5875C117.918 65.0448 114.954 66.2094 114.107 67.1284C113.006 68.2634 112.659 70.3173 113.188 71.2828C113.717 72.2484 115.89 73.4808 115.89 73.4808L124.991 67.9415L122.577 65.896Z" fill="#1F7BAC"/>
<path d="M122.577 65.896L121.09 64.85C120.86 64.6887 120.597 64.5813 120.32 64.5359C120.043 64.4904 119.759 64.508 119.49 64.5875C117.918 65.0448 114.954 66.2094 114.107 67.1284C113.006 68.2634 112.659 70.3173 113.188 71.2828C113.717 72.2484 115.89 73.4808 115.89 73.4808L124.991 67.9415L122.577 65.896Z" stroke="#2E353A" stroke-width="0.203955" stroke-miterlimit="10"/>
</g>
<path d="M123.505 65.4678L116.305 68.7584C116.305 68.7584 113.87 70.1347 114.641 74.3484L156.799 105.39C156.799 105.39 158.265 106.457 160.912 105.555C163.558 104.653 166.269 101.532 166.84 98.8939C167.412 96.2556 165.57 95.4256 165.227 95.1333C164.884 94.8411 124.928 65.7812 124.928 65.7812C124.505 65.5117 124.001 65.4007 123.505 65.4678Z" fill="white" stroke="#2E353A" stroke-width="0.203955" stroke-miterlimit="10"/>
<g style="mix-blend-mode:multiply" opacity="0.5">
<path d="M123.505 65.4678L116.305 68.7584C116.305 68.7584 113.87 70.1347 114.641 74.3484L156.799 105.39C156.799 105.39 158.265 106.457 160.912 105.555C163.558 104.653 166.269 101.532 166.84 98.8939C167.412 96.2556 165.57 95.4256 165.227 95.1333C164.884 94.8411 124.928 65.7812 124.928 65.7812C124.505 65.5117 124.001 65.4007 123.505 65.4678Z" fill="#1F7BAC"/>
<path d="M123.505 65.4678L116.305 68.7584C116.305 68.7584 113.87 70.1347 114.641 74.3484L156.799 105.39C156.799 105.39 158.265 106.457 160.912 105.555C163.558 104.653 166.269 101.532 166.84 98.8939C167.412 96.2556 165.57 95.4256 165.227 95.1333C164.884 94.8411 124.928 65.7812 124.928 65.7812C124.505 65.5117 124.001 65.4007 123.505 65.4678Z" stroke="#2E353A" stroke-width="0.203955" stroke-miterlimit="10"/>
</g>
<path d="M164.003 103.366C161.348 105.844 158.134 106.716 156.804 105.31C155.474 103.904 156.571 100.749 159.226 98.2676C161.882 95.7859 165.096 94.9178 166.426 96.3238C167.756 97.7298 166.655 100.885 164.003 103.366Z" fill="white" stroke="#2E353A" stroke-width="0.203955" stroke-miterlimit="10"/>
<g style="mix-blend-mode:multiply">
<path d="M164.003 103.366C161.348 105.844 158.134 106.716 156.804 105.31C155.474 103.904 156.571 100.749 159.226 98.2676C161.882 95.7859 165.096 94.9178 166.426 96.3238C167.756 97.7298 166.655 100.885 164.003 103.366Z" fill="#1F7BAC"/>
<path d="M164.003 103.366C161.348 105.844 158.134 106.716 156.804 105.31C155.474 103.904 156.571 100.749 159.226 98.2676C161.882 95.7859 165.096 94.9178 166.426 96.3238C167.756 97.7298 166.655 100.885 164.003 103.366Z" stroke="#2E353A" stroke-width="0.203955" stroke-miterlimit="10"/>
</g>
<path d="M124.923 65.7812C124.502 65.5127 124 65.4017 123.505 65.4679L116.305 68.7584C116.305 68.7584 113.87 70.1347 114.641 74.3485L143.794 95.8152C143.587 94.8242 143.625 93.3759 144.738 91.6565C145.772 90.0515 150.413 87.464 152.92 86.1511C141.054 77.5162 124.923 65.7812 124.923 65.7812Z" fill="#2E353A" stroke="#2E353A" stroke-width="0.274008" stroke-linecap="round" stroke-linejoin="round"/>
<path d="M158.375 98.1913L142.977 87.0323C142.747 86.8655 142.562 86.6434 142.44 86.3865C142.318 86.1295 142.263 85.846 142.279 85.562C142.296 85.2781 142.383 85.0028 142.534 84.7617C142.685 84.5205 142.894 84.3212 143.142 84.1822L145.527 82.8821C145.806 82.7306 146.123 82.6609 146.441 82.6812C146.758 82.7014 147.064 82.8107 147.322 82.9964L163.601 94.7864" fill="white"/>
<path d="M158.375 98.1913L142.977 87.0323C142.747 86.8655 142.562 86.6434 142.44 86.3865C142.318 86.1295 142.263 85.846 142.279 85.562C142.296 85.2781 142.383 85.0028 142.534 84.7617C142.685 84.5205 142.894 84.3212 143.142 84.1822L145.527 82.8821C145.806 82.7306 146.123 82.6609 146.441 82.6812C146.758 82.7014 147.064 82.8107 147.322 82.9964L163.601 94.7864" stroke="#2E353A" stroke-width="0.203955" stroke-miterlimit="10"/>
<g style="mix-blend-mode:multiply" opacity="0.5">
<path d="M158.375 98.1913L142.977 87.0323C142.747 86.8655 142.562 86.6434 142.44 86.3865C142.318 86.1295 142.263 85.846 142.279 85.562C142.296 85.2781 142.383 85.0028 142.534 84.7617C142.685 84.5205 142.894 84.3212 143.142 84.1822L145.527 82.8821C145.806 82.7306 146.123 82.6609 146.441 82.6812C146.758 82.7014 147.064 82.8107 147.322 82.9964L163.601 94.7864" fill="#1F7BAC"/>
<path d="M158.375 98.1913L142.977 87.0323C142.747 86.8655 142.562 86.6434 142.44 86.3865C142.318 86.1295 142.263 85.846 142.279 85.562C142.296 85.2781 142.383 85.0028 142.534 84.7617C142.685 84.5205 142.894 84.3212 143.142 84.1822L145.527 82.8821C145.806 82.7306 146.123 82.6609 146.441 82.6812C146.758 82.7014 147.064 82.8107 147.322 82.9964L163.601 94.7864" stroke="#2E353A" stroke-width="0.203955" stroke-miterlimit="10"/>
</g>
</svg>
