<svg width="37" height="38" viewBox="0 0 37 38" fill="none" xmlns="http://www.w3.org/2000/svg">
<g filter="url(#filter0_f)">
<path d="M6.85714 29.7143V6.85714H9.71429V16.8571L13.2857 14.7143L16.8571 16.8571V6.85714H24V16.9714C24.4714 16.9 24.9429 16.8571 25.4286 16.8571C25.9143 16.8571 26.3857 16.9 26.8571 16.9714V6.85714C26.8571 5.28571 25.5714 4 24 4H6.85714C5.28571 4 4 5.28571 4 6.85714V29.7143C4 31.2857 5.28571 32.5714 6.85714 32.5714H17.2286C16.6286 31.7143 16.1571 30.7429 15.8429 29.7143H6.85714ZM25.4286 19.7143C21.4857 19.7143 18.2857 22.9143 18.2857 26.8571C18.2857 30.8 21.4857 34 25.4286 34C29.3714 34 32.5714 30.8 32.5714 26.8571C32.5714 22.9143 29.3714 19.7143 25.4286 19.7143ZM23.6429 30.4286V23.2857L29.3571 26.8571L23.6429 30.4286Z" fill="#2395D2"/>
</g>
<path d="M6.85714 29.7143V6.85714H9.71429V16.8571L13.2857 14.7143L16.8571 16.8571V6.85714H24V16.9714C24.4714 16.9 24.9429 16.8571 25.4286 16.8571C25.9143 16.8571 26.3857 16.9 26.8571 16.9714V6.85714C26.8571 5.28571 25.5714 4 24 4H6.85714C5.28571 4 4 5.28571 4 6.85714V29.7143C4 31.2857 5.28571 32.5714 6.85714 32.5714H17.2286C16.6286 31.7143 16.1571 30.7429 15.8429 29.7143H6.85714ZM25.4286 19.7143C21.4857 19.7143 18.2857 22.9143 18.2857 26.8571C18.2857 30.8 21.4857 34 25.4286 34C29.3714 34 32.5714 30.8 32.5714 26.8571C32.5714 22.9143 29.3714 19.7143 25.4286 19.7143ZM23.6429 30.4286V23.2857L29.3571 26.8571L23.6429 30.4286Z" fill="#2395D2"/>
<defs>
<filter id="filter0_f" x="0" y="0" width="36.5714" height="38" filterUnits="userSpaceOnUse" color-interpolation-filters="sRGB">
<feFlood flood-opacity="0" result="BackgroundImageFix"/>
<feBlend mode="normal" in="SourceGraphic" in2="BackgroundImageFix" result="shape"/>
<feGaussianBlur stdDeviation="2" result="effect1_foregroundBlur"/>
</filter>
</defs>
</svg>
