<svg width="42" height="42" viewBox="0 0 42 42" fill="none" xmlns="http://www.w3.org/2000/svg">
<g filter="url(#filter0_f)">
<path d="M21 36C29.2843 36 36 29.2843 36 21C36 12.7157 29.2843 6 21 6C12.7157 6 6 12.7157 6 21C6 29.2843 12.7157 36 21 36Z" stroke="#2395D2" stroke-width="3" stroke-linecap="round" stroke-linejoin="round"/>
<path d="M25.5 27L21.879 23.379C21.3164 22.8165 21.0002 22.0536 21 21.258V12" stroke="#2395D2" stroke-width="3" stroke-linecap="round" stroke-linejoin="round"/>
</g>
<path d="M21 36C29.2843 36 36 29.2843 36 21C36 12.7157 29.2843 6 21 6C12.7157 6 6 12.7157 6 21C6 29.2843 12.7157 36 21 36Z" stroke="#2395D2" stroke-width="3" stroke-linecap="round" stroke-linejoin="round"/>
<path d="M25.5 27L21.879 23.379C21.3164 22.8165 21.0002 22.0536 21 21.258V12" stroke="#2395D2" stroke-width="3" stroke-linecap="round" stroke-linejoin="round"/>
<defs>
<filter id="filter0_f" x="0.5" y="0.5" width="41" height="41" filterUnits="userSpaceOnUse" color-interpolation-filters="sRGB">
<feFlood flood-opacity="0" result="BackgroundImageFix"/>
<feBlend mode="normal" in="SourceGraphic" in2="BackgroundImageFix" result="shape"/>
<feGaussianBlur stdDeviation="2" result="effect1_foregroundBlur"/>
</filter>
</defs>
</svg>
