<svg width="33" height="38" viewBox="0 0 33 38" fill="none" xmlns="http://www.w3.org/2000/svg">
<g filter="url(#filter0_f)">
<path d="M17.875 11.5C17.875 11.8978 17.717 12.2794 17.4357 12.5607C17.1544 12.842 16.7728 13 16.375 13C15.9772 13 15.5956 12.842 15.3143 12.5607C15.033 12.2794 14.875 11.8978 14.875 11.5C14.875 11.1022 15.033 10.7206 15.3143 10.4393C15.5956 10.158 15.9772 10 16.375 10C16.7728 10 17.1544 10.158 17.4357 10.4393C17.717 10.7206 17.875 11.1022 17.875 11.5Z" fill="#2395D2"/>
<path d="M15.25 15.625V23.125C15.25 23.4234 15.3685 23.7095 15.5795 23.9205C15.7905 24.1315 16.0766 24.25 16.375 24.25C16.6734 24.25 16.9595 24.1315 17.1705 23.9205C17.3815 23.7095 17.5 23.4234 17.5 23.125V15.625C17.5 15.3266 17.3815 15.0405 17.1705 14.8295C16.9595 14.6185 16.6734 14.5 16.375 14.5C16.0766 14.5 15.7905 14.6185 15.5795 14.8295C15.3685 15.0405 15.25 15.3266 15.25 15.625Z" fill="#2395D2"/>
<path d="M4 7.75C4 6.75544 4.39509 5.80161 5.09835 5.09835C5.80161 4.39509 6.75544 4 7.75 4H25C25.4925 4 25.9801 4.097 26.4351 4.28545C26.89 4.47391 27.3034 4.75013 27.6516 5.09835C27.9999 5.44657 28.2761 5.85997 28.4645 6.31494C28.653 6.76991 28.75 7.25754 28.75 7.75V29.125C28.75 29.4234 28.6315 29.7095 28.4205 29.9205C28.2095 30.1315 27.9234 30.25 27.625 30.25H6.25C6.25 30.6478 6.40804 31.0294 6.68934 31.3107C6.97064 31.592 7.35218 31.75 7.75 31.75H27.625C27.9234 31.75 28.2095 31.8685 28.4205 32.0795C28.6315 32.2905 28.75 32.5766 28.75 32.875C28.75 33.1734 28.6315 33.4595 28.4205 33.6705C28.2095 33.8815 27.9234 34 27.625 34H7.75C6.75544 34 5.80161 33.6049 5.09835 32.9016C4.39509 32.1984 4 31.2446 4 30.25V7.75ZM26.5 28V7.75C26.5 7.35218 26.342 6.97064 26.0607 6.68934C25.7794 6.40804 25.3978 6.25 25 6.25H7.75C7.35218 6.25 6.97064 6.40804 6.68934 6.68934C6.40804 6.97064 6.25 7.35218 6.25 7.75V28H26.5Z" fill="#2395D2"/>
</g>
<path d="M17.875 11.5C17.875 11.8978 17.717 12.2794 17.4357 12.5607C17.1544 12.842 16.7728 13 16.375 13C15.9772 13 15.5956 12.842 15.3143 12.5607C15.033 12.2794 14.875 11.8978 14.875 11.5C14.875 11.1022 15.033 10.7206 15.3143 10.4393C15.5956 10.158 15.9772 10 16.375 10C16.7728 10 17.1544 10.158 17.4357 10.4393C17.717 10.7206 17.875 11.1022 17.875 11.5Z" fill="#2395D2"/>
<path d="M15.25 15.625V23.125C15.25 23.4234 15.3685 23.7095 15.5795 23.9205C15.7905 24.1315 16.0766 24.25 16.375 24.25C16.6734 24.25 16.9595 24.1315 17.1705 23.9205C17.3815 23.7095 17.5 23.4234 17.5 23.125V15.625C17.5 15.3266 17.3815 15.0405 17.1705 14.8295C16.9595 14.6185 16.6734 14.5 16.375 14.5C16.0766 14.5 15.7905 14.6185 15.5795 14.8295C15.3685 15.0405 15.25 15.3266 15.25 15.625Z" fill="#2395D2"/>
<path d="M4 7.75C4 6.75544 4.39509 5.80161 5.09835 5.09835C5.80161 4.39509 6.75544 4 7.75 4H25C25.4925 4 25.9801 4.097 26.4351 4.28545C26.89 4.47391 27.3034 4.75013 27.6516 5.09835C27.9999 5.44657 28.2761 5.85997 28.4645 6.31494C28.653 6.76991 28.75 7.25754 28.75 7.75V29.125C28.75 29.4234 28.6315 29.7095 28.4205 29.9205C28.2095 30.1315 27.9234 30.25 27.625 30.25H6.25C6.25 30.6478 6.40804 31.0294 6.68934 31.3107C6.97064 31.592 7.35218 31.75 7.75 31.75H27.625C27.9234 31.75 28.2095 31.8685 28.4205 32.0795C28.6315 32.2905 28.75 32.5766 28.75 32.875C28.75 33.1734 28.6315 33.4595 28.4205 33.6705C28.2095 33.8815 27.9234 34 27.625 34H7.75C6.75544 34 5.80161 33.6049 5.09835 32.9016C4.39509 32.1984 4 31.2446 4 30.25V7.75ZM26.5 28V7.75C26.5 7.35218 26.342 6.97064 26.0607 6.68934C25.7794 6.40804 25.3978 6.25 25 6.25H7.75C7.35218 6.25 6.97064 6.40804 6.68934 6.68934C6.40804 6.97064 6.25 7.35218 6.25 7.75V28H26.5Z" fill="#2395D2"/>
<defs>
<filter id="filter0_f" x="0" y="0" width="32.75" height="38" filterUnits="userSpaceOnUse" color-interpolation-filters="sRGB">
<feFlood flood-opacity="0" result="BackgroundImageFix"/>
<feBlend mode="normal" in="SourceGraphic" in2="BackgroundImageFix" result="shape"/>
<feGaussianBlur stdDeviation="2" result="effect1_foregroundBlur"/>
</filter>
</defs>
</svg>
