<svg width="191" height="45" viewBox="0 0 191 45" fill="none" xmlns="http://www.w3.org/2000/svg">
<path d="M11.8057 39.1206C13.4727 37.671 13.649 35.1445 12.1995 33.4774C10.7499 31.8104 8.22341 31.6341 6.55636 33.0836L11.8057 39.1206ZM20.6203 22.4795C18.7728 23.6908 18.2571 26.1704 19.4683 28.0178C20.6796 29.8653 23.1592 30.3811 25.0067 29.1698L20.6203 22.4795ZM39.4305 20.9668C41.416 19.9981 42.2403 17.6033 41.2716 15.6179C40.303 13.6324 37.9082 12.8082 35.9228 13.7768L39.4305 20.9668ZM52.2014 7.08522C50.1084 7.7919 48.9845 10.0615 49.6912 12.1546C50.3979 14.2477 52.6675 15.3715 54.7606 14.6649L52.2014 7.08522ZM70.7799 10.3985C72.9473 9.97114 74.3579 7.86766 73.9306 5.70025C73.5032 3.53284 71.3997 2.12226 69.2323 2.54962L70.7799 10.3985ZM86.6824 0.281872C84.4778 0.423441 82.8054 2.32538 82.9469 4.52998C83.0885 6.73458 84.9904 8.407 87.195 8.26543L86.6824 0.281872ZM103.805 8.26543C106.01 8.407 107.912 6.73458 108.053 4.52998C108.195 2.32538 106.522 0.423441 104.318 0.281872L103.805 8.26543ZM121.768 2.54962C119.6 2.12226 117.497 3.53284 117.069 5.70025C116.642 7.86766 118.053 9.97114 120.22 10.3985L121.768 2.54962ZM136.239 14.6649C138.333 15.3715 140.602 14.2477 141.309 12.1546C142.016 10.0615 140.892 7.79191 138.799 7.08522L136.239 14.6649ZM155.077 13.7768C153.092 12.8082 150.697 13.6324 149.728 15.6179C148.76 17.6033 149.584 19.9981 151.569 20.9668L155.077 13.7768ZM165.993 29.1698C167.841 30.3811 170.32 29.8653 171.532 28.0178C172.743 26.1704 172.227 23.6908 170.38 22.4795L165.993 29.1698ZM184.444 33.0836C182.777 31.6341 180.25 31.8104 178.801 33.4774C177.351 35.1445 177.527 37.671 179.194 39.1206L184.444 33.0836ZM3 42C5.98097 44.6672 5.9807 44.6675 5.98043 44.6678C5.98036 44.6679 5.9801 44.6681 5.97995 44.6683C5.97965 44.6687 5.97937 44.669 5.97913 44.6692C5.97864 44.6698 5.97829 44.6702 5.97806 44.6704C5.9776 44.6709 5.97765 44.6709 5.97821 44.6703C5.97932 44.669 5.98248 44.6655 5.98766 44.6598C5.99802 44.6484 6.01651 44.6281 6.04308 44.5992C6.09623 44.5414 6.1817 44.4492 6.29921 44.325C6.53424 44.0765 6.89729 43.6998 7.38605 43.2131C8.36376 42.2395 9.84316 40.827 11.8057 39.1206L6.55636 33.0836C4.44712 34.9177 2.83602 36.4541 1.74115 37.5443C1.19362 38.0896 0.774877 38.5235 0.48718 38.8277C0.343322 38.9798 0.232196 39.0995 0.154087 39.1844C0.115031 39.2269 0.0842252 39.2607 0.0617058 39.2855C0.050446 39.2979 0.0412574 39.3081 0.0341442 39.316C0.0305874 39.3199 0.0275497 39.3233 0.0250313 39.3261C0.0237722 39.3275 0.0226429 39.3288 0.0216434 39.3299C0.0211437 39.3305 0.0206764 39.331 0.0202415 39.3315C0.0200243 39.3317 0.0197225 39.3321 0.0196137 39.3322C0.0193202 39.3325 0.0190349 39.3328 3 42ZM25.0067 29.1698C29.1774 26.4353 33.9961 23.6181 39.4305 20.9668L35.9228 13.7768C30.1571 16.5897 25.0457 19.578 20.6203 22.4795L25.0067 29.1698ZM54.7606 14.6649C59.7546 12.9787 65.099 11.5186 70.7799 10.3985L69.2323 2.54962C63.1907 3.74088 57.5086 5.29335 52.2014 7.08522L54.7606 14.6649ZM87.195 8.26543C89.9027 8.09155 92.6714 8 95.5 8V0C92.4986 0 89.559 0.0971484 86.6824 0.281872L87.195 8.26543ZM95.5 8C98.3286 8 101.097 8.09155 103.805 8.26543L104.318 0.281872C101.441 0.0971484 98.5014 0 95.5 0V8ZM120.22 10.3985C125.901 11.5186 131.245 12.9787 136.239 14.6649L138.799 7.08522C133.491 5.29335 127.809 3.74088 121.768 2.54962L120.22 10.3985ZM151.569 20.9668C157.004 23.6181 161.823 26.4353 165.993 29.1698L170.38 22.4795C165.954 19.578 160.843 16.5897 155.077 13.7768L151.569 20.9668ZM179.194 39.1206C181.157 40.827 182.636 42.2395 183.614 43.2131C184.103 43.6998 184.466 44.0765 184.701 44.325C184.818 44.4492 184.904 44.5414 184.957 44.5992C184.983 44.6281 185.002 44.6484 185.012 44.6598C185.018 44.6655 185.021 44.669 185.022 44.6703C185.022 44.6709 185.022 44.6709 185.022 44.6704C185.022 44.6702 185.021 44.6698 185.021 44.6692C185.021 44.669 185.02 44.6687 185.02 44.6683C185.02 44.6681 185.02 44.6679 185.02 44.6678C185.019 44.6675 185.019 44.6672 188 42C190.981 39.3328 190.981 39.3325 190.98 39.3322C190.98 39.3321 190.98 39.3317 190.98 39.3315C190.979 39.331 190.979 39.3305 190.978 39.3299C190.977 39.3288 190.976 39.3275 190.975 39.3261C190.972 39.3233 190.969 39.3199 190.966 39.316C190.959 39.3081 190.95 39.2979 190.938 39.2855C190.916 39.2607 190.885 39.2269 190.846 39.1844C190.768 39.0995 190.657 38.9798 190.513 38.8277C190.225 38.5235 189.806 38.0896 189.259 37.5443C188.164 36.4541 186.553 34.9177 184.444 33.0836L179.194 39.1206Z" fill="#F1F1F1"/>
</svg>
