<svg width="225" height="50" viewBox="0 0 225 50" fill="none" xmlns="http://www.w3.org/2000/svg">
<path d="M68.1255 38.3279L64.3081 32.8554C64.1479 32.8732 63.9077 32.8821 63.5874 32.8821H59.3696V38.3279H55.8992V19.6414H63.5874C65.2068 19.6414 66.6128 19.9084 67.8051 20.4423C69.0153 20.9762 69.9407 21.7414 70.5814 22.738C71.2221 23.7347 71.5424 24.9181 71.5424 26.2885C71.5424 27.6944 71.1954 28.9046 70.5013 29.919C69.8251 30.9334 68.8462 31.6897 67.5649 32.1881L71.8628 38.3279H68.1255ZM68.0454 26.2885C68.0454 25.0961 67.6539 24.1796 66.8708 23.5389C66.0878 22.8982 64.9399 22.5779 63.4272 22.5779H59.3696V30.0258H63.4272C64.9399 30.0258 66.0878 29.7054 66.8708 29.0647C67.6539 28.4063 68.0454 27.4808 68.0454 26.2885ZM84.6615 38.5948C82.081 38.5948 80.07 37.8741 78.6285 36.4325C77.187 34.9732 76.4662 32.891 76.4662 30.1859V19.6414H79.9365V30.0525C79.9365 33.7186 81.5204 35.5516 84.6882 35.5516C87.8382 35.5516 89.4132 33.7186 89.4132 30.0525V19.6414H92.8302V30.1859C92.8302 32.891 92.1094 34.9732 90.6679 36.4325C89.2442 37.8741 87.242 38.5948 84.6615 38.5948ZM112.132 28.6109C113.164 28.9491 113.983 29.5186 114.588 30.3194C115.193 31.1025 115.496 32.0813 115.496 33.2558C115.496 34.8753 114.873 36.13 113.627 37.0198C112.381 37.8919 110.566 38.3279 108.181 38.3279H98.8916V19.6414H107.648C109.854 19.6414 111.554 20.0775 112.746 20.9495C113.939 21.8037 114.535 22.9872 114.535 24.4999C114.535 25.4253 114.321 26.244 113.894 26.9558C113.467 27.6677 112.88 28.2194 112.132 28.6109ZM102.362 22.3643V27.5164H107.274C108.484 27.5164 109.409 27.3029 110.05 26.8758C110.709 26.4308 111.038 25.7902 111.038 24.9537C111.038 24.0995 110.709 23.4588 110.05 23.0317C109.409 22.5868 108.484 22.3643 107.274 22.3643H102.362ZM107.968 35.605C110.655 35.605 111.999 34.7063 111.999 32.9088C111.999 31.1114 110.655 30.2126 107.968 30.2126H102.362V35.605H107.968ZM123.931 22.5779H117.738V19.6414H133.594V22.5779H127.401V38.3279H123.931V22.5779ZM143.01 38.5948C141.569 38.5948 140.172 38.3902 138.819 37.9808C137.485 37.5715 136.426 37.0287 135.643 36.3525L136.844 33.6563C137.609 34.2614 138.543 34.7597 139.647 35.1512C140.768 35.5249 141.889 35.7118 143.01 35.7118C144.398 35.7118 145.431 35.4893 146.107 35.0444C146.801 34.5995 147.148 34.0122 147.148 33.2825C147.148 32.7486 146.952 32.3126 146.561 31.9745C146.187 31.6186 145.707 31.3427 145.119 31.1469C144.532 30.9512 143.731 30.7287 142.717 30.4796C141.293 30.1414 140.136 29.8033 139.246 29.4652C138.374 29.127 137.618 28.602 136.977 27.8902C136.354 27.1605 136.043 26.1817 136.043 24.9537C136.043 23.9215 136.319 22.9872 136.871 22.1508C137.44 21.2965 138.285 20.6203 139.407 20.1219C140.546 19.6236 141.934 19.3745 143.571 19.3745C144.71 19.3745 145.831 19.5169 146.935 19.8016C148.038 20.0864 148.99 20.4957 149.791 21.0296L148.696 23.7258C147.878 23.2453 147.023 22.8804 146.134 22.6313C145.244 22.3821 144.381 22.2575 143.544 22.2575C142.174 22.2575 141.151 22.4889 140.474 22.9516C139.816 23.4143 139.487 24.0283 139.487 24.7936C139.487 25.3275 139.673 25.7635 140.047 26.1016C140.439 26.4397 140.928 26.7067 141.515 26.9025C142.103 27.0982 142.904 27.3207 143.918 27.5698C145.306 27.8902 146.445 28.2283 147.335 28.5842C148.225 28.9224 148.981 29.4474 149.604 30.1592C150.245 30.8711 150.565 31.8321 150.565 33.0423C150.565 34.0745 150.28 35.0088 149.711 35.8453C149.159 36.6817 148.314 37.3491 147.175 37.8474C146.036 38.3457 144.648 38.5948 143.01 38.5948ZM163.937 38.5948C162.032 38.5948 160.315 38.1855 158.785 37.3669C157.254 36.5304 156.053 35.3825 155.181 33.9232C154.309 32.4461 153.873 30.7999 153.873 28.9847C153.873 27.1694 154.309 25.5321 155.181 24.0728C156.053 22.5957 157.254 21.4478 158.785 20.6292C160.315 19.7927 162.032 19.3745 163.937 19.3745C165.841 19.3745 167.558 19.7927 169.089 20.6292C170.619 21.4478 171.821 22.5868 172.693 24.0461C173.565 25.5054 174.001 27.1516 174.001 28.9847C174.001 30.8177 173.565 32.4639 172.693 33.9232C171.821 35.3825 170.619 36.5304 169.089 37.3669C167.558 38.1855 165.841 38.5948 163.937 38.5948ZM163.937 35.5516C165.182 35.5516 166.304 35.2758 167.3 34.7241C168.297 34.1546 169.08 33.3715 169.649 32.3749C170.219 31.3605 170.504 30.2304 170.504 28.9847C170.504 27.7389 170.219 26.6177 169.649 25.6211C169.08 24.6067 168.297 23.8236 167.3 23.2719C166.304 22.7025 165.182 22.4177 163.937 22.4177C162.691 22.4177 161.57 22.7025 160.573 23.2719C159.576 23.8236 158.793 24.6067 158.224 25.6211C157.654 26.6177 157.37 27.7389 157.37 28.9847C157.37 30.2304 157.654 31.3605 158.224 32.3749C158.793 33.3715 159.576 34.1546 160.573 34.7241C161.57 35.2758 162.691 35.5516 163.937 35.5516ZM195.366 19.6414L187.224 38.3279H183.807L175.638 19.6414H179.402L185.622 34.0567L191.895 19.6414H195.366Z" fill="white"/>
<path d="M212.17 28.6109C213.203 28.9491 214.021 29.5186 214.626 30.3194C215.231 31.1025 215.534 32.0813 215.534 33.2558C215.534 34.8753 214.911 36.13 213.665 37.0198C212.42 37.8919 210.604 38.3279 208.22 38.3279H198.93V19.6414H207.686C209.892 19.6414 211.592 20.0775 212.784 20.9495C213.977 21.8037 214.573 22.9872 214.573 24.4999C214.573 25.4253 214.359 26.244 213.932 26.9558C213.505 27.6677 212.918 28.2194 212.17 28.6109ZM202.4 22.3643V27.5164H207.312C208.522 27.5164 209.448 27.3029 210.088 26.8758C210.747 26.4308 211.076 25.7902 211.076 24.9537C211.076 24.0995 210.747 23.4588 210.088 23.0317C209.448 22.5868 208.522 22.3643 207.312 22.3643H202.4ZM208.006 35.605C210.693 35.605 212.037 34.7063 212.037 32.9088C212.037 31.1114 210.693 30.2126 208.006 30.2126H202.4V35.605H208.006Z" fill="#2395D2"/>
<path d="M221.186 38.5147C220.581 38.5147 220.065 38.3101 219.638 37.9008C219.211 37.4736 218.997 36.9397 218.997 36.2991C218.997 35.6406 219.202 35.1067 219.611 34.6974C220.039 34.2881 220.564 34.0834 221.186 34.0834C221.809 34.0834 222.325 34.2881 222.735 34.6974C223.162 35.1067 223.375 35.6406 223.375 36.2991C223.375 36.9397 223.162 37.4736 222.735 37.9008C222.308 38.3101 221.792 38.5147 221.186 38.5147Z" fill="#D62B34"/>
<circle cx="21.2411" cy="28.9848" r="20.4957" fill="#2395D2"/>
<g opacity="0.4">
<path fill-rule="evenodd" clip-rule="evenodd" d="M33.674 12.6894C33.5121 13.085 33.29 13.4721 33.0659 13.8629C32.7088 14.4852 32.3466 15.1168 32.2137 15.8066C32.0612 16.5979 32.2167 17.4994 32.3685 18.3801C32.6089 19.7743 32.8403 21.1163 31.8273 21.8862C30.7294 22.7205 29.3664 22.0593 27.9845 21.3889C27.3009 21.0573 26.6127 20.7234 25.9496 20.5672C25.5707 20.4779 25.1974 20.3957 24.8276 20.3143C23.803 20.0887 22.8046 19.8689 21.784 19.52C21.1391 19.2996 20.3906 19.1835 19.642 19.0673C17.9543 18.8055 16.2662 18.5437 15.7647 17.0858C15.3448 15.8653 16.3023 14.8861 17.3032 13.8625C18.0163 13.1334 18.7513 12.3817 19.0262 11.5041C19.3062 10.6102 19.1715 9.59807 19.0338 8.60652C19.7589 8.52887 20.4953 8.48904 21.2411 8.48904C25.9161 8.48904 30.2256 10.0543 33.674 12.6894Z" fill="#00DB4A"/>
<path fill-rule="evenodd" clip-rule="evenodd" d="M15.6536 16.4467C15.6396 16.7024 15.6981 16.9677 15.8501 17.2463C16.3557 18.7159 18.1749 19.0168 19.9413 19.3089H19.9413C20.7043 19.4351 21.4574 19.5597 22.0906 19.7761C23.1112 20.1249 24.1097 20.3448 25.1342 20.5704L25.1342 20.5704C25.5041 20.6518 25.8773 20.734 26.2562 20.8233C26.9193 20.9795 27.6075 21.3134 28.2911 21.645C29.6731 22.3154 31.0361 22.9766 32.1339 22.1423C33.147 21.3724 32.9156 20.0303 32.6752 18.6362C32.5233 17.7555 32.3679 16.8539 32.5203 16.0627C32.6483 15.3982 32.9444 14.7947 33.2348 14.2027C33.4629 13.7378 33.6876 13.28 33.8245 12.8053C33.7042 12.7116 33.5828 12.6192 33.4604 12.5281C33.3225 12.8111 33.1617 13.0914 32.9999 13.3736C32.6428 13.996 32.2805 14.6275 32.1476 15.3174C31.9952 16.1086 32.1506 17.0101 32.3025 17.8909C32.5429 19.285 32.7743 20.6271 31.7613 21.397C30.6634 22.2313 29.3004 21.5701 27.9185 20.8997C27.2349 20.568 26.5466 20.2342 25.8836 20.0779C25.5047 19.9887 25.1314 19.9065 24.7615 19.825C23.737 19.5995 22.7385 19.3796 21.718 19.0308C21.073 18.8103 20.3245 18.6942 19.576 18.5781C17.8882 18.3163 16.2002 18.0544 15.6987 16.5966C15.6813 16.5462 15.6664 16.4963 15.6536 16.4467Z" fill="#00882E"/>
</g>
<g opacity="0.4">
<path fill-rule="evenodd" clip-rule="evenodd" d="M1.63903 35.5398C0.999161 33.5557 0.653517 31.4396 0.653517 29.2427C0.653517 26.6397 1.13878 24.1499 2.02378 21.8591C2.56051 22.3025 3.11835 22.6902 3.74388 22.6591C4.67761 22.6126 5.63508 21.8589 6.5388 21.1475C7.71258 20.2236 8.79569 19.371 9.61833 20.232C10.4669 21.1202 9.69395 22.2981 8.87902 23.54C8.164 24.6296 7.4167 25.7685 7.70414 26.8039C7.95753 27.7167 8.98238 28.0574 10.0097 28.399C11.0277 28.7374 12.0481 29.0767 12.3228 29.9742C12.7938 31.5129 11.4299 33.423 9.96049 34.1749C9.0944 34.6181 8.14196 34.3542 7.17063 34.085C6.40932 33.8741 5.63641 33.66 4.88438 33.7805C4.26752 33.8794 3.77088 34.2609 3.27093 34.645C2.83138 34.9826 2.38926 35.3222 1.86064 35.4735C1.78748 35.4944 1.71358 35.5166 1.63903 35.5398Z" fill="#00DB4A"/>
<path fill-rule="evenodd" clip-rule="evenodd" d="M1.64318 35.5529C1.5689 35.3231 1.49856 35.0915 1.43226 34.8582C1.51868 34.8311 1.60427 34.8052 1.68885 34.781C2.21748 34.6298 2.65959 34.2902 3.09914 33.9525L3.09915 33.9525C3.5991 33.5685 4.09573 33.187 4.71259 33.0881C5.46463 32.9675 6.23754 33.1817 6.99885 33.3926C7.97018 33.6617 8.92262 33.9256 9.78871 33.4824C11.1024 32.8102 12.3319 31.2121 12.241 29.7814C12.3293 29.9243 12.4034 30.0826 12.4607 30.259C12.9949 31.9052 11.3093 33.4741 9.83992 34.2259C8.97383 34.6691 8.02139 34.4053 7.05006 34.1361C6.28875 33.9252 5.51584 33.711 4.7638 33.8316C4.14694 33.9305 3.6503 34.312 3.15035 34.696C2.7108 35.0337 2.26869 35.3733 1.74006 35.5246C1.70791 35.5338 1.67561 35.5432 1.64318 35.5529ZM7.53236 26.1114C7.56142 26.2161 7.60063 26.3133 7.64883 26.4038C7.59041 25.4912 8.26862 24.4478 8.91446 23.4542C9.67083 22.2905 10.3828 21.1952 9.81514 20.4583C9.80389 21.1764 9.2654 21.997 8.70724 22.8476L8.70724 22.8476L8.70724 22.8476C7.99222 23.9372 7.24492 25.076 7.53236 26.1114Z" fill="#00882E"/>
</g>
<g opacity="0.4">
<path fill-rule="evenodd" clip-rule="evenodd" d="M28.7168 28.6237C29.7977 29.1135 31.1484 29.337 31.758 30.3546C32.3656 31.369 31.7476 32.6608 31.841 33.8391C31.9217 34.8566 32.4511 35.8138 32.2707 36.8182C32.0768 37.8974 31.4663 38.8296 30.7894 39.6924C30.0043 40.6931 29.2577 41.9096 28.0258 42.2289C26.7885 42.5497 25.3488 42.1666 24.357 41.3599C23.4106 40.5902 23.5051 39.1325 22.91 38.068C22.4641 37.2704 21.717 36.7185 21.3057 35.9025C20.7864 34.8719 19.7578 33.7518 20.1973 32.6853C20.6456 31.5971 22.4902 31.9659 23.2854 31.0979C24.2419 30.0537 23.8081 27.9234 25.0972 27.3362C26.2823 26.7964 27.5302 28.086 28.7168 28.6237Z" fill="#00DB4A"/>
<path fill-rule="evenodd" clip-rule="evenodd" d="M24.0615 41.0663C24.1702 41.23 24.3001 41.3793 24.4596 41.509C25.4514 42.3157 26.8911 42.6988 28.1285 42.378C29.1785 42.1058 29.876 41.1818 30.5452 40.2952C30.6611 40.1416 30.7762 39.9892 30.8921 39.8414C31.5689 38.9787 32.1794 38.0465 32.3733 36.9673C32.4831 36.3559 32.33 35.762 32.1751 35.1614C32.0755 34.7753 31.9752 34.3864 31.9436 33.9882C31.9094 33.5562 31.9697 33.0969 32.0298 32.6384C32.1338 31.8461 32.2375 31.0562 31.8526 30.4137C31.6669 30.1036 31.4131 29.8757 31.1195 29.6947C31.1746 29.764 31.2258 29.8375 31.2726 29.9156C31.6557 30.5552 31.5516 31.3051 31.4458 32.0672C31.3838 32.5139 31.3212 32.9648 31.3557 33.4002C31.3873 33.7983 31.4876 34.1873 31.5872 34.5734C31.742 35.174 31.8952 35.7679 31.7853 36.3793C31.5915 37.4585 30.981 38.3907 30.3041 39.2534C30.1882 39.4012 30.0732 39.5536 29.9572 39.7071C29.288 40.5938 28.5905 41.5178 27.5405 41.79C26.38 42.0908 25.0416 41.7725 24.0615 41.0663Z" fill="#00882E"/>
</g>
<path fill-rule="evenodd" clip-rule="evenodd" d="M17.7271 45.9664C29.0466 45.9664 38.2228 36.7902 38.2228 25.4707C38.2228 20.7608 36.6342 16.422 33.9635 12.9608C38.8207 16.7088 41.9493 22.5876 41.9493 29.1972C41.9493 40.5167 32.7731 49.6929 21.4536 49.6929C14.844 49.6929 8.9652 46.5642 5.21729 41.707C8.67843 44.3777 13.0173 45.9664 17.7271 45.9664Z" fill="#165A7D"/>
<path opacity="0.88" d="M41.178 34.9472C36.8157 42.2868 25.1257 47.6127 19.937 49.6668C20.5177 49.7164 21.1731 49.8531 21.7671 49.8531C31.1758 49.8531 38.6705 43.5459 41.178 34.9472ZM36.6094 25.862C36.6606 19.3471 35.744 19.2793 29.9911 20.071C27.1734 20.459 24.6915 21.4931 20.891 23.3801L12.6182 30.8256C12.6182 30.8256 11.3458 28.4249 9.30906 31.6529C7.93908 33.8245 8.48178 35.7893 8.48178 35.7893C8.48178 35.7893 10.9636 33.0485 13.4455 32.4802C14.6756 32.1981 23.3985 27.5935 23.3728 33.3075C23.3497 38.4821 13.6151 45.4793 11.3938 47.061C11.7189 47.2497 12.049 47.43 12.3849 47.6013C13.7698 47.3886 16.2036 46.6805 20.0629 44.8903C25.8034 42.2264 36.5514 33.1611 36.6094 25.862Z" fill="white" fill-opacity="0.65"/>
<path opacity="0.88" d="M6.11498 29.9984C9.37282 22.8887 8.414 22.4709 11.0787 20.8983C13.4629 19.4911 14.478 23.3528 16.0076 21.0265C22.0989 11.7626 33.9009 18.7597 29.2789 15.1073C24.8066 11.5897 16.2376 13.6711 13.5605 15.1073C9.41997 17.2715 6.60639 21.9258 5.2877 23.3801C3.92351 24.8858 4.62091 27.5165 3.63314 27.5165L2.80586 25.862C2.80586 25.862 3.55537 22.7597 4.46042 21.7255C8.72588 15.0039 15.4393 10.6425 22.6606 9.31633C23.7617 9.11447 24.4111 8.95067 24.7156 8.8183C23.5074 8.60098 22.2824 8.4908 21.0549 8.48904C9.63258 8.48904 0.37282 17.7488 0.37282 29.1711C0.366325 33.9279 2.02218 37.9704 5.03092 41.6548C5.62574 39.5651 3.72827 35.2078 6.11498 29.9984Z" fill="white" fill-opacity="0.65"/>
<path d="M38.7712 5.50177C41.7606 4.97423 43.5191 3.21458 44.0467 0.226349C44.5742 3.21458 46.3327 4.97423 49.3221 5.50177C46.3327 6.02931 44.5742 7.78779 44.0467 10.7772C43.5191 7.78779 41.7606 6.03049 38.7712 5.50177Z" fill="white"/>
</svg>
