<svg width="227" height="152" viewBox="0 0 227 152" fill="none" xmlns="http://www.w3.org/2000/svg">
<path d="M17.5498 133.121L49.8521 98.8902C50.6135 98.0628 51.5383 97.4024 52.568 96.9506C53.5977 96.4989 54.7099 96.2656 55.8343 96.2656C56.9587 96.2656 58.0709 96.4989 59.1006 96.9506C60.1303 97.4024 61.055 98.0628 61.8164 98.8902L94.1187 133.121H17.5498Z" fill="#F5F5F5"/>
<path d="M61.8162 98.8902C60.8696 97.8624 59.6741 97.096 58.345 96.6648C57.0159 96.2336 55.5981 96.1523 54.2284 96.4287C53.0225 101.288 52.2457 108.375 56.6629 111.686C63.7403 116.992 54.9782 122.444 54.9782 127.782C55.0619 129.636 55.5229 131.452 56.3331 133.121H94.1231L61.8162 98.8902Z" fill="#EBEBEB"/>
<path d="M45.1184 133.546H31.8984V93.9268L45.1184 87.5991V133.546Z" fill="#F0F0F0"/>
<path d="M36.6682 96.3022H34.2021V98.7683H36.6682V96.3022Z" fill="#C5C5C5"/>
<path d="M41.9748 100.787H39.5088V103.253H41.9748V100.787Z" fill="#C5C5C5"/>
<path d="M36.6682 105.276H34.2021V107.742H36.6682V105.276Z" fill="#C5C5C5"/>
<path d="M41.9748 109.761H39.5088V112.227H41.9748V109.761Z" fill="#C5C5C5"/>
<path d="M41.9748 114.251H39.5088V116.717H41.9748V114.251Z" fill="#C5C5C5"/>
<path d="M36.6682 118.736H34.2021V121.202H36.6682V118.736Z" fill="#C5C5C5"/>
<path d="M41.9748 127.71H39.5088V130.176H41.9748V127.71Z" fill="#C5C5C5"/>
<path d="M28.1906 57.067C28.1906 57.067 76.4724 64.0361 80.4922 52.5911C84.3132 41.7108 77.0596 49.7412 68.162 49.1992C64.6165 48.9824 67.6742 38.6034 58.6321 38.6486C49.7932 38.6892 52.0244 48.7205 48.4157 48.8605C46.5729 48.9282 47.5124 44.633 42.1196 45.0079C36.2752 45.4144 37.7431 51.6472 35.6203 53.1647C33.9176 54.3842 27.8248 51.2136 28.1906 57.067Z" fill="#F0F0F0"/>
<path d="M19.4962 59.5916C19.4962 59.5916 49.2241 63.8823 51.6947 56.8365C54.0478 50.1385 49.5854 55.0796 44.1069 54.7454C41.9209 54.6144 43.8043 48.2235 38.2354 48.2506C32.8155 48.2777 34.1705 54.4563 31.9438 54.5376C30.8102 54.5828 31.3883 51.9361 28.0686 52.1664C24.4554 52.4193 25.3587 56.2539 24.067 57.1888C23.0191 57.9386 19.2749 55.9874 19.4962 59.5916Z" fill="#D8D8D8"/>
<path d="M188.257 127.241H195.944V113.709L188.257 110.8V127.241Z" fill="#EBEBEB"/>
<path d="M191.535 114.739H192.669V113.605H191.535V114.739Z" fill="#C5C5C5"/>
<path d="M189.092 114.739H190.226V113.605H189.092V114.739Z" fill="#C5C5C5"/>
<path d="M193.97 116.803H195.104V115.67H193.97V116.803Z" fill="#C5C5C5"/>
<path d="M191.535 118.866H192.669V117.733H191.535V118.866Z" fill="#C5C5C5"/>
<path d="M189.092 118.866H190.226V117.733H189.092V118.866Z" fill="#C5C5C5"/>
<path d="M193.97 120.926H195.104V119.793H193.97V120.926Z" fill="#C5C5C5"/>
<path d="M192.665 122.317H191.531V123.451H192.665V122.317Z" fill="#C5C5C5"/>
<path d="M195.104 122.317H193.97V123.451H195.104V122.317Z" fill="#C5C5C5"/>
<path d="M190.23 124.377H189.097V125.511H190.23V124.377Z" fill="#C5C5C5"/>
<path d="M185.014 95.3714V91.1349H183.998V86.4015H183.144V84.2607L181.428 81.7314L179.711 84.2607V86.4015H178.858V91.1349H177.842V95.3714H176.816V120.158H186.044V95.3714H185.014Z" fill="#EBEBEB"/>
<path d="M182.065 96.6953H180.787V97.9735H182.065V96.6953Z" fill="#FD0000"/>
<path d="M184.82 96.6953H183.542V97.9735H184.82V96.6953Z" fill="#FD0000"/>
<path d="M179.314 101.352H178.036V102.63H179.314V101.352Z" fill="#FD0000"/>
<path d="M184.82 101.352H183.542V102.63H184.82V101.352Z" fill="#FD0000"/>
<path d="M182.065 103.683H180.787V104.961H182.065V103.683Z" fill="#FD0000"/>
<path d="M179.314 106.008H178.036V107.286H179.314V106.008Z" fill="#FD0000"/>
<path d="M182.065 106.008H180.787V107.286H182.065V106.008Z" fill="#FD0000"/>
<path d="M184.82 108.338H183.542V109.617H184.82V108.338Z" fill="#FD0000"/>
<path d="M179.314 110.669H178.036V111.948H179.314V110.669Z" fill="#FD0000"/>
<path d="M182.065 112.995H180.787V114.273H182.065V112.995Z" fill="#FD0000"/>
<path d="M184.82 112.995H183.542V114.273H184.82V112.995Z" fill="#FD0000"/>
<path d="M203.694 140.609H188.735V140.722H203.694V140.609Z" fill="#EBEBEB"/>
<path d="M150.092 141.838H146.167V141.951H150.092V141.838Z" fill="#EBEBEB"/>
<path d="M188.284 136.418H179.617V136.531H188.284V136.418Z" fill="#EBEBEB"/>
<path d="M43.6959 137.177H24.189V137.29H43.6959V137.177Z" fill="#EBEBEB"/>
<path d="M50.5787 137.177H47.7197V137.29H50.5787V137.177Z" fill="#EBEBEB"/>
<path d="M102.185 139.083H59.874V139.196H102.185V139.083Z" fill="#EBEBEB"/>
<path d="M226.322 133.342H0.495117V133.455H226.322V133.342Z" fill="#EBEBEB"/>
<path d="M133.124 133.121L164.527 111.867C167.738 109.69 172.95 109.69 176.162 111.867L207.565 133.121H133.124Z" fill="#F5F5F5"/>
<path d="M176.161 111.866C174.156 110.511 171.374 110.001 168.781 110.335C167.612 113.352 166.857 117.756 171.153 119.82C178.031 123.112 169.508 126.5 169.508 129.815C169.508 130.885 170.069 132.046 170.827 133.13H207.565L176.161 111.866Z" fill="#EBEBEB"/>
<path d="M70.212 128.844L80.8213 112.065C81.0562 111.69 80.8845 111.022 80.5503 111.022H70.8714C74.1835 105.777 77.4956 100.531 80.8078 95.2863C81.0426 94.9114 80.871 94.2429 80.5368 94.2429H70.8714C74.1835 89.0007 77.4956 83.7555 80.8078 78.5073C81.0426 78.1324 80.871 77.464 80.5368 77.464H70.8714C74.1835 72.2188 77.4956 66.9736 80.8078 61.7283C81.0426 61.3535 80.871 60.685 80.5368 60.685H70.8714C74.1835 55.4398 77.4956 50.1946 80.8078 44.9494C81.0426 44.579 80.871 43.9106 80.5368 43.9106H70.8714L80.8078 28.1704C81.0426 27.8001 80.871 27.1316 80.5368 27.1316H70.8714L80.8078 11.396C81.1601 10.8359 80.6135 9.97329 80.2613 10.5288L69.6519 27.3078C69.5967 27.4058 69.5625 27.5143 69.5516 27.6263C69.5408 27.7383 69.5534 27.8513 69.5887 27.9582C69.6338 28.1614 69.7468 28.3195 69.9184 28.3285H79.6109C76.2987 33.5737 72.9866 38.8189 69.6745 44.0641C69.6193 44.1622 69.5851 44.2707 69.5742 44.3827C69.5633 44.4947 69.576 44.6077 69.6113 44.7145C69.6564 44.9178 69.7693 45.0759 69.941 45.0849H79.6335C76.3213 50.3271 73.0092 55.5723 69.6971 60.8205C69.6418 60.9186 69.6077 61.027 69.5968 61.139C69.5859 61.251 69.5985 61.3641 69.6338 61.4709C69.679 61.6741 69.7919 61.8322 69.9635 61.8413H79.656C76.3439 67.0835 73.0318 72.3287 69.7197 77.5769C69.6644 77.6749 69.6303 77.7834 69.6194 77.8954C69.6085 78.0074 69.6211 78.1204 69.6564 78.2273C69.7016 78.4305 69.8145 78.5886 69.9861 78.5976H79.6786L69.7422 94.3333C69.687 94.4313 69.6529 94.5398 69.642 94.6518C69.6311 94.7638 69.6437 94.8768 69.679 94.9837C69.7242 95.1824 69.8371 95.345 70.0087 95.354H79.7012L69.7648 111.09C69.7096 111.188 69.6754 111.296 69.6646 111.408C69.6537 111.52 69.6663 111.633 69.7016 111.74C69.7467 111.939 69.8597 112.101 70.0313 112.11H79.7238L69.7874 127.846C69.3132 128.537 69.8597 129.4 70.212 128.844Z" fill="#E0E0E0"/>
<path d="M80.551 129.328C80.8626 129.328 81.1291 128.908 81.1291 128.424V10.9941C81.1291 10.4973 80.8626 10.0908 80.551 10.0908H69.9416C69.6255 10.0908 69.3635 10.5109 69.3635 10.9941V128.424C69.3534 128.641 69.4068 128.856 69.5171 129.043C69.5162 129.054 69.5162 129.064 69.5171 129.075C69.5543 129.148 69.611 129.211 69.6811 129.254C69.7511 129.298 69.8319 129.322 69.9145 129.323L80.551 129.328ZM70.5017 88.7012V11.8794H79.9864V127.503H70.5017V88.7012Z" fill="#E0E0E0"/>
<path d="M80.2755 128.844L69.6661 112.065C69.4312 111.69 69.6074 111.022 69.9416 111.022H79.616C76.3039 105.777 72.9918 100.531 69.6796 95.2863C69.4448 94.9114 69.6209 94.2429 69.9552 94.2429H79.6296L69.6932 78.5073C69.4583 78.1324 69.6345 77.464 69.9687 77.464H79.6431L69.7068 61.7283C69.4719 61.3535 69.648 60.685 69.9823 60.685H79.6567L69.7203 44.9494C69.4854 44.579 69.6616 43.9106 69.9958 43.9106H79.6702L69.7339 28.1704C69.499 27.8001 69.6751 27.1316 70.0094 27.1316H79.6838C76.3717 21.8834 73.0595 16.6382 69.7474 11.396C69.3951 10.8359 69.9416 9.97329 70.2939 10.5288L80.9033 27.3078C80.9585 27.4058 80.9926 27.5143 81.0035 27.6263C81.0144 27.7383 81.0018 27.8513 80.9665 27.9582C80.9213 28.1614 80.8129 28.3195 80.6413 28.3285H70.872C74.1842 33.5737 77.4963 38.8189 80.8084 44.0641C80.8636 44.1622 80.8978 44.2707 80.9087 44.3827C80.9195 44.4947 80.9069 44.6077 80.8716 44.7145C80.8265 44.9178 80.7181 45.0759 80.5465 45.0849H70.872C74.1842 50.3271 77.4963 55.5723 80.8084 60.8205C80.8636 60.9186 80.8978 61.027 80.9087 61.139C80.9195 61.251 80.9069 61.3641 80.8716 61.4709C80.8265 61.6741 80.7181 61.8322 80.5465 61.8413H70.872C74.1842 67.0835 77.4963 72.3287 80.8084 77.5769C80.8636 77.6749 80.8978 77.7834 80.9087 77.8954C80.9195 78.0074 80.9069 78.1204 80.8716 78.2273C80.8265 78.4305 80.7181 78.5886 80.5465 78.5976H70.872C74.1842 83.8428 77.4963 89.0881 80.8084 94.3333C80.8636 94.4313 80.8978 94.5398 80.9087 94.6518C80.9195 94.7638 80.9069 94.8768 80.8716 94.9837C80.8265 95.1824 80.7181 95.345 80.5465 95.354H70.872C74.1842 100.596 77.4963 105.841 80.8084 111.09C80.8636 111.188 80.8978 111.296 80.9087 111.408C80.9195 111.52 80.9069 111.633 80.8716 111.74C80.8265 111.939 80.7181 112.101 80.5465 112.11H70.872C74.1842 117.356 77.4963 122.601 80.8084 127.846C81.1743 128.537 80.6277 129.4 80.2755 128.844Z" fill="#F0F0F0"/>
<path d="M80.5512 129.327C80.6331 129.326 80.7129 129.301 80.7821 129.258C80.8513 129.214 80.9074 129.152 80.9442 129.079V129.047C81.0526 128.86 81.1058 128.645 81.0978 128.429V10.9985C81.0978 10.5017 80.8313 10.0952 80.5196 10.0952H69.9419C69.6257 10.0952 69.3638 10.5153 69.3638 10.9985V128.429C69.3638 128.925 69.6257 129.332 69.9419 129.332L80.5512 129.327ZM79.9867 127.494H70.5019V11.8702H79.9867V127.494Z" fill="#F0F0F0"/>
<path d="M66.3781 133.342H127.79V129.797H66.3781V133.342Z" fill="#E0E0E0"/>
<path d="M66.3823 130.213H130.368V128.122H66.3823V130.213Z" fill="#EBEBEB"/>
<path d="M70.0725 28.1203L77.0912 32.5556C77.2447 32.655 77.5428 32.5827 77.5428 32.4427V28.3778L84.1234 32.5375C84.2815 32.6369 84.5751 32.5646 84.5751 32.4246V28.3597L91.1557 32.5195C91.3092 32.6188 91.6073 32.5466 91.6073 32.4065V28.3417L98.1879 32.5014C98.346 32.6008 98.6396 32.5285 98.6396 32.3885V28.3236L105.22 32.4833C105.374 32.5827 105.672 32.5104 105.672 32.3704V28.3055L112.252 32.4653C112.411 32.5646 112.704 32.4924 112.704 32.3524V28.2875L119.285 32.4472C119.515 32.5917 119.876 32.3659 119.646 32.2169L112.627 27.7816C112.586 27.7585 112.54 27.7441 112.492 27.7395C112.445 27.7348 112.397 27.7399 112.352 27.7545C112.271 27.7771 112.203 27.8223 112.198 27.8945V31.9594L105.618 27.7997C105.577 27.7767 105.532 27.7624 105.485 27.7577C105.438 27.753 105.391 27.7581 105.347 27.7726C105.261 27.7952 105.198 27.8403 105.193 27.9126V31.9775L98.5041 27.89C98.4625 27.8669 98.4166 27.8525 98.3692 27.8479C98.3218 27.8432 98.2739 27.8483 98.2286 27.8629C98.1473 27.8855 98.0795 27.9307 98.075 28.0029V32.0678L91.4944 27.9081C91.4536 27.8851 91.4084 27.8708 91.3618 27.8661C91.3151 27.8614 91.268 27.8665 91.2234 27.881C91.1376 27.9036 91.0744 27.9487 91.0699 28.021V32.0859L84.4893 27.9261C84.4477 27.903 84.4017 27.8887 84.3543 27.884C84.3069 27.8793 84.2591 27.8845 84.2138 27.899C84.1325 27.9216 84.0647 27.9668 84.0602 28.0391V32.1039L77.4796 27.9442C77.4388 27.9212 77.3936 27.9069 77.3469 27.9022C77.3003 27.8976 77.2532 27.9026 77.2086 27.9171C77.1228 27.9397 77.0596 27.9849 77.0505 28.0571V32.122L70.4699 27.9623C70.2034 27.741 69.8421 27.9713 70.0725 28.1203Z" fill="#E0E0E0"/>
<path d="M69.8691 32.4426C69.8691 32.5735 70.0453 32.6819 70.253 32.6819H119.37C119.578 32.6819 119.754 32.5735 119.754 32.4426V28.0028C119.754 27.8718 119.578 27.7634 119.37 27.7634H70.253C70.1628 27.7583 70.0732 27.7803 69.9956 27.8267C69.9656 27.8424 69.9403 27.8656 69.922 27.8941C69.9038 27.9227 69.8934 27.9555 69.8917 27.9893L69.8691 32.4426ZM86.8604 28.2467H118.987V32.1987H70.6595V28.2467H86.8604Z" fill="#E0E0E0"/>
<path d="M70.0725 32.3251L77.0912 27.8898C77.2447 27.7905 77.5428 27.8627 77.5428 28.0027V32.0676L84.1234 27.9079C84.2815 27.8085 84.5751 27.8808 84.5751 28.0208V32.0857L91.1557 27.926C91.3092 27.8266 91.6073 27.8989 91.6073 28.0389V32.1038L98.1879 27.944C98.346 27.8447 98.6396 27.9169 98.6396 28.0569V32.1218L105.22 27.9621C105.374 27.8627 105.672 27.935 105.672 28.075V32.1399L112.252 27.9801C112.411 27.8808 112.704 27.953 112.704 28.0931V32.158L119.285 27.9982C119.515 27.8492 119.876 28.0795 119.646 28.2286L112.627 32.6638C112.542 32.7081 112.444 32.7178 112.352 32.6909C112.271 32.6909 112.203 32.6232 112.198 32.5509V28.486L105.618 32.6457C105.534 32.6902 105.437 32.7 105.347 32.6728C105.261 32.6728 105.198 32.6051 105.193 32.5328V28.4679L98.5041 32.5554C98.4192 32.5997 98.3205 32.6094 98.2286 32.5825C98.1473 32.5825 98.0795 32.5148 98.075 32.4425V28.3776L91.4944 32.5373C91.4112 32.5819 91.3138 32.5916 91.2234 32.5644C91.1376 32.5644 91.0744 32.4967 91.0699 32.4244V28.3595L84.4893 32.5193C84.4044 32.5636 84.3056 32.5733 84.2138 32.5464C84.1325 32.5464 84.0647 32.4786 84.0602 32.4064V28.3415L77.4796 32.5012C77.3964 32.5457 77.299 32.5555 77.2086 32.5283C77.1228 32.5283 77.0596 32.4606 77.0505 32.3883V28.3234L70.4699 32.4831C70.2034 32.6999 69.8421 32.4741 70.0725 32.3251Z" fill="#F0F0F0"/>
<path d="M69.8691 32.4427C69.8712 32.4764 69.8818 32.509 69.9 32.5374C69.9182 32.5659 69.9433 32.5892 69.973 32.6053C70.0514 32.6497 70.1405 32.6716 70.2305 32.6685H119.37C119.578 32.6685 119.754 32.5601 119.754 32.4291V27.9894C119.754 27.8584 119.578 27.75 119.37 27.75H70.253C70.0453 27.75 69.8691 27.8584 69.8691 27.9894V32.4427ZM70.637 32.1988V28.2468H118.987V32.1988H70.6595H70.637Z" fill="#F0F0F0"/>
<path d="M70.1808 33.0479H80.3024C80.9584 33.0479 81.4902 32.516 81.4902 31.86V28.59C81.4902 27.934 80.9584 27.4022 80.3024 27.4022H70.1808C69.5248 27.4022 68.993 27.934 68.993 28.59V31.86C68.993 32.516 69.5248 33.0479 70.1808 33.0479Z" fill="#F5F5F5"/>
<path d="M70.0725 62.2516L77.0912 66.6913C77.2447 66.7862 77.5428 66.7139 77.5428 66.5739V62.509C79.7379 63.8941 81.9314 65.2822 84.1234 66.6733C84.2815 66.7681 84.5751 66.6959 84.5751 66.5558V62.491L91.1557 66.6552C91.3092 66.7501 91.6073 66.6778 91.6073 66.5378V62.4729C93.8024 63.858 95.9959 65.246 98.1879 66.6371C98.346 66.732 98.6396 66.6597 98.6396 66.5197V62.4548L105.22 66.6191C105.374 66.7139 105.672 66.6417 105.672 66.5016V62.4368C107.867 63.8218 110.06 65.2099 112.252 66.601C112.411 66.6959 112.704 66.6236 112.704 66.4836V62.4187L119.285 66.5829C119.515 66.7275 119.876 66.5016 119.646 66.3526L112.627 61.9173C112.586 61.8942 112.54 61.8799 112.492 61.8752C112.445 61.8705 112.397 61.8757 112.352 61.8903C112.271 61.8903 112.203 61.9535 112.198 62.0257V66.0906L105.618 61.9309C105.577 61.9079 105.532 61.8936 105.485 61.8889C105.438 61.8843 105.391 61.8893 105.347 61.9038C105.261 61.9038 105.198 61.967 105.193 62.0393V66.1042L98.5041 62.0212C98.4625 61.9981 98.4166 61.9837 98.3692 61.9791C98.3218 61.9744 98.2739 61.9795 98.2286 61.9941C98.1473 61.9941 98.0795 62.0574 98.075 62.1296V66.1945L91.4944 62.0348C91.4536 62.0118 91.4084 61.9975 91.3618 61.9928C91.3151 61.9881 91.268 61.9932 91.2234 62.0077C91.1376 62.0077 91.0744 62.0709 91.0699 62.1432V66.2081L84.4893 62.0483C84.4477 62.0252 84.4017 62.0108 84.3543 62.0062C84.3069 62.0015 84.2591 62.0066 84.2138 62.0212C84.1325 62.0212 84.0647 62.0845 84.0602 62.1567V66.2216L77.4796 62.0619C77.4388 62.0389 77.3936 62.0246 77.3469 62.0199C77.3003 62.0152 77.2532 62.0203 77.2086 62.0348C77.1228 62.0348 77.0596 62.098 77.0505 62.1703V66.2352L70.4699 62.0754C70.2034 61.8722 69.8421 62.1025 70.0725 62.2516Z" fill="#E0E0E0"/>
<path d="M69.8691 66.5697C69.8691 66.7006 70.0453 66.8136 70.253 66.8136H119.37C119.578 66.8136 119.754 66.7006 119.754 66.5697V62.1344C119.754 62.0034 119.578 61.8905 119.37 61.8905H70.253C70.1624 61.8867 70.0727 61.9104 69.9956 61.9583C69.9658 61.9754 69.9407 61.9996 69.9226 62.0288C69.9045 62.0579 69.8939 62.0911 69.8917 62.1254L69.8691 66.5697ZM86.8604 62.3783H118.987V66.3167H70.6595V62.3648L86.8604 62.3783Z" fill="#E0E0E0"/>
<path d="M70.0725 66.4569L77.0912 62.0217C77.2447 61.9223 77.5428 61.9946 77.5428 62.1346V66.1995L84.1234 62.0397C84.2815 61.9404 84.5751 62.0126 84.5751 62.1526V66.2175L91.1557 62.0578C91.3092 61.9584 91.6073 62.0307 91.6073 62.1707V66.2356L98.1879 62.0759C98.346 61.9765 98.6396 62.0488 98.6396 62.1888V66.2537L105.22 62.0939C105.374 61.9946 105.672 62.0668 105.672 62.2068V66.2717L112.252 62.112C112.411 62.0126 112.704 62.0849 112.704 62.2249V66.2898L119.285 62.13C119.515 61.981 119.876 62.2113 119.646 62.3559L112.627 66.7956C112.586 66.8199 112.54 66.8348 112.493 66.8395C112.445 66.8442 112.397 66.8385 112.352 66.8227C112.271 66.8227 112.203 66.7595 112.198 66.6872V62.6224C110.003 64.0074 107.81 65.3955 105.618 66.7866C105.577 66.8107 105.532 66.8257 105.485 66.8303C105.438 66.835 105.391 66.8294 105.347 66.8137C105.261 66.8137 105.198 66.7505 105.193 66.6782V62.6133L98.5041 66.6872C98.4629 66.7115 98.4169 66.7264 98.3693 66.7311C98.3218 66.7358 98.2737 66.7301 98.2286 66.7143C98.1473 66.7143 98.0795 66.6511 98.075 66.5788V62.514C95.88 63.899 93.6865 65.2871 91.4944 66.6782C91.454 66.7023 91.4088 66.7173 91.362 66.722C91.3151 66.7266 91.2678 66.721 91.2234 66.7053C91.1376 66.7053 91.0744 66.6421 91.0699 66.5698V62.5049L84.4893 66.6692C84.4481 66.6934 84.4021 66.7084 84.3545 66.713C84.3069 66.7177 84.2589 66.712 84.2138 66.6963C84.1325 66.6963 84.0647 66.633 84.0602 66.5608V62.4959C81.8652 63.881 79.6716 65.269 77.4796 66.6601C77.4392 66.6843 77.394 66.6992 77.3471 66.7039C77.3003 66.7086 77.253 66.7029 77.2086 66.6872C77.1228 66.6872 77.0596 66.624 77.0505 66.5517V62.4869L70.4699 66.6511C70.2034 66.8318 69.8421 66.6059 70.0725 66.4569Z" fill="#F0F0F0"/>
<path d="M69.8691 66.5696C69.8713 66.6039 69.8819 66.6371 69.9 66.6663C69.9182 66.6954 69.9432 66.7196 69.973 66.7368C70.0514 66.7812 70.1405 66.8031 70.2305 66.8H119.37C119.578 66.8 119.754 66.6871 119.754 66.5561V62.1209C119.754 61.9899 119.578 61.877 119.37 61.877H70.253C70.0453 61.877 69.8691 61.9899 69.8691 62.1209V66.5696ZM70.637 66.3303V62.3783H118.987V66.3167H70.6595L70.637 66.3303Z" fill="#F0F0F0"/>
<path d="M70.1808 67.1753H80.3024C80.9584 67.1753 81.4902 66.6435 81.4902 65.9874V62.7175C81.4902 62.0614 80.9584 61.5296 80.3024 61.5296H70.1808C69.5248 61.5296 68.993 62.0614 68.993 62.7175V65.9874C68.993 66.6435 69.5248 67.1753 70.1808 67.1753Z" fill="#F5F5F5"/>
<path d="M70.0725 96.3783L77.0912 100.814C77.2447 100.913 77.5428 100.841 77.5428 100.701V96.6358L84.1234 100.796C84.2815 100.895 84.5751 100.823 84.5751 100.683V96.6177L91.1557 100.777C91.3092 100.877 91.6073 100.805 91.6073 100.665V96.5996L98.1879 100.759C98.346 100.859 98.6396 100.786 98.6396 100.646V96.5816L105.22 100.741C105.374 100.841 105.672 100.768 105.672 100.628V96.5635L112.252 100.723C112.411 100.823 112.704 100.75 112.704 100.61V96.5454L119.285 100.705C119.515 100.854 119.876 100.624 119.646 100.479L112.627 96.0396C112.586 96.0154 112.54 96.0004 112.493 95.9957C112.445 95.991 112.397 95.9968 112.352 96.0125C112.271 96.0125 112.203 96.0757 112.198 96.148V100.213L105.618 96.0486C105.577 96.0245 105.532 96.0096 105.485 96.0049C105.438 96.0002 105.391 96.0059 105.347 96.0215C105.261 96.0215 105.198 96.0848 105.193 96.157V100.222L98.5041 96.148C98.4629 96.1238 98.4169 96.1088 98.3693 96.1041C98.3218 96.0994 98.2737 96.1052 98.2286 96.1209C98.1473 96.1209 98.0795 96.1841 98.075 96.2564V100.321L91.4944 96.157C91.454 96.1329 91.4088 96.118 91.362 96.1133C91.3151 96.1086 91.2678 96.1143 91.2234 96.1299C91.1376 96.1299 91.0744 96.1931 91.0699 96.2654V100.33C88.8778 98.9392 86.6843 97.5511 84.4893 96.166C84.4481 96.1418 84.4021 96.1269 84.3545 96.1222C84.3069 96.1175 84.2589 96.1232 84.2138 96.1389C84.1325 96.1389 84.0647 96.2022 84.0602 96.2744V100.339L77.4796 96.1751C77.4392 96.1509 77.394 96.136 77.3471 96.1313C77.3003 96.1267 77.253 96.1323 77.2086 96.148C77.1228 96.148 77.0596 96.2112 77.0505 96.2835V100.348C74.8585 98.9573 72.665 97.5692 70.4699 96.1841C70.2034 96.0035 69.8421 96.2293 70.0725 96.3783Z" fill="#E0E0E0"/>
<path d="M69.8691 100.701C69.8691 100.832 70.0453 100.945 70.253 100.945H119.37C119.578 100.945 119.754 100.832 119.754 100.701V96.2662C119.754 96.1352 119.578 96.0223 119.37 96.0223H70.253C70.163 96.0192 70.0739 96.0411 69.9956 96.0855C69.9658 96.1026 69.9407 96.1268 69.9226 96.156C69.9045 96.1851 69.8939 96.2183 69.8917 96.2526L69.8691 100.701ZM86.8604 96.5055H118.987V100.458H70.6595V96.5055H86.8604Z" fill="#E0E0E0"/>
<path d="M70.0725 100.588L77.0912 96.1485C77.2447 96.0491 77.5428 96.1259 77.5428 96.2659V100.331L84.1234 96.1666C84.2815 96.0672 84.5751 96.144 84.5751 96.284V100.349L91.1557 96.1846C91.3092 96.0853 91.6073 96.1621 91.6073 96.3021V100.367L98.1879 96.2027C98.346 96.1034 98.6396 96.1801 98.6396 96.3201V100.385L105.22 96.2208C105.374 96.1214 105.672 96.1982 105.672 96.3382V100.403L112.252 96.2388C112.411 96.1395 112.704 96.2163 112.704 96.3563V100.421L119.285 96.2569C119.515 96.1124 119.876 96.3382 119.646 96.4873L112.627 100.922C112.586 100.946 112.54 100.96 112.492 100.965C112.445 100.969 112.397 100.964 112.352 100.95C112.271 100.95 112.203 100.882 112.198 100.814V96.7492L105.618 100.909C105.577 100.932 105.532 100.946 105.485 100.951C105.438 100.956 105.391 100.951 105.347 100.936C105.261 100.936 105.198 100.868 105.193 100.801V96.7357L98.5041 100.814C98.4625 100.837 98.4166 100.852 98.3692 100.856C98.3218 100.861 98.2739 100.856 98.2286 100.841C98.1473 100.841 98.0795 100.773 98.075 100.706V96.6408L91.4944 100.801C91.4536 100.824 91.4084 100.838 91.3618 100.843C91.3151 100.847 91.268 100.842 91.2234 100.828C91.1376 100.828 91.0744 100.76 91.0699 100.692V96.6273L84.4893 100.787C84.4477 100.81 84.4017 100.824 84.3543 100.829C84.3069 100.834 84.2591 100.829 84.2138 100.814C84.1325 100.814 84.0647 100.746 84.0602 100.679V96.6137L77.4796 100.773C77.4388 100.796 77.3936 100.811 77.3469 100.815C77.3003 100.82 77.2532 100.815 77.2086 100.801C77.1715 100.797 77.1364 100.782 77.1081 100.758C77.0798 100.734 77.0597 100.701 77.0505 100.665V96.6002L70.4699 100.76C70.2034 100.963 69.8421 100.733 70.0725 100.588Z" fill="#F0F0F0"/>
<path d="M69.8691 100.701C69.8708 100.735 69.8812 100.768 69.8995 100.796C69.9177 100.825 69.943 100.848 69.973 100.864C70.0501 100.912 70.1398 100.935 70.2305 100.931H119.37C119.578 100.931 119.754 100.818 119.754 100.687V96.2522C119.754 96.1212 119.578 96.0083 119.37 96.0083H70.253C70.0453 96.0083 69.8691 96.1212 69.8691 96.2522V100.701ZM70.637 100.457V96.5051H118.987V100.457H70.6595H70.637Z" fill="#F0F0F0"/>
<path d="M70.1808 101.307H80.3024C80.9584 101.307 81.4902 100.775 81.4902 100.119V96.8488C81.4902 96.1928 80.9584 95.661 80.3024 95.661H70.1808C69.5248 95.661 68.993 96.1928 68.993 96.8488V100.119C68.993 100.775 69.5248 101.307 70.1808 101.307Z" fill="#F5F5F5"/>
<path d="M131.177 29.069C131.177 29.069 184.169 35.0489 178.898 20.0992C174.833 8.61362 167.277 19.3314 163.632 18.0848C160.435 16.9963 161.672 8.95687 152.973 9.86018C144.275 10.7635 147.481 19.2998 144.699 21.5625C141.7 23.9834 130.851 18.0848 131.177 29.069Z" fill="#F0F0F0"/>
<path d="M159.256 30.9026C159.256 30.9026 191.278 34.5159 188.089 25.4828C185.632 18.5409 181.062 25.0311 178.862 24.2678C176.938 23.6084 177.688 18.7396 172.43 19.2996C167.173 19.8597 169.111 25.004 167.431 26.368C165.615 27.8314 159.061 24.2678 159.256 30.9026Z" fill="#D8D8D8"/>
<path d="M111.232 152C159.596 152 198.803 149.711 198.803 146.887C198.803 144.063 159.596 141.774 111.232 141.774C62.8676 141.774 23.6606 144.063 23.6606 146.887C23.6606 149.711 62.8676 152 111.232 152Z" fill="#F5F5F5"/>
<path d="M140.863 44.6641L134.274 45.71C133.629 45.8124 133.189 46.4188 133.291 47.0642L134.813 56.6502C134.915 57.2957 135.521 57.7359 136.167 57.6334L142.755 56.5875C143.401 56.4851 143.841 55.8788 143.739 55.2333L142.217 45.6473C142.114 45.0018 141.508 44.5617 140.863 44.6641Z" fill="#1F7BAC"/>
<path opacity="0.2" d="M142.21 45.6169C142.187 45.4622 142.131 45.3141 142.047 45.182C141.963 45.0498 141.853 44.9365 141.723 44.8491L135.54 57.5632C135.732 57.6438 135.943 57.6689 136.149 57.6355L142.766 56.5786C142.916 56.5549 143.059 56.5021 143.188 56.423C143.317 56.3439 143.429 56.2401 143.518 56.1176C143.607 55.9952 143.671 55.8563 143.706 55.7091C143.741 55.5619 143.747 55.4092 143.724 55.2598L142.21 45.6169Z" fill="#C5C5C5"/>
<path d="M142.766 56.579C142.916 56.5554 143.059 56.5025 143.188 56.4234C143.317 56.3443 143.429 56.2406 143.518 56.1181C143.607 55.9956 143.671 55.8568 143.706 55.7096C143.742 55.5624 143.747 55.4097 143.724 55.2602L142.192 45.6174C142.169 45.4679 142.116 45.3245 142.037 45.1954C141.958 45.0664 141.854 44.9542 141.732 44.8652C141.609 44.7763 141.47 44.7124 141.323 44.6772C141.176 44.6419 141.023 44.636 140.874 44.6599L134.225 45.7167C134.076 45.7404 133.932 45.7932 133.803 45.8723C133.674 45.9514 133.562 46.0552 133.473 46.1777C133.384 46.3002 133.32 46.439 133.285 46.5862C133.25 46.7334 133.244 46.8861 133.268 47.0356L134.794 56.6784C134.844 56.9801 135.011 57.25 135.259 57.4293C135.507 57.6086 135.815 57.6828 136.118 57.6359L142.766 56.579ZM135.232 56.6061L133.733 46.9678C133.717 46.875 133.72 46.78 133.742 46.6885C133.764 46.5969 133.804 46.5106 133.859 46.4349C133.968 46.2862 134.13 46.1845 134.311 46.1503L140.959 45.0889H141.072C141.242 45.09 141.407 45.1515 141.536 45.2623C141.665 45.3731 141.75 45.5262 141.777 45.6941L143.308 55.3324C143.336 55.5197 143.29 55.7104 143.182 55.8654C143.073 56.0144 142.911 56.1162 142.73 56.1499L136.086 57.2068C135.992 57.2236 135.895 57.2212 135.801 57.1999C135.708 57.1786 135.619 57.1388 135.542 57.0828C135.464 57.0268 135.398 56.9558 135.348 56.8739C135.298 56.792 135.265 56.701 135.251 56.6061H135.232Z" fill="#263238"/>
<path opacity="0.9" d="M141.547 49.4184L136.574 50.2219C136.098 50.2989 135.774 50.7477 135.851 51.2243L135.876 51.3808C135.953 51.8574 136.402 52.1813 136.879 52.1043L141.851 51.3008C142.327 51.2238 142.651 50.775 142.574 50.2984L142.549 50.1419C142.472 49.6653 142.023 49.3414 141.547 49.4184Z" fill="#C5C5C5"/>
<path d="M136.56 51.8633C136.499 51.8576 136.439 51.8391 136.384 51.8091L136.42 51.6601C136.47 51.6846 136.524 51.7014 136.578 51.7098C136.638 51.721 136.699 51.721 136.759 51.7098C136.814 51.7026 136.867 51.6825 136.913 51.651C136.927 51.6396 136.939 51.6241 136.945 51.6066C136.951 51.589 136.953 51.57 136.949 51.5517C136.949 51.5389 136.946 51.5263 136.939 51.5152C136.933 51.5041 136.924 51.4949 136.913 51.4885C136.888 51.4699 136.858 51.459 136.827 51.4568H136.7C136.637 51.452 136.573 51.4429 136.511 51.4297C136.464 51.4198 136.42 51.3981 136.384 51.3665C136.364 51.3492 136.346 51.3278 136.334 51.3038C136.322 51.2797 136.314 51.2535 136.312 51.2265C136.296 51.1765 136.296 51.1229 136.312 51.0729C136.337 51.0207 136.376 50.9768 136.425 50.9465C136.489 50.9103 136.56 50.8858 136.633 50.8742C136.693 50.8675 136.753 50.8675 136.813 50.8742C136.868 50.878 136.922 50.8918 136.971 50.9149L136.935 51.0639C136.89 51.0455 136.843 51.0334 136.795 51.0278H136.655C136.6 51.0332 136.548 51.0552 136.506 51.091C136.491 51.1032 136.48 51.1194 136.473 51.1378C136.467 51.1561 136.466 51.1759 136.47 51.1949C136.472 51.2071 136.477 51.2188 136.484 51.2289C136.491 51.2391 136.5 51.2475 136.511 51.2536C136.534 51.2713 136.563 51.2823 136.592 51.2852H136.718C136.781 51.2878 136.843 51.2969 136.904 51.3123C136.951 51.3216 136.996 51.3417 137.035 51.371C137.076 51.4084 137.102 51.46 137.107 51.5156C137.121 51.5643 137.121 51.6159 137.107 51.6646C137.08 51.717 137.04 51.7608 136.989 51.7911C136.925 51.828 136.855 51.8525 136.782 51.8633C136.708 51.8746 136.634 51.8746 136.56 51.8633Z" fill="#263238"/>
<path d="M137.428 50.9056L137.108 50.9553L137.085 50.8018L137.902 50.6753V50.8243L137.586 50.874L137.713 51.687L137.532 51.7186L137.428 50.9056Z" fill="#263238"/>
<path d="M138.76 51.2987L138.277 51.3755L138.218 51.6103L138.033 51.6419L138.313 50.6077L138.489 50.5806L139.077 51.4839L138.891 51.5155L138.76 51.2987ZM138.679 51.1677L138.431 50.7748L138.313 51.2264L138.679 51.1677Z" fill="#263238"/>
<path d="M139.858 51.3532L139.618 51.1003H139.582L139.361 51.1319L139.406 51.4164L139.23 51.4435L139.076 50.477L139.474 50.4138C139.547 50.3998 139.622 50.3998 139.695 50.4138C139.757 50.4287 139.814 50.4617 139.858 50.5086C139.9 50.5587 139.929 50.6197 139.939 50.6848C139.949 50.7508 139.939 50.8182 139.912 50.879C139.885 50.9399 139.839 50.9906 139.781 51.0235L140.052 51.3035L139.858 51.3532ZM139.672 50.5989C139.612 50.5793 139.547 50.5793 139.487 50.5989L139.279 50.6351L139.338 51.019L139.55 50.9828C139.614 50.9791 139.673 50.9517 139.718 50.9061C139.736 50.8853 139.749 50.8606 139.756 50.834C139.763 50.8074 139.764 50.7795 139.758 50.7525C139.757 50.722 139.749 50.6921 139.734 50.6655C139.719 50.6388 139.698 50.616 139.672 50.5989Z" fill="#263238"/>
<path d="M140.314 50.4452L139.998 50.4949L139.971 50.3458L140.793 50.2148L140.815 50.3684L140.495 50.4181L140.626 51.2311L140.445 51.2582L140.314 50.4452Z" fill="#263238"/>
<path d="M156.465 39.9312C156.393 40.1706 156.465 40.3828 156.619 40.4461C156.772 40.5093 156.985 40.3286 157.048 40.0938C157.111 39.8589 157.048 39.6421 156.89 39.5789C156.732 39.5157 156.537 39.6918 156.465 39.9312Z" fill="#263238"/>
<path d="M157.378 40.8794L155.35 42.0131C155.49 42.2472 155.682 42.4457 155.912 42.593C156.141 42.7403 156.402 42.8325 156.673 42.8622L157.378 40.8794Z" fill="#BA4D3C"/>
<path d="M157.73 39.217C157.708 39.2153 157.687 39.2087 157.668 39.1978C157.65 39.1868 157.633 39.1718 157.621 39.1538C157.541 39.0113 157.428 38.8902 157.291 38.8006C157.154 38.711 156.998 38.6555 156.835 38.6389C156.801 38.6366 156.769 38.6213 156.745 38.5962C156.722 38.571 156.709 38.5378 156.709 38.5034C156.712 38.4687 156.729 38.4365 156.754 38.4131C156.78 38.3897 156.814 38.3768 156.849 38.377C157.056 38.3934 157.256 38.4604 157.431 38.5723C157.605 38.6841 157.75 38.8373 157.852 39.0183C157.868 39.049 157.872 39.0849 157.863 39.1186C157.854 39.1523 157.832 39.1811 157.802 39.199C157.779 39.2092 157.755 39.2153 157.73 39.217Z" fill="#263238"/>
<path d="M166.077 41.5477C165.264 44.7635 164.988 46.141 162.992 47.5186C160.106 48.7651 156.122 47.925 155.941 44.5376C155.774 41.4935 157.129 36.7601 160.639 36.0194C161.824 35.7546 163.066 35.9692 164.094 36.6164C165.122 37.2636 165.853 38.291 166.126 39.4746C166.275 40.1597 166.258 40.8704 166.077 41.5477Z" fill="#CE7A63"/>
<path d="M159.739 41.0235L156.095 38.7246C156.095 38.7246 155.011 41.1319 155.458 41.281C155.905 41.43 156.609 39.5331 156.609 39.5331L159.216 40.9603L159.739 41.0235Z" fill="#1F7BAC"/>
<path opacity="0.7" d="M156.51 39.5968L156.235 39.4116C156.235 39.4116 155.363 41.1098 155.566 41.2724C155.77 41.435 156.51 39.5968 156.51 39.5968Z" fill="#C5C5C5"/>
<path d="M159.261 47.4729C159.568 48.453 158.317 50.8016 158.317 50.8016L162.91 53.0599L163.764 46.5877C163.764 46.5877 158.895 46.3167 159.261 47.4729Z" fill="#CE7A63"/>
<path d="M159.324 42.9658C159.163 42.3945 159.128 41.7947 159.224 41.2087C159.319 40.6227 159.541 40.0647 159.875 39.5739C160.358 38.919 159.455 37.0672 158.9 38.7293C158.538 39.8042 156.47 37.7176 157.608 35.9155C157.608 35.9155 160.381 32.6274 162.495 35.2967C162.495 35.2967 167.531 35.9471 167.219 39.4113C167.219 39.4113 168.881 43.711 163.385 48.0604L161.736 47.7533C160.891 47.5681 160.241 46.3125 160.011 45.495L159.324 42.9658Z" fill="#263238"/>
<path d="M159.224 41.0734C158.932 41.2445 158.676 41.472 158.472 41.7425C158.268 42.0131 158.12 42.3215 158.036 42.6497C157.824 43.5214 158.632 43.9279 159.459 43.6614C160.204 43.4175 161.207 42.6723 161.053 41.8051C161.013 41.6143 160.927 41.4364 160.801 41.2871C160.676 41.1378 160.516 41.0218 160.335 40.9494C160.154 40.877 159.958 40.8504 159.764 40.8721C159.57 40.8937 159.385 40.9629 159.224 41.0734Z" fill="#CE7A63"/>
<path d="M166.045 37.1171C166.045 37.1171 164.487 36.286 164.59 37.8081C164.694 39.3302 165.801 41.4213 167.115 41.2858C168.429 41.1503 166.045 37.1171 166.045 37.1171Z" fill="#1F7BAC"/>
<path d="M167.364 35.929C166.96 35.926 166.565 36.0537 166.24 36.293C165.914 36.5323 165.675 36.8704 165.557 37.2568C165.451 37.6424 165.436 38.0475 165.515 38.4396C165.593 38.8318 165.762 39.2001 166.009 39.5151C166.496 40.1565 167.187 42.7173 166.912 43.0696C166.537 43.5619 166.695 44.2349 166.523 44.8311C165.778 47.4326 168.244 48.3992 168.714 48.3901C168.928 48.5185 169.167 48.6023 169.414 48.6365C169.662 48.6706 169.914 48.6544 170.155 48.5888C170.448 48.4985 171.596 48.2546 171.058 46.7506C171.058 47.0261 170.606 47.2881 170.322 47.2565C170.176 47.2379 170.037 47.182 169.92 47.0942C169.802 47.0064 169.708 46.8896 169.649 46.7551C169.531 46.4841 170.363 47.4462 171.293 46.3938C171.663 45.9693 171.745 44.7091 171.487 44.1988C172.095 43.3313 172.482 42.328 172.612 41.2766C172.634 40.8389 172.566 40.4013 172.41 39.9915C172.255 39.5818 172.016 39.2088 171.708 38.8963C171.943 38.4425 172.02 37.9238 171.929 37.4214C171.837 36.9189 171.582 36.4608 171.203 36.1187C170.815 35.7801 170.355 35.5359 169.857 35.405C169.36 35.2742 168.838 35.2603 168.335 35.3644C167.883 35.4502 167.35 35.6941 167.273 36.1593" fill="#263238"/>
<path d="M149.993 58.3668C149.993 58.3668 147.974 55.7608 147.283 54.9207C146.795 54.3471 145.883 53.1141 145.269 52.6896C144.654 52.265 142.952 51.4611 142.143 51.5423C142.012 51.5423 141.854 51.592 141.854 51.723C141.854 52.1024 142.893 52.5405 143.579 52.7844C143.648 52.8098 143.711 52.8502 143.763 52.9026C143.815 52.955 143.854 53.0181 143.879 53.0876C143.903 53.157 143.912 53.231 143.905 53.3042C143.898 53.3775 143.874 53.4483 143.837 53.5116C143.557 53.9632 143.213 55.1014 143.313 55.3904C143.453 55.7969 144.284 56.2441 144.636 56.4925C144.988 56.7409 145.928 57.2829 145.928 57.2829L148.353 61.1129L149.993 58.3668Z" fill="#CE7A63"/>
<path opacity="0.1" d="M149.993 58.3668C149.993 58.3668 147.974 55.7608 147.283 54.9207C146.795 54.3471 145.883 53.1141 145.269 52.6896C144.654 52.265 142.952 51.4611 142.143 51.5423C142.012 51.5423 141.854 51.592 141.854 51.723C141.854 52.1024 142.893 52.5405 143.579 52.7844C143.648 52.8098 143.711 52.8502 143.763 52.9026C143.815 52.955 143.854 53.0181 143.879 53.0876C143.903 53.157 143.912 53.231 143.905 53.3042C143.898 53.3775 143.874 53.4483 143.837 53.5116C143.557 53.9632 143.213 55.1014 143.313 55.3904C143.453 55.7969 144.284 56.2441 144.636 56.4925C144.988 56.7409 145.928 57.2829 145.928 57.2829L148.353 61.1129L149.993 58.3668Z" fill="black"/>
<path d="M147.662 60.2553C147.662 60.2553 150.661 66.7276 153.985 68.1819C157.309 69.6362 157.748 69.6046 164.075 63.4711C170.403 57.3377 169.278 53.756 167.02 53.0831C164.762 52.4101 163.036 54.8897 161.022 57.7351C159.53 59.7328 157.868 61.5976 156.054 63.3085L149.758 57.9158C149.758 57.9158 148.001 58.1326 147.662 60.2553Z" fill="#263238"/>
<path d="M142.902 139.213L142.468 145.6L145.422 146.042L146.962 139.837L142.902 139.213Z" fill="#CE7A63"/>
<path d="M142.603 144.105L145.683 144.34C145.755 144.342 145.825 144.368 145.88 144.415C145.935 144.462 145.972 144.526 145.986 144.597L146.614 147.818C146.642 147.955 146.614 148.097 146.537 148.214C146.46 148.331 146.34 148.413 146.203 148.441H146.09C144.671 148.378 143.411 148.269 141.645 148.224C139.559 148.17 140.083 148.436 137.63 148.405C136.153 148.405 135.927 146.702 136.555 146.634C139.432 146.35 140.62 145.356 141.74 144.376C141.984 144.182 142.292 144.086 142.603 144.105Z" fill="#263238"/>
<path opacity="0.1" d="M145.946 143.938L142.604 143.622L142.902 139.213L146.962 139.837L145.946 143.938Z" fill="black"/>
<path d="M164.446 137.592L166.009 145.586L168.845 145.347L168.524 137.592H164.446Z" fill="#CE7A63"/>
<path d="M165.688 144.574L169.211 144.52C169.275 144.52 169.337 144.541 169.388 144.581C169.439 144.62 169.475 144.675 169.491 144.737L170.168 147.591C170.186 147.652 170.192 147.715 170.184 147.777C170.177 147.84 170.156 147.9 170.124 147.954C170.091 148.008 170.048 148.055 169.997 148.091C169.945 148.127 169.887 148.152 169.825 148.165H169.726C168.456 148.165 167.327 148.106 165.747 148.133C163.881 148.16 164.355 148.377 162.165 148.44C160.846 148.477 160.58 146.982 161.14 146.9C163.701 146.539 163.953 145.758 164.929 144.827C165.142 144.652 165.412 144.562 165.688 144.574Z" fill="#263238"/>
<path opacity="0.1" d="M168.768 143.55L165.665 143.848L164.518 137.976C165.873 137.908 168.095 137.809 168.533 137.791L168.768 143.55Z" fill="black"/>
<path d="M169.034 142.357L165.209 142.628L157.775 108.822L156.262 101.351L154.247 91.4149L151.799 77.9736H164.491C164.491 77.9736 166.812 83.8451 165.769 90.367C165.11 94.468 165.227 100.114 165.281 104.508C165.281 105.796 165.313 106.92 165.331 107.783C165.351 108.879 165.554 109.964 165.932 110.994C166.189 111.712 166.51 112.697 166.835 113.912C167.481 116.083 167.902 118.316 168.09 120.574C168.682 128.003 169.034 142.357 169.034 142.357Z" fill="#1F7BAC"/>
<path opacity="0.1" d="M169.034 142.357L165.209 142.628L157.775 108.822L156.262 101.351L154.247 91.4149L151.799 77.9736H164.491C164.491 77.9736 166.812 83.8451 165.769 90.367C165.11 94.468 165.227 100.114 165.281 104.508C165.281 105.796 165.313 106.92 165.331 107.783C165.351 108.879 165.554 109.964 165.932 110.994C166.189 111.712 166.51 112.697 166.835 113.912C167.481 116.083 167.902 118.316 168.09 120.574C168.682 128.003 169.034 142.357 169.034 142.357Z" fill="black"/>
<path opacity="0.1" d="M160.751 88.4022C158.426 92.3851 156.901 96.7837 156.262 101.351L154.248 91.4147L154.297 91.1573L157.716 88.5784L158.845 88.0996L160.751 88.4022Z" fill="black"/>
<path d="M148.831 77.9736L142.508 141.901L146.393 142.474C146.393 142.474 151.397 126.129 152.169 116.64C152.263 115.632 152.29 114.62 152.25 113.609C152.196 112.319 152.36 111.029 152.734 109.793L153.262 108.013L156.211 97.1464C156.813 95.0447 157.82 93.0808 159.174 91.3652C160.742 89.414 162.891 84.3058 162.006 78.1091L152.359 77.9736H148.831Z" fill="#1F7BAC"/>
<path d="M147.12 141.494L146.538 143.093L141.958 142.447L142.062 140.753L147.12 141.494Z" fill="#1F7BAC"/>
<path opacity="0.2" d="M147.12 141.494L146.538 143.093L141.958 142.447L142.062 140.753L147.12 141.494Z" fill="black"/>
<path d="M169.509 141.209L169.486 142.885L164.875 143.242L164.613 141.562L169.509 141.209Z" fill="#1F7BAC"/>
<path opacity="0.2" d="M169.509 141.209L169.486 142.885L164.875 143.242L164.613 141.562L169.509 141.209Z" fill="black"/>
<path d="M167.973 54.6774C168.023 59.7811 164.523 62.1523 164.392 75.6026C164.392 75.6026 163.881 77.9376 148.959 75.4761C148.959 75.4761 149.234 72.9107 148.959 66.443L148.932 65.9146C148.796 62.8208 148.719 59.9392 148.796 58.1687C148.796 57.8932 148.823 57.6448 148.841 57.4325C148.854 57.2311 148.878 57.0305 148.914 56.8318C149.55 53.3586 149.916 51.9585 151.172 51.1455C155.724 48.2007 167.937 51.4391 167.973 54.6774Z" fill="#263238"/>
<path opacity="0.4" d="M148.909 65.9143C148.773 62.8204 148.696 59.9389 148.773 58.1684C148.773 57.8929 148.8 57.6445 148.818 57.4322L152.219 52.9834L153.637 53.5976C153.637 53.5976 154.925 59.0265 148.909 65.9143Z" fill="black"/>
<path d="M139.899 57.8296L136.737 55.3817C136.754 54.3442 136.548 53.3152 136.132 52.3646C135.604 51.371 133.196 49.5869 133.237 51.9536C133.277 54.3203 133.404 54.1622 133.806 55.0023C134.059 55.5397 134.497 55.7159 135.323 56.6057C136.15 57.4954 137.695 59.704 137.695 59.704L139.899 57.8296Z" fill="#CE7A63"/>
<path d="M136.895 59.4464C136.895 59.4464 140.59 64.4146 142.057 65.6928C144.158 67.4994 147.455 66.9077 150.544 61.795C155.101 54.2524 154.767 51.6192 152.455 51.1766C150.142 50.734 149.022 53.6472 147.292 56.6597C145.562 59.6722 144.383 61.5782 144.383 61.5782L139.257 56.8584C139.257 56.8584 137.044 57.283 136.895 59.4464Z" fill="#263238"/>
<path d="M157.671 50.5087C157.671 50.5087 159.31 47.6226 163.877 49.5512C166.523 50.6668 163.877 52.1979 163.877 52.1979L157.671 50.5087Z" fill="#263238"/>
<path opacity="0.4" d="M158.705 50.2418C158.705 50.2418 162.594 49.4605 164.522 51.5607L158.705 50.2418Z" fill="black"/>
<path d="M148.958 75.4761L164.392 75.6025L164.491 77.9737H148.832L148.958 75.4761Z" fill="#1F7BAC"/>
<path opacity="0.2" d="M148.958 75.4761L164.392 75.6025L164.491 77.9737H148.832L148.958 75.4761Z" fill="black"/>
<path d="M95.311 65.6207C94.5567 65.6839 93.6534 65.5394 92.8991 65.6207C93.1295 59.9795 91.9958 51.7865 89.4575 45.2646C93.9108 51.1949 95.0174 58.1865 95.311 65.6207Z" fill="#C5C5C5"/>
<path d="M93.2693 107.81L91.833 119.851C91.833 119.851 94.5429 118.121 95.3017 121.955C95.3017 121.955 95.3288 119.245 97.5058 119.024C99.8363 118.798 100.216 121.468 100.216 121.468C100.216 121.468 100.302 118.121 103.26 117.728L101.937 107.792L93.2693 107.81Z" fill="#1F7BAC"/>
<path d="M78.1523 128.391C78.1523 128.391 70.569 128.866 70.8129 127.777C71.0568 126.689 76.6528 126.54 76.6528 126.54C76.6528 126.54 73.1344 125.027 74.67 122.877C76.2056 120.727 79.0782 123.419 79.0782 123.419C79.0782 123.419 77.2715 120.867 79.1188 119.385C81.4584 117.507 83.4457 121.224 83.4457 121.224C83.4457 121.224 82.9172 118.36 85.0264 118.414C87.1357 118.469 86.535 121.197 86.535 121.197C86.535 121.197 89.4798 118.762 91.0154 120.361C92.4426 121.847 90.4824 123.943 90.4824 123.943C90.4824 123.943 93.5492 122.019 94.466 123.798C95.3829 125.578 92.0903 127.131 92.0903 127.131C92.0903 127.131 98.4586 126.815 98.6664 127.804C98.8742 128.793 83.0618 127.836 78.1523 128.391Z" fill="#1F7BAC"/>
<path opacity="0.7" d="M78.1523 128.391C78.1523 128.391 70.569 128.866 70.8129 127.777C71.0568 126.689 76.6528 126.54 76.6528 126.54C76.6528 126.54 73.1344 125.027 74.67 122.877C76.2056 120.727 79.0782 123.419 79.0782 123.419C79.0782 123.419 77.2715 120.867 79.1188 119.385C81.4584 117.507 83.4457 121.224 83.4457 121.224C83.4457 121.224 82.9172 118.36 85.0264 118.414C87.1357 118.469 86.535 121.197 86.535 121.197C86.535 121.197 89.4798 118.762 91.0154 120.361C92.4426 121.847 90.4824 123.943 90.4824 123.943C90.4824 123.943 93.5492 122.019 94.466 123.798C95.3829 125.578 92.0903 127.131 92.0903 127.131C92.0903 127.131 98.4586 126.815 98.6664 127.804C98.8742 128.793 83.0618 127.836 78.1523 128.391Z" fill="#C5C5C5"/>
<path d="M103.689 127.931C103.689 127.931 96.1012 128.41 96.3451 127.317C96.589 126.224 102.185 126.079 102.185 126.079C102.185 126.079 98.6666 124.566 100.202 122.421C101.738 120.275 104.61 122.958 104.61 122.958C104.61 122.958 102.804 120.411 104.651 118.929C106.991 117.05 108.978 120.763 108.978 120.763C108.978 120.763 108.454 117.904 110.559 117.958C112.663 118.012 112.067 120.736 112.067 120.736C112.067 120.736 115.012 118.302 116.548 119.905C117.975 121.391 116.015 123.482 116.015 123.482C116.015 123.482 119.081 121.558 120.003 123.342C120.924 125.126 117.623 126.675 117.623 126.675C117.623 126.675 123.995 126.359 124.199 127.348C124.402 128.337 108.594 127.375 103.689 127.931Z" fill="#1F7BAC"/>
<path opacity="0.7" d="M103.689 127.931C103.689 127.931 96.1012 128.41 96.3451 127.317C96.589 126.224 102.185 126.079 102.185 126.079C102.185 126.079 98.6666 124.566 100.202 122.421C101.738 120.275 104.61 122.958 104.61 122.958C104.61 122.958 102.804 120.411 104.651 118.929C106.991 117.05 108.978 120.763 108.978 120.763C108.978 120.763 108.454 117.904 110.559 117.958C112.663 118.012 112.067 120.736 112.067 120.736C112.067 120.736 115.012 118.302 116.548 119.905C117.975 121.391 116.015 123.482 116.015 123.482C116.015 123.482 119.081 121.558 120.003 123.342C120.924 125.126 117.623 126.675 117.623 126.675C117.623 126.675 123.995 126.359 124.199 127.348C124.402 128.337 108.594 127.375 103.689 127.931Z" fill="#C5C5C5"/>
<path d="M89.0197 118.197C89.0197 118.197 85.0542 116.495 86.784 114.074C88.5139 111.653 91.7522 114.683 91.7522 114.683C91.7522 114.683 89.7108 111.811 91.7929 110.135C94.4351 108.022 96.6708 112.208 96.6708 112.208C96.6708 112.208 96.0791 108.984 98.4774 109.047C100.876 109.11 100.176 112.181 100.176 112.181C100.176 112.181 103.495 109.435 105.225 111.242C106.833 112.918 104.624 115.275 104.624 115.275C104.624 115.275 108.08 113.107 109.141 115.117C110.202 117.127 106.458 118.875 106.458 118.875L89.0197 118.197Z" fill="#1F7BAC"/>
<path opacity="0.6" d="M89.0197 118.197C89.0197 118.197 85.0542 116.495 86.784 114.074C88.5139 111.653 91.7522 114.683 91.7522 114.683C91.7522 114.683 89.7108 111.811 91.7929 110.135C94.4351 108.022 96.6708 112.208 96.6708 112.208C96.6708 112.208 96.0791 108.984 98.4774 109.047C100.876 109.11 100.176 112.181 100.176 112.181C100.176 112.181 103.495 109.435 105.225 111.242C106.833 112.918 104.624 115.275 104.624 115.275C104.624 115.275 108.08 113.107 109.141 115.117C110.202 117.127 106.458 118.875 106.458 118.875L89.0197 118.197Z" fill="#C5C5C5"/>
<path d="M87.0771 128.464C87.0771 128.464 75.9167 129.169 76.2735 127.561C76.6303 125.953 84.8549 125.754 84.8549 125.754C84.8549 125.754 79.6835 123.532 81.9418 120.371C84.2497 117.137 88.4275 121.165 88.4275 121.165C88.4275 121.165 85.7673 117.417 88.4862 115.235C91.9279 112.471 94.8501 117.945 94.8501 117.945C94.8501 117.945 94.0777 113.736 97.1806 113.813C100.283 113.889 99.3937 117.905 99.3937 117.905C99.3937 117.905 103.73 114.323 105.988 116.676C108.088 118.867 105.202 121.942 105.202 121.942C105.202 121.942 109.719 119.115 111.073 121.735C112.428 124.354 107.573 126.64 107.573 126.64C107.573 126.64 116.945 126.188 117.252 127.629C117.559 129.069 94.299 127.651 87.0771 128.464Z" fill="#1F7BAC"/>
<path opacity="0.8" d="M87.0771 128.464C87.0771 128.464 75.9167 129.169 76.2735 127.561C76.6303 125.953 84.8549 125.754 84.8549 125.754C84.8549 125.754 79.6835 123.532 81.9418 120.371C84.2497 117.137 88.4275 121.165 88.4275 121.165C88.4275 121.165 85.7673 117.417 88.4862 115.235C91.9279 112.471 94.8501 117.945 94.8501 117.945C94.8501 117.945 94.0777 113.736 97.1806 113.813C100.283 113.889 99.3937 117.905 99.3937 117.905C99.3937 117.905 103.73 114.323 105.988 116.676C108.088 118.867 105.202 121.942 105.202 121.942C105.202 121.942 109.719 119.115 111.073 121.735C112.428 124.354 107.573 126.64 107.573 126.64C107.573 126.64 116.945 126.188 117.252 127.629C117.559 129.069 94.299 127.651 87.0771 128.464Z" fill="#C5C5C5"/>
<path opacity="0.9" d="M93.2693 108.636L91.833 120.655C91.833 120.655 94.5429 118.975 95.3017 122.823C95.3017 122.823 95.3288 120.113 97.5058 119.928C99.8363 119.742 100.216 122.421 100.216 122.421C100.216 122.421 100.302 119.074 103.26 118.731L101.937 108.794L93.2693 108.636Z" fill="#C5C5C5"/>
<path opacity="0.1" d="M95.2387 113.65C94.8625 115.295 94.783 116.995 95.0038 118.668C95.0038 118.668 95.6587 115.773 95.2387 113.65Z" fill="black"/>
<path opacity="0.1" d="M99.9354 115.33C99.7033 116.829 99.7369 118.358 100.035 119.846C100.035 119.846 100.446 117.208 99.9354 115.33Z" fill="black"/>
<path d="M88.7803 21.5392V24.5607C94.4818 26.1914 100.526 26.1914 106.228 24.5607V21.5392C106.233 17.6273 105.465 13.753 103.968 10.1388C102.471 6.52462 100.275 3.24167 97.5063 0.478516C94.7358 3.24085 92.5387 6.52355 91.0412 10.1379C89.5437 13.7522 88.7753 17.6269 88.7803 21.5392Z" fill="#1F7BAC"/>
<g opacity="0.3">
<path opacity="0.3" d="M88.7803 21.5392V24.5607C94.4818 26.1914 100.526 26.1914 106.228 24.5607V21.5392C106.233 17.6273 105.465 13.753 103.968 10.1388C102.471 6.52462 100.275 3.24167 97.5063 0.478516C94.7358 3.24085 92.5387 6.52355 91.0412 10.1379C89.5437 13.7522 88.7753 17.6269 88.7803 21.5392Z" fill="black"/>
</g>
<path d="M98.2915 15.8569V20.7258H97.1488V16.7602H96.1777V15.8569H98.2915Z" fill="#263238"/>
<path d="M106.228 49.8846V27.0218C100.526 25.3912 94.4818 25.3912 88.7803 27.0218V49.8981C94.4805 48.263 100.525 48.2583 106.228 49.8846Z" fill="#263238"/>
<path d="M88.7803 27.0449V49.9212C94.4818 51.5519 100.526 51.5519 106.228 49.9212V27.0449C100.526 28.6756 94.4818 28.6756 88.7803 27.0449Z" fill="#1F7BAC"/>
<path opacity="0.3" d="M88.7803 27.0449V49.9212C94.4818 51.5519 100.526 51.5519 106.228 49.9212V27.0449C100.526 28.6756 94.4818 28.6756 88.7803 27.0449Z" fill="#C5C5C5"/>
<path opacity="0.4" d="M101.765 29.3758V49.8313C101.765 49.8313 103.847 50.1655 104.583 49.0996V28.7119L104.457 28.7661C103.605 29.1529 102.682 29.3604 101.747 29.3758H101.765Z" fill="#C5C5C5"/>
<path d="M102.38 43.9033C105.049 41.2347 105.049 36.9079 102.38 34.2393C99.7112 31.5706 95.3845 31.5706 92.7158 34.2393C90.0472 36.9079 90.0472 41.2347 92.7158 43.9033C95.3845 46.572 99.7112 46.572 102.38 43.9033Z" fill="#1F7BAC"/>
<path d="M97.5461 45.9013C95.8228 45.9014 94.1634 45.2495 92.9008 44.0767C91.6383 42.9038 90.8663 41.2967 90.7397 39.5781C90.7397 39.7498 90.7126 39.9169 90.7126 40.093C90.6874 41.0048 90.845 41.9124 91.1761 42.7623C91.5072 43.6122 92.0051 44.3872 92.6405 45.0417C93.2758 45.6961 94.0358 46.2168 94.8755 46.5729C95.7153 46.929 96.6178 47.1134 97.5299 47.1152C98.4421 47.117 99.3453 46.9362 100.186 46.5834C101.028 46.2306 101.79 45.713 102.428 45.0611C103.066 44.4092 103.567 43.6361 103.901 42.7875C104.235 41.939 104.397 41.032 104.375 40.1201C104.375 39.944 104.375 39.7769 104.353 39.6052C104.218 41.3186 103.443 42.9184 102.182 44.0854C100.92 45.2524 99.2647 45.9008 97.5461 45.9013Z" fill="#1F7BAC"/>
<path opacity="0.3" d="M97.5461 45.9013C95.8228 45.9014 94.1634 45.2495 92.9008 44.0767C91.6383 42.9038 90.8663 41.2967 90.7397 39.5781C90.7397 39.7498 90.7126 39.9169 90.7126 40.093C90.6874 41.0048 90.845 41.9124 91.1761 42.7623C91.5072 43.6122 92.0051 44.3872 92.6405 45.0417C93.2758 45.6961 94.0358 46.2168 94.8755 46.5729C95.7153 46.929 96.6178 47.1134 97.5299 47.1152C98.4421 47.117 99.3453 46.9362 100.186 46.5834C101.028 46.2306 101.79 45.713 102.428 45.0611C103.066 44.4092 103.567 43.6361 103.901 42.7875C104.235 41.939 104.397 41.032 104.375 40.1201C104.375 39.944 104.375 39.7769 104.353 39.6052C104.218 41.3186 103.443 42.9184 102.182 44.0854C100.92 45.2524 99.2647 45.9008 97.5461 45.9013Z" fill="black"/>
<path opacity="0.6" d="M100.965 42.4885C102.852 40.6012 102.852 37.5413 100.965 35.654C99.0778 33.7668 96.0179 33.7668 94.1306 35.654C92.2433 37.5413 92.2433 40.6012 94.1306 42.4885C96.0179 44.3758 99.0778 44.3758 100.965 42.4885Z" fill="#C5C5C5"/>
<path d="M97.2932 43.8777L99.2714 34.5691C98.7572 34.3737 98.2135 34.2668 97.6635 34.2529L95.6943 43.5299C96.2034 43.7366 96.7442 43.8543 97.2932 43.8777Z" fill="#1F7BAC"/>
<path d="M99.0951 43.6251L100.811 35.5315C100.589 35.3267 100.349 35.1423 100.093 34.9805L98.2144 43.8329C98.5138 43.7915 98.8087 43.7219 99.0951 43.6251Z" fill="#1F7BAC"/>
<g opacity="0.7">
<path opacity="0.7" d="M97.2932 43.8777L99.2714 34.5691C98.7572 34.3737 98.2135 34.2668 97.6635 34.2529L95.6943 43.5299C96.2034 43.7366 96.7442 43.8543 97.2932 43.8777Z" fill="#C5C5C5"/>
<path opacity="0.7" d="M99.0946 43.6242L100.811 35.5305C100.588 35.3257 100.348 35.1413 100.093 34.9795L98.2139 43.8319C98.5133 43.7905 98.8082 43.721 99.0946 43.6242Z" fill="#C5C5C5"/>
</g>
<path d="M99.3618 40.4768V41.3801H95.6808V40.6484L97.5597 38.8734C97.7191 38.7335 97.8548 38.5688 97.9616 38.3856C98.0287 38.2605 98.0643 38.121 98.0655 37.9791C98.0709 37.8935 98.0556 37.8077 98.0211 37.7292C97.9865 37.6506 97.9336 37.5814 97.8668 37.5275C97.6971 37.4121 97.4932 37.358 97.2887 37.3739C97.0893 37.3716 96.8919 37.4132 96.7106 37.4959C96.5389 37.5775 96.3911 37.7019 96.2815 37.8572L95.4595 37.3288C95.6576 37.0414 95.929 36.8122 96.2454 36.6648C96.6052 36.5006 96.9971 36.4188 97.3926 36.4255C97.7179 36.4177 98.0413 36.4793 98.341 36.6061C98.5941 36.7094 98.8131 36.8815 98.9733 37.1029C99.1279 37.3268 99.2071 37.5942 99.1992 37.8662C99.2014 38.1242 99.1442 38.3792 99.0321 38.6115C98.8677 38.9127 98.6487 39.1808 98.3862 39.4019L97.2661 40.4587L99.3618 40.4768Z" fill="#263238"/>
<path d="M106.228 75.2453V52.369C100.526 50.7383 94.4818 50.7383 88.7803 52.369V75.2453C94.4818 73.6146 100.526 73.6146 106.228 75.2453Z" fill="#263238"/>
<path d="M104.479 55.3096H90.5278L80.0133 73.9945C79.9551 74.0981 79.9249 74.2151 79.9258 74.3339C79.9267 74.4527 79.9586 74.5692 80.0184 74.6719C80.0782 74.7746 80.1638 74.8598 80.2666 74.9193C80.3695 74.9787 80.4861 75.0102 80.605 75.0107H114.402C114.521 75.0102 114.638 74.9787 114.741 74.9193C114.843 74.8598 114.929 74.7746 114.989 74.6719C115.049 74.5692 115.081 74.4527 115.081 74.3339C115.082 74.2151 115.052 74.0981 114.994 73.9945L104.479 55.3096Z" fill="#1F7BAC"/>
<path d="M106.228 52.4053C100.526 54.036 94.4818 54.036 88.7803 52.4053V75.959C94.4814 77.5922 100.527 77.5922 106.228 75.959V52.4053Z" fill="#1F7BAC"/>
<path opacity="0.5" d="M106.228 52.4053C100.526 54.036 94.4818 54.036 88.7803 52.4053V75.959C94.4814 77.5922 100.527 77.5922 106.228 75.959V52.4053Z" fill="#C5C5C5"/>
<path opacity="0.4" d="M101.765 55.1507V75.6107C101.765 75.6107 103.847 75.9404 104.583 74.8745V54.4868L104.457 54.5455C103.605 54.933 102.682 55.1391 101.747 55.1507H101.765Z" fill="#C5C5C5"/>
<path d="M98.9559 65.0559C99.1788 65.3034 99.2998 65.6261 99.2946 65.9592C99.2973 66.2355 99.2205 66.5067 99.0733 66.7405C98.9079 66.9934 98.6725 67.1927 98.3958 67.3141C98.0431 67.4683 97.6605 67.5423 97.2757 67.5309C96.934 67.531 96.5937 67.4854 96.264 67.3954C95.9621 67.3183 95.6761 67.1883 95.4194 67.0115L95.8711 66.1489C96.0674 66.2903 96.2856 66.3986 96.517 66.4696C96.7579 66.5466 97.0092 66.5862 97.2622 66.587C97.4968 66.6008 97.7301 66.5425 97.9306 66.4199C98.0066 66.3718 98.069 66.3051 98.1117 66.226C98.1544 66.1469 98.176 66.0581 98.1745 65.9682C98.1745 65.5708 97.8719 65.372 97.2712 65.372H96.7563V64.6268L97.759 63.4932H95.6859V62.5898H99.0959V63.317L97.9939 64.5681C98.3597 64.6196 98.6981 64.7911 98.9559 65.0559Z" fill="#263238"/>
<path d="M88.7798 81.9116H87.9397L73.5139 107.543C73.4343 107.685 73.3933 107.846 73.3951 108.009C73.3968 108.172 73.4412 108.332 73.5239 108.473C73.6066 108.613 73.7246 108.73 73.8662 108.811C74.0079 108.892 74.1682 108.934 74.3314 108.934H88.7843L88.7798 81.9116Z" fill="#1F7BAC"/>
<path d="M121.492 107.543L107.085 81.9116H106.227V108.934H120.679C120.843 108.935 121.003 108.893 121.145 108.812C121.287 108.731 121.405 108.614 121.487 108.473C121.57 108.332 121.614 108.172 121.615 108.009C121.615 107.845 121.573 107.685 121.492 107.543Z" fill="#1F7BAC"/>
<g opacity="0.2">
<path opacity="0.2" d="M88.7798 81.9121H87.9397L73.5139 107.543C73.4343 107.686 73.3933 107.847 73.3951 108.01C73.3968 108.173 73.4412 108.333 73.5239 108.473C73.6066 108.614 73.7246 108.731 73.8662 108.811C74.0079 108.892 74.1682 108.935 74.3314 108.935H88.7843L88.7798 81.9121Z" fill="black"/>
<path opacity="0.2" d="M121.493 107.543L107.086 81.9116H106.228V108.934H120.68C120.844 108.935 121.004 108.893 121.146 108.812C121.288 108.731 121.406 108.614 121.488 108.473C121.571 108.332 121.615 108.172 121.615 108.009C121.616 107.845 121.574 107.685 121.493 107.543Z" fill="black"/>
</g>
<path d="M106.228 97.4397V78.538C100.526 76.9073 94.4818 76.9073 88.7803 78.538V97.4397C94.4818 95.809 100.526 95.809 106.228 97.4397Z" fill="#263238"/>
<path d="M103.924 109.291L101.634 99.8872H93.3729L91.083 109.291C93.1176 110.137 95.2996 110.573 97.5033 110.573C99.707 110.573 101.889 110.137 103.924 109.291Z" fill="#263238"/>
<path opacity="0.2" d="M93.3734 99.8872L92.8359 102.087C95.8846 102.974 99.1229 102.974 102.172 102.087L101.634 99.8872H93.3734Z" fill="#C5C5C5"/>
<path opacity="0.4" d="M92.2617 104.449C92.1172 105.045 91.9681 105.646 91.8101 106.22C95.5049 107.367 99.4608 107.367 103.156 106.22L102.704 104.454C99.256 105.131 95.7091 105.13 92.2617 104.449Z" fill="#C5C5C5"/>
<path d="M106.228 78.4473C100.527 80.0804 94.4814 80.0804 88.7803 78.4473V94.8468C94.4313 96.8047 100.577 96.8047 106.228 94.8468V78.4518V78.4473Z" fill="#1F7BAC"/>
<path opacity="0.7" d="M106.228 78.4473C100.527 80.0804 94.4814 80.0804 88.7803 78.4473V94.8468C94.4313 96.8047 100.577 96.8047 106.228 94.8468V78.4518V78.4473Z" fill="#C5C5C5"/>
<path d="M88.7803 94.8425V98.8351C91.5453 99.9837 94.5099 100.575 97.504 100.575C100.498 100.575 103.463 99.9837 106.228 98.8351V94.8335C100.578 96.7943 94.4323 96.7975 88.7803 94.8425Z" fill="#1F7BAC"/>
<path opacity="0.2" d="M88.7803 94.8425V98.8351C91.5453 99.9837 94.5099 100.575 97.504 100.575C100.498 100.575 103.463 99.9837 106.228 98.8351V94.8335C100.578 96.7943 94.4323 96.7975 88.7803 94.8425Z" fill="black"/>
<path d="M84.895 87.8237V89.1787C87.4347 89.9081 90.1284 89.9081 92.668 89.1787V87.8237C92.6699 86.081 92.3273 84.355 91.6599 82.7452C90.9926 81.1353 90.0136 79.6731 88.7793 78.4429C87.5463 79.674 86.5686 81.1363 85.902 82.7461C85.2355 84.3559 84.8933 86.0814 84.895 87.8237Z" fill="#1F7BAC"/>
<path opacity="0.2" d="M84.895 87.8237V89.1787C87.4347 89.9081 90.1284 89.9081 92.668 89.1787V87.8237C92.6699 86.081 92.3273 84.355 91.6599 82.7452C90.9926 81.1353 90.0136 79.6731 88.7793 78.4429C87.5463 79.674 86.5686 81.1363 85.902 82.7461C85.2355 84.3559 84.8933 86.0814 84.895 87.8237Z" fill="#C5C5C5"/>
<path d="M84.895 89.1699V99.3592C87.435 100.087 90.128 100.087 92.668 99.3592V89.1699C90.1283 89.8994 87.4347 89.8994 84.895 89.1699Z" fill="#1F7BAC"/>
<path opacity="0.4" d="M84.895 89.1699V99.3592C87.435 100.087 90.128 100.087 92.668 99.3592V89.1699C90.1283 89.8994 87.4347 89.8994 84.895 89.1699Z" fill="#C5C5C5"/>
<path d="M92.668 99.3638C90.128 100.091 87.435 100.091 84.895 99.3638V109.856C87.4353 110.581 90.1277 110.581 92.668 109.856V99.3638Z" fill="#1F7BAC"/>
<path opacity="0.6" d="M92.668 99.3638C90.128 100.091 87.435 100.091 84.895 99.3638V109.856C87.4353 110.581 90.1277 110.581 92.668 109.856V99.3638Z" fill="#C5C5C5"/>
<path d="M84.895 109.675V111.459C86.127 111.97 87.4477 112.233 88.7815 112.233C90.1153 112.233 91.436 111.97 92.668 111.459V109.675C90.1503 110.547 87.4127 110.547 84.895 109.675Z" fill="#1F7BAC"/>
<path opacity="0.4" d="M88.7803 79.7847C88.7803 79.7847 90.1714 83.2443 90.1714 86.2478V108.998L91.3547 108.758V84.9064C91.3547 84.9064 91.174 81.7494 88.7803 79.7847Z" fill="#C5C5C5"/>
<path d="M102.343 87.8237V89.1787C104.881 89.9083 107.574 89.9083 110.112 89.1787V87.8237C110.113 86.0814 109.771 84.3559 109.105 82.7461C108.438 81.1363 107.46 79.674 106.228 78.4429C104.994 79.6734 104.016 81.1356 103.349 82.7455C102.682 84.3555 102.341 86.0813 102.343 87.8237Z" fill="#1F7BAC"/>
<path opacity="0.2" d="M102.343 87.8237V89.1787C104.881 89.9083 107.574 89.9083 110.112 89.1787V87.8237C110.113 86.0814 109.771 84.3559 109.105 82.7461C108.438 81.1363 107.46 79.674 106.228 78.4429C104.994 79.6734 104.016 81.1356 103.349 82.7455C102.682 84.3555 102.341 86.0813 102.343 87.8237Z" fill="#C5C5C5"/>
<path d="M102.343 89.1699V99.3592C104.882 100.087 107.573 100.087 110.112 99.3592V89.1699C107.574 89.8995 104.881 89.8995 102.343 89.1699Z" fill="#1F7BAC"/>
<path opacity="0.4" d="M102.343 89.1699V99.3592C104.882 100.087 107.573 100.087 110.112 99.3592V89.1699C107.574 89.8995 104.881 89.8995 102.343 89.1699Z" fill="#C5C5C5"/>
<path d="M110.112 99.3638C107.573 100.091 104.882 100.091 102.343 99.3638V109.856C104.882 110.581 107.573 110.581 110.112 109.856V99.3638Z" fill="#1F7BAC"/>
<path opacity="0.6" d="M110.112 99.3638C107.573 100.091 104.882 100.091 102.343 99.3638V109.856C104.882 110.581 107.573 110.581 110.112 109.856V99.3638Z" fill="#C5C5C5"/>
<path d="M102.343 109.675V111.459C103.574 111.97 104.894 112.233 106.227 112.233C107.561 112.233 108.881 111.97 110.112 111.459V109.675C107.596 110.547 104.859 110.547 102.343 109.675Z" fill="#1F7BAC"/>
<path opacity="0.4" d="M106.295 80.0552C106.295 80.0552 107.686 83.5148 107.686 86.5183V109.268L108.865 109.029V85.1769C108.865 85.1769 108.689 82.0199 106.295 80.0552Z" fill="#C5C5C5"/>
<path d="M99.8588 91.4458H99.0458V92.4665H97.9438V91.4458H95.3423V90.705L97.6367 87.6157H98.82L96.6972 90.5289H98.0025V89.6256H99.0684V90.5289H99.8588V91.4458Z" fill="#263238"/>
<path opacity="0.4" d="M102.221 11.6392C103.508 15.5008 103.974 19.6199 104.145 24.0371C103.084 24.6784 103.084 24.6784 101.733 24.4526C101.864 20.1806 101.457 15.9091 100.523 11.7385L102.221 11.6392Z" fill="#C5C5C5"/>
<path opacity="0.4" d="M100.31 10.1172C99.8028 7.85476 99.1342 5.63147 98.3096 3.46436C99.833 5.50472 101.05 7.75665 101.923 10.1488L100.31 10.1172Z" fill="#C5C5C5"/>
<path d="M108.817 90.295L108.41 90.0963L112.796 81.1807H124.837V81.6323H113.08L108.817 90.295Z" fill="#1F7BAC"/>
<path d="M108.943 91.3562C109.738 91.3562 110.384 90.7111 110.384 89.9154C110.384 89.1197 109.738 88.4746 108.943 88.4746C108.147 88.4746 107.502 89.1197 107.502 89.9154C107.502 90.7111 108.147 91.3562 108.943 91.3562Z" fill="#263238"/>
<path d="M139.777 72.1025H126.724C125.475 72.1025 124.461 73.1156 124.461 74.3653V87.4181C124.461 88.6678 125.475 89.6809 126.724 89.6809H139.777C141.027 89.6809 142.04 88.6678 142.04 87.4181V74.3653C142.04 73.1156 141.027 72.1025 139.777 72.1025Z" fill="#1F7BAC"/>
<path opacity="0.4" d="M139.777 72.1025H126.724C125.475 72.1025 124.461 73.1156 124.461 74.3653V87.4181C124.461 88.6678 125.475 89.6809 126.724 89.6809H139.777C141.027 89.6809 142.04 88.6678 142.04 87.4181V74.3653C142.04 73.1156 141.027 72.1025 139.777 72.1025Z" fill="black"/>
<path d="M134.913 78.9631C134.913 80.0064 134.294 80.8555 133.251 80.8555C132.207 80.8555 131.584 80.0064 131.584 78.9631C131.584 77.9198 132.207 77.0752 133.251 77.0752C134.294 77.0752 134.913 77.9153 134.913 78.9631Z" fill="#1F7BAC"/>
<path d="M134.79 80.5034C134.602 80.7284 134.366 80.9093 134.1 81.0335C133.834 81.1576 133.544 81.222 133.25 81.222C132.957 81.222 132.667 81.1576 132.401 81.0335C132.134 80.9093 131.899 80.7284 131.71 80.5034C130.382 80.9551 129.624 82.0887 129.624 83.7824H136.895C136.895 82.0887 136.118 80.9641 134.79 80.5034Z" fill="#1F7BAC"/>
<path d="M128.454 81.9892C128.991 81.9892 129.426 81.4958 129.426 80.8872C129.426 80.2786 128.991 79.7852 128.454 79.7852C127.918 79.7852 127.483 80.2786 127.483 80.8872C127.483 81.4958 127.918 81.9892 128.454 81.9892Z" fill="#1F7BAC"/>
<path d="M138.047 81.9892C138.584 81.9892 139.018 81.4958 139.018 80.8872C139.018 80.2786 138.584 79.7852 138.047 79.7852C137.511 79.7852 137.076 80.2786 137.076 80.8872C137.076 81.4958 137.511 81.9892 138.047 81.9892Z" fill="#1F7BAC"/>
<path d="M137.257 83.7826H140.242C140.242 82.7934 139.791 82.1385 139.032 81.8721C138.922 82.0054 138.784 82.1129 138.628 82.1866C138.472 82.2604 138.301 82.2986 138.128 82.2986C137.956 82.2986 137.785 82.2604 137.629 82.1866C137.473 82.1129 137.335 82.0054 137.225 81.8721C137.118 81.9086 137.016 81.9555 136.918 82.0121C137.149 82.5735 137.264 83.1756 137.257 83.7826Z" fill="#1F7BAC"/>
<path d="M129.24 83.7826C129.229 83.1758 129.343 82.5732 129.574 82.0121C129.475 81.9555 129.371 81.9086 129.263 81.8721C129.154 82.0062 129.016 82.1142 128.86 82.1885C128.703 82.2627 128.532 82.3012 128.359 82.3012C128.186 82.3012 128.016 82.2627 127.859 82.1885C127.703 82.1142 127.565 82.0062 127.456 81.8721C126.679 82.1385 126.241 82.7754 126.241 83.7826H129.24Z" fill="#1F7BAC"/>
<path opacity="0.8" d="M134.913 78.9631C134.913 80.0064 134.294 80.8555 133.251 80.8555C132.207 80.8555 131.584 80.0064 131.584 78.9631C131.584 77.9198 132.207 77.0752 133.251 77.0752C134.294 77.0752 134.913 77.9153 134.913 78.9631Z" fill="#C5C5C5"/>
<path opacity="0.8" d="M134.79 80.5034C134.602 80.7284 134.366 80.9093 134.1 81.0335C133.834 81.1576 133.544 81.222 133.25 81.222C132.957 81.222 132.667 81.1576 132.401 81.0335C132.134 80.9093 131.899 80.7284 131.71 80.5034C130.382 80.9551 129.624 82.0887 129.624 83.7824H136.895C136.895 82.0887 136.118 80.9641 134.79 80.5034Z" fill="#C5C5C5"/>
<path opacity="0.8" d="M128.454 81.9892C128.991 81.9892 129.426 81.4958 129.426 80.8872C129.426 80.2786 128.991 79.7852 128.454 79.7852C127.918 79.7852 127.483 80.2786 127.483 80.8872C127.483 81.4958 127.918 81.9892 128.454 81.9892Z" fill="#C5C5C5"/>
<path opacity="0.8" d="M138.047 81.9892C138.584 81.9892 139.018 81.4958 139.018 80.8872C139.018 80.2786 138.584 79.7852 138.047 79.7852C137.511 79.7852 137.076 80.2786 137.076 80.8872C137.076 81.4958 137.511 81.9892 138.047 81.9892Z" fill="#C5C5C5"/>
<path opacity="0.8" d="M137.257 83.7826H140.242C140.242 82.7934 139.791 82.1385 139.032 81.8721C138.922 82.0054 138.784 82.1129 138.628 82.1866C138.472 82.2604 138.301 82.2986 138.128 82.2986C137.956 82.2986 137.785 82.2604 137.629 82.1866C137.473 82.1129 137.335 82.0054 137.225 81.8721C137.118 81.9086 137.016 81.9555 136.918 82.0121C137.149 82.5735 137.264 83.1756 137.257 83.7826Z" fill="#C5C5C5"/>
<path opacity="0.8" d="M129.24 83.7826C129.229 83.1758 129.343 82.5732 129.574 82.0121C129.475 81.9555 129.371 81.9086 129.263 81.8721C129.154 82.0062 129.016 82.1142 128.86 82.1885C128.703 82.2627 128.532 82.3012 128.359 82.3012C128.186 82.3012 128.016 82.2627 127.859 82.1885C127.703 82.1142 127.565 82.0062 127.456 81.8721C126.679 82.1385 126.241 82.7754 126.241 83.7826H129.24Z" fill="#C5C5C5"/>
<path d="M85.4919 39.6373L81.2282 30.9746H69.4717V30.5229H81.5128L85.8983 39.4386L85.4919 39.6373Z" fill="#1F7BAC"/>
<path d="M85.3656 40.6985C86.1613 40.6985 86.8064 40.0534 86.8064 39.2577C86.8064 38.462 86.1613 37.8169 85.3656 37.8169C84.5699 37.8169 83.9248 38.462 83.9248 39.2577C83.9248 40.0534 84.5699 40.6985 85.3656 40.6985Z" fill="#263238"/>
<path d="M68.3923 20.9072H55.3394C54.0897 20.9072 53.0767 21.9203 53.0767 23.17V36.2228C53.0767 37.4725 54.0897 38.4856 55.3394 38.4856H68.3923C69.642 38.4856 70.655 37.4725 70.655 36.2228V23.17C70.655 21.9203 69.642 20.9072 68.3923 20.9072Z" fill="#1F7BAC"/>
<path opacity="0.4" d="M68.3923 20.9072H55.3394C54.0897 20.9072 53.0767 21.9203 53.0767 23.17V36.2228C53.0767 37.4725 54.0897 38.4856 55.3394 38.4856H68.3923C69.642 38.4856 70.655 37.4725 70.655 36.2228V23.17C70.655 21.9203 69.642 20.9072 68.3923 20.9072Z" fill="black"/>
<path d="M57.3491 30.4234L59.6164 32.6907L61.7979 29.1226L64.0471 32.8036L66.7029 28.2419L66.7616 28.7929L67.3939 28.7297L67.1906 26.7695L65.4247 27.5915L65.6957 28.1651L66.1338 27.9574L64.0381 31.5661L61.7979 27.9032L59.4945 31.6745L57.2768 29.4524L55.2896 32.1532L55.7999 32.5281L57.3491 30.4234Z" fill="#1F7BAC"/>
<path d="M67.9675 26.7695V33.2417H55.2896V33.716H68.4417V26.7695H67.9675Z" fill="#1F7BAC"/>
<g opacity="0.8">
<path opacity="0.8" d="M57.3491 30.4234L59.6164 32.6907L61.7979 29.1226L64.0471 32.8036L66.7029 28.2419L66.7616 28.7929L67.3939 28.7297L67.1906 26.7695L65.4247 27.5915L65.6957 28.1651L66.1338 27.9574L64.0381 31.5661L61.7979 27.9032L59.4945 31.6745L57.2768 29.4524L55.2896 32.1532L55.7999 32.5281L57.3491 30.4234Z" fill="#C5C5C5"/>
<path opacity="0.8" d="M67.9675 26.7695V33.2417H55.2896V33.716H68.4417V26.7695H67.9675Z" fill="#C5C5C5"/>
</g>
<path d="M85.4919 65.7111L81.2282 57.0483H69.4717V56.5967H81.5128L85.8983 65.5123L85.4919 65.7111Z" fill="#1F7BAC"/>
<path d="M85.3656 66.7722C86.1613 66.7722 86.8064 66.1271 86.8064 65.3314C86.8064 64.5357 86.1613 63.8906 85.3656 63.8906C84.5699 63.8906 83.9248 64.5357 83.9248 65.3314C83.9248 66.1271 84.5699 66.7722 85.3656 66.7722Z" fill="#263238"/>
<path d="M68.4147 47.5137H55.3619C54.1122 47.5137 53.0991 48.5268 53.0991 49.7765V62.8293C53.0991 64.079 54.1122 65.0921 55.3619 65.0921H68.4147C69.6644 65.0921 70.6775 64.079 70.6775 62.8293V49.7765C70.6775 48.5268 69.6644 47.5137 68.4147 47.5137Z" fill="#1F7BAC"/>
<path opacity="0.4" d="M68.4147 47.5137H55.3619C54.1122 47.5137 53.0991 48.5268 53.0991 49.7765V62.8293C53.0991 64.079 54.1122 65.0921 55.3619 65.0921H68.4147C69.6644 65.0921 70.6775 64.079 70.6775 62.8293V49.7765C70.6775 48.5268 69.6644 47.5137 68.4147 47.5137Z" fill="black"/>
<path d="M63.4599 55.5035C63.4667 55.3877 63.4667 55.2715 63.4599 55.1557L64.58 54.3111C64.475 53.9453 64.3232 53.5946 64.1283 53.2678L62.7372 53.462C62.5906 53.28 62.4256 53.1135 62.2449 52.9652L62.4391 51.5786C62.1109 51.3865 61.7605 51.2348 61.3958 51.127L60.5648 52.2651C60.4474 52.2583 60.3298 52.2583 60.2125 52.2651C60.0966 52.2583 59.9805 52.2583 59.8647 52.2651L59.0201 51.145C58.6551 51.2521 58.3046 51.4038 57.9768 51.5967L58.171 52.9833C57.99 53.1327 57.8236 53.299 57.6742 53.4801L56.2876 53.2859C56.0947 53.6137 55.943 53.9641 55.8359 54.3292L56.956 55.1738C56.932 55.4065 56.932 55.6411 56.956 55.8738L55.8359 56.7184C55.9438 57.0832 56.0955 57.4335 56.2876 57.7618L57.6742 57.5675C57.8225 57.7482 57.9889 57.9132 58.171 58.0598L57.9768 59.4509C58.3036 59.6459 58.6543 59.7977 59.0201 59.9026L59.8647 58.787C59.9776 58.787 60.095 58.787 60.2125 58.787C60.3299 58.787 60.4473 58.787 60.5648 58.787L61.4093 59.9026C61.7749 59.7969 62.1254 59.6451 62.4527 59.4509L62.2585 58.0598C62.4402 57.9144 62.6053 57.7493 62.7508 57.5675L64.1419 57.7618C64.336 57.4345 64.4878 57.0839 64.5935 56.7184L63.4734 55.8738C63.4767 55.7502 63.4721 55.6265 63.4599 55.5035ZM60.1989 56.5423C59.9935 56.5423 59.7926 56.4814 59.6218 56.3672C59.451 56.2531 59.3178 56.0908 59.2392 55.901C59.1606 55.7112 59.14 55.5023 59.1801 55.3008C59.2202 55.0993 59.3191 54.9142 59.4644 54.7689C59.6097 54.6237 59.7947 54.5247 59.9963 54.4846C60.1978 54.4446 60.4066 54.4651 60.5965 54.5438C60.7863 54.6224 60.9485 54.7555 61.0627 54.9264C61.1768 55.0972 61.2377 55.298 61.2377 55.5035C61.2377 55.779 61.1283 56.0432 60.9335 56.238C60.7387 56.4328 60.4744 56.5423 60.1989 56.5423Z" fill="#1F7BAC"/>
<path d="M67.3673 59.6179C67.3673 59.5592 67.3673 59.5005 67.3673 59.4417L67.9273 59.0217C67.8786 58.8396 67.8057 58.6649 67.7105 58.5023L67.015 58.5972C66.9419 58.5067 66.8602 58.4235 66.7711 58.3487L66.8659 57.6577C66.7033 57.5625 66.5286 57.4896 66.3465 57.4409L65.922 58.001C65.8633 57.9962 65.8044 57.9962 65.7458 58.001C65.6887 57.9964 65.6313 57.9964 65.5742 58.001L65.1496 57.4409C64.9676 57.4896 64.7929 57.5625 64.6302 57.6577L64.7251 58.3487C64.6356 58.4246 64.5526 58.5077 64.4767 58.5972L63.7856 58.5023C63.6905 58.6649 63.6175 58.8396 63.5688 59.0217L64.1289 59.4417C64.1289 59.5005 64.1289 59.5592 64.1289 59.6179C64.1289 59.6766 64.1289 59.7353 64.1289 59.794L63.5688 60.2186C63.6184 60.4004 63.6913 60.5749 63.7856 60.738L64.4767 60.6386C64.5502 60.7302 64.6335 60.8135 64.7251 60.887L64.6302 61.5826C64.7938 61.6759 64.9683 61.7487 65.1496 61.7994L65.5742 61.2393H65.7458H65.922L66.3465 61.7994C66.5279 61.7487 66.7023 61.6759 66.8659 61.5826L66.7711 60.887C66.8623 60.8146 66.9442 60.7312 67.015 60.6386L67.7105 60.738C67.8049 60.5749 67.8778 60.4004 67.9273 60.2186L67.3673 59.794C67.3627 59.7353 67.3673 59.6766 67.3673 59.6179ZM65.7368 60.7425C65.5144 60.7425 65.2969 60.6765 65.112 60.553C64.927 60.4294 64.7829 60.2538 64.6978 60.0483C64.6127 59.8428 64.5904 59.6166 64.6338 59.3985C64.6772 59.1803 64.7843 58.9799 64.9416 58.8227C65.0988 58.6654 65.2992 58.5583 65.5174 58.5149C65.7355 58.4715 65.9617 58.4938 66.1672 58.5789C66.3727 58.664 66.5483 58.8081 66.6719 58.9931C66.7955 59.178 66.8614 59.3955 66.8614 59.6179C66.8614 59.7656 66.8323 59.9118 66.7758 60.0483C66.7193 60.1847 66.6364 60.3087 66.532 60.4131C66.4276 60.5175 66.3036 60.6004 66.1672 60.6569C66.0307 60.7134 65.8845 60.7425 65.7368 60.7425Z" fill="#1F7BAC"/>
<g opacity="0.8">
<path opacity="0.8" d="M63.4599 55.5035C63.4667 55.3877 63.4667 55.2715 63.4599 55.1557L64.58 54.3111C64.475 53.9453 64.3232 53.5946 64.1283 53.2678L62.7372 53.462C62.5906 53.28 62.4256 53.1135 62.2449 52.9652L62.4391 51.5786C62.1109 51.3865 61.7605 51.2348 61.3958 51.127L60.5648 52.2651C60.4474 52.2583 60.3298 52.2583 60.2125 52.2651C60.0966 52.2583 59.9805 52.2583 59.8647 52.2651L59.0201 51.145C58.6551 51.2521 58.3046 51.4038 57.9768 51.5967L58.171 52.9833C57.99 53.1327 57.8236 53.299 57.6742 53.4801L56.2876 53.2859C56.0947 53.6137 55.943 53.9641 55.8359 54.3292L56.956 55.1738C56.932 55.4065 56.932 55.6411 56.956 55.8738L55.8359 56.7184C55.9438 57.0832 56.0955 57.4335 56.2876 57.7618L57.6742 57.5675C57.8225 57.7482 57.9889 57.9132 58.171 58.0598L57.9768 59.4509C58.3036 59.6459 58.6543 59.7977 59.0201 59.9026L59.8647 58.787C59.9776 58.787 60.095 58.787 60.2125 58.787C60.3299 58.787 60.4473 58.787 60.5648 58.787L61.4093 59.9026C61.7749 59.7969 62.1254 59.6451 62.4527 59.4509L62.2585 58.0598C62.4402 57.9144 62.6053 57.7493 62.7508 57.5675L64.1419 57.7618C64.336 57.4345 64.4878 57.0839 64.5935 56.7184L63.4734 55.8738C63.4767 55.7502 63.4721 55.6265 63.4599 55.5035ZM60.1989 56.5423C59.9935 56.5423 59.7926 56.4814 59.6218 56.3672C59.451 56.2531 59.3178 56.0908 59.2392 55.901C59.1606 55.7112 59.14 55.5023 59.1801 55.3008C59.2202 55.0993 59.3191 54.9142 59.4644 54.7689C59.6097 54.6237 59.7947 54.5247 59.9963 54.4846C60.1978 54.4446 60.4066 54.4651 60.5965 54.5438C60.7863 54.6224 60.9485 54.7555 61.0627 54.9264C61.1768 55.0972 61.2377 55.298 61.2377 55.5035C61.2377 55.779 61.1283 56.0432 60.9335 56.238C60.7387 56.4328 60.4744 56.5423 60.1989 56.5423Z" fill="#C5C5C5"/>
<path opacity="0.8" d="M67.3673 59.6179C67.3673 59.5592 67.3673 59.5005 67.3673 59.4417L67.9273 59.0217C67.8786 58.8396 67.8057 58.6649 67.7105 58.5023L67.015 58.5972C66.9419 58.5067 66.8602 58.4235 66.7711 58.3487L66.8659 57.6577C66.7033 57.5625 66.5286 57.4896 66.3465 57.4409L65.922 58.001C65.8633 57.9962 65.8044 57.9962 65.7458 58.001C65.6887 57.9964 65.6313 57.9964 65.5742 58.001L65.1496 57.4409C64.9676 57.4896 64.7929 57.5625 64.6302 57.6577L64.7251 58.3487C64.6356 58.4246 64.5526 58.5077 64.4767 58.5972L63.7856 58.5023C63.6905 58.6649 63.6175 58.8396 63.5688 59.0217L64.1289 59.4417C64.1289 59.5005 64.1289 59.5592 64.1289 59.6179C64.1289 59.6766 64.1289 59.7353 64.1289 59.794L63.5688 60.2186C63.6184 60.4004 63.6913 60.5749 63.7856 60.738L64.4767 60.6386C64.5502 60.7302 64.6335 60.8135 64.7251 60.887L64.6302 61.5826C64.7938 61.6759 64.9683 61.7487 65.1496 61.7994L65.5742 61.2393H65.7458H65.922L66.3465 61.7994C66.5279 61.7487 66.7023 61.6759 66.8659 61.5826L66.7711 60.887C66.8623 60.8146 66.9442 60.7312 67.015 60.6386L67.7105 60.738C67.8049 60.5749 67.8778 60.4004 67.9273 60.2186L67.3673 59.794C67.3627 59.7353 67.3673 59.6766 67.3673 59.6179ZM65.7368 60.7425C65.5144 60.7425 65.2969 60.6765 65.112 60.553C64.927 60.4294 64.7829 60.2538 64.6978 60.0483C64.6127 59.8428 64.5904 59.6166 64.6338 59.3985C64.6772 59.1803 64.7843 58.9799 64.9416 58.8227C65.0988 58.6654 65.2992 58.5583 65.5174 58.5149C65.7355 58.4715 65.9617 58.4938 66.1672 58.5789C66.3727 58.664 66.5483 58.8081 66.6719 58.9931C66.7955 59.178 66.8614 59.3955 66.8614 59.6179C66.8614 59.7656 66.8323 59.9118 66.7758 60.0483C66.7193 60.1847 66.6364 60.3087 66.532 60.4131C66.4276 60.5175 66.3036 60.6004 66.1672 60.6569C66.0307 60.7134 65.8845 60.7425 65.7368 60.7425Z" fill="#C5C5C5"/>
</g>
<path d="M108.817 17.6779L108.41 17.4791L112.796 8.56348H124.837V9.01513H113.08L108.817 17.6779Z" fill="#1F7BAC"/>
<path d="M108.943 18.739C109.738 18.739 110.384 18.0939 110.384 17.2982C110.384 16.5025 109.738 15.8574 108.943 15.8574C108.147 15.8574 107.502 16.5025 107.502 17.2982C107.502 18.0939 108.147 18.739 108.943 18.739Z" fill="#263238"/>
<path d="M139.777 0H126.724C125.475 0 124.461 1.01309 124.461 2.26279V15.3156C124.461 16.5653 125.475 17.5784 126.724 17.5784H139.777C141.027 17.5784 142.04 16.5653 142.04 15.3156V2.26279C142.04 1.01309 141.027 0 139.777 0Z" fill="#1F7BAC"/>
<path opacity="0.4" d="M139.777 0H126.724C125.475 0 124.461 1.01309 124.461 2.26279V15.3156C124.461 16.5653 125.475 17.5784 126.724 17.5784H139.777C141.027 17.5784 142.04 16.5653 142.04 15.3156V2.26279C142.04 1.01309 141.027 0 139.777 0Z" fill="black"/>
<path d="M133.124 2.63324C132.262 2.65672 131.427 2.94588 130.735 3.46124C130.043 3.97661 129.527 4.69305 129.257 5.51275C128.987 6.33244 128.977 7.21542 129.228 8.04112C129.479 8.86682 129.978 9.59499 130.658 10.1262C131.354 10.6598 131.842 11.4205 132.036 12.2761L132.081 12.4929H134.42L134.466 12.2806C134.665 11.4153 135.16 10.6469 135.866 10.1081C136.554 9.55905 137.053 8.80716 137.291 7.95898C137.528 7.11081 137.493 6.20937 137.189 5.38242C136.886 4.55546 136.33 3.84493 135.601 3.3515C134.871 2.85808 134.005 2.60679 133.124 2.63324ZM134.588 9.6926L134.023 9.59324L134.475 6.94202L133.734 7.47949L133.332 6.34132L132.939 7.54724L132.085 7.09558L132.537 9.58872L131.972 9.68808L131.268 5.72255L132.654 6.59877L133.282 4.54825L134.028 6.662L135.261 5.8716L134.588 9.6926Z" fill="#1F7BAC"/>
<path d="M134.411 12.8271H132.09V13.8072H134.411V12.8271Z" fill="#1F7BAC"/>
<path d="M133.219 14.6924H133.283C133.5 14.6929 133.715 14.6444 133.911 14.5506C134.107 14.4568 134.28 14.32 134.416 14.1504H132.095C132.23 14.3188 132.401 14.4549 132.596 14.5486C132.79 14.6424 133.003 14.6915 133.219 14.6924Z" fill="#1F7BAC"/>
<g opacity="0.8">
<path opacity="0.8" d="M134.411 12.8271H132.09V13.8072H134.411V12.8271Z" fill="#C5C5C5"/>
<path opacity="0.8" d="M133.219 14.6919H133.283C133.5 14.6924 133.715 14.6439 133.911 14.5501C134.107 14.4563 134.28 14.3195 134.416 14.1499H132.095C132.23 14.3183 132.401 14.4544 132.596 14.5481C132.79 14.6419 133.003 14.691 133.219 14.6919Z" fill="#C5C5C5"/>
</g>
<path opacity="0.9" d="M133.124 2.63324C132.262 2.65672 131.427 2.94588 130.735 3.46124C130.043 3.97661 129.527 4.69305 129.257 5.51275C128.987 6.33244 128.977 7.21542 129.228 8.04112C129.479 8.86682 129.978 9.59499 130.658 10.1262C131.354 10.6598 131.842 11.4205 132.036 12.2761L132.081 12.4929H134.42L134.466 12.2806C134.665 11.4153 135.16 10.6469 135.866 10.1081C136.554 9.55905 137.053 8.80716 137.291 7.95898C137.528 7.11081 137.493 6.20937 137.189 5.38242C136.886 4.55546 136.33 3.84493 135.601 3.3515C134.871 2.85808 134.005 2.60679 133.124 2.63324ZM134.588 9.6926L134.023 9.59324L134.475 6.94202L133.734 7.47949L133.332 6.34132L132.939 7.54724L132.085 7.09558L132.537 9.58872L131.972 9.68808L131.268 5.72255L132.654 6.59877L133.282 4.54825L134.028 6.662L135.261 5.8716L134.588 9.6926Z" fill="#C5C5C5"/>
</svg>
