<svg width="161" height="120" viewBox="0 0 161 120" fill="none" xmlns="http://www.w3.org/2000/svg">
<path d="M160.286 105.503H0.151855V105.583H160.286V105.503Z" fill="#4BA4D3"/>
<path d="M47.9083 109.183H33.7461V109.263H47.9083V109.183Z" fill="#4BA4D3"/>
<path d="M31.3973 109.222H25.8887V109.302H31.3973V109.222Z" fill="#4BA4D3"/>
<path d="M73.5259 108.684H66.8291V108.764H73.5259V108.684Z" fill="#4BA4D3"/>
<path d="M89.8875 107.819H72.1831V107.899H89.8875V107.819Z" fill="#4BA4D3"/>
<path d="M121.864 109.302H117.585V109.382H121.864V109.302Z" fill="#4BA4D3"/>
<path d="M115.807 109.302H114.41V109.382H115.807V109.302Z" fill="#4BA4D3"/>
<path d="M143.808 108.417H125.633V108.498H143.808V108.417Z" fill="#4BA4D3"/>
<path d="M76.0557 91.2196H14.2152C13.7307 91.2188 13.2664 91.0257 12.9241 90.6829C12.5819 90.34 12.3896 89.8753 12.3896 89.3909V2.46066C12.3939 1.97899 12.588 1.51843 12.9298 1.17902C13.2716 0.839616 13.7335 0.648774 14.2152 0.647949H76.0557C76.5407 0.647949 77.0058 0.840618 77.3488 1.18357C77.6917 1.52652 77.8844 1.99167 77.8844 2.47668V89.3909C77.8844 89.8759 77.6917 90.341 77.3488 90.684C77.0058 91.0269 76.5407 91.2196 76.0557 91.2196ZM14.2152 0.712003C13.752 0.712851 13.308 0.897458 12.9808 1.2253C12.6535 1.55315 12.4697 1.99744 12.4697 2.46066V89.3909C12.4697 89.8541 12.6535 90.2984 12.9808 90.6262C13.308 90.9541 13.752 91.1387 14.2152 91.1395H76.0557C76.5189 91.1378 76.9627 90.9531 77.2903 90.6255C77.6179 90.2979 77.8026 89.8541 77.8043 89.3909V2.46066C77.8026 1.99741 77.6179 1.55361 77.2903 1.22604C76.9627 0.898466 76.5189 0.713691 76.0557 0.712003H14.2152Z" fill="#4BA4D3"/>
<path d="M145.334 91.2196H83.4899C83.0054 91.2179 82.5412 91.0247 82.1986 90.6821C81.856 90.3395 81.6628 89.8754 81.6611 89.3909V2.46066C81.6662 1.9787 81.861 1.51814 82.2033 1.17882C82.5456 0.839504 83.0079 0.648765 83.4899 0.647949H145.334C145.815 0.649616 146.276 0.84083 146.617 1.18015C146.958 1.51946 147.152 1.97954 147.156 2.46066V89.3909C147.156 89.6306 147.109 89.8681 147.018 90.0897C146.927 90.3114 146.793 90.5128 146.623 90.6827C146.454 90.8525 146.253 90.9873 146.032 91.0794C145.811 91.1715 145.573 91.2192 145.334 91.2196ZM83.4899 0.712003C83.0266 0.713691 82.5828 0.898466 82.2552 1.22604C81.9277 1.55361 81.7429 1.99741 81.7412 2.46066V89.3909C81.7429 89.8541 81.9277 90.2979 82.2552 90.6255C82.5828 90.9531 83.0266 91.1378 83.4899 91.1395H145.334C145.797 91.1378 146.241 90.9531 146.568 90.6255C146.896 90.2979 147.081 89.8541 147.082 89.3909V2.46066C147.081 1.99741 146.896 1.55361 146.568 1.22604C146.241 0.898466 145.797 0.713691 145.334 0.712003H83.4899Z" fill="#4BA4D3"/>
<path d="M133.595 7.93726H93.9077V70.0564H133.595V7.93726Z" fill="#4BA4D3"/>
<path d="M135.34 7.93726H94.7241V70.0564H135.34V7.93726Z" fill="#EBEBEB"/>
<path d="M133.595 70.0588H93.9077V73.2967H133.595V70.0588Z" fill="#E6E6E6"/>
<path d="M138.243 70.0588H97.627V73.2967H138.243V70.0588Z" fill="#F0F0F0"/>
<path d="M132.9 10.3772H97.165V67.6186H132.9V10.3772Z" fill="#FAFAFA"/>
<path d="M109.991 67.6186L117.979 10.3772H124.74L116.752 67.6186H109.991Z" fill="white"/>
<path d="M98.7942 63.0995C98.7481 63.0987 98.7041 63.0798 98.6717 63.0468C98.6394 63.0139 98.6213 62.9695 98.6213 62.9234V11.9656C98.6181 11.9427 98.6195 11.9193 98.6254 11.897C98.6312 11.8746 98.6414 11.8536 98.6554 11.8351C98.6694 11.8167 98.6869 11.8012 98.7068 11.7895C98.7268 11.7778 98.7489 11.7702 98.7718 11.767C98.7947 11.7639 98.818 11.7653 98.8404 11.7711C98.8628 11.777 98.8838 11.7872 98.9023 11.8012C98.9207 11.8151 98.9362 11.8326 98.9479 11.8526C98.9596 11.8726 98.9672 11.8946 98.9704 11.9176C98.9736 11.9334 98.9736 11.9497 98.9704 11.9656V62.9234C98.9704 62.9701 98.9518 63.0149 98.9188 63.0479C98.8857 63.081 98.8409 63.0995 98.7942 63.0995Z" fill="#E6E6E6"/>
<path d="M118.202 67.6186L126.19 10.3772H128.825L120.838 67.6186H118.202Z" fill="white"/>
<path d="M132.899 10.3772H132.588V67.6186H132.899V10.3772Z" fill="#E6E6E6"/>
<path d="M135.914 12.2513H96.2296L96.0054 11.3257H135.69L135.914 12.2513Z" fill="#4BA4D3"/>
<path d="M135.914 12.9268H96.2296L96.0054 12.0044H135.69L135.914 12.9268Z" fill="#4BA4D3"/>
<path d="M135.914 13.7405H96.2296L96.0054 12.8149H135.69L135.914 13.7405Z" fill="#4BA4D3"/>
<path d="M135.914 14.6465H96.2296L96.0054 13.7209H135.69L135.914 14.6465Z" fill="#4BA4D3"/>
<path d="M135.914 15.7288H96.2296L96.0054 14.8032H135.69L135.914 15.7288Z" fill="#4BA4D3"/>
<path d="M135.914 16.949H96.2296L96.0054 16.0234H135.69L135.914 16.949Z" fill="#4BA4D3"/>
<path d="M29.7122 62.1392C29.7122 63.1 30.3879 63.7853 29.4175 63.7853C28.4471 63.7853 26.2148 63.1096 26.2148 62.1392C26.2148 61.672 26.4004 61.2239 26.7308 60.8936C27.0611 60.5633 27.5091 60.3777 27.9763 60.3777C28.4435 60.3777 28.8915 60.5633 29.2219 60.8936C29.5522 61.2239 29.7378 61.672 29.7378 62.1392H29.7122Z" fill="#4BA4D3"/>
<path d="M32.717 62.9812C32.717 63.942 33.3928 64.6242 32.4224 64.6242C31.452 64.6242 29.2197 63.9484 29.2197 62.9812C29.2197 62.514 29.4053 62.066 29.7356 61.7356C30.066 61.4053 30.514 61.2197 30.9812 61.2197C31.4484 61.2197 31.8964 61.4053 32.2267 61.7356C32.5571 62.066 32.7427 62.514 32.7427 62.9812H32.717Z" fill="#4BA4D3"/>
<path d="M35.596 62.459C35.596 63.4198 36.2717 64.102 35.3013 64.102C34.3309 64.102 32.0986 63.4262 32.0986 62.459C32.0986 61.9918 32.2842 61.5438 32.6146 61.2134C32.9449 60.8831 33.3929 60.6975 33.8601 60.6975C34.3273 60.6975 34.7753 60.8831 35.1057 61.2134C35.436 61.5438 35.6216 61.9918 35.6216 62.459H35.596Z" fill="#4BA4D3"/>
<path d="M25.1338 62.6938C25.1338 62.6938 25.2779 66.1175 30.7801 66.1175C36.2823 66.1175 36.4264 62.6938 36.4264 62.6938H25.1338Z" fill="#F0F0F0"/>
<path d="M89.9192 66.1201H87.4243V105.503H89.9192V66.1201Z" fill="#4BA4D3"/>
<path d="M90.7077 66.1201H88.9751V105.503H90.7077V66.1201Z" fill="#F0F0F0"/>
<path d="M91.2457 66.1201H39.4424V69.1851H91.2457V66.1201Z" fill="#F0F0F0"/>
<path d="M38.323 69.1853H35.8281V105.504H38.323V69.1853Z" fill="#4BA4D3"/>
<path d="M39.113 69.1853H37.3804V105.504H39.113V69.1853Z" fill="#F0F0F0"/>
<path d="M22.5359 69.1853H20.041V105.504H22.5359V69.1853Z" fill="#4BA4D3"/>
<path d="M23.322 69.1853H21.5894V105.504H23.322V69.1853Z" fill="#F0F0F0"/>
<path d="M74.1306 69.1853H71.6357V105.504H74.1306V69.1853Z" fill="#4BA4D3"/>
<path d="M74.9177 69.1853H73.1851V105.504H74.9177V69.1853Z" fill="#F0F0F0"/>
<path d="M39.4428 66.1201H20.041V69.1851H39.4428V66.1201Z" fill="#4BA4D3"/>
<path d="M39.1128 53.1431H59.9366L62.9535 65.4381H42.1297L39.1128 53.1431Z" fill="#4BA4D3"/>
<path d="M42.1304 65.4377L42.2168 66.1199H63.0406L62.9574 65.4377H42.1304Z" fill="#4BA4D3"/>
<path d="M39.752 53.1431H60.5758L63.5927 65.4381H42.7721L39.752 53.1431Z" fill="#F0F0F0"/>
<path d="M43.2117 64.8773L40.4702 53.7031H60.1378L62.8793 64.8773H43.2117Z" fill="white"/>
<path d="M48.1992 65.4377L48.2825 66.1199H71.2136L71.1304 65.4377H48.1992Z" fill="#EBEBEB"/>
<path d="M88.4267 61.1081C88.3666 61.1114 88.3068 61.1178 88.2474 61.1273V60.7238C88.2474 60.5896 88.194 60.4609 88.0991 60.366C88.0042 60.2711 87.8755 60.2178 87.7413 60.2178H83.7892C83.655 60.2178 83.5263 60.2711 83.4314 60.366C83.3365 60.4609 83.2832 60.5896 83.2832 60.7238V66.1171H88.2474V65.2107C88.3068 65.2193 88.3667 65.2246 88.4267 65.2268C88.6227 65.2268 88.8168 65.1882 88.9978 65.1132C89.1789 65.0382 89.3434 64.9282 89.482 64.7896C89.6206 64.651 89.7305 64.4865 89.8055 64.3054C89.8805 64.1244 89.9191 63.9303 89.9191 63.7343V62.6038C89.9191 62.2076 89.762 61.8277 89.4822 61.5473C89.2024 61.2669 88.8228 61.109 88.4267 61.1081ZM89.2786 63.7343C89.2786 63.9603 89.1889 64.1769 89.0291 64.3367C88.8693 64.4965 88.6526 64.5862 88.4267 64.5862C88.3664 64.5863 88.3063 64.5799 88.2474 64.567V61.7679C88.3063 61.755 88.3664 61.7485 88.4267 61.7487C88.6529 61.7495 88.8696 61.84 89.0293 62.0002C89.189 62.1605 89.2786 62.3775 89.2786 62.6038V63.7343Z" fill="#E6E6E6"/>
<path d="M66.957 105.503H66.2652L64.2827 95.7415L63.9368 94.0312L61.775 83.3951H53.4929L49.0092 105.494H48.3174L52.8908 82.9788C52.9024 82.9024 52.9412 82.8328 53 82.7828C53.0589 82.7328 53.1338 82.7057 53.2111 82.7066H62.0473C62.1245 82.7057 62.1994 82.7328 62.2583 82.7828C62.3171 82.8328 62.3559 82.9024 62.3675 82.9788L64.2667 92.321L64.6126 94.028L66.957 105.503Z" fill="#4BA4D3"/>
<path d="M80.2571 105.504H79.5781L75.0944 83.4054H66.7898L64.628 94.0479L64.2821 95.7677L62.2997 105.529H61.6079L63.9363 94.0575L64.2821 92.3569L66.1781 83.0147C66.1937 82.9402 66.2336 82.873 66.2916 82.8237C66.3496 82.7744 66.4224 82.7458 66.4984 82.7425H75.3346C75.4118 82.7416 75.4868 82.7687 75.5456 82.8187C75.6045 82.8687 75.6433 82.9383 75.6548 83.0147L80.2571 105.504Z" fill="#4BA4D3"/>
<path d="M59.8359 83.056H75.0583C76.4539 83.0555 77.7939 82.5085 78.7912 81.5322C79.7884 80.5558 80.3638 79.2278 80.3939 77.8325L80.9608 54.6995C80.9714 54.1893 80.8814 53.682 80.6959 53.2066C80.5105 52.7312 80.2331 52.297 79.8798 51.9288C79.5265 51.5606 79.1041 51.2657 78.6367 51.0608C78.1694 50.8558 77.6662 50.745 77.156 50.7346H67.532C66.5774 50.7347 65.6562 51.086 64.9439 51.7215C64.2317 52.357 63.7781 53.2323 63.6695 54.1807L59.8359 83.056Z" fill="#F0F0F0"/>
<path d="M68.1385 83.0558H51.9202C51.7189 83.0558 51.5258 82.9758 51.3834 82.8335C51.2411 82.6911 51.1611 82.4981 51.1611 82.2968V82.2263C51.1607 81.9524 51.2144 81.6811 51.319 81.4279C51.4236 81.1748 51.5772 80.9448 51.7709 80.7511C51.9645 80.5574 52.1946 80.4038 52.4477 80.2992C52.7009 80.1946 52.9722 80.1409 53.2461 80.1414H68.1385V83.0558Z" fill="#F0F0F0"/>
<path d="M65.2046 9.80054H21.5137V44.1332H65.2046V9.80054Z" fill="#4BA4D3"/>
<path d="M65.7178 9.80054H22.0269V44.1332H65.7178V9.80054Z" fill="#EBEBEB"/>
<path d="M62.8422 12.6768H24.9033V41.2574H62.8422V12.6768Z" fill="white"/>
<path opacity="0.5" d="M24.9033 21.5483V41.2576H57.8396C58.8453 37.1806 57.5482 33.078 52.3951 30.8425C47.9466 28.9209 42.6461 30.993 38.0215 30.0066C32.6826 28.8665 30.9147 24.4916 26.5271 22.2401C26.0028 21.9715 25.4602 21.7404 24.9033 21.5483Z" fill="#E6E6E6"/>
<path opacity="0.7" d="M24.9033 12.6768V13.7977C28.5992 16.8018 33.1438 22.4801 38.0023 24.0142C45.6887 26.4451 56.0205 19.8764 56.4881 12.6768H24.9033Z" fill="#E6E6E6"/>
<path d="M56.2877 28.5459C57.7673 32.3507 60.1021 35.2395 62.8404 37.8177V14.1755C57.5752 15.7545 53.7896 22.1246 56.2877 28.5459Z" fill="#E6E6E6"/>
<path d="M80.2197 119.967C114.515 119.967 142.316 118.344 142.316 116.342C142.316 114.339 114.515 112.716 80.2197 112.716C45.9247 112.716 18.123 114.339 18.123 116.342C18.123 118.344 45.9247 119.967 80.2197 119.967Z" fill="#F5F5F5"/>
<path d="M23.8721 115.617V116.341H136.568V69.6042H128.994L115.981 78.1106H103.571L89.655 87.2062V90.8668H83.9319L68.0946 101.218H57.5738L44.4685 109.785H35.1071L23.8721 115.617Z" fill="#1F7BAC"/>
<path opacity="0.2" d="M23.8721 115.617V116.341H136.568V69.6042H128.994L115.981 78.1106H103.571L89.655 87.2062V90.8668H83.9319L68.0946 101.218H57.5738L44.4685 109.785H35.1071L23.8721 115.617Z" fill="black"/>
<path d="M31.4463 116.342H136.568V70.3289L123.555 78.832H111.145L97.2293 87.9276V91.5914H91.5061L75.6688 101.942H65.1481L52.0459 110.51H42.6813L31.4463 116.342Z" fill="#1F7BAC"/>
<path opacity="0.1" d="M31.4463 116.342H136.568V70.3289L123.555 78.832H111.145L97.2293 87.9276V91.5914H91.5061L75.6688 101.942H65.1481L52.0459 110.51H42.6813L31.4463 116.342Z" fill="white"/>
<path d="M53.6385 30.0135C53.1901 30.5355 52.6777 31.1184 52.2389 31.6917C51.8002 32.265 51.3198 32.8478 50.8842 33.4403C50.0153 34.5893 49.2328 35.8011 48.5431 37.0658L48.3093 37.5302L48.2228 37.7063C48.1972 37.7543 48.1779 37.8216 48.1523 37.8793C48.0492 38.1742 47.9668 38.476 47.9057 38.7824C47.7712 39.4486 47.6687 40.1724 47.5855 40.9058C47.4349 42.3726 47.3356 43.9067 47.2428 45.4119L45.4845 45.5689C45.1448 44.0118 44.9306 42.4299 44.844 40.8385C44.7986 40.0103 44.8093 39.18 44.876 38.3532C44.9089 37.8953 44.9807 37.4411 45.0906 36.9953C45.1258 36.8704 45.1514 36.7519 45.1995 36.6206C45.2475 36.4893 45.2923 36.3452 45.3276 36.2619L45.5678 35.6726C45.8951 34.9036 46.2684 34.155 46.6855 33.4307C47.0858 32.7133 47.531 32.0344 47.9666 31.3682C48.4021 30.7021 48.8986 30.0551 49.4014 29.4466C49.6512 29.1263 49.9074 28.8061 50.1668 28.5146C50.4262 28.2232 50.6856 27.9189 50.9867 27.5955L53.6385 30.0135Z" fill="#E4897B"/>
<path d="M54.2192 30.82C53.8989 31.4125 53.537 31.9858 53.1879 32.5206C52.5858 33.4462 52.0029 34.2469 51.5866 34.7977C51.2119 35.2941 50.9717 35.5856 50.9717 35.5856L46.2285 32.3541C46.2285 32.3541 49.1109 26.743 51.3304 26.3843C53.6171 26.0224 55.7084 28.1618 54.2192 30.82Z" fill="#1F7BAC"/>
<path opacity="0.3" d="M54.2192 30.82C53.8989 31.4125 53.537 31.9858 53.1879 32.5206C52.5858 33.4462 52.0029 34.2469 51.5866 34.7977C51.2119 35.2941 50.9717 35.5856 50.9717 35.5856L46.2285 32.3541C46.2285 32.3541 49.1109 26.743 51.3304 26.3843C53.6171 26.0224 55.7084 28.1618 54.2192 30.82Z" fill="black"/>
<path d="M62.5723 99.249H64.923L65.1568 93.8013H62.8061L62.5723 99.249Z" fill="#E4897B"/>
<path d="M39.6924 89.0989L41.6012 90.476L46.1041 87.0075L44.1953 85.6304L39.6924 89.0989Z" fill="#E4897B"/>
<path d="M65.1565 93.8013L65.0381 96.61H62.6841L62.8026 93.8013H65.1565Z" fill="#CE6F64"/>
<path d="M44.195 85.6304L46.1038 87.0075L43.7786 88.7946L41.873 87.4175L44.195 85.6304Z" fill="#CE6F64"/>
<path d="M60.1874 46.8428C60.1874 46.8428 60.4564 63.5864 58.3523 70.1518C55.0215 80.5509 44.9587 88.974 44.9587 88.974L41.3589 86.3766C41.3589 86.3766 49.7339 79.2603 51.2872 70.5041C52.6675 62.6352 52.0814 53.2705 52.0814 46.8428H60.1874Z" fill="#1F7BAC"/>
<path opacity="0.7" d="M60.1874 46.8428C60.1874 46.8428 60.4564 63.5864 58.3523 70.1518C55.0215 80.5509 44.9587 88.974 44.9587 88.974L41.3589 86.3766C41.3589 86.3766 49.7339 79.2603 51.2872 70.5041C52.6675 62.6352 52.0814 53.2705 52.0814 46.8428H60.1874Z" fill="white"/>
<path d="M47.3256 44.9786L48.1743 46.5031L45.2022 46.945C45.2022 46.945 44.898 45.664 45.6314 44.78L47.3256 44.9786Z" fill="#E4897B"/>
<path d="M48.6236 48.5307L46.1511 48.7805L45.2031 46.9454L48.1752 46.5034L48.6236 48.5307Z" fill="#E4897B"/>
<path d="M62.3287 17.7658C62.3575 17.9516 62.4792 18.0861 62.6041 18.0861C62.729 18.0861 62.7995 17.8971 62.7707 17.7114C62.7418 17.5256 62.6201 17.3911 62.4952 17.3911C62.3703 17.3911 62.2999 17.5769 62.3287 17.7658Z" fill="#263238"/>
<path d="M62.4639 18.0928C62.7769 18.6301 63.1628 19.1215 63.6104 19.5532C63.4979 19.6667 63.3619 19.7541 63.2119 19.8095C63.062 19.8648 62.9018 19.8866 62.7425 19.8735L62.4639 18.0928Z" fill="#DE5753"/>
<path d="M61.4851 16.8307C61.4708 16.8311 61.4566 16.8287 61.4432 16.8237C61.4298 16.8186 61.4176 16.8109 61.4072 16.8011C61.3968 16.7913 61.3884 16.7795 61.3826 16.7665C61.3767 16.7534 61.3735 16.7393 61.373 16.725C61.373 16.7095 61.3761 16.6941 61.3822 16.6798C61.3882 16.6655 61.3971 16.6525 61.4083 16.6418C61.5313 16.5156 61.6827 16.4208 61.8498 16.365C62.017 16.3093 62.195 16.2944 62.3691 16.3215C62.3835 16.3241 62.3973 16.3297 62.4095 16.3378C62.4218 16.3459 62.4323 16.3564 62.4403 16.3687C62.4484 16.381 62.4539 16.3947 62.4565 16.4092C62.4592 16.4236 62.4588 16.4385 62.4556 16.4528C62.4529 16.4669 62.4474 16.4803 62.4395 16.4923C62.4316 16.5043 62.4214 16.5147 62.4095 16.5227C62.3976 16.5307 62.3842 16.5363 62.3701 16.5392C62.356 16.542 62.3415 16.5421 62.3274 16.5393C62.1889 16.5204 62.0479 16.5346 61.9159 16.5809C61.784 16.6271 61.6649 16.7039 61.5684 16.8051C61.5571 16.815 61.5439 16.8225 61.5295 16.8269C61.5152 16.8313 61.5 16.8326 61.4851 16.8307Z" fill="#263238"/>
<path d="M56.0714 19.8323C56.4109 21.5521 56.7472 24.7067 55.543 25.8533C55.543 25.8533 56.0138 27.602 59.21 27.602C62.733 27.602 60.8914 25.8533 60.8914 25.8533C58.9698 25.3953 59.0211 23.9733 59.3574 22.6506L56.0714 19.8323Z" fill="#E4897B"/>
<path d="M54.236 27.0187C54.6171 26.423 53.9766 24.9882 53.9766 24.9882C53.9766 24.9882 59.6421 23.563 61.9544 25.7505C62.4348 26.202 61.9032 26.8682 61.9032 26.8682L54.236 27.0187Z" fill="#1F7BAC"/>
<path d="M42.609 91.6032C42.3112 91.6032 41.8756 91.0204 41.7539 90.8122C41.7479 90.8032 41.7446 90.7926 41.7446 90.7818C41.7446 90.7709 41.7479 90.7603 41.7539 90.7513C41.7604 90.7433 41.7687 90.737 41.7783 90.7331C41.7878 90.7292 41.7981 90.7277 41.8084 90.7289C41.8404 90.7289 42.6122 90.8955 42.7916 91.1997C42.812 91.2317 42.8252 91.2678 42.8302 91.3054C42.8352 91.343 42.8318 91.3813 42.8204 91.4175C42.7756 91.5552 42.6923 91.5936 42.6315 91.6L42.609 91.6032ZM41.9205 90.8698C42.1222 91.1645 42.4553 91.5104 42.6219 91.4912C42.6379 91.4912 42.6859 91.4912 42.7179 91.3823C42.7244 91.3613 42.7261 91.3392 42.7227 91.3176C42.7194 91.2959 42.7112 91.2754 42.6987 91.2574C42.4833 91.0516 42.2131 90.9126 41.9205 90.857V90.8698Z" fill="#1F7BAC"/>
<path d="M42.1829 90.8745C42.0479 90.8777 41.9131 90.8615 41.7826 90.8264C41.7747 90.8212 41.7682 90.814 41.7637 90.8057C41.7592 90.7973 41.7568 90.7879 41.7568 90.7784C41.7568 90.7689 41.7592 90.7595 41.7637 90.7511C41.7682 90.7428 41.7747 90.7356 41.7826 90.7304C41.805 90.7111 42.3335 90.2884 42.6826 90.3236C42.7252 90.3283 42.7664 90.3415 42.8038 90.3624C42.8412 90.3833 42.874 90.4115 42.9004 90.4453C42.9298 90.4757 42.9475 90.5155 42.9505 90.5577C42.9534 90.5999 42.9413 90.6418 42.9164 90.6759C42.8011 90.8168 42.4744 90.8745 42.1829 90.8745ZM41.9299 90.7464C42.2278 90.7912 42.7178 90.7464 42.8107 90.6119C42.8182 90.5956 42.8207 90.5775 42.8179 90.5598C42.815 90.5421 42.8069 90.5256 42.7947 90.5126C42.778 90.4905 42.7568 90.4723 42.7325 90.459C42.7082 90.4458 42.6813 90.4378 42.6537 90.4357C42.3866 90.4636 42.1342 90.5719 41.9299 90.7464Z" fill="#1F7BAC"/>
<path d="M65.8678 99.3704C65.6262 99.3672 65.3852 99.3447 65.1472 99.3032C65.136 99.3013 65.1256 99.296 65.1176 99.2879C65.1095 99.2799 65.1042 99.2695 65.1023 99.2583C65.1004 99.2469 65.1021 99.2351 65.1073 99.2248C65.1125 99.2144 65.1209 99.206 65.1312 99.2007C65.1664 99.1815 65.9863 98.7107 66.3802 98.8195C66.4167 98.8278 66.4512 98.8434 66.4815 98.8654C66.5118 98.8875 66.5372 98.9154 66.5564 98.9477C66.5814 98.9833 66.5949 99.0258 66.5949 99.0694C66.5949 99.1129 66.5814 99.1554 66.5564 99.1911C66.4635 99.3288 66.172 99.3704 65.8678 99.3704ZM65.3265 99.2199C65.7653 99.2839 66.361 99.2775 66.4699 99.127C66.4858 99.0869 66.4858 99.0422 66.4699 99.0021C66.4578 98.982 66.4416 98.9647 66.4222 98.9515C66.4029 98.9382 66.3809 98.9292 66.3578 98.9252C66.108 98.8612 65.6148 99.0726 65.3265 99.2199Z" fill="#1F7BAC"/>
<path d="M65.1667 99.2901H65.1347C65.1266 99.2844 65.1203 99.2766 65.1164 99.2676C65.1124 99.2586 65.111 99.2487 65.1123 99.2389C65.1386 98.9039 65.2697 98.5857 65.487 98.3293C65.5312 98.2927 65.5823 98.2653 65.6374 98.2488C65.6924 98.2323 65.7501 98.227 65.8072 98.2332C65.8551 98.2277 65.9032 98.241 65.9414 98.2703C65.9797 98.2996 66.0051 98.3425 66.0122 98.3902C66.057 98.656 65.4934 99.1652 65.2115 99.2933L65.1667 99.2901ZM65.7432 98.3293C65.672 98.3305 65.6033 98.3552 65.5478 98.3998C65.37 98.6041 65.2583 98.8576 65.2276 99.1268C65.519 98.9506 65.9001 98.5503 65.8681 98.3934C65.8681 98.3934 65.8681 98.3389 65.7592 98.3293H65.7432Z" fill="#1F7BAC"/>
<path d="M41.8745 90.4579L40.0458 88.5363C40.0129 88.5029 39.9697 88.4815 39.9232 88.4757C39.8767 88.4699 39.8296 88.48 39.7895 88.5042L37.9608 89.6188C37.9221 89.6418 37.8882 89.6723 37.8613 89.7085C37.8344 89.7447 37.8148 89.7858 37.8038 89.8296C37.7928 89.8733 37.7905 89.9188 37.7972 89.9634C37.8038 90.008 37.8191 90.0509 37.8423 90.0896C37.8579 90.114 37.8761 90.1365 37.8968 90.1568C38.5373 90.7974 38.896 91.0952 39.6999 91.9343C40.1963 92.4499 41.5446 94.2626 42.2268 94.9768C42.9089 95.691 43.7064 95.1049 43.4886 94.7527C42.5278 93.1705 42.0602 91.6012 42.0346 90.8198C42.0282 90.6834 41.9711 90.5543 41.8745 90.4579Z" fill="#263238"/>
<path d="M64.9083 98.97H62.3461C62.2997 98.9697 62.2545 98.9855 62.2183 99.0147C62.1821 99.0439 62.1572 99.0846 62.1476 99.1301L61.68 101.212C61.6598 101.3 61.6755 101.393 61.7235 101.47C61.7715 101.547 61.848 101.601 61.9362 101.622C61.9639 101.625 61.9918 101.625 62.0195 101.622C62.9482 101.622 64.287 101.551 65.4527 101.551C66.8139 101.551 67.9892 101.625 69.5874 101.625C70.5482 101.625 70.8204 100.648 70.4169 100.562C68.5753 100.158 67.0733 100.113 65.4815 99.1333C65.309 99.0274 65.1107 98.9709 64.9083 98.97Z" fill="#263238"/>
<path opacity="0.3" d="M53.1868 32.5209C52.5847 33.4464 52.0018 34.2471 51.5854 34.798C51.6335 33.6962 51.8609 31.9156 52.716 30.5576C53.0267 30.8651 53.1516 31.6593 53.1868 32.5209Z" fill="black"/>
<path d="M66.1285 28.7063C66.2566 28.9081 66.4904 29.2155 66.705 29.5006C66.9196 29.7856 67.1662 30.077 67.4096 30.3653C67.8996 30.9386 68.3992 31.5086 68.9213 32.0563C69.9265 33.1446 71.0285 34.1394 72.2136 35.0284C72.489 35.2296 72.7744 35.4166 73.0687 35.5889L73.2641 35.7009C73.2865 35.7009 73.2961 35.7298 73.3378 35.7426L73.389 35.765L73.4595 35.7874C73.512 35.8036 73.5655 35.8164 73.6196 35.8258C74.2577 35.915 74.9057 35.9064 75.5412 35.8002C77.0419 35.5628 78.5249 35.2247 79.9801 34.7882L80.7391 36.3895C79.3124 37.3121 77.7661 38.0351 76.1433 38.5385C75.2257 38.8357 74.2634 38.9711 73.2993 38.9388C73.1545 38.9318 73.0102 38.9169 72.867 38.894L72.646 38.8524L72.409 38.7947C72.2429 38.7497 72.0802 38.693 71.9222 38.625L71.8229 38.5834L71.7428 38.5449L71.5827 38.4681C71.1695 38.2663 70.7692 38.0453 70.3785 37.8051C68.9369 36.8662 67.6011 35.7742 66.3944 34.548C65.8019 33.9491 65.2254 33.3406 64.6841 32.6936C64.4087 32.3734 64.1429 32.0531 63.8771 31.6944C63.5866 31.3232 63.3202 30.9339 63.0796 30.5286L66.1285 28.7063Z" fill="#E4897B"/>
<path d="M79.6016 35.214L81.1645 33.3533L82.2278 36.0691C82.2278 36.0691 80.8794 36.7097 79.8289 36.3414L79.6016 35.214Z" fill="#E4897B"/>
<path d="M83.4564 32.9497L83.892 35.1211L82.2266 36.0691L81.1665 33.3532L83.4564 32.9497Z" fill="#E4897B"/>
<path d="M56.014 18.3463C56.5136 20.6266 56.6929 21.9877 58.0412 22.987C60.0685 24.4922 62.746 22.987 62.9349 20.6074C63.1047 18.4616 62.256 15.0924 59.8604 14.5223C59.3319 14.3952 58.7797 14.4056 58.2564 14.5524C57.733 14.6992 57.256 14.9775 56.8707 15.3609C56.4854 15.7442 56.2047 16.2199 56.0553 16.7425C55.9058 17.2651 55.8927 17.8172 56.0172 18.3463H56.014Z" fill="#E4897B"/>
<path d="M55.0501 13.8902C53.0484 13.9447 52.8082 15.9143 53.8011 16.494C53.8011 16.494 52.6481 17.0481 53.2406 18.3708C54.1437 20.3789 55.8732 22.5855 57.6411 22.4638C59.8349 22.3133 60.4594 19.9241 60.3826 17.5669C61.5387 16.4748 60.8405 15.9432 61.9839 15.277C64.008 14.0984 65.0328 10.7196 61.6636 10.7708C58.2111 10.8253 60.1584 13.7525 55.0501 13.8902Z" fill="#263238"/>
<path d="M54.0518 16.2067C54.0518 16.2067 53.28 16.6071 52.0918 15.9153C52.5049 16.9273 53.7732 17.3437 54.0518 16.2067Z" fill="#263238"/>
<path d="M59.1786 18.1348C59.2407 18.712 59.4918 19.2524 59.8928 19.6721C60.4245 20.2198 60.9465 19.8483 61.0137 19.1565C61.0746 18.5352 60.8696 17.5007 60.2323 17.2125C59.595 16.9242 59.1114 17.4366 59.1786 18.1348Z" fill="#E4897B"/>
<path d="M46.4884 88.2159L45.012 89.0966L41.0791 86.259L42.389 85.2566L46.4884 88.2159Z" fill="#1F7BAC"/>
<path d="M57.8357 49.7192C57.3905 52.7361 58.963 61.1367 59.5075 63.8878C60.0776 58.7443 60.1833 52.6432 60.1929 49.3124C59.0399 48.531 58.0407 48.3292 57.8357 49.7192Z" fill="#1F7BAC"/>
<path opacity="0.4" d="M57.8357 49.7192C57.3905 52.7361 58.963 61.1367 59.5075 63.8878C60.0776 58.7443 60.1833 52.6432 60.1929 49.3124C59.0399 48.531 58.0407 48.3292 57.8357 49.7192Z" fill="white"/>
<path d="M64.6477 46.8428C64.6477 46.8428 68.1931 61.8633 68.4429 69.0373C68.7215 77.0856 65.9128 96.0647 65.9128 96.0647H61.9287C61.9287 96.0647 61.4386 76.9383 61.2593 69.6074C61.0671 61.6167 56.3784 46.8428 56.3784 46.8428H64.6477Z" fill="#1F7BAC"/>
<path opacity="0.7" d="M64.6477 46.8428C64.6477 46.8428 68.1931 61.8633 68.4429 69.0373C68.7215 77.0856 65.9128 96.0647 65.9128 96.0647H61.9287C61.9287 96.0647 61.4386 76.9383 61.2593 69.6074C61.0671 61.6167 56.3784 46.8428 56.3784 46.8428H64.6477Z" fill="white"/>
<path d="M66.6824 94.4863C66.7016 94.4863 66.4582 96.1389 66.4582 96.1389H61.6093L61.478 94.6625L66.6824 94.4863Z" fill="#1F7BAC"/>
<path d="M65.6665 34.1763C65.6665 34.9769 65.6473 35.8577 65.6025 36.8281C65.4872 39.4671 65.1989 42.7562 64.6417 46.8428H52.0647C51.9783 44.9212 53.1921 35.4861 51.3281 26.3841C52.7254 26.1159 54.1386 25.9383 55.5589 25.8525C57.3402 25.75 59.126 25.75 60.9073 25.8525C62.1281 25.9745 63.3379 26.1886 64.5264 26.493C64.5264 26.493 65.6697 27.8157 65.6665 34.1763Z" fill="#1F7BAC"/>
<path opacity="0.3" d="M65.6665 34.1763C65.6665 34.9769 65.6473 35.8577 65.6025 36.8281C65.4872 39.4671 65.1989 42.7562 64.6417 46.8428H52.0647C51.9783 44.9212 53.1921 35.4861 51.3281 26.3841C52.7254 26.1159 54.1386 25.9383 55.5589 25.8525C57.3402 25.75 59.126 25.75 60.9073 25.8525C62.1281 25.9745 63.3379 26.1886 64.5264 26.493C64.5264 26.493 65.6697 27.8157 65.6665 34.1763Z" fill="black"/>
<path opacity="0.3" d="M65.6676 34.1765C65.6676 34.9772 65.6484 35.8579 65.6035 36.8283C64.1271 35.3871 64.0278 32.4438 64.0278 32.4438L65.6676 34.1765Z" fill="black"/>
<path d="M61.1575 29.2511C61.4361 31.493 66.522 36.2138 66.522 36.2138L71.1018 32.5851C69.9511 30.8812 68.6042 29.3182 67.0889 27.9284C63.7773 25.0524 60.8212 26.5705 61.1575 29.2511Z" fill="#1F7BAC"/>
<path opacity="0.3" d="M61.1575 29.2511C61.4361 31.493 66.522 36.2138 66.522 36.2138L71.1018 32.5851C69.9511 30.8812 68.6042 29.3182 67.0889 27.9284C63.7773 25.0524 60.8212 26.5705 61.1575 29.2511Z" fill="black"/>
<path d="M114.818 76.0673L112.464 76.2979L110.014 70.6932L112.368 70.4626L114.818 76.0673Z" fill="#E4897B"/>
<path d="M130.485 69.0221L128.435 70.3416L124.72 66.0212L126.77 64.7017L130.485 69.0221Z" fill="#E4897B"/>
<path d="M110.017 70.6964L111.279 73.5852H113.735L112.371 70.4658L110.017 70.6964Z" fill="#CE6F64"/>
<path d="M126.773 64.7017L124.72 66.0212L126.639 68.247L128.688 66.9275L126.773 64.7017Z" fill="#CE6F64"/>
<path d="M94.6316 16.2326C94.5803 17.1037 94.4714 17.898 94.3465 18.7243C94.2216 19.5505 94.0455 20.3512 93.8469 21.1615C93.4597 22.8119 92.86 24.4052 92.063 25.9015C91.8532 26.2896 91.6189 26.664 91.3616 27.0224C91.1118 27.3779 90.846 27.7046 90.5802 28.0216C90.0485 28.6622 89.4977 29.2547 88.9372 29.8407C87.8067 31.0033 86.6537 32.1146 85.4143 33.1747L84.5239 32.3164C85.5071 31.0706 86.516 29.8375 87.4736 28.5885C88.4312 27.3395 89.424 26.0968 90.0357 24.8478C90.6606 23.4857 91.1311 22.0581 91.4385 20.5914C91.6082 19.8484 91.7364 19.0894 91.8581 18.3495C91.9798 17.6097 92.0694 16.8091 92.1367 16.1077L94.6316 16.2326Z" fill="#E4897B"/>
<path d="M93.6526 0.353228C91.936 0.353228 89.9888 2.19477 90.0689 4.83697C90.1489 7.47918 90.7094 11.4025 86.626 15.0343C88.0928 18.237 94.9914 21.2379 99.5968 18.98C103.962 16.8406 102.159 4.98109 99.0492 1.8745C97.3069 0.135446 95.2732 -0.447441 93.6526 0.353228Z" fill="#263238"/>
<path d="M96.5017 16.5324C96.3736 17.3075 95.7299 18.7743 95.2207 19.8632C94.8427 20.6511 94.5353 21.2436 94.5353 21.2436L94.0869 21.045L90.375 19.3924C90.6568 17.3907 91.1148 15.2289 93.3215 14.2457C94.6986 13.6372 96.7291 15.1489 96.5017 16.5324Z" fill="#1F7BAC"/>
<path opacity="0.6" d="M96.5017 16.5324C96.3736 17.3075 95.7299 18.7743 95.2207 19.8632C94.8427 20.6511 94.5353 21.2436 94.5353 21.2436L94.0869 21.045L90.375 19.3924C90.6568 17.3907 91.1148 15.2289 93.3215 14.2457C94.6986 13.6372 96.7291 15.1489 96.5017 16.5324Z" fill="white"/>
<path d="M95.2119 19.8643C94.834 20.6522 94.5265 21.2447 94.5265 21.2447L94.0781 21.0461C94.139 20.255 94.2959 19.0092 94.7187 18.4487C94.9821 18.88 95.1502 19.3627 95.2119 19.8643Z" fill="#1F7BAC"/>
<path opacity="0.5" d="M95.2119 19.8856C94.834 20.6734 94.5265 21.2659 94.5265 21.2659L94.0781 21.0673C94.139 20.2763 94.2959 19.0304 94.7187 18.47C94.9821 18.9013 95.1502 19.3839 95.2119 19.8856Z" fill="white"/>
<path d="M107.763 25.2126L98.3148 28.1911C91.7813 15.2651 92.7101 14.5797 92.7101 14.5797C92.7101 14.5797 94.2185 13.7182 95.7878 13.0008L96.502 12.6805C97.896 12.1256 99.3281 11.6718 100.787 11.3226C101.002 11.2649 101.216 11.2137 101.428 11.1624C102.59 10.9006 103.766 10.707 104.951 10.5828C105.092 12.3731 105.233 13.8879 105.386 15.2042C105.585 16.9209 105.799 18.2948 106.027 19.483C106.452 21.4359 107.033 23.3519 107.763 25.2126Z" fill="#1F7BAC"/>
<path opacity="0.6" d="M107.763 25.2126L98.3148 28.1911C91.7813 15.2651 92.7101 14.5797 92.7101 14.5797C92.7101 14.5797 94.2185 13.7182 95.7878 13.0008L96.502 12.6805C97.896 12.1256 99.3281 11.6718 100.787 11.3226C101.002 11.2649 101.216 11.2137 101.428 11.1624C102.59 10.9006 103.766 10.707 104.951 10.5828C105.092 12.3731 105.233 13.8879 105.386 15.2042C105.585 16.9209 105.799 18.2948 106.027 19.483C106.452 21.4359 107.033 23.3519 107.763 25.2126Z" fill="white"/>
<path d="M98.3149 28.1907C98.3149 28.1907 97.9946 47.5349 100.522 54.5231C102.956 61.2231 110.216 72.7399 110.216 72.7399L114.424 72.631C114.424 72.631 107.74 58.0493 106.642 52.2812C104.826 42.7148 105.226 26.0193 105.226 26.0193L98.3149 28.1907Z" fill="#1F7BAC"/>
<path opacity="0.4" d="M98.3149 28.1907C98.3149 28.1907 97.9946 47.5349 100.522 54.5231C102.956 61.2231 110.216 72.7399 110.216 72.7399L114.424 72.631C114.424 72.631 107.74 58.0493 106.642 52.2812C104.826 42.7148 105.226 26.0193 105.226 26.0193L98.3149 28.1907Z" fill="black"/>
<path opacity="0.3" d="M102.093 29.8527L103.224 26.6501L105.225 26.0095C105.225 26.0095 105.043 33.6095 105.482 41.4913C103.666 38.0099 102.093 31.6046 102.093 29.8527Z" fill="black"/>
<path d="M100.397 27.5757C100.397 27.5757 106.962 42.5931 111.206 51.141C114.633 58.0428 125.298 67.3081 125.298 67.3081L128.219 65.2808C128.219 65.2808 120.196 54.3085 117.829 49.6262C110.255 34.644 112.122 28.4693 107.766 25.2122L100.397 27.5757Z" fill="#1F7BAC"/>
<path opacity="0.4" d="M100.397 27.5757C100.397 27.5757 106.962 42.5931 111.206 51.141C114.633 58.0428 125.298 67.3081 125.298 67.3081L128.219 65.2808C128.219 65.2808 120.196 54.3085 117.829 49.6262C110.255 34.644 112.122 28.4693 107.766 25.2122L100.397 27.5757Z" fill="black"/>
<path d="M85.095 32.0881L82.9556 32.4853L84.4704 34.535C84.4704 34.535 85.5882 33.7567 85.822 32.7703L85.095 32.0881Z" fill="#E4897B"/>
<path d="M81.5522 34.1057L82.9582 35.4188L84.4667 34.5348L82.955 32.4851L81.5522 34.1057Z" fill="#E4897B"/>
<path d="M127.682 69.6943L129.908 68.093C129.946 68.0653 129.992 68.0523 130.039 68.0564C130.085 68.0605 130.129 68.0815 130.161 68.1154L131.679 69.6943C131.748 69.7713 131.784 69.8724 131.778 69.9757C131.773 70.0789 131.727 70.1758 131.65 70.2452L131.615 70.274C130.827 70.8152 130.42 71.0394 129.444 71.7408C128.841 72.1732 127.573 73.2173 126.74 73.813C125.908 74.4087 125.277 73.6176 125.568 73.2973C126.881 71.8497 127.23 70.8633 127.439 70.0466C127.477 69.9047 127.563 69.7803 127.682 69.6943Z" fill="#263238"/>
<path d="M112.153 75.5709H115.035C115.087 75.5723 115.137 75.5901 115.178 75.6218C115.219 75.6535 115.249 75.6974 115.263 75.7471L115.903 78.0338C115.917 78.0792 115.921 78.1268 115.915 78.1738C115.91 78.2208 115.896 78.2663 115.873 78.3077C115.85 78.349 115.819 78.3855 115.782 78.4149C115.745 78.4443 115.702 78.466 115.657 78.4789C115.622 78.4839 115.586 78.4839 115.551 78.4789H108.886C107.829 78.4789 107.605 77.4093 108.047 77.3132C110.007 76.8776 111.138 76.2819 111.743 75.7118C111.857 75.6145 112.003 75.5641 112.153 75.5709Z" fill="#263238"/>
<path d="M101.434 11.1692V11.3389C101.434 11.4382 101.367 13.7313 99.0229 15.5408L98.7859 15.7234L98.4976 15.6593C97.255 15.3903 96.4287 14.8747 96.0348 14.1285C95.8521 13.7821 95.769 13.3919 95.7946 13.0011L96.5088 12.6809C97.9027 12.126 99.3348 11.6722 100.794 11.3229C101.005 11.2717 101.22 11.2172 101.434 11.1692Z" fill="white"/>
<path d="M98.8414 6.63623C99.008 8.09985 99.5364 10.7132 100.792 11.3281C100.792 11.3281 100.76 13.3907 98.6301 15.0336C95.8085 14.4187 96.5067 12.6861 96.5067 12.6861C97.9287 11.831 97.5284 10.7036 96.9198 9.7172L98.8414 6.63623Z" fill="#E4897B"/>
<path d="M98.0583 7.89282L96.9214 9.71514C97.066 9.94405 97.1903 10.1852 97.2929 10.4357C97.8534 10.1635 98.574 9.35644 98.4395 8.72231C98.3631 8.42523 98.234 8.14428 98.0583 7.89282Z" fill="#CE6F64"/>
<path d="M98.1739 3.37312C98.981 5.65662 99.3685 6.60462 98.7311 8.22197C97.7703 10.6528 94.7919 11.1428 93.3186 9.15075C91.9959 7.35404 90.9006 3.92718 92.7005 2.10486C93.3172 1.48312 94.1556 1.13181 95.0313 1.1282C95.907 1.1246 96.7482 1.469 97.37 2.08564C97.7356 2.4455 98.0111 2.88664 98.1739 3.37312Z" fill="#E4897B"/>
<path d="M95.1498 0.712402C94.3748 1.55471 95.9665 5.07765 98.3941 5.6189C100.822 6.16015 98.8617 2.32975 98.8617 2.32975L95.1498 0.712402Z" fill="#263238"/>
<path d="M95.4036 1.6983C95.4933 2.6591 91.6341 4.10991 91.3042 4.8209C91.4643 3.66474 91.5188 2.31001 92.976 1.3492C94.4332 0.388402 95.6342 0.763115 95.6342 0.763115L95.4036 1.6983Z" fill="#263238"/>
<path d="M95.119 1.73706C95.119 1.73706 94.6931 2.84198 93.0693 4.19351C94.3496 3.82794 95.4465 2.99612 96.1439 1.86196L95.119 1.73706Z" fill="#263238"/>
<path d="M99.5542 5.22805C99.6248 5.69086 99.5097 6.16284 99.2339 6.54115C98.8656 7.04076 98.3019 6.80376 98.0874 6.25931C97.892 5.7661 97.8472 4.91419 98.3692 4.60993C98.4595 4.5579 98.5593 4.52425 98.6627 4.5109C98.7661 4.49756 98.8711 4.50478 98.9717 4.53217C99.0723 4.55955 99.1665 4.60654 99.2489 4.67046C99.3313 4.73437 99.4002 4.81394 99.4517 4.90458C99.5091 5.00359 99.5441 5.11402 99.5542 5.22805Z" fill="#E4897B"/>
<path d="M107.717 24.6131L108.412 25.3241C108.467 25.3785 108.412 25.4714 108.3 25.5034L98.4009 28.6357C98.3683 28.6502 98.3319 28.6536 98.2972 28.6455C98.2625 28.6374 98.2315 28.6182 98.2087 28.5908L97.8564 27.7741C97.834 27.7165 97.8916 27.646 97.9845 27.614L107.541 24.5907C107.57 24.5785 107.601 24.5741 107.632 24.5781C107.663 24.582 107.693 24.5941 107.717 24.6131Z" fill="#263238"/>
<path d="M94.7863 5.52859C94.8632 5.70794 94.828 5.89689 94.7095 5.94493C94.591 5.99297 94.434 5.89049 94.3572 5.70794C94.2803 5.52538 94.3155 5.33963 94.434 5.29159C94.5525 5.24355 94.7095 5.34603 94.7863 5.52859Z" fill="#263238"/>
<path d="M92.7395 6.39325C92.8163 6.5758 92.7811 6.76155 92.6626 6.8128C92.5441 6.86404 92.3872 6.75835 92.3103 6.5758C92.2334 6.39325 92.2687 6.20749 92.3872 6.15625C92.5057 6.105 92.6626 6.2139 92.7395 6.39325Z" fill="#263238"/>
<path d="M92.4429 6.14697L91.9561 6.20462C91.9561 6.20462 92.3244 6.45123 92.4429 6.14697Z" fill="#263238"/>
<path d="M93.4606 6.43164C93.4743 6.91378 93.4215 7.39551 93.3037 7.86324C93.4243 7.88973 93.5492 7.8897 93.6697 7.86315C93.7903 7.83661 93.9036 7.78419 94.0019 7.70951L93.4606 6.43164Z" fill="#DE5753"/>
<path d="M95.1506 8.09705C95.138 8.09622 95.126 8.09129 95.1165 8.08299C95.1069 8.0747 95.1004 8.06351 95.0979 8.05114C95.0953 8.03877 95.0969 8.02591 95.1024 8.01453C95.1079 8.00315 95.1169 7.99389 95.1282 7.98815C95.3554 7.89727 95.5581 7.75428 95.72 7.5707C95.8819 7.38713 95.9984 7.16811 96.0601 6.93127C96.0609 6.9241 96.0631 6.91716 96.0666 6.91085C96.0701 6.90454 96.0748 6.89899 96.0805 6.89452C96.0862 6.89005 96.0927 6.88676 96.0996 6.88482C96.1066 6.88288 96.1138 6.88234 96.121 6.88323C96.1286 6.88439 96.1359 6.88707 96.1425 6.8911C96.149 6.89513 96.1547 6.90044 96.1592 6.90671C96.1637 6.91298 96.1669 6.92009 96.1686 6.92761C96.1702 6.93512 96.1704 6.9429 96.169 6.95049C96.1065 7.20728 95.983 7.44525 95.8091 7.64426C95.6352 7.84327 95.4159 7.99748 95.1698 8.09384L95.1506 8.09705Z" fill="#263238"/>
<path d="M95.0783 4.61576C95.0592 4.61898 95.0397 4.61898 95.0206 4.61576C94.8964 4.54123 94.7566 4.49639 94.6122 4.48472C94.4677 4.47306 94.3226 4.49488 94.1879 4.5485C94.1611 4.56214 94.13 4.56475 94.1013 4.55577C94.0726 4.5468 94.0485 4.52695 94.0342 4.50046C94.0204 4.47316 94.0177 4.44158 94.0267 4.41233C94.0356 4.38308 94.0555 4.35843 94.0823 4.34353C94.2504 4.27045 94.4336 4.23899 94.6165 4.25182C94.7994 4.26464 94.9765 4.32137 95.1327 4.41719C95.159 4.43257 95.1781 4.45769 95.1859 4.48708C95.1937 4.51648 95.1895 4.54776 95.1744 4.57412C95.1626 4.58796 95.1478 4.59891 95.1312 4.60613C95.1145 4.61335 95.0964 4.61664 95.0783 4.61576Z" fill="#263238"/>
<path d="M91.366 5.85524H91.3436C91.3291 5.85255 91.3152 5.84701 91.3029 5.83894C91.2905 5.83088 91.2798 5.82044 91.2715 5.80824C91.2631 5.79604 91.2573 5.7823 91.2543 5.76784C91.2513 5.75337 91.2512 5.73845 91.254 5.72393C91.285 5.54192 91.3594 5.37007 91.4709 5.2229C91.5824 5.07573 91.7277 4.95757 91.8945 4.87843C91.923 4.86771 91.9545 4.86838 91.9826 4.88031C92.0106 4.89224 92.033 4.9145 92.045 4.94248C92.0568 4.97052 92.057 5.00208 92.0456 5.03027C92.0342 5.05846 92.0121 5.08101 91.9842 5.093C91.8517 5.15754 91.7367 5.25286 91.6486 5.37099C91.5606 5.48912 91.5021 5.62661 91.4781 5.77197C91.4722 5.79679 91.4577 5.81872 91.4372 5.83394C91.4167 5.84916 91.3915 5.8567 91.366 5.85524Z" fill="#263238"/>
<path d="M106.402 12.8494C106.783 13.1344 107.104 13.4002 107.437 13.6885C107.77 13.9767 108.077 14.2649 108.397 14.5628C109.022 15.1649 109.618 15.7958 110.191 16.4556C110.768 17.1187 111.302 17.8172 111.792 18.5469C111.92 18.7263 112.032 18.9216 112.151 19.1074C112.269 19.2931 112.388 19.4821 112.494 19.6775C112.599 19.8728 112.711 20.0554 112.814 20.2764L112.984 20.6287L113.121 20.9906C113.415 21.8992 113.554 22.851 113.531 23.8057C113.512 24.694 113.416 25.579 113.246 26.4511C113.076 27.2996 112.862 28.1388 112.606 28.9652C112.348 29.787 112.045 30.5942 111.699 31.3833L110.543 30.9541C110.742 30.1855 110.931 29.3784 111.072 28.5809C111.229 27.7913 111.343 26.9937 111.414 26.1917C111.492 25.4149 111.51 24.6333 111.469 23.8538C111.445 23.4841 111.399 23.1162 111.331 22.752C111.264 22.415 111.167 22.0848 111.04 21.7656L110.944 21.5446L110.835 21.3397C110.748 21.1923 110.63 21.0194 110.514 20.8593C110.399 20.6991 110.303 20.539 110.194 20.3757C110.085 20.2123 109.976 20.0554 109.851 19.8985C109.387 19.2579 108.859 18.6782 108.333 18.0857C107.808 17.4932 107.232 16.9328 106.646 16.3915C106.354 16.1161 106.059 15.8471 105.758 15.5845C105.457 15.3218 105.143 15.0592 104.881 14.835L106.402 12.8494Z" fill="#E4897B"/>
<path d="M110.916 30.189L109.161 31.47L111.403 32.655C111.403 32.655 112.072 31.47 111.854 30.4804L110.916 30.189Z" fill="#E4897B"/>
<path d="M108.603 33.5457L110.441 34.1158L111.415 32.6618L109.16 31.4768L108.603 33.5457Z" fill="#E4897B"/>
<path d="M126.839 70.6971H126.8C126.745 70.6904 126.692 70.6691 126.647 70.6353C126.602 70.6016 126.566 70.5566 126.544 70.5049C126.527 70.4747 126.518 70.4405 126.518 70.4056C126.518 70.3708 126.527 70.3365 126.544 70.3064C126.701 70.0373 127.582 69.9861 127.681 69.9861C127.692 69.9862 127.702 69.9892 127.711 69.9948C127.72 70.0005 127.728 70.0086 127.732 70.0181C127.739 70.0276 127.742 70.0387 127.742 70.0501C127.742 70.0615 127.739 70.0727 127.732 70.0822C127.521 70.316 127.14 70.6971 126.839 70.6971ZM127.543 70.111C127.191 70.1366 126.724 70.2199 126.643 70.3608C126.634 70.3732 126.629 70.3884 126.629 70.404C126.629 70.4197 126.634 70.4349 126.643 70.4473C126.657 70.4821 126.68 70.5128 126.709 70.5364C126.738 70.56 126.773 70.5756 126.81 70.5818C126.98 70.5978 127.246 70.4249 127.543 70.111Z" fill="#1F7BAC"/>
<path d="M127.62 70.1044C127.326 70.1044 126.746 69.941 126.637 69.704C126.618 69.6623 126.614 69.6153 126.626 69.5709C126.637 69.5265 126.664 69.4875 126.701 69.4606C126.734 69.4312 126.773 69.409 126.815 69.3952C126.856 69.3814 126.901 69.3764 126.945 69.3806C127.297 69.4158 127.71 69.9859 127.726 70.0211C127.731 70.03 127.733 70.0399 127.733 70.0499C127.733 70.06 127.731 70.0699 127.726 70.0787C127.722 70.0878 127.716 70.0958 127.708 70.1019C127.7 70.1081 127.691 70.1122 127.681 70.114L127.62 70.1044ZM126.909 69.4959C126.886 69.4953 126.862 69.4996 126.84 69.5084C126.818 69.5172 126.798 69.5304 126.781 69.5471C126.727 69.5951 126.733 69.6304 126.743 69.656C126.813 69.8129 127.268 69.9763 127.566 69.9763C127.419 69.7937 127.143 69.5055 126.925 69.483L126.909 69.4959Z" fill="#1F7BAC"/>
<path d="M110.869 76.0486C110.672 76.0629 110.475 76.0159 110.306 75.9141C110.262 75.8812 110.227 75.8392 110.201 75.7911C110.176 75.7429 110.161 75.6899 110.158 75.6355C110.154 75.605 110.159 75.5739 110.172 75.5459C110.185 75.518 110.206 75.4946 110.232 75.4786C110.491 75.3024 111.478 75.7476 111.673 75.8405C111.684 75.8453 111.693 75.8535 111.699 75.8639C111.705 75.8743 111.707 75.8863 111.705 75.8981C111.704 75.9103 111.699 75.9219 111.691 75.9311C111.683 75.9403 111.672 75.9467 111.66 75.9494C111.401 76.0096 111.136 76.0428 110.869 76.0486ZM110.408 75.549C110.369 75.5463 110.33 75.5553 110.296 75.5747C110.288 75.5813 110.282 75.5897 110.278 75.5992C110.274 75.6086 110.273 75.6189 110.274 75.6291C110.275 75.6669 110.284 75.7039 110.302 75.7373C110.32 75.7706 110.345 75.7994 110.376 75.8213C110.543 75.9494 110.943 75.9654 111.462 75.8725C111.13 75.7097 110.774 75.6005 110.408 75.549Z" fill="#1F7BAC"/>
<path d="M111.649 75.9497H111.627C111.307 75.8152 110.644 75.2868 110.682 75.0146C110.682 74.9537 110.73 74.88 110.878 74.8608C111.454 74.7936 111.698 75.8216 111.707 75.8825C111.709 75.8929 111.708 75.9037 111.705 75.9137C111.701 75.9238 111.696 75.9329 111.688 75.9401C111.677 75.948 111.663 75.9515 111.649 75.9497ZM110.932 74.9729H110.894C110.833 74.9729 110.798 74.9985 110.794 75.0274C110.775 75.1843 111.23 75.6038 111.56 75.7864C111.486 75.5334 111.288 74.9729 110.932 74.9729Z" fill="#1F7BAC"/>
<path d="M94.4883 5.27881L94.0015 5.33646C94.0015 5.33646 94.3666 5.58306 94.4883 5.27881Z" fill="#263238"/>
<path d="M109.624 72.9643L114.819 72.833L114.521 71.2349L108.846 71.5039L109.624 72.9643Z" fill="#1F7BAC"/>
<path opacity="0.5" d="M109.624 72.9643L114.819 72.833L114.521 71.2349L108.846 71.5039L109.624 72.9643Z" fill="white"/>
<path d="M125.445 68.2755L128.879 65.8319L128.1 64.333L124.328 67.1866L125.445 68.2755Z" fill="#1F7BAC"/>
<path opacity="0.5" d="M125.445 68.2755L128.879 65.8319L128.1 64.333L124.328 67.1866L125.445 68.2755Z" fill="white"/>
<path d="M106.775 26.0902L107.031 26.007C107.082 25.9909 107.114 25.9525 107.098 25.9237L106.63 24.8636C106.63 24.8316 106.566 24.8188 106.515 24.8348L106.259 24.918C106.208 24.9341 106.176 24.9725 106.192 25.0013L106.656 26.0614C106.67 26.0787 106.689 26.0909 106.71 26.0962C106.732 26.1014 106.754 26.0993 106.775 26.0902Z" fill="#1F7BAC"/>
<path d="M99.1511 28.5119L99.4073 28.4318C99.4586 28.4126 99.4874 28.3741 99.4746 28.3453L99.007 27.2852C99.007 27.2532 98.9398 27.2404 98.8885 27.2564L98.6323 27.3397C98.5811 27.3397 98.5522 27.3941 98.565 27.4229L99.0326 28.483C99.0454 28.5119 99.1159 28.5119 99.1511 28.5119Z" fill="#1F7BAC"/>
<path d="M102.96 27.2944L103.216 27.2143C103.226 27.2141 103.237 27.2116 103.246 27.2069C103.255 27.2022 103.264 27.1954 103.27 27.1871C103.276 27.1788 103.281 27.1692 103.283 27.159C103.285 27.1487 103.285 27.1381 103.283 27.1278L102.815 26.0678C102.815 26.0389 102.748 26.0261 102.697 26.0421L102.444 26.1222C102.393 26.1382 102.361 26.1766 102.373 26.2087L102.841 27.2688C102.855 27.2851 102.875 27.2964 102.896 27.301C102.917 27.3056 102.94 27.3033 102.96 27.2944Z" fill="#1F7BAC"/>
<path opacity="0.4" d="M106.775 26.0902L107.031 26.007C107.082 25.9909 107.114 25.9525 107.098 25.9237L106.63 24.8636C106.63 24.8316 106.566 24.8188 106.515 24.8348L106.259 24.918C106.208 24.9341 106.176 24.9725 106.192 25.0013L106.656 26.0614C106.67 26.0787 106.689 26.0909 106.71 26.0962C106.732 26.1014 106.754 26.0993 106.775 26.0902Z" fill="black"/>
<path opacity="0.4" d="M99.1511 28.5119L99.4073 28.4318C99.4586 28.4126 99.4874 28.3741 99.4746 28.3453L99.007 27.2852C99.007 27.2532 98.9398 27.2404 98.8885 27.2564L98.6323 27.3397C98.5811 27.3397 98.5522 27.3941 98.565 27.4229L99.0326 28.483C99.0454 28.5119 99.1159 28.5119 99.1511 28.5119Z" fill="black"/>
<path opacity="0.4" d="M102.96 27.2944L103.216 27.2143C103.226 27.2141 103.237 27.2116 103.246 27.2069C103.255 27.2022 103.264 27.1954 103.27 27.1871C103.276 27.1788 103.281 27.1692 103.283 27.159C103.285 27.1487 103.285 27.1381 103.283 27.1278L102.815 26.0678C102.815 26.0389 102.748 26.0261 102.697 26.0421L102.444 26.1222C102.393 26.1382 102.361 26.1766 102.373 26.2087L102.841 27.2688C102.855 27.2851 102.875 27.2964 102.896 27.301C102.917 27.3056 102.94 27.3033 102.96 27.2944Z" fill="black"/>
<path d="M106.057 19.4889C105.151 18.2078 104.283 15.2261 104.507 14.1084L105.404 15.2101C105.602 16.9268 105.817 18.3007 106.057 19.4889Z" fill="#1F7BAC"/>
<path opacity="0.5" d="M106.057 19.4889C105.151 18.2078 104.283 15.2261 104.507 14.1084L105.404 15.2101C105.602 16.9268 105.817 18.3007 106.057 19.4889Z" fill="white"/>
<path d="M104.967 10.5762C106.194 10.5217 108.605 13.5354 108.605 13.5354L106.101 17.0584C106.101 17.0584 103.289 14.8165 103.071 13.2568C102.885 11.9565 103.404 10.6594 104.967 10.5762Z" fill="#1F7BAC"/>
<path opacity="0.6" d="M104.967 10.5762C106.194 10.5217 108.605 13.5354 108.605 13.5354L106.101 17.0584C106.101 17.0584 103.289 14.8165 103.071 13.2568C102.885 11.9565 103.404 10.6594 104.967 10.5762Z" fill="white"/>
<path d="M120.323 97.0482C115.061 95.4468 111.801 89.7108 111.801 89.7108C111.801 89.7108 110.132 89.618 110.052 91.1232C109.915 93.7686 111.353 95.6774 112.237 96.5902L109.707 96.4493C108.805 96.3984 107.901 96.4936 107.029 96.7311L106.19 96.9617C105.492 97.1541 104.897 97.612 104.533 98.2375C104.168 98.863 104.063 99.6064 104.24 100.308L105.444 105.228C105.806 106.707 106.707 107.999 107.97 108.85C109.233 109.702 110.768 110.052 112.275 109.833C114.853 109.459 118.866 108.872 119.561 108.748L121.393 108.594L122.034 97.5574L120.323 97.0482Z" fill="white"/>
<path d="M128.561 95.5337H121.473C120.92 95.5337 120.471 95.9825 120.471 96.5361V109.071C120.471 109.625 120.92 110.074 121.473 110.074H128.561C129.114 110.074 129.563 109.625 129.563 109.071V96.5361C129.563 95.9825 129.114 95.5337 128.561 95.5337Z" fill="#1F7BAC"/>
<path opacity="0.3" d="M128.561 95.5337H121.473C120.92 95.5337 120.471 95.9825 120.471 96.5361V109.071C120.471 109.625 120.92 110.074 121.473 110.074H128.561C129.114 110.074 129.563 109.625 129.563 109.071V96.5361C129.563 95.9825 129.114 95.5337 128.561 95.5337Z" fill="black"/>
</svg>
