<svg width="135" height="139" viewBox="0 0 135 139" fill="none" xmlns="http://www.w3.org/2000/svg">
<path d="M114.897 72.8285C88.6841 57.6949 46.3292 57.6949 20.2868 72.8285C-5.75567 87.962 -5.61505 112.497 20.586 127.63C46.787 142.764 89.1539 142.764 115.196 127.63C141.239 112.497 141.107 87.962 114.897 72.8285Z" fill="#F5F5F5"/>
<path d="M97.134 110.689C103.911 114.603 103.947 120.946 97.2148 124.859C90.4828 128.773 79.5291 128.773 72.7492 124.859C65.9693 120.946 65.9364 114.603 72.6714 110.689C79.4064 106.776 90.3571 106.776 97.134 110.689Z" fill="#E6E6E6"/>
<path d="M102.615 100.364C107.645 103.266 115.78 103.266 120.774 100.364C123.272 98.9097 124.514 97.0068 124.502 95.1039C124.49 93.201 123.227 91.298 120.714 89.8439C115.681 86.9417 107.549 86.9417 102.555 89.8439C100.057 91.298 98.8153 93.201 98.8243 95.1039C98.8332 97.0068 100.099 98.9097 102.615 100.364Z" fill="#E6E6E6"/>
<path d="M7.87611 105.944C10.8053 107.638 15.5416 107.638 18.4499 105.944C19.907 105.1 20.631 103.99 20.6251 102.883C20.6191 101.776 19.883 100.663 18.417 99.8194C15.4878 98.1259 10.7514 98.1259 7.8402 99.8194C6.38609 100.663 5.66202 101.773 5.66801 102.883C5.67399 103.993 6.41002 105.1 7.87611 105.944Z" fill="#E6E6E6"/>
<path d="M18.7819 112.428L20.4724 113.415C20.6604 113.523 20.8734 113.58 21.0903 113.58C21.3071 113.58 21.5202 113.523 21.7081 113.415L67.9526 87.0227C68.0016 86.9976 68.0428 86.9594 68.0715 86.9125C68.1002 86.8655 68.1154 86.8115 68.1154 86.7564C68.1154 86.7013 68.1002 86.6473 68.0715 86.6004C68.0428 86.5534 68.0016 86.5152 67.9526 86.4901L66.2591 85.5028C66.0719 85.394 65.8593 85.3367 65.6428 85.3367C65.4263 85.3367 65.2136 85.394 65.0264 85.5028L18.7849 111.892C18.735 111.917 18.6929 111.955 18.6633 112.002C18.6338 112.049 18.618 112.104 18.6177 112.159C18.6174 112.215 18.6326 112.269 18.6616 112.317C18.6906 112.364 18.7323 112.403 18.7819 112.428Z" fill="#E6E6E6"/>
<path d="M78.709 14.2243L79.7502 13.6199L90.7399 19.942V21.1448L78.709 14.2243Z" fill="#F5F5F5"/>
<path d="M78.709 14.2239L90.7399 21.1444V22.5147L78.7061 15.6032L78.709 14.2239Z" fill="#E0E0E0"/>
<path d="M97.0229 24.7587L98.0642 24.1543L109.054 30.4764V31.6792L97.0229 24.7587Z" fill="#F5F5F5"/>
<path d="M97.023 24.759L109.054 31.6796V33.0529L97.02 26.1384L97.023 24.759Z" fill="#E0E0E0"/>
<path d="M115.337 35.2968L116.379 34.6895L127.368 41.0116V42.2144L115.337 35.2968Z" fill="#F5F5F5"/>
<path d="M115.337 35.2969L127.368 42.2144V43.5877L115.334 36.6762L115.337 35.2969Z" fill="#E0E0E0"/>
<path d="M78.7689 2.67177L79.8071 2.06738L79.7473 33.1903L78.7061 33.7917L78.7689 2.67177Z" fill="#F0F0F0"/>
<path d="M78.7061 33.7918L79.7473 33.1904L91.7183 40.0601L90.6801 40.6645L78.7061 33.7918Z" fill="#F5F5F5"/>
<path d="M77.5752 0.604492L91.9368 8.85945L91.868 42.732L77.5063 34.477L77.5752 0.604492ZM90.6802 40.6645L90.74 9.54761L78.772 2.66599L78.7091 33.7829L90.6772 40.6645" fill="#E0E0E0"/>
<path d="M77.5757 0.604386L78.6169 0L92.9815 8.25496L91.9403 8.85934L77.5757 0.604386Z" fill="#F5F5F5"/>
<path d="M91.9394 8.85927L92.9806 8.25488L92.9118 42.1274L91.8706 42.7318L91.9394 8.85927Z" fill="#F0F0F0"/>
<path d="M97.0828 13.2067L98.1211 12.6023L98.0612 43.7252L97.02 44.3296L97.0828 13.2067Z" fill="#F0F0F0"/>
<path d="M97.02 44.3297L98.0612 43.7253L110.032 50.598L108.994 51.2024L97.02 44.3297Z" fill="#F5F5F5"/>
<path d="M95.8891 11.1423L110.251 19.3943L110.182 53.2668L95.8203 45.0149L95.8891 11.1423ZM108.994 51.2024L109.054 20.0855L97.0859 13.2038L97.0231 44.3207L108.991 51.2024" fill="#E0E0E0"/>
<path d="M95.8896 11.1422L96.9309 10.5378L111.296 18.7928L110.254 19.3972L95.8896 11.1422Z" fill="#F5F5F5"/>
<path d="M110.254 19.3971L111.295 18.7927L111.226 52.6623L110.185 53.2667L110.254 19.3971Z" fill="#F0F0F0"/>
<path d="M115.397 23.7445L116.436 23.1401L116.376 54.26L115.334 54.8644L115.397 23.7445Z" fill="#F0F0F0"/>
<path d="M115.334 54.8644L116.376 54.26L128.347 61.1327L127.309 61.737L115.334 54.8644Z" fill="#F5F5F5"/>
<path d="M114.204 21.6921L128.565 29.9471L128.496 63.8196L114.135 55.5647L114.204 21.6921ZM127.309 61.7522L127.368 30.6353L115.4 23.7536L115.338 54.8705L127.306 61.7522" fill="#E0E0E0"/>
<path d="M114.204 21.6769L115.245 21.0725L129.609 29.3275L128.568 29.9319L114.204 21.6769Z" fill="#F5F5F5"/>
<path d="M128.568 29.932L129.609 29.3276L129.54 63.2002L128.499 63.8046L128.568 29.932Z" fill="#F0F0F0"/>
<path d="M18.5132 92.9888L12.8284 93.1533L7.14356 92.9888C6.89822 96.8245 7.64622 100.732 8.67846 102.641C8.92247 103.132 9.31653 103.532 9.80346 103.784C11.479 104.75 14.1868 104.75 15.8533 103.784C16.3474 103.529 16.7423 103.116 16.9753 102.611C18.0135 100.681 18.7556 96.7916 18.5132 92.9888Z" fill="white"/>
<path d="M16.8344 90.6638C19.0604 91.9473 19.0724 94.0298 16.8613 95.3133C14.6502 96.5969 11.0568 96.5999 8.83075 95.3133C6.60469 94.0268 6.59272 91.9473 8.80382 90.6638C11.0149 89.3802 14.6113 89.3772 16.8344 90.6638Z" fill="#EBEBEB"/>
<path d="M15.9547 91.1725C17.6901 92.1748 17.699 93.8025 15.9756 94.8018C14.2522 95.8011 11.4457 95.8041 9.71036 94.8018C7.975 93.7995 7.96602 92.1748 9.68942 91.1725C11.4128 90.1702 14.2193 90.1732 15.9547 91.1725Z" fill="#E0E0E0"/>
<g opacity="0.15">
<path opacity="0.15" d="M15.9547 91.1725C17.6901 92.1748 17.699 93.8025 15.9756 94.8018C14.2522 95.8011 11.4457 95.8041 9.71036 94.8018C7.975 93.7995 7.96602 92.1748 9.68942 91.1725C11.4128 90.1702 14.2193 90.1732 15.9547 91.1725Z" fill="#2395D2"/>
</g>
<path d="M22.1695 68.7563C9.37269 72.9452 9.256 81.5083 12.1403 87.606C12.8704 88.8387 15.0725 89.5029 16.9874 81.9212L13.6273 82.352L17.5439 80.3683L18.5612 77.3255L15.2939 77.5678L19.4408 75.8235C20.203 73.4135 21.1144 71.0532 22.1695 68.7563Z" fill="#1F7BAC"/>
<path opacity="0.2" d="M22.1695 68.7563C9.37269 72.9452 9.256 81.5083 12.1403 87.606C12.8704 88.8387 15.0725 89.5029 16.9874 81.9212L13.6273 82.352L17.5439 80.3683L18.5612 77.3255L15.2939 77.5678L19.4408 75.8235C20.203 73.4135 21.1144 71.0532 22.1695 68.7563Z" fill="#2395D2"/>
<path d="M18.5489 70.8955C11.7959 76.0178 11.1975 81.8911 13.0974 88.0218C12.4242 82.6242 11.6942 77.1668 18.5489 70.8955Z" fill="white"/>
<path d="M0.495117 77.4543C13.1094 79.2286 14.6384 87.1844 12.9658 93.3419C12.4931 94.6105 10.5513 95.5949 7.50839 88.8539L10.7098 88.6953L6.73047 87.4985L5.27934 84.8237L8.36111 84.5245L4.21119 83.588C3.10053 81.4685 1.85945 79.4201 0.495117 77.4543Z" fill="#1F7BAC"/>
<path opacity="0.2" d="M0.495117 77.4543C13.1094 79.2286 14.6384 87.1844 12.9658 93.3419C12.4931 94.6105 10.5513 95.5949 7.50839 88.8539L10.7098 88.6953L6.73047 87.4985L5.27934 84.8237L8.36111 84.5245L4.21119 83.588C3.10053 81.4685 1.85945 79.4201 0.495117 77.4543Z" fill="white"/>
<path d="M4.21973 78.8394C11.3557 82.4896 12.8966 87.8573 12.1426 93.8832C11.8733 88.7489 11.6459 83.5458 4.21973 78.8394Z" fill="white"/>
<path d="M25.8586 80.4341C14.2915 80.6226 12.0206 87.6149 12.8404 93.3566C13.1396 94.5534 14.7642 95.6574 18.2619 89.9218L15.3866 89.4221L19.1086 88.7878L20.7153 86.5498L17.9717 85.9184L21.8194 85.5414C23.0593 83.7574 24.4083 82.0517 25.8586 80.4341Z" fill="#1F7BAC"/>
<path d="M22.3454 81.272C15.5057 83.7613 13.516 88.4139 13.522 93.9431C14.3388 89.3414 15.1287 84.6769 22.3454 81.272Z" fill="white"/>
<path d="M110.832 83.842C110.912 92.7822 111.008 101.39 111.008 101.39C111.013 101.448 111.033 101.503 111.067 101.55C111.101 101.597 111.147 101.633 111.2 101.656C111.342 101.729 111.5 101.766 111.66 101.766C111.82 101.766 111.978 101.729 112.121 101.656C112.173 101.633 112.218 101.596 112.251 101.549C112.285 101.502 112.305 101.447 112.31 101.39C112.31 101.39 112.405 92.7852 112.486 83.845C111.942 83.866 111.388 83.866 110.832 83.842Z" fill="#E0E0E0"/>
<path d="M99.9731 94.9423C99.9784 94.9998 99.9989 95.0548 100.033 95.1016C100.066 95.1484 100.112 95.1854 100.165 95.2086C100.307 95.2809 100.465 95.3186 100.625 95.3186C100.786 95.3186 100.943 95.2809 101.086 95.2086C101.138 95.1847 101.183 95.1475 101.216 95.1007C101.249 95.054 101.269 94.9994 101.275 94.9423C101.275 94.9423 101.691 88.7938 102.283 81.4783C101.725 81.1325 101.202 80.7316 100.724 80.2815C100.245 88.1146 99.9731 94.9423 99.9731 94.9423Z" fill="#E0E0E0"/>
<path d="M122.054 94.9424C122.059 94.9995 122.08 95.0541 122.113 95.1008C122.146 95.1476 122.191 95.1848 122.243 95.2087C122.386 95.281 122.543 95.3187 122.703 95.3187C122.864 95.3187 123.021 95.281 123.164 95.2087C123.216 95.1847 123.262 95.1476 123.295 95.1009C123.329 95.0542 123.35 94.9996 123.356 94.9424C123.356 94.9424 123.098 88.1416 122.605 80.3354C122.126 80.7802 121.603 81.1761 121.046 81.5173C121.641 88.8118 122.054 94.9424 122.054 94.9424Z" fill="#E0E0E0"/>
<path opacity="0.1" d="M110.832 83.842C110.912 92.7822 111.008 101.39 111.008 101.39C111.013 101.448 111.033 101.503 111.067 101.55C111.101 101.597 111.147 101.633 111.2 101.656C111.342 101.729 111.5 101.766 111.66 101.766C111.82 101.766 111.978 101.729 112.121 101.656C112.173 101.633 112.218 101.596 112.251 101.549C112.285 101.502 112.305 101.447 112.31 101.39C112.31 101.39 112.405 92.7852 112.486 83.845C111.942 83.866 111.388 83.866 110.832 83.842Z" fill="#2395D2"/>
<path opacity="0.1" d="M99.9731 94.9423C99.9784 94.9998 99.9989 95.0548 100.033 95.1016C100.066 95.1484 100.112 95.1854 100.165 95.2086C100.307 95.2809 100.465 95.3186 100.625 95.3186C100.786 95.3186 100.943 95.2809 101.086 95.2086C101.138 95.1847 101.183 95.1475 101.216 95.1007C101.249 95.054 101.269 94.9994 101.275 94.9423C101.275 94.9423 101.691 88.7938 102.283 81.4783C101.725 81.1325 101.202 80.7316 100.724 80.2815C100.245 88.1146 99.9731 94.9423 99.9731 94.9423Z" fill="#2395D2"/>
<path opacity="0.1" d="M122.054 94.9424C122.059 94.9995 122.08 95.0541 122.113 95.1008C122.146 95.1476 122.191 95.1848 122.243 95.2087C122.386 95.281 122.543 95.3187 122.703 95.3187C122.864 95.3187 123.021 95.281 123.164 95.2087C123.216 95.1847 123.262 95.1476 123.295 95.1009C123.329 95.0542 123.35 94.9996 123.356 94.9424C123.356 94.9424 123.098 88.1416 122.605 80.3354C122.126 80.7802 121.603 81.1761 121.046 81.5173C121.641 88.8118 122.054 94.9424 122.054 94.9424Z" fill="#2395D2"/>
<path d="M124.502 74.9797C124.502 76.8827 123.272 78.7856 120.774 80.2367C115.774 83.1419 107.645 83.1419 102.615 80.2367C100.099 78.7856 98.8362 76.8827 98.8242 74.9797V76.4249C98.8242 77.7683 99.4675 79.1177 100.724 80.2965C101.202 80.7466 101.725 81.1475 102.283 81.4933L102.615 81.6938C104.907 83.0163 107.845 83.7344 110.837 83.851C111.388 83.875 111.941 83.875 112.492 83.851C115.511 83.7463 118.476 83.0252 120.774 81.6908L121.046 81.5233C121.603 81.1821 122.126 80.7862 122.605 80.3414C123.876 79.1446 124.511 77.7892 124.502 76.4309V74.9797Z" fill="#E0E0E0"/>
<path opacity="0.1" d="M124.502 74.9797C124.502 76.8827 123.272 78.7856 120.774 80.2367C115.774 83.1419 107.645 83.1419 102.615 80.2367C100.099 78.7856 98.8362 76.8827 98.8242 74.9797V76.4249C98.8242 77.7683 99.4675 79.1177 100.724 80.2965C101.202 80.7466 101.725 81.1475 102.283 81.4933L102.615 81.6938C104.907 83.0163 107.845 83.7344 110.837 83.851C111.388 83.875 111.941 83.875 112.492 83.851C115.511 83.7463 118.476 83.0252 120.774 81.6908L121.046 81.5233C121.603 81.1821 122.126 80.7862 122.605 80.3414C123.876 79.1446 124.511 77.7892 124.502 76.4309V74.9797Z" fill="#2395D2"/>
<path d="M102.615 80.2366C107.645 83.1418 115.78 83.1418 120.774 80.2366C123.272 78.7854 124.514 76.8825 124.502 74.9796C124.49 73.0767 123.227 71.1738 120.714 69.7197C115.681 66.8174 107.549 66.8174 102.555 69.7197C100.057 71.1738 98.8153 73.0767 98.8243 74.9796C98.8332 76.8825 100.099 78.7854 102.615 80.2366Z" fill="#E0E0E0"/>
<g opacity="0.3">
<path opacity="0.3" d="M110.832 83.842C110.832 84.4404 110.832 85.0388 110.846 85.6372C111.388 85.6582 111.93 85.6582 112.471 85.6372C112.471 85.0388 112.471 84.4404 112.486 83.842C111.942 83.866 111.388 83.866 110.832 83.842Z" fill="#2395D2"/>
<path opacity="0.3" d="M100.724 80.2964C100.691 80.8679 100.655 81.4334 100.623 81.9899C101.089 82.4395 101.601 82.8405 102.148 83.1867C102.19 82.6272 102.238 82.0587 102.283 81.4842C101.725 81.1412 101.203 80.7433 100.724 80.2964Z" fill="#2395D2"/>
<path opacity="0.3" d="M122.605 80.3354C122.126 80.7802 121.603 81.1761 121.046 81.5173C121.094 82.0918 121.14 82.6592 121.184 83.2198C121.731 82.8737 122.241 82.4727 122.706 82.0229C122.674 81.4724 122.641 80.9069 122.605 80.3354Z" fill="#2395D2"/>
</g>
<g opacity="0.5">
<path opacity="0.5" d="M110.832 83.842C110.912 92.7822 111.008 101.39 111.008 101.39C111.013 101.448 111.033 101.503 111.067 101.55C111.101 101.597 111.147 101.633 111.2 101.656C111.342 101.729 111.5 101.766 111.66 101.766C111.82 101.766 111.978 101.729 112.121 101.656C112.173 101.633 112.218 101.596 112.251 101.549C112.285 101.502 112.305 101.447 112.31 101.39C112.31 101.39 112.405 92.7852 112.486 83.845C111.942 83.866 111.388 83.866 110.832 83.842Z" fill="#E0E0E0"/>
<path opacity="0.5" d="M99.9736 94.9426C99.9789 95 99.9994 95.055 100.033 95.1018C100.067 95.1487 100.112 95.1856 100.165 95.2089C100.308 95.2812 100.466 95.3188 100.626 95.3188C100.786 95.3188 100.944 95.2812 101.087 95.2089C101.139 95.1849 101.184 95.1477 101.217 95.101C101.25 95.0542 101.27 94.9996 101.275 94.9426C101.275 94.9426 101.691 88.794 102.283 81.4785C101.725 81.1327 101.203 80.7318 100.725 80.2817C100.246 88.1148 99.9736 94.9426 99.9736 94.9426Z" fill="#E0E0E0"/>
<path opacity="0.5" d="M122.054 94.9424C122.059 94.9995 122.08 95.0541 122.113 95.1008C122.146 95.1476 122.191 95.1848 122.243 95.2087C122.386 95.281 122.543 95.3187 122.703 95.3187C122.864 95.3187 123.021 95.281 123.164 95.2087C123.216 95.1847 123.262 95.1476 123.295 95.1009C123.329 95.0542 123.35 94.9996 123.356 94.9424C123.356 94.9424 123.098 88.1416 122.605 80.3354C122.126 80.7802 121.603 81.1761 121.046 81.5173C121.641 88.8118 122.054 94.9424 122.054 94.9424Z" fill="#E0E0E0"/>
<path opacity="0.5" d="M124.502 74.9797C124.502 76.8827 123.272 78.7856 120.774 80.2367C115.774 83.1419 107.645 83.1419 102.615 80.2367C100.099 78.7856 98.8362 76.8827 98.8242 74.9797V76.4249C98.8242 77.7683 99.4675 79.1177 100.724 80.2965C101.202 80.7466 101.725 81.1475 102.283 81.4933L102.615 81.6938C104.907 83.0163 107.845 83.7344 110.837 83.851C111.388 83.875 111.941 83.875 112.492 83.851C115.511 83.7463 118.476 83.0252 120.774 81.6908L121.046 81.5233C121.603 81.1821 122.126 80.7862 122.605 80.3414C123.876 79.1446 124.511 77.7892 124.502 76.4309V74.9797Z" fill="white"/>
<path opacity="0.5" d="M102.615 80.2366C107.645 83.1418 115.78 83.1418 120.774 80.2366C123.272 78.7854 124.514 76.8825 124.502 74.9796C124.49 73.0767 123.227 71.1738 120.714 69.7197C115.681 66.8174 107.549 66.8174 102.555 69.7197C100.057 71.1738 98.8153 73.0767 98.8243 74.9796C98.8332 76.8825 100.099 78.7854 102.615 80.2366Z" fill="white"/>
</g>
<path d="M115.966 67.0479L111.64 67.1706L107.313 67.0449C107.128 69.9651 107.696 72.9452 108.483 74.3993C108.669 74.7725 108.969 75.0772 109.339 75.27C110.053 75.6331 110.843 75.8224 111.644 75.8224C112.445 75.8224 113.235 75.6331 113.949 75.27C114.326 75.0741 114.628 74.7583 114.805 74.3724C115.589 72.9152 116.152 69.9532 115.966 67.0479Z" fill="white"/>
<path d="M114.688 65.2735C116.385 66.2519 116.394 67.8406 114.709 68.819C113.025 69.7974 110.284 69.7974 108.591 68.819C106.897 67.8406 106.885 66.2549 108.57 65.2735C110.254 64.2921 112.995 64.2951 114.688 65.2735Z" fill="#EBEBEB"/>
<path d="M114.018 65.6744C115.341 66.4373 115.35 67.676 114.033 68.439C112.717 69.202 110.583 69.202 109.261 68.439C107.938 67.676 107.929 66.4373 109.246 65.6744C110.562 64.9114 112.696 64.8994 114.018 65.6744Z" fill="#E0E0E0"/>
<g opacity="0.15">
<path opacity="0.15" d="M114.018 65.6744C115.341 66.4373 115.35 67.676 114.033 68.439C112.717 69.202 110.583 69.202 109.261 68.439C107.938 67.676 107.929 66.4373 109.246 65.6744C110.562 64.9114 112.696 64.8994 114.018 65.6744Z" fill="#2395D2"/>
</g>
<path d="M111.277 67.1704C111.625 67.4603 112.037 67.6636 112.478 67.7635C112.92 67.8633 113.379 67.857 113.818 67.7448C114.24 67.6168 114.623 67.3857 114.933 67.0722C115.244 66.7588 115.471 66.373 115.595 65.9496C115.083 65.7065 114.614 65.381 114.207 64.9862C114.855 64.8257 115.536 64.8495 116.172 65.055C116.349 64.7789 116.454 64.4637 116.48 64.1372C116.507 63.8106 116.452 63.4826 116.322 63.182C115.583 62.8536 114.753 62.7954 113.976 63.0175C114.299 62.737 114.676 62.5258 115.083 62.3972C115.491 62.2685 115.921 62.225 116.346 62.2694C116.407 61.0296 116.213 59.7904 115.777 58.6282C114.165 58.712 112.6 59.4061 112.073 59.9058C112.048 60.483 112.109 61.0606 112.253 61.6202C112.044 61.5141 111.866 61.3569 111.735 61.1633C111.603 60.9697 111.523 60.7461 111.502 60.5131C110.493 60.7645 110.06 61.2671 109.904 61.6531C110.048 62.3707 110.377 63.0381 110.858 63.5889C109.91 63.2897 109.527 62.2455 109.527 62.2455C108.594 64.4536 108.773 66.9549 111.277 67.1704Z" fill="#1F7BAC"/>
<path opacity="0.2" d="M111.277 67.1704C111.625 67.4603 112.037 67.6636 112.478 67.7635C112.92 67.8633 113.379 67.857 113.818 67.7448C114.24 67.6168 114.623 67.3857 114.933 67.0722C115.244 66.7588 115.471 66.373 115.595 65.9496C115.083 65.7065 114.614 65.381 114.207 64.9862C114.855 64.8257 115.536 64.8495 116.172 65.055C116.349 64.7789 116.454 64.4637 116.48 64.1372C116.507 63.8106 116.452 63.4826 116.322 63.182C115.583 62.8536 114.753 62.7954 113.976 63.0175C114.299 62.737 114.676 62.5258 115.083 62.3972C115.491 62.2685 115.921 62.225 116.346 62.2694C116.407 61.0296 116.213 59.7904 115.777 58.6282C114.165 58.712 112.6 59.4061 112.073 59.9058C112.048 60.483 112.109 61.0606 112.253 61.6202C112.044 61.5141 111.866 61.3569 111.735 61.1633C111.603 60.9697 111.523 60.7461 111.502 60.5131C110.493 60.7645 110.06 61.2671 109.904 61.6531C110.048 62.3707 110.377 63.0381 110.858 63.5889C109.91 63.2897 109.527 62.2455 109.527 62.2455C108.594 64.4536 108.773 66.9549 111.277 67.1704Z" fill="#2395D2"/>
<path opacity="0.3" d="M111.277 67.1704C111.625 67.4603 112.037 67.6636 112.478 67.7635C112.92 67.8633 113.379 67.857 113.818 67.7448C114.24 67.6168 114.623 67.3857 114.933 67.0722C115.244 66.7588 115.471 66.373 115.595 65.9496C115.083 65.7065 114.614 65.381 114.207 64.9862C114.855 64.8257 115.536 64.8495 116.172 65.055C116.349 64.7789 116.454 64.4637 116.48 64.1372C116.507 63.8106 116.452 63.4826 116.322 63.182C115.583 62.8536 114.753 62.7954 113.976 63.0175C114.299 62.737 114.676 62.5258 115.083 62.3972C115.491 62.2685 115.921 62.225 116.346 62.2694C116.407 61.0296 116.213 59.7904 115.777 58.6282C114.165 58.712 112.6 59.4061 112.073 59.9058C112.048 60.483 112.109 61.0606 112.253 61.6202C112.044 61.5141 111.866 61.3569 111.735 61.1633C111.603 60.9697 111.523 60.7461 111.502 60.5131C110.493 60.7645 110.06 61.2671 109.904 61.6531C110.048 62.3707 110.377 63.0381 110.858 63.5889C109.91 63.2897 109.527 62.2455 109.527 62.2455C108.594 64.4536 108.773 66.9549 111.277 67.1704Z" fill="white"/>
<path d="M111.223 67.4098C111.211 67.409 111.199 67.4059 111.188 67.4005C111.177 67.3951 111.167 67.3876 111.159 67.3784C111.151 67.3693 111.145 67.3586 111.141 67.347C111.137 67.3355 111.136 67.3232 111.136 67.3111C111.292 65.2735 112.456 61.9105 115.235 59.1369C115.244 59.1282 115.254 59.1214 115.266 59.1167C115.277 59.112 115.289 59.1096 115.301 59.1096C115.314 59.1096 115.326 59.112 115.337 59.1167C115.348 59.1214 115.358 59.1282 115.367 59.1369C115.376 59.1455 115.383 59.1558 115.387 59.1671C115.392 59.1784 115.394 59.1905 115.394 59.2027C115.394 59.2149 115.392 59.227 115.387 59.2383C115.383 59.2496 115.376 59.2599 115.367 59.2685C112.626 62.0062 111.478 65.3184 111.325 67.326C111.322 67.3504 111.31 67.3726 111.291 67.3882C111.272 67.4038 111.248 67.4115 111.223 67.4098Z" fill="#F5F5F5"/>
<path d="M111.983 68.2597C111.66 68.5243 111.278 68.7085 110.87 68.7974C110.462 68.8862 110.038 68.8772 109.634 68.771C109.23 68.6647 108.856 68.4644 108.545 68.1862C108.233 67.9081 107.991 67.56 107.839 67.1706C108.303 66.9595 108.727 66.6712 109.093 66.3179C108.48 66.1708 107.839 66.1894 107.235 66.3717C107.052 66.1388 106.931 65.8625 106.886 65.5696C106.84 65.2766 106.871 64.9769 106.975 64.6992C107.677 64.4097 108.457 64.3633 109.189 64.5676C108.536 64.0594 107.715 63.8158 106.891 63.8854C106.747 62.7925 106.849 61.6813 107.19 60.6331C108.725 60.7258 110.248 61.3631 110.781 61.8149C110.839 62.3217 110.818 62.8346 110.718 63.3348C110.904 63.2465 111.062 63.1083 111.175 62.9356C111.287 62.7629 111.35 62.5625 111.355 62.3565C112.318 62.5898 112.752 63.0416 112.923 63.3827C112.832 64.0142 112.563 64.6067 112.148 65.0912C112.418 64.9947 112.663 64.8387 112.864 64.6346C113.066 64.4305 113.219 64.1836 113.312 63.9123C114.326 65.8691 114.311 68.0682 111.983 68.2597Z" fill="#1F7BAC"/>
<path opacity="0.3" d="M111.983 68.2597C111.66 68.5243 111.278 68.7085 110.87 68.7974C110.462 68.8862 110.038 68.8772 109.634 68.771C109.23 68.6647 108.856 68.4644 108.545 68.1862C108.233 67.9081 107.991 67.56 107.839 67.1706C108.303 66.9595 108.727 66.6712 109.093 66.3179C108.48 66.1708 107.839 66.1894 107.235 66.3717C107.052 66.1388 106.931 65.8625 106.886 65.5696C106.84 65.2766 106.871 64.9769 106.975 64.6992C107.677 64.4097 108.457 64.3633 109.189 64.5676C108.536 64.0594 107.715 63.8158 106.891 63.8854C106.747 62.7925 106.849 61.6813 107.19 60.6331C108.725 60.7258 110.248 61.3631 110.781 61.8149C110.839 62.3217 110.818 62.8346 110.718 63.3348C110.904 63.2465 111.062 63.1083 111.175 62.9356C111.287 62.7629 111.35 62.5625 111.355 62.3565C112.318 62.5898 112.752 63.0416 112.923 63.3827C112.832 64.0142 112.563 64.6067 112.148 65.0912C112.418 64.9947 112.663 64.8387 112.864 64.6346C113.066 64.4305 113.219 64.1836 113.312 63.9123C114.326 65.8691 114.311 68.0682 111.983 68.2597Z" fill="white"/>
<path d="M112.046 68.4811C112.024 68.4808 112.003 68.4729 111.986 68.4588C111.969 68.4446 111.957 68.425 111.953 68.4034C111.69 66.6291 110.4 63.685 107.639 61.2225C107.63 61.2139 107.623 61.2037 107.618 61.1924C107.614 61.1811 107.611 61.1689 107.611 61.1567C107.611 61.1445 107.614 61.1324 107.618 61.1211C107.623 61.1098 107.63 61.0995 107.639 61.0909C107.647 61.0822 107.658 61.0753 107.669 61.0706C107.68 61.0659 107.692 61.0635 107.705 61.0635C107.717 61.0635 107.729 61.0659 107.74 61.0706C107.752 61.0753 107.762 61.0822 107.77 61.0909C110.562 63.5802 111.869 66.5722 112.139 68.3674C112.142 68.392 112.136 68.4169 112.122 68.437C112.107 68.4571 112.085 68.4708 112.061 68.4752L112.046 68.4811Z" fill="white"/>
<path d="M68.2641 6.71396C68.1989 6.46069 68.0981 6.21792 67.9649 5.99289C67.6657 5.54409 67.166 5.28079 65.9572 5.30473C65.7884 5.3104 65.6216 5.34376 65.4636 5.40346L20.0389 31.2455C19.54 31.5348 19.1251 31.9491 18.835 32.4475C18.5449 32.9459 18.3896 33.5112 18.3843 34.0879V108.008C18.3843 109.328 19.1592 109.825 20.0209 109.881C20.3914 109.901 20.7625 109.854 21.116 109.741C21.1613 109.728 21.2053 109.711 21.2476 109.69L66.6993 83.8031C67.2008 83.5171 67.6177 83.1035 67.9078 82.6043C68.1978 82.1051 68.3507 81.538 68.3509 80.9607V7.05804C68.3473 6.9384 68.3177 6.82098 68.2641 6.71396Z" fill="#1F7BAC"/>
<path opacity="0.2" d="M68.2641 6.71396C68.1989 6.46069 68.0981 6.21792 67.9649 5.99289C67.6657 5.54409 67.166 5.28079 65.9572 5.30473C65.7884 5.3104 65.6216 5.34376 65.4636 5.40346L20.0389 31.2455C19.54 31.5348 19.1251 31.9491 18.835 32.4475C18.5449 32.9459 18.3896 33.5112 18.3843 34.0879V108.008C18.3843 109.328 19.1592 109.825 20.0209 109.881C20.3914 109.901 20.7625 109.854 21.116 109.741C21.1613 109.728 21.2053 109.711 21.2476 109.69L66.6993 83.8031C67.2008 83.5171 67.6177 83.1035 67.9078 82.6043C68.1978 82.1051 68.3507 81.538 68.3509 80.9607V7.05804C68.3473 6.9384 68.3177 6.82098 68.2641 6.71396Z" fill="#2395D2"/>
<path opacity="0.2" d="M18.7249 32.6519C18.503 33.0983 18.3863 33.5896 18.3838 34.0881V108.009C18.3838 109.328 19.1587 109.825 20.0204 109.882C19.7846 109.523 19.6684 109.099 19.6883 108.67V34.7463C19.6902 34.2491 19.8058 33.7588 20.0264 33.3131C20.0623 33.2383 20.1102 33.1695 20.1521 33.0977L18.8894 32.3677C18.8326 32.4634 18.7728 32.5532 18.7249 32.6519Z" fill="#2395D2"/>
<path opacity="0.2" d="M65.9689 5.30477C65.8001 5.31045 65.6333 5.34381 65.4752 5.40351L20.0386 31.2455C19.5672 31.5168 19.172 31.9027 18.8896 32.3675L20.1523 33.0976C20.4381 32.5996 20.8512 32.1866 21.3491 31.9008L66.7768 6.06175C66.9353 6.00431 67.1019 5.97201 67.2705 5.96601C67.5062 5.96027 67.742 5.96926 67.9766 5.99294C67.6923 5.53516 67.1777 5.28084 65.9689 5.30477Z" fill="white"/>
<path d="M66.277 9.02393L21.8486 34.6655V104.37L66.277 78.7288V9.02393Z" fill="#455A64"/>
<path d="M46.3441 91.4059C45.915 91.674 45.5449 92.0265 45.2564 92.4421C44.9678 92.8577 44.7668 93.3277 44.6656 93.8234C44.5549 94.6851 45.1263 95.0202 45.9462 94.5325C46.3744 94.2635 46.7439 93.9106 47.0323 93.4952C47.3208 93.0797 47.5223 92.6103 47.6247 92.115C47.7324 91.2563 47.1609 90.9361 46.3441 91.4059Z" fill="#1F7BAC"/>
<g opacity="0.4">
<path opacity="0.4" d="M46.3441 91.4059C45.915 91.674 45.5449 92.0265 45.2564 92.4421C44.9678 92.8577 44.7668 93.3277 44.6656 93.8234C44.5549 94.6851 45.1263 95.0202 45.9462 94.5325C46.3744 94.2635 46.7439 93.9106 47.0323 93.4952C47.3208 93.0797 47.5223 92.6103 47.6247 92.115C47.7324 91.2563 47.1609 90.9361 46.3441 91.4059Z" fill="#2395D2"/>
</g>
<path d="M70.5465 5.37428V3.11232C70.5436 3.00834 70.5181 2.90623 70.4717 2.81312C70.4198 2.59091 70.334 2.37799 70.2174 2.18181C69.9691 1.78387 69.5143 1.55349 68.4491 1.58341C68.3009 1.58747 68.1544 1.61577 68.0153 1.66718L27.9942 24.4035C27.5556 24.6584 27.1909 25.0231 26.9359 25.4616C26.681 25.9002 26.5445 26.3975 26.54 26.9048V29.4959L27.686 30.1571L70.5465 5.37428Z" fill="#1F7BAC"/>
<path d="M27.686 30.1564L26.54 29.4951V94.2751C26.54 95.436 27.2222 95.8759 27.9792 95.9237C28.3061 95.9419 28.6336 95.9004 28.9456 95.801C28.9855 95.7877 29.0245 95.7717 29.0623 95.7532L69.0924 72.9541C69.5342 72.7028 69.9016 72.339 70.157 71.8996C70.4124 71.4602 70.5468 70.961 70.5465 70.4527V5.37354L27.686 30.1564Z" fill="#1F7BAC"/>
<path opacity="0.2" d="M26.8392 25.6416C26.6438 26.0339 26.5414 26.466 26.54 26.9043V94.2754C26.54 95.4363 27.2222 95.8761 27.9792 95.924C27.7692 95.6084 27.6645 95.2345 27.68 94.8558V27.4877C27.6824 27.0496 27.7848 26.6177 27.9792 26.2251C28.0121 26.1593 28.054 26.0964 28.0899 26.0336L26.9769 25.3933C26.9264 25.4735 26.8805 25.5564 26.8392 25.6416Z" fill="#2395D2"/>
<path opacity="0.2" d="M68.4487 1.556C68.3005 1.56006 68.1539 1.58836 68.0148 1.63978L27.9937 24.403C27.5784 24.6425 27.2305 24.9832 26.9824 25.3934L28.0954 26.0336C28.348 25.597 28.7113 25.2347 29.1486 24.9834L69.1608 2.22322C69.3005 2.17055 69.4483 2.14222 69.5976 2.13944C69.8044 2.13281 70.0113 2.14081 70.217 2.16338C69.9686 1.76544 69.5138 1.53506 68.4487 1.556Z" fill="white"/>
<path opacity="0.05" d="M70.5465 5.37428V3.11232C70.5436 3.00834 70.5181 2.90623 70.4717 2.81312C70.4198 2.59091 70.334 2.37799 70.2174 2.18181C69.9691 1.78387 69.5143 1.55349 68.4491 1.58341C68.3009 1.58747 68.1544 1.61577 68.0153 1.66718L27.9942 24.4035C27.5556 24.6584 27.1909 25.0231 26.9359 25.4616C26.681 25.9002 26.5445 26.3975 26.54 26.9048V29.4959L27.686 30.1571L70.5465 5.37428Z" fill="white"/>
<path opacity="0.3" d="M27.686 30.1564L26.54 29.4951V94.2751C26.54 95.436 27.2222 95.8759 27.9792 95.9237C28.3061 95.9419 28.6336 95.9004 28.9456 95.801C28.9855 95.7877 29.0245 95.7717 29.0623 95.7532L69.0924 72.9541C69.5342 72.7028 69.9016 72.339 70.157 71.8996C70.4124 71.4602 70.5468 70.961 70.5465 70.4527V5.37354L27.686 30.1564Z" fill="white"/>
<path d="M48.6453 29.002L31.0493 39.1538V68.5324L48.6453 58.3775V29.002Z" fill="white"/>
<path d="M32.0273 39.719L47.6696 30.6921V57.8147L32.0273 66.8386V39.719Z" fill="#455A64"/>
<path opacity="0.3" d="M32.0273 39.719L47.6696 30.6921V57.8147L32.0273 66.8386V39.719Z" fill="white"/>
<path d="M47.6696 57.8359L32.0273 66.8718V56.4865L36.5782 52.9111L42.4425 50.685L43.8937 50.323C44.537 50.1621 45.2074 50.1422 45.8592 50.2646C46.5109 50.387 47.1284 50.6488 47.6696 51.0321V57.8359Z" fill="#E0E0E0"/>
<path d="M35.5668 45.0301C35.112 43.5071 35.2108 41.7598 36.1203 40.4553C36.7204 39.6231 37.5625 38.9962 38.5319 38.6601C39.4937 38.334 40.5107 38.2018 41.5239 38.2711C42.3274 38.2864 43.1178 38.4774 43.8397 38.8306C44.2723 39.0613 44.6551 39.375 44.9663 39.7538C45.2775 40.1326 45.5109 40.569 45.6532 41.0381C45.7955 41.5073 45.8439 41.9998 45.7955 42.4877C45.7472 42.9755 45.6032 43.449 45.3716 43.8811C44.9774 44.5465 44.463 45.1329 43.8547 45.6105C42.6874 46.6098 41.4047 47.4656 40.0339 48.1597C39.6928 48.3332 39.3457 48.4978 38.9927 48.6504C38.7533 48.7551 38.3015 49.0483 38.0322 48.9945C37.7629 48.9406 37.4817 48.441 37.3201 48.2345C37.0867 47.9353 36.8653 47.6361 36.6589 47.319C36.1855 46.6132 35.8176 45.8421 35.5668 45.0301Z" fill="#263238"/>
<path d="M43.7382 57.821C43.6247 57.3626 43.4684 56.9158 43.2714 56.4866L42.5234 56.6631C42.5803 57.082 42.6102 57.5188 42.6252 57.9527C42.6252 58.2519 42.6012 59.3589 42.5444 60.7921L44.2229 59.8257C44.0733 59.1674 43.9147 58.4942 43.7382 57.821Z" fill="#1F7BAC"/>
<path opacity="0.2" d="M42.5414 56.8217C42.5414 56.7708 42.5414 56.717 42.5234 56.6631L43.2714 56.4866L43.3163 56.5973C43.2151 56.6949 43.0917 56.7663 42.9566 56.8054C42.8216 56.8445 42.6791 56.8501 42.5414 56.8217Z" fill="#2395D2"/>
<path d="M42.1226 54.7032L41.5241 54.3262L40.1538 55.0742C40.623 55.4345 41.1837 55.6563 41.7725 55.7145L42.1226 54.7032Z" fill="#1F7BAC"/>
<path d="M43.0322 54.5594L43.2117 54.1555L43.9029 54.5894C43.8291 54.8518 43.6715 55.083 43.4541 55.2476L43.0322 54.5594Z" fill="#1F7BAC"/>
<path opacity="0.2" d="M42.1226 54.7032L41.5241 54.3262L40.1538 55.0742C40.623 55.4345 41.1837 55.6563 41.7725 55.7145L42.1226 54.7032Z" fill="#2395D2"/>
<path opacity="0.2" d="M43.0322 54.5594L43.2117 54.1555L43.9029 54.5894C43.8291 54.8518 43.6715 55.083 43.4541 55.2476L43.0322 54.5594Z" fill="#2395D2"/>
<path d="M41.7812 55.7145C41.8392 55.3611 41.9544 55.0195 42.1223 54.7032L43.0199 54.5596C43.186 54.7724 43.3275 55.0032 43.4418 55.2477C43.4615 55.6685 43.3995 56.0892 43.2593 56.4864C43.0281 56.6055 42.7713 56.6661 42.5113 56.663C42.1754 56.4302 41.9203 56.0987 41.7812 55.7145Z" fill="#1F7BAC"/>
<path d="M37.9395 47.6809V51.8338C38.7652 52.9738 42.239 54.4189 42.4424 54.386C42.6938 54.3411 42.4424 52.1031 42.4424 51.9086V50.2271C41.7662 50.1254 41.105 50.0057 40.5096 49.88C39.9305 49.76 39.3912 49.4954 38.9418 49.1109C38.4925 48.7264 38.1476 48.2345 37.9395 47.6809Z" fill="#DE9E8A"/>
<path d="M40.9311 50.8646C41.4267 50.9949 41.932 51.0849 42.4421 51.1338V50.2362C41.7659 50.1345 41.1047 50.0148 40.5092 49.8892C39.9663 49.7751 39.4582 49.5339 39.0265 49.1855C38.5948 48.837 38.2519 48.3912 38.0259 47.8845C38.1354 48.5832 38.4475 49.2345 38.9235 49.7575C39.48 50.3017 40.1739 50.6843 40.9311 50.8646Z" fill="#B68373"/>
<path d="M45.0364 41.1404C44.3562 41.7986 43.4543 42.1786 42.5081 42.2055C41.6105 42.2055 40.7608 41.9213 39.9021 41.6849C39.8236 42.1024 39.614 42.4839 39.3037 42.774C38.9608 43.0662 38.5392 43.2505 38.0919 43.3036C38.2176 44.1056 38.2176 44.9222 38.0919 45.7241C38.0808 45.8078 38.0471 45.8869 37.9943 45.9528C37.9416 46.0187 37.8719 46.0689 37.7927 46.0981C37.4935 46.1819 37.314 45.8857 37.1734 45.6463C37.0228 45.3662 36.8074 45.1261 36.545 44.9462C36.4138 44.8601 36.2637 44.8067 36.1075 44.7906C35.9513 44.7744 35.7936 44.796 35.6474 44.8535C35.5308 44.915 35.4282 44.9999 35.3458 45.1029C35.2634 45.2058 35.2032 45.3246 35.1687 45.4519C35.1017 45.7016 35.0895 45.9629 35.1328 46.2178C35.1842 46.6479 35.3564 47.0545 35.6295 47.3907C35.7662 47.558 35.9358 47.6956 36.1277 47.7949C36.3197 47.8942 36.5299 47.9532 36.7455 47.9682C36.9554 47.9863 37.1663 47.9465 37.3551 47.8531C37.544 47.7597 37.7036 47.6163 37.8166 47.4386L37.8376 47.5164C37.9798 48.1063 38.2859 48.644 38.7205 49.0675C39.1551 49.491 39.7006 49.7831 40.294 49.91C40.8386 50.0237 41.443 50.1314 42.0563 50.2271C42.3555 50.272 42.6547 50.3139 42.9539 50.3498C43.5107 50.4166 44.072 50.2678 44.5226 49.934C44.9732 49.6002 45.2791 49.1067 45.3775 48.5546C45.7874 46.1879 45.925 43.4592 45.0364 41.1404Z" fill="#DE9E8A"/>
<path d="M43.2652 44.0993H42.7386C42.209 43.7402 41.5986 43.5181 40.9621 43.4528C40.3255 43.3875 39.6828 43.4812 39.0913 43.7253V44.2818L39.2379 44.3596C39.3175 44.7185 39.3626 45.0842 39.3726 45.4517C39.3825 45.8128 39.5265 46.1574 39.7765 46.4181C40.0939 46.6348 40.4768 46.7343 40.8596 46.6994C41.1649 46.7232 41.4716 46.6782 41.7572 46.5677C42.0842 46.3912 42.3307 46.0954 42.4454 45.7419C42.577 45.3949 42.5531 45.1944 42.7146 44.7785C42.737 44.7183 42.7782 44.6668 42.8321 44.6318C42.886 44.5968 42.9497 44.58 43.0138 44.584C43.0729 44.5862 43.13 44.6059 43.1779 44.6405C43.2259 44.6751 43.2625 44.7231 43.2831 44.7785C43.4327 45.1944 43.4148 45.3949 43.5344 45.7419C43.6381 46.0879 43.8676 46.3825 44.1777 46.5677C44.4452 46.6793 44.7357 46.7245 45.0245 46.6994C45.3856 46.7336 45.7467 46.6334 46.0388 46.4181C46.2757 46.1513 46.4094 45.8085 46.4158 45.4517C46.4242 45.0846 46.4663 44.7191 46.5414 44.3596L46.679 44.2818V43.7253C46.1276 43.4811 45.5213 43.387 44.9218 43.4527C44.3222 43.5184 43.7507 43.7415 43.2652 44.0993ZM42.4723 44.3985L42.4513 44.596C42.403 44.9551 42.3136 45.3074 42.1851 45.6462C42.092 45.9274 41.898 46.164 41.6405 46.3104C41.4343 46.3922 41.2127 46.4279 40.9912 46.4151H40.8716C40.5565 46.4486 40.2395 46.3725 39.974 46.1997C39.779 45.989 39.672 45.7118 39.6747 45.4248C39.6747 45.332 39.6568 45.2363 39.6508 45.1256C39.6329 44.8593 39.6508 44.2788 39.6718 43.857C39.9729 43.7736 40.2839 43.7313 40.5963 43.7313C41.2542 43.7341 41.898 43.9218 42.4543 44.2729C42.4813 44.2908 42.4723 44.3836 42.4723 44.3836V44.3985ZM46.1584 45.1405C46.1584 45.2363 46.1584 45.332 46.1375 45.4397C46.1362 45.726 46.0297 46.0018 45.8383 46.2147C45.5946 46.3861 45.2967 46.4627 45.0005 46.4301H44.8898C44.685 46.4416 44.4802 46.4057 44.2914 46.3254C44.0456 46.1744 43.8644 45.9378 43.7828 45.6612C43.6622 45.3211 43.5789 44.969 43.5344 44.611L43.5135 44.4135C43.5135 44.4135 43.5135 44.3207 43.5344 44.3028C44.0475 43.9541 44.6525 43.7657 45.2728 43.7612C45.5656 43.761 45.8569 43.8033 46.1375 43.8869C46.1614 44.2788 46.1734 44.8593 46.1584 45.1256V45.1405Z" fill="#37474F"/>
<path d="M39.0916 43.7253L36.1235 44.7935C36.3377 44.8342 36.5382 44.9278 36.707 45.0658C36.7369 45.0927 39.1006 44.2819 39.1006 44.2819L39.0916 43.7253Z" fill="#37474F"/>
<path d="M42.9961 44.6292L44.4951 46.4423L43.1218 46.927L42.9961 44.6292Z" fill="#9C5C5C"/>
<path d="M42.9961 44.6292L44.4951 46.4423L43.1218 46.927L42.9961 44.6292Z" fill="#B18476"/>
<path d="M40.8838 44.8565C40.883 44.9104 40.893 44.964 40.9131 45.014C40.9332 45.0641 40.963 45.1097 41.0009 45.1481C41.0387 45.1865 41.0839 45.217 41.1336 45.2378C41.1834 45.2587 41.2368 45.2694 41.2907 45.2694C41.3477 45.2742 41.4051 45.2672 41.4592 45.2487C41.5133 45.2303 41.563 45.2008 41.6051 45.1621C41.6473 45.1234 41.6809 45.0764 41.7039 45.0241C41.7269 44.9717 41.7388 44.9151 41.7388 44.858C41.7388 44.8008 41.7269 44.7442 41.7039 44.6919C41.6809 44.6395 41.6473 44.5925 41.6051 44.5538C41.563 44.5152 41.5133 44.4857 41.4592 44.4672C41.4051 44.4487 41.3477 44.4417 41.2907 44.4466C41.1826 44.4474 41.0791 44.4909 41.0028 44.5677C40.9266 44.6445 40.8838 44.7483 40.8838 44.8565Z" fill="#263238"/>
<path d="M44.3365 44.7307C44.3357 44.7848 44.3456 44.8385 44.3657 44.8887C44.3857 44.9389 44.4155 44.9847 44.4533 45.0233C44.4912 45.062 44.5363 45.0928 44.586 45.1139C44.6358 45.1351 44.6893 45.1462 44.7434 45.1466C44.8527 45.1466 44.9575 45.1036 45.0354 45.0269C45.1132 44.9502 45.1577 44.8459 45.1593 44.7367C45.1505 44.6336 45.1033 44.5376 45.0271 44.4677C44.951 44.3977 44.8513 44.3589 44.7479 44.3589C44.6444 44.3589 44.5448 44.3977 44.4686 44.4677C44.3924 44.5376 44.3453 44.6336 44.3365 44.7367V44.7307Z" fill="#263238"/>
<path d="M44.1094 42.9354L45.2104 43.0581C45.1906 42.9406 45.1362 42.8317 45.0541 42.7453C44.972 42.659 44.866 42.5991 44.7497 42.5733C44.6198 42.568 44.491 42.5991 44.3779 42.663C44.2647 42.727 44.1717 42.8213 44.1094 42.9354Z" fill="#263238"/>
<path d="M41.716 43.0164H40.606C40.64 42.9021 40.7075 42.8005 40.7998 42.7248C40.892 42.6491 41.0048 42.6027 41.1236 42.5916C41.2519 42.6008 41.3752 42.6454 41.4797 42.7204C41.5843 42.7954 41.6661 42.8978 41.716 43.0164Z" fill="#263238"/>
<path d="M41.5389 47.6538L43.1217 48.1415C43.0214 48.3277 42.8632 48.4763 42.6711 48.5648C42.479 48.6533 42.2633 48.677 42.0565 48.6322C41.6676 48.5245 41.4911 48.0547 41.5389 47.6538Z" fill="#9C5C5C"/>
<path d="M41.5389 47.6538L43.1217 48.1415C43.0214 48.3277 42.8632 48.4763 42.6711 48.5648C42.479 48.6533 42.2633 48.677 42.0565 48.6322C41.6676 48.5245 41.4911 48.0547 41.5389 47.6538Z" fill="#5E2828"/>
<path d="M42.5742 48.5994C42.4087 48.6611 42.2286 48.6726 42.0566 48.6323C41.9097 48.5774 41.7824 48.4801 41.6908 48.3529C41.5992 48.2256 41.5474 48.074 41.542 47.9173C41.7687 47.8768 42.0023 47.9251 42.1944 48.0521C42.3866 48.1791 42.5225 48.375 42.5742 48.5994Z" fill="#9C5C5C"/>
<path d="M42.5742 48.5994C42.4087 48.6611 42.2286 48.6726 42.0566 48.6323C41.9097 48.5774 41.7824 48.4801 41.6908 48.3529C41.5992 48.2256 41.5474 48.074 41.542 47.9173C41.7687 47.8768 42.0023 47.9251 42.1944 48.0521C42.3866 48.1791 42.5225 48.375 42.5742 48.5994Z" fill="#803E3E"/>
<path d="M42.4423 54.3861C41.0001 54.3621 40.7907 56.6929 39.4742 57.0789L36.1172 52.9948L37.1584 51.4479C37.3667 51.1396 37.6367 50.8777 37.9513 50.679V51.2385C37.9552 51.4025 38.001 51.5628 38.0843 51.7041C38.1675 51.8455 38.2855 51.9633 38.427 52.0463L42.4423 54.3861Z" fill="#FAFAFA"/>
<path d="M42.4424 54.3859C43.2412 54.1376 44.4381 55.1369 44.4381 55.1369C44.0192 52.8211 42.7506 50.6848 42.4424 50.6848V54.3859Z" fill="#FAFAFA"/>
<path d="M41.2816 25.2018C41.7154 24.9505 41.9847 25.0522 41.9877 25.4651C41.9742 25.6895 41.9026 25.9065 41.7798 26.0949C41.6571 26.2832 41.4874 26.4363 41.2875 26.5392L41.0123 26.6978V27.1735L40.5635 27.4309V25.6177L41.2816 25.2018ZM41.2606 26.1503C41.3405 26.1117 41.4084 26.052 41.4569 25.9776C41.5054 25.9033 41.5327 25.8171 41.5359 25.7284C41.5359 25.5608 41.4431 25.513 41.2576 25.6207L41.0093 25.7643V26.2939L41.2576 26.1503" fill="white"/>
<path d="M43.3188 25.2828L43.6629 25.6568L43.1842 25.9321L42.885 25.6149L42.6426 25.7555V26.2373L42.1938 26.4976V24.6814L42.9119 24.2535C43.3428 24.0052 43.6121 24.1069 43.6151 24.5198C43.6144 24.8021 43.5089 25.0741 43.3188 25.2828ZM42.9 25.217C42.9799 25.1776 43.0477 25.1173 43.0962 25.0425C43.1447 24.9677 43.172 24.8812 43.1752 24.7921C43.1752 24.6246 43.0825 24.5797 42.897 24.6844L42.6486 24.828V25.3606L42.897 25.217" fill="white"/>
<path d="M44.6657 23.2092C45.1713 22.91 45.5453 23.1045 45.5483 23.6461C45.533 23.9414 45.445 24.2285 45.2921 24.4816C45.1391 24.7348 44.926 24.9462 44.6716 25.0972C44.169 25.3964 43.795 25.2049 43.792 24.6604C43.8082 24.3656 43.8963 24.0792 44.0486 23.8263C44.2009 23.5734 44.4127 23.3615 44.6657 23.2092ZM44.6657 24.6723C44.7945 24.5899 44.9007 24.4768 44.9749 24.3431C45.0491 24.2093 45.0888 24.0593 45.0905 23.9064C45.0905 23.6072 44.902 23.4965 44.6627 23.6371C44.5371 23.7181 44.4333 23.8286 44.3603 23.959C44.2873 24.0894 44.2473 24.2357 44.2438 24.3851C44.2438 24.7022 44.4323 24.798 44.6716 24.6604" fill="white"/>
<path d="M47.0174 21.8896L47.0204 22.2846L46.2275 22.7424L46.2305 23.1403L46.9277 22.7394V23.1373L46.2305 23.5382L46.2335 24.1606L45.7847 24.4179L45.7817 22.6047L47.0174 21.8896Z" fill="white"/>
<path d="M47.6753 21.5098L47.6813 23.3229L47.2325 23.5832L47.2295 21.7671L47.6753 21.5098Z" fill="white"/>
<path d="M48.438 21.0701L48.444 22.4763L49.195 22.0425L49.198 22.4494L47.9982 23.1405L47.9922 21.3274L48.438 21.0701Z" fill="white"/>
<path d="M50.6078 19.8164V20.2143L49.812 20.6721L49.815 20.9773L50.5151 20.5734V20.9564L49.815 21.3603V21.6924L50.6407 21.2197V21.6146L49.3751 22.3476L49.3691 20.5315L50.6078 19.8164Z" fill="white"/>
<path d="M52.2894 18.8467C52.813 18.5475 53.169 18.6881 53.172 19.2447C53.1598 19.5364 53.0724 19.82 52.9183 20.0679C52.7642 20.3159 52.5486 20.5198 52.2924 20.6599L51.5474 21.0937V19.2806L52.2894 18.8467ZM52.2744 20.2619C52.4079 20.1849 52.5193 20.0748 52.598 19.9422C52.6766 19.8096 52.7197 19.6591 52.7232 19.505C52.7232 19.2058 52.5407 19.113 52.2714 19.2686L51.9902 19.4302V20.4235L52.2714 20.2619" fill="white"/>
<path d="M54.3297 17.668L55.0328 19.0772L54.5691 19.3465L54.4434 19.0652L53.7762 19.4512L53.6535 19.8761L53.1987 20.1394L53.8899 17.9223L54.3297 17.668ZM53.9078 18.9994L54.3118 18.766L54.1083 18.3023L53.9078 18.9994Z" fill="white"/>
<path d="M57.3785 15.9087L58.0817 17.3179L57.6179 17.5872L57.4922 17.306L56.825 17.6919L56.7023 18.1168L56.2476 18.3771L56.9387 16.163L57.3785 15.9087ZM56.9537 17.2371L57.3606 17.0038L57.1541 16.54L56.9537 17.2371Z" fill="white"/>
<path d="M56.3405 16.5071L56.3434 16.914L55.8617 17.1923L55.8647 18.5985L55.4189 18.8558L55.4129 17.4496L54.9312 17.7278L54.9282 17.3209L56.3405 16.5071Z" fill="white"/>
<path d="M43.2383 27.0212V28.2719L55.8915 20.9684V19.7207L43.2383 27.0212Z" fill="#1F7BAC"/>
<g opacity="0.6">
<path opacity="0.6" d="M43.2383 27.0212V28.2719L55.8915 20.9684V19.7207L43.2383 27.0212Z" fill="white"/>
</g>
<path d="M46.4009 27.431V28.6787L53.7612 24.4061V23.1584L46.4009 27.431Z" fill="#1F7BAC"/>
<g opacity="0.6">
<path opacity="0.6" d="M46.4009 27.431V28.6787L53.7612 24.4061V23.1584L46.4009 27.431Z" fill="white"/>
</g>
<path d="M50.2788 35.4464V36.6941L67.6145 26.7008V25.4531L50.2788 35.4464Z" fill="#1F7BAC"/>
<path d="M50.2788 37.5856V38.8333L63.7608 31.066V29.8184L50.2788 37.5856Z" fill="#1F7BAC"/>
<path d="M50.2788 41.3797V42.6274L67.6145 32.6371V31.3894L50.2788 41.3797Z" fill="#1F7BAC"/>
<path d="M50.2788 43.5219V44.7695L67.6145 34.7882V33.5405L50.2788 43.5219Z" fill="#1F7BAC"/>
<path d="M50.2788 45.5895V46.8372L63.3539 39.3273V38.0796L50.2788 45.5895Z" fill="#1F7BAC"/>
<path d="M50.2788 28.2778V30.4141L62.932 23.1136V20.9773L50.2788 28.2778Z" fill="#1F7BAC"/>
<path d="M50.2788 31.509V32.8525L58.6864 28.0233V26.6799L50.2788 31.509Z" fill="#1F7BAC"/>
<g opacity="0.6">
<path opacity="0.6" d="M50.2783 35.4464V36.6941L67.614 26.7008V25.4531L50.2783 35.4464Z" fill="white"/>
<path opacity="0.6" d="M50.2783 37.5859V38.8335L63.7603 31.0663V29.8186L50.2783 37.5859Z" fill="white"/>
<path opacity="0.6" d="M50.2783 41.3797V42.6274L67.614 32.6371V31.3894L50.2783 41.3797Z" fill="white"/>
<path opacity="0.6" d="M50.2783 43.5219V44.7695L67.614 34.7882V33.5405L50.2783 43.5219Z" fill="white"/>
<path opacity="0.6" d="M50.2783 45.5893V46.837L63.3534 39.327V38.0793L50.2783 45.5893Z" fill="white"/>
<path opacity="0.6" d="M50.2788 28.2778V30.4141L62.932 23.1136V20.9773L50.2788 28.2778Z" fill="white"/>
<path opacity="0.6" d="M50.2783 31.509V32.8525L58.6859 28.0233V26.6799L50.2783 31.509Z" fill="white"/>
</g>
<path d="M51.4692 48.1626L51.8611 48.8478L52.7348 48.4887L52.1065 49.5629L52.2561 50.4754L51.4752 50.4545L50.6942 51.379L50.8408 50.2929L50.2065 49.9488L51.0802 49.2996L51.4692 48.1626Z" fill="#1F7BAC"/>
<path d="M55.2607 45.9753L55.6526 46.6605L56.5263 46.3015L55.895 47.3756L56.0476 48.2882L55.2667 48.2672L54.4857 49.1888L54.6324 48.1027L53.998 47.7616L54.8687 47.1123L55.2607 45.9753Z" fill="#1F7BAC"/>
<path d="M59.0478 43.7852L59.4427 44.4703L60.3134 44.1113L59.6851 45.1854L59.8377 46.098L59.0568 46.077L58.2729 47.0016L58.4225 45.9155L57.7852 45.5714L58.6588 44.9221L59.0478 43.7852Z" fill="#1F7BAC"/>
<path d="M62.8388 41.5981L63.2308 42.2833L64.1044 41.9243L63.4761 42.9984L63.6287 43.911L62.8448 43.89L62.0639 44.8146L62.2105 43.7285L61.5762 43.3844L62.4528 42.7351L62.8388 41.5981Z" fill="#1F7BAC"/>
<path d="M66.6303 39.4109L67.0223 40.0961L67.8959 39.737L67.2676 40.8111L67.4202 41.7207L66.6363 41.7028L65.8554 42.6243L66.002 41.5382L65.3677 41.1971L66.2413 40.5449L66.6303 39.4109Z" fill="#1F7BAC"/>
<path d="M51.4692 51.4688L51.8611 52.1539L52.7348 51.7919L52.1065 52.866L52.2561 53.7816L51.4752 53.7606L50.6942 54.6822L50.8408 53.5991L50.2065 53.255L51.0802 52.6057L51.4692 51.4688Z" fill="#1F7BAC"/>
<path d="M55.2607 49.2788L55.6526 49.964L56.5263 49.6049L55.895 50.6791L56.0476 51.5946L55.2667 51.5707L54.4857 52.4952L54.6324 51.4091L53.998 51.065L54.8687 50.4158L55.2607 49.2788Z" fill="#1F7BAC"/>
<path d="M59.0478 47.0913L59.4427 47.7765L60.3134 47.4174L59.6851 48.4916L59.8377 49.4041L59.0568 49.3832L58.2729 50.3047L58.4225 49.2216L57.7852 48.8775L58.6588 48.2283L59.0478 47.0913Z" fill="#1F7BAC"/>
<path d="M62.8388 44.9043L63.2308 45.5895L64.1044 45.2304L63.4761 46.3046L63.6287 47.2141L62.8448 47.1962L62.0639 48.1177L62.2105 47.0316L61.5762 46.6875L62.4528 46.0383L62.8388 44.9043Z" fill="#1F7BAC"/>
<path d="M66.6303 42.7141L67.0223 43.3993L67.8959 43.0402L67.2676 44.1144L67.4202 45.0269L66.6363 45.006L65.8554 45.9305L66.002 44.8444L65.3677 44.5003L66.2413 43.8511L66.6303 42.7141Z" fill="#1F7BAC"/>
<path d="M51.4692 54.772L51.8611 55.4571L52.7348 55.0981L52.1065 56.1722L52.2561 57.0848L51.4752 57.0639L50.6942 57.9884L50.8408 56.9023L50.2065 56.5582L51.0802 55.9089L51.4692 54.772Z" fill="#1F7BAC"/>
<path d="M55.2607 52.5845L55.6526 53.2696L56.5263 52.9106L55.895 53.9847L56.0476 54.8973L55.2667 54.8764L54.4857 55.7979L54.6324 54.7148L53.998 54.3707L54.8687 53.7214L55.2607 52.5845Z" fill="#1F7BAC"/>
<path d="M59.0478 50.3977L59.4427 51.0829L60.3134 50.7238L59.6851 51.798L59.8377 52.7075L59.0568 52.6896L58.2729 53.6111L58.4225 52.525L57.7852 52.1809L58.6588 51.5347L59.0478 50.3977Z" fill="#1F7BAC"/>
<path d="M62.8388 48.2075L63.2308 48.8927L64.1044 48.5337L63.4761 49.6078L63.6287 50.5203L62.8448 50.4994L62.0639 51.4239L62.2105 50.3378L61.5762 49.9938L62.4528 49.3445L62.8388 48.2075Z" fill="#1F7BAC"/>
<path d="M66.6303 46.0203L67.0223 46.7054L67.8959 46.3464L67.2676 47.4205L67.4202 48.3331L66.6363 48.3121L65.8554 49.2367L66.002 48.1506L65.3677 47.8065L66.2413 47.1542L66.6303 46.0203Z" fill="#1F7BAC"/>
<g opacity="0.8">
<path opacity="0.8" d="M51.4692 48.1626L51.8611 48.8478L52.7348 48.4887L52.1065 49.5629L52.2561 50.4754L51.4752 50.4545L50.6942 51.379L50.8408 50.2929L50.2065 49.9488L51.0802 49.2996L51.4692 48.1626Z" fill="white"/>
<path opacity="0.8" d="M55.2602 45.9753L55.6521 46.6605L56.5258 46.3015L55.8945 47.3756L56.0471 48.2882L55.2662 48.2672L54.4853 49.1888L54.6319 48.1027L53.9976 47.7616L54.8682 47.1123L55.2602 45.9753Z" fill="white"/>
<path opacity="0.8" d="M59.0483 43.7852L59.4432 44.4703L60.3139 44.1113L59.6856 45.1854L59.8382 46.098L59.0572 46.077L58.2733 47.0016L58.4229 45.9155L57.7856 45.5714L58.6593 44.9221L59.0483 43.7852Z" fill="white"/>
</g>
<g opacity="0.8">
<path opacity="0.8" d="M51.4692 51.4688L51.8611 52.1539L52.7348 51.7919L52.1065 52.866L52.2561 53.7816L51.4752 53.7606L50.6942 54.6822L50.8408 53.5991L50.2065 53.255L51.0802 52.6057L51.4692 51.4688Z" fill="white"/>
<path opacity="0.8" d="M55.2602 49.2786L55.6521 49.9637L56.5258 49.6047L55.8945 50.6788L56.0471 51.5944L55.2662 51.5704L54.4853 52.495L54.6319 51.4089L53.9976 51.0648L54.8682 50.4155L55.2602 49.2786Z" fill="white"/>
<path opacity="0.8" d="M59.0483 47.0918L59.4432 47.777L60.3139 47.4179L59.6856 48.4921L59.8382 49.4046L59.0572 49.3837L58.2733 50.3052L58.4229 49.2221L57.7856 48.878L58.6593 48.2288L59.0483 47.0918Z" fill="white"/>
<path opacity="0.8" d="M62.8388 44.9043L63.2308 45.5895L64.1044 45.2304L63.4761 46.3046L63.6287 47.2141L62.8448 47.1962L62.0639 48.1177L62.2105 47.0316L61.5762 46.6875L62.4528 46.0383L62.8388 44.9043Z" fill="white"/>
</g>
<g opacity="0.8">
<path opacity="0.8" d="M51.4692 54.772L51.8611 55.4571L52.7348 55.0981L52.1065 56.1722L52.2561 57.0848L51.4752 57.0639L50.6942 57.9884L50.8408 56.9023L50.2065 56.5582L51.0802 55.9089L51.4692 54.772Z" fill="white"/>
<path opacity="0.8" d="M55.2602 52.585L55.6521 53.2701L56.5258 52.9111L55.8945 53.9852L56.0471 54.8978L55.2662 54.8768L54.4853 55.7984L54.6319 54.7153L53.9976 54.3712L54.8682 53.7219L55.2602 52.585Z" fill="white"/>
<path opacity="0.8" d="M59.0483 50.3977L59.4432 51.0829L60.3139 50.7238L59.6856 51.798L59.8382 52.7075L59.0572 52.6896L58.2733 53.6111L58.4229 52.525L57.7856 52.1809L58.6593 51.5347L59.0483 50.3977Z" fill="white"/>
</g>
<path d="M35.5306 68.5979L31.0605 71.192V76.3652L34.7527 74.2289L35.5306 72.6222V68.5979Z" fill="#1F7BAC"/>
<path opacity="0.1" d="M35.5306 68.5979L31.0605 71.192V76.3652L34.7527 74.2289L35.5306 72.6222V68.5979Z" fill="#2395D2"/>
<path d="M34.7534 74.2288L35.5313 72.6221L34.7534 73.0709V74.2288Z" fill="#1F7BAC"/>
<path opacity="0.3" d="M34.7534 74.2288L35.5313 72.6221L34.7534 73.0709V74.2288Z" fill="#2395D2"/>
<path d="M36.4434 68.0772V69.1693L48.6448 62.1321V61.04L36.4434 68.0772Z" fill="#1F7BAC"/>
<path d="M36.4434 69.9503V71.0424L48.6448 64.0142V62.9221L36.4434 69.9503Z" fill="#1F7BAC"/>
<path d="M36.4434 71.7576V72.8497L44.9197 67.9847V66.8926L36.4434 71.7576Z" fill="#1F7BAC"/>
<g opacity="0.6">
<path opacity="0.6" d="M36.4438 68.0772V69.1693L48.6453 62.1321V61.04L36.4438 68.0772Z" fill="white"/>
<path opacity="0.6" d="M36.4438 69.9506V71.0427L48.6453 64.0144V62.9224L36.4438 69.9506Z" fill="white"/>
<path opacity="0.6" d="M36.4438 71.7576V72.8497L44.9202 67.9847V66.8926L36.4438 71.7576Z" fill="white"/>
</g>
<path d="M35.5306 75.5425L31.0605 78.1336V83.3097L34.7527 81.1705L35.5306 79.5637V75.5425Z" fill="#1F7BAC"/>
<path opacity="0.1" d="M35.5306 75.5425L31.0605 78.1336V83.3097L34.7527 81.1705L35.5306 79.5637V75.5425Z" fill="#2395D2"/>
<path d="M34.7534 81.1704L35.5313 79.5637L34.7534 80.0155V81.1704Z" fill="#1F7BAC"/>
<path opacity="0.3" d="M34.7534 81.1704L35.5313 79.5637L34.7534 80.0155V81.1704Z" fill="#2395D2"/>
<path d="M36.4434 75.0219V76.114L48.7794 69.002V67.9099L36.4434 75.0219Z" fill="#1F7BAC"/>
<path d="M36.4434 76.8948V77.9839L48.7794 70.8838V69.7917L36.4434 76.8948Z" fill="#1F7BAC"/>
<path d="M36.4434 78.702V79.7941L39.1152 78.2891V77.197L36.4434 78.702Z" fill="#1F7BAC"/>
<g opacity="0.6">
<path opacity="0.6" d="M36.4438 75.0219V76.114L48.7799 69.002V67.9099L36.4438 75.0219Z" fill="white"/>
<path opacity="0.6" d="M36.4438 76.8945V77.9836L48.7799 70.8836V69.7915L36.4438 76.8945Z" fill="white"/>
<path opacity="0.6" d="M36.4438 78.7018V79.7938L39.1157 78.2889V77.1968L36.4438 78.7018Z" fill="white"/>
</g>
<path d="M35.5306 82.4868L31.0605 85.0779V90.2511L34.7527 88.1148L35.5306 86.5081V82.4868Z" fill="#1F7BAC"/>
<path opacity="0.1" d="M35.5306 82.4868L31.0605 85.0779V90.2511L34.7527 88.1148L35.5306 86.5081V82.4868Z" fill="#2395D2"/>
<path d="M34.7534 88.1148L35.5313 86.5081L34.7534 86.9569V88.1148Z" fill="#1F7BAC"/>
<path opacity="0.3" d="M34.7534 88.1148L35.5313 86.5081L34.7534 86.9569V88.1148Z" fill="#2395D2"/>
<path d="M36.4434 81.9663V83.0554L48.8961 75.8267V74.7346L36.4434 81.9663Z" fill="#1F7BAC"/>
<path d="M36.4434 83.8362V84.9283L48.8961 77.7085V76.6165L36.4434 83.8362Z" fill="#1F7BAC"/>
<path d="M36.4434 85.6435V86.7356L48.8961 79.5308V78.4387L36.4434 85.6435Z" fill="#1F7BAC"/>
<g opacity="0.6">
<path opacity="0.6" d="M36.4438 81.9663V83.0554L48.8966 75.8267V74.7346L36.4438 81.9663Z" fill="white"/>
<path opacity="0.6" d="M36.4438 83.8362V84.9283L48.8966 77.7085V76.6165L36.4438 83.8362Z" fill="white"/>
<path opacity="0.6" d="M36.4438 85.6435V86.7356L48.8966 79.5308V78.4387L36.4438 85.6435Z" fill="white"/>
</g>
<path d="M67.4081 70.462L50.7875 80.0365C50.7382 80.0656 50.682 80.0812 50.6248 80.0815C50.5675 80.0818 50.5111 80.0669 50.4615 80.0383C50.4119 80.0097 50.3708 79.9684 50.3423 79.9187C50.3139 79.8689 50.2993 79.8125 50.2998 79.7552V61.0103C50.2995 60.8387 50.3444 60.6701 50.43 60.5214C50.5156 60.3728 50.6389 60.2493 50.7875 60.1635L67.4081 50.5712C67.4578 50.5428 67.5141 50.5281 67.5712 50.5283C67.6284 50.5286 67.6845 50.5439 67.7339 50.5727C67.7833 50.6015 67.8243 50.6428 67.8527 50.6924C67.8811 50.742 67.896 50.7982 67.8958 50.8554V69.6063C67.8978 69.7794 67.8536 69.9499 67.7679 70.1003C67.6822 70.2506 67.558 70.3755 67.4081 70.462Z" fill="#1F7BAC"/>
<path d="M56.1966 58.6375L51.7266 61.2315V66.4047L55.4217 64.2684L56.1966 62.6617V58.6375Z" fill="#1F7BAC"/>
<path opacity="0.3" d="M56.1966 58.6375L51.7266 61.2315V66.4047L55.4217 64.2684L56.1966 62.6617V58.6375Z" fill="#2395D2"/>
<path d="M55.4219 64.2686L56.1968 62.6619L55.4219 63.1107V64.2686Z" fill="#1F7BAC"/>
<path opacity="0.5" d="M55.4219 64.2686L56.1968 62.6619L55.4219 63.1107V64.2686Z" fill="#2395D2"/>
<path d="M57.2529 58.7486V59.4756L66.9231 53.8955V53.1685L57.2529 58.7486Z" fill="#1F7BAC"/>
<path d="M57.2529 60.7199L66.9231 55.1458V54.4187L57.2529 59.9928V60.7199Z" fill="#1F7BAC"/>
<path d="M57.2529 62.0036L66.9231 56.4235V55.6995L57.2529 61.2796V62.0036Z" fill="#1F7BAC"/>
<path d="M62.5308 59.4753L57.2529 62.5242V63.2513L62.5308 60.1994V59.4753Z" fill="#1F7BAC"/>
<path d="M51.7266 68.2481L66.923 59.5114V58.7874L51.7266 67.521V68.2481Z" fill="#1F7BAC"/>
<path d="M63.0005 62.2969L51.7266 68.7686V69.4927L63.0005 63.0239V62.2969Z" fill="#1F7BAC"/>
<path d="M51.7266 74.1272L66.923 65.3906V64.6665L51.7266 73.4002V74.1272Z" fill="#1F7BAC"/>
<path d="M60.17 69.8008L51.7266 74.6449V75.3719L60.17 70.5249V69.8008Z" fill="#1F7BAC"/>
<path d="M51.7266 76.6556L66.923 67.9219V67.1948L51.7266 75.9315V76.6556Z" fill="#1F7BAC"/>
<path d="M51.7266 77.9034L59.3263 73.5381V72.811L51.7266 77.1764V77.9034Z" fill="#1F7BAC"/>
<path d="M60.374 72.9333L62.7557 71.5659V70.8389L60.374 72.2092V72.9333Z" fill="#1F7BAC"/>
<path d="M51.7266 70.7791L66.923 62.0424V61.3184L51.7266 70.052V70.7791Z" fill="#1F7BAC"/>
<path d="M57.0284 68.2507L51.7266 71.2966V72.0237L57.0284 68.9778V68.2507Z" fill="#1F7BAC"/>
<g opacity="0.3">
<path opacity="0.3" d="M57.2529 58.7481V59.4751L66.9231 53.895V53.168L57.2529 58.7481Z" fill="white"/>
<path opacity="0.3" d="M57.2529 60.7199L66.9231 55.1458V54.4187L57.2529 59.9928V60.7199Z" fill="white"/>
<path opacity="0.3" d="M57.2529 62.0036L66.9231 56.4235V55.6995L57.2529 61.2796V62.0036Z" fill="white"/>
<path opacity="0.3" d="M62.5308 59.4753L57.2529 62.5242V63.2513L62.5308 60.1994V59.4753Z" fill="white"/>
<path opacity="0.3" d="M51.7266 68.2478L66.923 59.5112V58.7871L51.7266 67.5208V68.2478Z" fill="white"/>
<path opacity="0.3" d="M63.0005 62.2966L51.7266 68.7683V69.4924L63.0005 63.0237V62.2966Z" fill="white"/>
<path opacity="0.3" d="M51.7266 74.127L66.923 65.3903V64.6663L51.7266 73.3999V74.127Z" fill="white"/>
<path opacity="0.3" d="M60.17 69.8008L51.7266 74.6449V75.3719L60.17 70.5249V69.8008Z" fill="white"/>
<path opacity="0.3" d="M51.7266 76.6553L66.923 67.9216V67.1946L51.7266 75.9312V76.6553Z" fill="white"/>
<path opacity="0.3" d="M51.7266 77.9029L59.3263 73.5376V72.8105L51.7266 77.1759V77.9029Z" fill="white"/>
<path opacity="0.3" d="M60.374 72.9333L62.7557 71.5659V70.8389L60.374 72.2092V72.9333Z" fill="white"/>
<path opacity="0.3" d="M51.7266 70.7791L66.923 62.0424V61.3184L51.7266 70.052V70.7791Z" fill="white"/>
<path opacity="0.3" d="M57.0284 68.251L51.7266 71.2968V72.0239L57.0284 68.978V68.251Z" fill="white"/>
</g>
<path d="M72.7008 115.692C73.0393 116.017 73.4412 116.268 73.8814 116.431C74.3217 116.593 74.7906 116.662 75.259 116.635C76.1955 116.574 77.1131 116.343 77.9667 115.952C78.8314 115.596 79.9175 114.6 80.854 114.618C81.7733 114.616 82.6915 114.558 83.6037 114.444C83.6354 113.197 83.5046 111.951 83.2147 110.737L78.8464 110.621C77.6675 112.236 75.3727 113.58 73.6373 114.085C73.3703 114.161 73.1288 114.308 72.9391 114.51C72.7493 114.713 72.6183 114.963 72.5602 115.234C72.5587 115.243 72.5587 115.252 72.5602 115.261C72.5887 115.41 72.6359 115.555 72.7008 115.692Z" fill="#37474F"/>
<path d="M80.8542 114.618C79.9177 114.6 78.8316 115.596 77.9669 115.952C77.1133 116.343 76.1957 116.574 75.2592 116.635C74.7908 116.662 74.3218 116.593 73.8816 116.431C73.4414 116.268 73.0395 116.017 72.701 115.692C72.632 115.552 72.5817 115.403 72.5514 115.249C72.5499 115.24 72.5499 115.231 72.5514 115.222C72.5096 115.414 72.5096 115.612 72.5514 115.803C72.5815 115.957 72.6318 116.107 72.701 116.249C73.04 116.572 73.4421 116.823 73.8823 116.985C74.3224 117.146 74.7911 117.216 75.2592 117.188C76.1957 117.127 77.1133 116.896 77.9669 116.506C78.8316 116.15 79.9177 115.154 80.8542 115.171C81.7543 115.181 82.654 115.129 83.547 115.016C83.571 114.821 83.5829 114.627 83.5919 114.417C82.6842 114.54 81.77 114.607 80.8542 114.618Z" fill="#263238"/>
<path d="M94.3121 118.128C94.3163 118.605 94.2691 119.082 94.1714 119.549C94.0233 120.381 93.5605 121.125 92.8789 121.625C92.2487 121.984 91.5363 122.172 90.8114 122.173C90.1754 122.241 89.5322 122.175 88.9235 121.978C88.463 121.814 88.0725 121.497 87.8164 121.081C87.8164 121.081 87.8164 121.099 87.8164 121.105C87.9051 121.412 88.0672 121.693 88.2887 121.924C88.5102 122.155 88.7845 122.329 89.088 122.43C89.6978 122.627 90.342 122.693 90.979 122.625C91.703 122.625 92.4146 122.436 93.0434 122.077C93.7266 121.578 94.1917 120.836 94.342 120.004C94.4397 119.536 94.4868 119.06 94.4826 118.582C94.4854 118.256 94.5544 117.934 94.6856 117.635C94.8167 117.336 95.0073 117.067 95.2456 116.844C95.3623 116.735 95.4732 116.621 95.5777 116.5C95.6514 116.416 95.7074 116.317 95.7424 116.211C95.7773 116.105 95.7905 115.992 95.7811 115.881C95.7811 115.795 95.7722 115.708 95.7542 115.62C95.5807 115.824 95.1768 116.303 95.075 116.398C94.8378 116.62 94.6479 116.888 94.5168 117.185C94.3857 117.482 94.316 117.803 94.3121 118.128Z" fill="#263238"/>
<path d="M90.7279 113.173C90.8818 114.148 90.7553 115.148 90.3629 116.054C89.9688 116.955 89.4556 117.799 88.837 118.564C88.5347 118.926 88.2672 119.316 88.0381 119.728C87.8147 120.138 87.7346 120.611 87.8107 121.072C88.0668 121.488 88.4573 121.805 88.9177 121.969C89.5265 122.165 90.1697 122.232 90.8057 122.164C91.5319 122.167 92.2464 121.981 92.8792 121.625C93.5623 121.126 94.0274 120.384 94.1777 119.552C94.2754 119.084 94.3225 118.608 94.3183 118.13C94.3211 117.804 94.3901 117.482 94.5213 117.183C94.6525 116.884 94.843 116.615 95.0813 116.392C95.183 116.296 95.5869 115.818 95.7605 115.614C95.665 114.903 95.4258 114.219 95.0573 113.603L90.7279 113.173Z" fill="#37474F"/>
<path d="M78.2632 72.3111C78.2632 72.3111 77.1023 86.8223 77.2041 90.8616C77.3058 94.9008 77.7307 110.848 77.7307 110.848C80.1033 112.171 83.5322 111.186 83.5322 111.186C83.8104 98.4523 85.0701 95.7146 84.2144 91.0531C84.8128 87.5943 85.6535 79.5308 85.6535 79.5308C86.8354 89.2279 87.6941 94.2246 87.6941 94.2246L90.5185 113.637C92.8373 114.789 95.7635 113.637 95.7635 113.637C95.7635 102.566 96.0148 97.8898 94.8031 90.5983C94.7934 84.1472 94.3937 77.7026 93.6063 71.2998L78.2632 72.3111Z" fill="#455A64"/>
<path opacity="0.2" d="M81.0669 76.0598C81.8777 77.9478 84.415 77.9478 84.415 77.9478L84.8697 80.099L84.6992 87.7406C85.1869 84.0245 85.6537 79.5276 85.6537 79.5276L85.3395 77.2297C83.8258 77.316 82.3255 76.9051 81.0669 76.0598Z" fill="#2395D2"/>
<path d="M82.135 49.8171C78.1705 49.8171 77.5213 51.358 76.519 53.9132C75.5166 56.4684 74.7417 61.0312 74.7417 61.0312L78.5745 60.2054L80.0705 51.5734L82.135 49.8171Z" fill="#455A64"/>
<path d="M78.5745 59.58C77.5722 59.5116 76.5687 59.6936 75.6543 60.1096C75.2919 60.2543 74.9704 60.4854 74.7178 60.7828C74.5948 60.9339 74.5149 61.1154 74.4865 61.3081C74.4581 61.5008 74.4822 61.6977 74.5562 61.8778C74.1912 62.5481 74.2241 63.5444 74.2989 64.3642C74.3064 64.5224 74.3408 64.6783 74.4006 64.825C74.4319 64.8969 74.4787 64.961 74.5377 65.0127C74.5967 65.0644 74.6663 65.1025 74.7417 65.1242L78.5745 61.6774V59.58Z" fill="#37474F"/>
<path opacity="0.2" d="M77.2612 60.4297C75.8998 60.322 74.9155 61.1059 74.4727 61.5069C74.4738 61.6351 74.5023 61.7616 74.5564 61.8779C74.8706 61.4021 76.208 60.5375 77.2612 60.4297Z" fill="#2395D2"/>
<path opacity="0.2" d="M75.7739 61.7282C76.6252 61.2378 77.592 60.9837 78.5745 60.9922V60.675C77.548 60.6954 76.5595 61.0672 75.7739 61.7282Z" fill="#2395D2"/>
<path d="M93.1216 50.0684L91.2605 49.8709L82.1349 49.8081C78.9365 49.8081 78.5266 53.7426 78.344 57.2253C78.1615 60.708 78.748 67.7123 77.9551 72.3918L81.7639 74.8512L82.8321 73.6993L84.5375 75.2881C90.327 75.2881 93.7379 72.0746 94.1718 71.5211L93.1216 50.0684Z" fill="#1F7BAC"/>
<path opacity="0.2" d="M93.1216 50.0684L91.2605 49.8709L82.1349 49.8081C78.9365 49.8081 78.5266 53.7426 78.344 57.2253C78.1615 60.708 78.748 67.7123 77.9551 72.3918L81.7639 74.8512L82.8321 73.6993L84.5375 75.2881C90.327 75.2881 93.7379 72.0746 94.1718 71.5211L93.1216 50.0684Z" fill="white"/>
<path d="M83.6248 51.0137C82.772 53.7305 83.3076 57.5183 83.6248 59.2208C85.788 56.2497 87.8136 53.2667 88.4449 52.0998L85.4289 50.6367L83.6248 51.0137Z" fill="#455A64"/>
<path opacity="0.2" d="M83.3372 59.4304L82.3558 60.7469C82.0872 61.1076 81.9547 61.5516 81.9818 62.0006L82.6401 72.9483L81.5091 62.0843C81.4767 61.7789 81.5189 61.4702 81.632 61.1846C81.7451 60.8991 81.9257 60.6452 82.1584 60.4447L83.3372 59.4304Z" fill="#2395D2"/>
<path d="M93.1214 50.0686L94.3601 50.2661C95.0913 50.3837 95.7693 50.7213 96.3038 51.2339C96.8383 51.7465 97.204 52.4098 97.3521 53.1354C98.0449 56.5915 98.3152 60.119 98.1569 63.6404L92.508 61.0373C91.9036 56.6211 90.7427 52.9738 93.1214 50.0686Z" fill="#455A64"/>
<path d="M92.311 61.2078C92.311 61.155 92.3215 61.1028 92.3419 61.0541C92.3623 61.0054 92.3921 60.9613 92.4297 60.9243C92.4673 60.8872 92.5119 60.8581 92.5608 60.8384C92.6098 60.8188 92.6622 60.8091 92.715 60.8099C95.2731 60.8428 97.7565 62.0605 98.4357 63.5027C98.5905 63.9504 98.5905 64.4372 98.4357 64.885C98.8905 65.4834 98.6541 65.7826 98.4147 66.2104C98.1754 66.6383 98.5344 67.6077 97.7625 67.5628L97.942 67.1948C96.4131 64.2297 92.5564 63.006 92.5564 63.006L92.5354 62.5153C92.533 62.4708 92.5216 62.4272 92.5021 62.3872C92.4826 62.3471 92.4553 62.3113 92.4217 62.2819C92.3867 62.2501 92.3588 62.2113 92.3397 62.168C92.3206 62.1247 92.3109 62.0779 92.311 62.0306V61.2078Z" fill="#37474F"/>
<path opacity="0.2" d="M95.2041 62.4285C96.4584 62.9779 97.5655 63.8154 98.4355 64.8729C98.4848 64.722 98.5199 64.5667 98.5402 64.4092C98.1153 63.8796 97.1968 62.9042 95.2041 62.4285Z" fill="#2395D2"/>
<path opacity="0.2" d="M92.3257 62.123C92.344 62.1813 92.377 62.2338 92.4214 62.2756C92.455 62.305 92.4823 62.3408 92.5018 62.3809C92.5213 62.4209 92.5327 62.4645 92.5351 62.509V62.5479C94.3233 62.8239 95.977 63.6623 97.2565 64.9415C96.0747 63.2271 93.4776 62.3474 92.3257 62.123Z" fill="#2395D2"/>
<path d="M92.5558 62.9995L92.5349 62.5478C88.2025 61.0518 80.5668 61.351 78.3288 61.321C76.6832 61.321 74.3824 63.951 74.5529 64.9922C74.7234 66.0334 74.7414 66.9281 76.752 67.0866C78.1732 67.1764 80.9109 66.6318 80.9109 66.6318C88.4598 68.9507 95.7423 68.5408 96.8703 68.3343C97.4089 68.2565 97.7679 67.5384 97.7679 67.5384L97.9474 67.1704C96.4125 64.2173 92.5558 62.9995 92.5558 62.9995Z" fill="#DE9E8A"/>
<path d="M95.4224 65.1481C95.3075 64.7718 95.1261 64.4192 94.8868 64.1069C94.1535 63.6523 93.3717 63.281 92.556 62.9999L92.5351 62.5481L92.2538 62.4553L92.3107 63.0148C91.078 63.0986 83.8523 66.0547 80.9111 66.6441C81.4886 66.8207 82.0601 66.9792 82.6285 67.1259C85.9198 65.9859 90.4437 63.7419 92.5351 63.4187C93.9922 63.7928 94.7402 64.1787 95.4224 65.1481Z" fill="#B68373"/>
<path d="M91.8109 41.948C92.2627 40.434 92.1639 38.6927 91.2574 37.3971C90.6607 36.5746 89.8248 35.956 88.8637 35.6259C87.9022 35.2986 86.8848 35.1673 85.8717 35.2399C85.0727 35.255 84.2866 35.4439 83.5679 35.7934C83.1375 36.0231 82.7566 36.3354 82.447 36.7125C82.1375 37.0895 81.9053 37.5239 81.7639 37.9908C81.6224 38.4577 81.5744 38.9479 81.6227 39.4334C81.6709 39.9189 81.8144 40.39 82.045 40.82C82.4326 41.4813 82.9399 42.0647 83.541 42.5404C84.7024 43.5339 85.978 44.3857 87.3408 45.0776C87.6819 45.2512 88.029 45.4127 88.379 45.5653C88.6154 45.67 89.0672 45.9633 89.3335 45.9094C89.5998 45.8555 89.881 45.3559 90.0426 45.1524C90.273 44.8532 90.4974 44.554 90.7008 44.2548C91.1813 43.5441 91.5553 42.7669 91.8109 41.948Z" fill="#263238"/>
<path d="M84.8843 53.5152L84.1422 53.3386C83.7829 54.2884 83.4831 55.2597 83.2446 56.2469C83.3228 57.2504 83.4536 58.2491 83.6366 59.2389C84.0614 58.6554 84.4803 58.075 84.8843 57.5035C84.7501 56.1774 84.7501 54.8412 84.8843 53.5152Z" fill="#1F7BAC"/>
<path opacity="0.2" d="M84.8694 53.6737C84.8694 53.6199 84.8694 53.566 84.8694 53.5152L84.1273 53.3386C84.1273 53.3386 84.1094 53.3805 84.0854 53.4493C84.2048 53.558 84.3501 53.6343 84.5073 53.6707C84.6267 53.6945 84.7496 53.6955 84.8694 53.6737Z" fill="#2395D2"/>
<path d="M85.2852 51.5674L85.8836 51.1904L87.2479 51.9325C86.782 52.2927 86.2242 52.5146 85.6382 52.5727L85.2852 51.5674Z" fill="#1F7BAC"/>
<path d="M84.3818 51.4208L84.2023 51.0139L83.5142 51.4448C83.5886 51.7061 83.7461 51.9362 83.963 52.1L84.3818 51.4208Z" fill="#1F7BAC"/>
<path opacity="0.2" d="M85.2852 51.5674L85.8836 51.1904L87.2479 51.9325C86.782 52.2927 86.2242 52.5146 85.6382 52.5727L85.2852 51.5674Z" fill="#2395D2"/>
<path opacity="0.2" d="M84.3818 51.4208L84.2023 51.0139L83.5142 51.4448C83.5886 51.7061 83.7461 51.9362 83.963 52.1L84.3818 51.4208Z" fill="#2395D2"/>
<path d="M85.6262 52.5728C85.5677 52.2215 85.4525 51.8819 85.2851 51.5675L84.3875 51.4209C84.2221 51.6325 84.0815 51.8624 83.9686 52.1061C83.9484 52.5247 84.0094 52.9433 84.1482 53.3388C84.3773 53.4576 84.6321 53.5182 84.8902 53.5153C85.228 53.2858 85.4854 52.9562 85.6262 52.5728Z" fill="#1F7BAC"/>
<path d="M89.4469 44.5781V48.7101C88.6241 49.8441 85.1683 51.2832 84.9589 51.2473C84.7075 51.2054 84.9589 48.9794 84.9589 48.7849V47.1243C85.6291 47.0226 86.2903 46.9059 86.8827 46.7802C87.4616 46.6603 88.0005 46.3953 88.449 46.0101C88.8975 45.625 89.2409 45.1322 89.4469 44.5781Z" fill="#DE9E8A"/>
<path d="M86.4731 47.7465C85.982 47.8736 85.4818 47.9627 84.9771 48.0127V47.1151C85.6473 47.0134 86.3085 46.8967 86.9009 46.7711C87.4411 46.658 87.9467 46.4181 88.3759 46.0711C88.8051 45.7241 89.1456 45.28 89.3693 44.7754C89.2595 45.4713 88.9473 46.1196 88.4717 46.6394C87.9171 47.1813 87.2267 47.5638 86.4731 47.7465Z" fill="#B68373"/>
<path d="M82.3857 38.0703C83.063 38.7229 83.9588 39.1005 84.899 39.1295C85.7966 39.1295 86.6403 38.8452 87.4931 38.6119C87.5733 39.027 87.7828 39.4061 88.0915 39.695C88.4308 39.983 88.8467 40.166 89.2883 40.2216C89.1642 41.0146 89.1642 41.8221 89.2883 42.6152C89.2986 42.6988 89.3321 42.7778 89.385 42.8433C89.4378 42.9089 89.508 42.9584 89.5875 42.9862C89.8867 43.07 90.0662 42.7767 90.2038 42.5374C90.3527 42.2586 90.5673 42.0203 90.8292 41.8432C90.9595 41.7549 91.1097 41.7003 91.2663 41.6841C91.4229 41.6679 91.5811 41.6907 91.7268 41.7505C91.8415 41.8089 91.9429 41.8903 92.0248 41.9896C92.1067 42.089 92.1671 42.2042 92.2025 42.3279C92.2722 42.5772 92.2855 42.8389 92.2414 43.0939C92.1875 43.5215 92.0155 43.9255 91.7447 44.2608C91.6081 44.4263 91.4392 44.5624 91.2484 44.6606C91.0576 44.7588 90.8488 44.8172 90.6347 44.8323C90.4259 44.8506 90.2161 44.8111 90.0283 44.7183C89.8404 44.6254 89.6817 44.4826 89.5695 44.3057L89.5486 44.3835C89.5192 44.5099 89.4802 44.6339 89.4319 44.7545C89.2433 45.2562 88.931 45.7021 88.5241 46.051C88.1172 46.3999 87.6287 46.6403 87.1041 46.7501C86.5626 46.8638 85.9612 46.9715 85.3508 47.0493C85.0516 47.0942 84.7524 47.1391 84.4532 47.175C83.8981 47.2414 83.3388 47.0922 82.8906 46.7581C82.4424 46.424 82.1396 45.9307 82.0446 45.3798C81.6377 43.0909 81.509 40.3772 82.3857 38.0703Z" fill="#DE9E8A"/>
<path d="M80.7559 40.6434V41.1939L80.8905 41.2717C80.9656 41.6291 81.0077 41.9927 81.0162 42.3578C81.0251 42.7132 81.1585 43.0542 81.3931 43.3213C81.6832 43.5356 82.0425 43.6348 82.4015 43.5995C82.688 43.6253 82.9765 43.5812 83.2422 43.4709C83.5516 43.2869 83.7802 42.9931 83.8825 42.6481C84.0052 42.304 83.9842 42.1035 84.1338 41.6876C84.1528 41.6314 84.189 41.5826 84.2374 41.5482C84.2858 41.5138 84.3438 41.4956 84.4031 41.4961C84.4669 41.4919 84.5304 41.5082 84.5842 41.5427C84.6381 41.5771 84.6794 41.6279 84.7023 41.6876C84.8609 42.1035 84.8399 42.304 84.9686 42.6481C85.084 42.9995 85.329 43.2937 85.6538 43.4709C85.9395 43.5806 86.2463 43.6246 86.5514 43.5995C86.9319 43.6356 87.3131 43.5372 87.6285 43.3213C87.8775 43.0613 88.0204 42.7177 88.0294 42.3578C88.0394 41.9923 88.0845 41.6286 88.1641 41.2717L88.3107 41.1939V40.6434C87.723 40.3997 87.084 40.3057 86.4511 40.37C85.8182 40.4342 85.2111 40.6546 84.6844 41.0114H84.1578C83.6739 40.6547 83.1041 40.4328 82.5065 40.3681C81.9089 40.3035 81.3048 40.3984 80.7559 40.6434ZM84.9447 41.185C85.4999 40.8366 86.1413 40.6501 86.7967 40.6464C87.1072 40.6466 87.4162 40.6889 87.7153 40.7721C87.7392 41.1909 87.7542 41.7714 87.7362 42.0347C87.7362 42.1304 87.7362 42.2262 87.7153 42.3189C87.7148 42.6036 87.6081 42.8778 87.4161 43.0879C87.1502 43.26 86.8335 43.336 86.5185 43.3033H86.3988C86.1793 43.3161 85.9596 43.2803 85.7555 43.1986C85.4975 43.0543 85.3031 42.8182 85.211 42.5373C85.0837 42.2005 84.9953 41.8501 84.9477 41.4931L84.9267 41.2957C84.9267 41.2957 84.9297 41.2029 84.9596 41.185H84.9447ZM81.2735 40.7721C81.5532 40.689 81.8434 40.6466 82.1352 40.6464C82.7522 40.6512 83.3539 40.8386 83.8646 41.185C83.8945 41.2029 83.8855 41.2957 83.8855 41.2957L83.8675 41.4931C83.8227 41.8492 83.7395 42.1993 83.6192 42.5373C83.5374 42.8132 83.3562 43.0488 83.1106 43.1986C82.9221 43.2799 82.7171 43.3157 82.5122 43.3033H82.4074C82.1123 43.334 81.816 43.2576 81.5727 43.0879C81.3831 42.8763 81.2768 42.603 81.2735 42.3189C81.2735 42.2262 81.2735 42.1304 81.2525 42.0347C81.2525 41.7714 81.2675 41.1909 81.2884 40.7721H81.2735Z" fill="#37474F"/>
<path d="M88.3013 40.6436L91.2544 41.7057C91.0419 41.7441 90.8429 41.8369 90.6769 41.975C90.644 42.0019 88.3013 41.1941 88.3013 41.1941V40.6436Z" fill="#37474F"/>
<path d="M84.4148 41.5413L82.9248 43.3454L84.2921 43.8272L84.4148 41.5413Z" fill="#9C5C5C"/>
<path d="M84.4148 41.5413L82.9248 43.3454L84.2921 43.8272L84.4148 41.5413Z" fill="#BD8776"/>
<path d="M86.5185 41.7656C86.5191 41.8468 86.4956 41.9263 86.4509 41.9941C86.4062 42.0619 86.3424 42.1149 86.2676 42.1464C86.1927 42.1779 86.1102 42.1864 86.0305 42.171C85.9508 42.1555 85.8775 42.1167 85.8199 42.0595C85.7622 42.0023 85.7229 41.9292 85.7068 41.8496C85.6908 41.77 85.6987 41.6875 85.7296 41.6124C85.7606 41.5373 85.8131 41.4731 85.8806 41.4279C85.9481 41.3828 86.0274 41.3587 86.1086 41.3587C86.1623 41.3583 86.2155 41.3685 86.2653 41.3888C86.315 41.409 86.3602 41.439 86.3983 41.4768C86.4364 41.5146 86.4666 41.5596 86.4873 41.6092C86.5079 41.6587 86.5185 41.7119 86.5185 41.7656Z" fill="#263238"/>
<path d="M83.0835 41.6547C83.0841 41.7358 83.0606 41.8152 83.0161 41.883C82.9715 41.9507 82.9079 42.0037 82.8332 42.0353C82.7585 42.0668 82.6762 42.0755 82.5965 42.0603C82.5169 42.0451 82.4436 42.0066 82.3859 41.9497C82.3281 41.8928 82.2885 41.82 82.2721 41.7406C82.2557 41.6612 82.2633 41.5787 82.2937 41.5036C82.3242 41.4285 82.3763 41.3641 82.4434 41.3186C82.5104 41.273 82.5895 41.2484 82.6706 41.2478C82.7244 41.2474 82.7778 41.2576 82.8277 41.2779C82.8775 41.2981 82.923 41.328 82.9613 41.3658C82.9996 41.4035 83.0302 41.4485 83.0511 41.4981C83.0721 41.5477 83.0831 41.6009 83.0835 41.6547Z" fill="#263238"/>
<path d="M83.305 39.8389L82.21 39.9646C82.2298 39.8471 82.2842 39.7382 82.3663 39.6519C82.4484 39.5655 82.5544 39.5056 82.6707 39.4799C82.7995 39.4743 82.9272 39.5051 83.0393 39.5685C83.1515 39.632 83.2435 39.7257 83.305 39.8389Z" fill="#263238"/>
<path d="M85.6987 39.9434H86.7998C86.768 39.8285 86.7015 39.7264 86.6094 39.6508C86.5172 39.5753 86.404 39.5301 86.2852 39.5215C86.1579 39.5305 86.0357 39.5748 85.9321 39.6493C85.8286 39.7238 85.7478 39.8256 85.6987 39.9434Z" fill="#263238"/>
<path d="M85.8658 44.551L84.292 45.0297C84.3917 45.2149 84.549 45.3627 84.7401 45.4507C84.9311 45.5386 85.1456 45.5621 85.3512 45.5174C85.7371 45.4187 85.9137 44.949 85.8658 44.551Z" fill="#9C5C5C"/>
<path d="M85.8658 44.551L84.292 45.0297C84.3917 45.2149 84.549 45.3627 84.7401 45.4507C84.9311 45.5386 85.1456 45.5621 85.3512 45.5174C85.7371 45.4187 85.9137 44.949 85.8658 44.551Z" fill="#5E2828"/>
<path d="M84.8369 45.4935C85.0018 45.5536 85.1808 45.564 85.3515 45.5234C85.4976 45.4685 85.6242 45.3716 85.7152 45.2449C85.8063 45.1181 85.8578 44.9673 85.8632 44.8113C85.657 44.7819 85.4468 44.8208 85.2648 44.922C85.0521 45.0483 84.8982 45.2538 84.8369 45.4935Z" fill="#9C5C5C"/>
<path d="M84.8369 45.4935C85.0018 45.5536 85.1808 45.564 85.3515 45.5234C85.4976 45.4685 85.6242 45.3716 85.7152 45.2449C85.8063 45.1181 85.8578 44.9673 85.8632 44.8113C85.657 44.7819 85.4468 44.8208 85.2648 44.922C85.0521 45.0483 84.8982 45.2538 84.8369 45.4935Z" fill="#803E3E"/>
<path d="M84.9683 51.2473C86.4014 51.2233 87.2781 52.3663 88.5886 52.7433L91.2605 49.859L90.2252 48.3211C90.0177 48.0147 89.7487 47.7549 89.4353 47.5581V48.1146C89.4321 48.2776 89.3869 48.4371 89.3041 48.5775C89.2213 48.718 89.1037 48.8347 88.9626 48.9165L84.9683 51.2473Z" fill="#37474F"/>
<path d="M84.9681 51.2473C84.1723 51.002 82.9814 51.9983 82.9814 51.9983C83.3973 49.6915 84.657 48.7849 84.9651 48.7849L84.9681 51.2473Z" fill="#37474F"/>
</svg>
