<svg width="94" height="99" viewBox="0 0 94 99" fill="none" xmlns="http://www.w3.org/2000/svg">
<path fill-rule="evenodd" clip-rule="evenodd" d="M51.2471 10.0369C60.4997 9.52231 69.12 14.4633 76.3687 20.2117C83.3702 25.7641 88.4085 33.2455 91.1929 41.7153C93.982 50.1996 94.2019 59.1692 92.0223 67.8287C89.7134 77.0016 86.1707 86.4083 78.5296 92.0252C70.8622 97.6614 60.6781 99.1717 51.2471 97.8021C42.5914 96.545 36.3072 89.9274 29.1931 84.8601C22.0126 79.7455 13.1412 76.16 9.57452 68.119C5.84837 59.7184 6.36604 49.7489 9.84701 41.2448C13.1905 33.0765 21.0219 28.2214 28.085 22.8971C35.3097 17.451 42.1994 10.5401 51.2471 10.0369Z" fill="#238CC4"/>
<path d="M83.0333 46.2084H76.7667C76.5608 46.2089 76.3568 46.1687 76.1665 46.0901C75.9762 46.0116 75.8034 45.8962 75.6578 45.7506C75.5122 45.605 75.3968 45.4321 75.3183 45.2418C75.2397 45.0515 75.1995 44.8476 75.2 44.6417V43.7636C78.9094 41.4753 81.563 37.8126 82.5816 33.5748C83.9879 33.3207 85.2651 32.5936 86.2014 31.5141C87.1378 30.4345 87.6771 29.0673 87.7298 27.6392C87.7825 26.2111 87.3456 24.8079 86.4914 23.6622C85.6372 22.5165 84.4171 21.6972 83.0333 21.3401V14.8751C83.0297 12.1267 81.9954 9.47963 80.1348 7.45682C78.2742 5.43401 75.7226 4.18257 72.9841 3.94972C72.3242 2.96897 71.4325 2.16614 70.3881 1.61238C69.3437 1.05862 68.1788 0.771018 66.9967 0.775067H61.1C57.3617 0.779265 53.7778 2.26614 51.1344 4.9095C48.4911 7.55285 47.0042 11.1368 47 14.8751V19.5751C47 19.9906 47.1651 20.3891 47.4589 20.6829C47.7527 20.9767 48.1512 21.1417 48.5667 21.1417H50.1333V21.3393C48.7503 21.6964 47.5307 22.5152 46.6766 23.6602C45.8225 24.8052 45.3853 26.2076 45.4372 27.635C45.4892 29.0625 46.0273 30.4294 46.9623 31.5093C47.8974 32.5891 49.1733 33.3171 50.5787 33.5726C50.6194 33.7446 50.6629 33.9158 50.7091 34.0863L53.7326 33.2638C53.4225 32.1212 53.2658 30.9424 53.2667 29.7584V21.0943C59.4533 20.7986 65.4787 19.0227 70.8368 15.9159C71.2689 17.566 72.1062 19.0821 73.2726 20.3266C74.439 21.5712 75.8977 22.5048 77.5163 23.0429L79.9 23.8376V29.7584C79.8998 32.2018 79.2274 34.598 77.9564 36.6848C76.6854 38.7716 74.8648 40.4685 72.6938 41.5898C70.5229 42.7111 68.0854 43.2136 65.648 43.0422C63.2106 42.8708 60.8674 42.0322 58.8747 40.6181L57.0586 43.1714C57.8398 43.7263 58.6678 44.2121 59.5333 44.6231V44.6417C59.5329 45.0571 59.3677 45.4553 59.074 45.749C58.7803 46.0427 58.382 46.2079 57.9667 46.2084H56.4V41.5084C56.3981 39.8469 55.7373 38.2541 54.5625 37.0793C53.3876 35.9044 51.7948 35.2436 50.1333 35.2417H6.26667C4.60522 35.2436 3.01235 35.9044 1.83753 37.0793C0.662701 38.2541 0.00186598 39.8469 0 41.5084V49.3417H3.13333V41.5084C3.13432 40.6777 3.13333 39.275 3.13333 39.275V43.0751H53.2667V39.275C53.2667 39.275 53.2657 40.6777 53.2667 41.5084C53.2677 42.3391 53.2667 69.7084 53.2667 69.7084C53.2657 70.5391 52.9353 71.3355 52.3479 71.9229C51.7604 72.5103 50.964 72.8407 50.1333 72.8417H32.8236L34.4318 65.3366C34.4808 65.1082 34.478 64.8717 34.4237 64.6445C34.3695 64.4173 34.2651 64.2051 34.1183 64.0235C33.9714 63.8418 33.7858 63.6953 33.575 63.5946C33.3642 63.494 33.1336 63.4417 32.9 63.4417H21.9333C21.6267 63.4417 21.3269 63.5317 21.0709 63.7005C20.8149 63.8693 20.6141 64.1095 20.4934 64.3913L16.8718 72.8417H6.26667C5.43596 72.8407 4.63955 72.5103 4.05215 71.9229C3.46475 71.3355 3.13432 70.5391 3.13333 69.7084V49.3417H0V69.7084C0.00186598 71.3699 0.662701 72.9627 1.83753 74.1375C3.01235 75.3124 4.60522 75.9732 6.26667 75.9751H15.5296L11.5003 85.3751H1.56667C1.15116 85.3751 0.752673 85.5401 0.458866 85.8339C0.165059 86.1277 0 86.5262 0 86.9417V93.2084C0 93.6239 0.165059 94.0224 0.458866 94.3162C0.752673 94.61 1.15116 94.7751 1.56667 94.7751H92.4333C92.8488 94.7751 93.2473 94.61 93.5411 94.3162C93.8349 94.0224 94 93.6239 94 93.2084V86.9417C94 86.5262 93.8349 86.1277 93.5411 85.8339C93.2473 85.5401 92.8488 85.3751 92.4333 85.3751H89.7434C91.0809 84.2013 92.1525 82.7557 92.8866 81.1346C93.6206 79.5136 94.0002 77.7546 94 75.9751V74.4084H90.8667V75.9751C90.8638 78.4672 89.8726 80.8565 88.1103 82.6187C86.3481 84.3809 83.9588 85.3722 81.4667 85.3751H56.4V82.2417C56.4015 80.9957 56.8971 79.801 57.7782 78.9199C58.6593 78.0388 59.8539 77.5432 61.1 77.5417H81.4667C81.8822 77.5417 82.2807 77.3767 82.5745 77.0829C82.8683 76.7891 83.0333 76.3906 83.0333 75.9751V65.0084H90.8667V74.4084H94V57.1751C93.9967 54.2675 92.8402 51.4801 90.7843 49.4241C88.7283 47.3682 85.9409 46.2117 83.0333 46.2084ZM83.0333 29.7584V24.699C83.4494 24.9388 83.8046 25.2711 84.0716 25.6702C84.3386 26.0693 84.5102 26.5244 84.5731 27.0005C84.6359 27.4765 84.5884 27.9606 84.4341 28.4153C84.2799 28.87 84.023 29.2832 83.6835 29.6227C83.4866 29.818 83.2649 29.9866 83.0241 30.1242C83.0267 30.0022 83.0333 29.881 83.0333 29.7584ZM48.5667 27.4084C48.5659 26.9971 48.6464 26.5897 48.8037 26.2097C48.961 25.8297 49.1919 25.4845 49.4832 25.1941C49.6775 25.0014 49.8961 24.8347 50.1333 24.6983V29.7584C50.1333 29.8796 50.1367 30.0004 50.1394 30.1215C49.662 29.8473 49.2653 29.4521 48.9892 28.9758C48.7131 28.4996 48.5674 27.9589 48.5667 27.4084ZM70.5 12.4585C64.7804 16.0897 58.1441 18.0149 51.3692 18.0084H50.1333V16.2633C63.5446 14.5069 68.2734 9.91715 68.4745 9.71623L66.2688 7.49078C66.2575 7.50175 65.1179 8.58529 62.3674 9.83784C60.0537 10.8916 56.1454 12.2611 50.2824 13.0812C50.4492 12.0689 50.7585 11.0852 51.2008 10.1594C57.0621 9.99392 60.1005 8.5097 60.234 8.44292L58.8413 5.63624C58.8189 5.6472 53.6301 6.85608 53.6301 6.85608C53.6301 6.85608 58.3261 3.90696 61.1 3.9084C63.8739 3.90984 66.9967 3.9084 66.9967 3.9084C67.7009 3.90588 68.3937 4.08581 69.0077 4.43066C69.6216 4.7755 70.1357 5.2735 70.5 5.87613V12.4585ZM78.5072 20.0705C77.0872 19.5987 75.852 18.6913 74.9771 17.4774C74.1021 16.2635 73.632 14.8048 73.6333 13.3084V7.1984C75.4015 7.56198 76.9902 8.52404 78.1317 9.9224C79.2732 11.3208 79.8978 13.0699 79.9 14.8751V20.5346L78.5072 20.0705ZM62.5435 45.7069C65.706 46.5059 69.0347 46.3474 72.107 45.2516C72.2392 46.2803 72.7095 47.2359 73.444 47.9682C73.6751 48.1985 73.9294 48.4044 74.2028 48.5825L73.7563 49.1776C72.9628 50.2387 71.9248 51.0926 70.7305 51.6666C69.5363 52.2406 68.2211 52.5178 66.8968 52.4747C65.5725 52.4316 64.2782 52.0694 63.1238 51.4189C61.9694 50.7684 60.9892 49.8489 60.2663 48.7384C60.835 48.4182 61.331 47.9834 61.723 47.4616C62.115 46.9397 62.3944 46.3422 62.5435 45.7069ZM53.2667 82.2417V85.3751H45.4333V82.2417H53.2667ZM49.9406 75.9751H50.1333C50.6618 75.9754 51.1883 75.9087 51.7 75.7767V79.1084H48.6873L49.9406 75.9751ZM37.4073 75.9751H46.566L45.3127 79.1084H43.8667C43.4512 79.1084 43.0527 79.2735 42.7589 79.5673C42.4651 79.8611 42.3 80.2596 42.3 80.6751V85.3751H39.1667V80.6751C39.1667 80.2596 39.0016 79.8611 38.7078 79.5673C38.414 79.2735 38.0155 79.1084 37.6 79.1084H36.154L37.4073 75.9751ZM32.1521 75.9751H34.0321L32.7788 79.1084H31.4802L32.1521 75.9751ZM36.0333 82.2417V85.3751H30.1388L30.8101 82.2417H36.0333ZM22.9664 66.5751H30.9613L26.9328 85.3751H14.9086L22.9664 66.5751ZM90.8667 88.5084V91.6417H3.13333V88.5084H90.8667ZM90.8667 61.8751H83.0333V57.1751H79.9V74.4084H61.1C59.8834 74.4085 58.6835 74.6922 57.5957 75.2371C56.5078 75.782 55.562 76.5729 54.8333 77.5472V73.846C55.8434 72.7044 56.4007 71.2327 56.4 69.7084V49.3417H56.9994C57.8693 51.0725 59.1667 52.5524 60.7687 53.6413C62.3708 54.7301 64.2243 55.3918 66.1537 55.5636C68.0831 55.7354 70.0244 55.4117 71.7937 54.6231C73.5629 53.8344 75.1014 52.607 76.2634 51.0572L77.55 49.3417H83.0333C85.1101 49.3441 87.1012 50.1701 88.5698 51.6386C90.0383 53.1072 90.8643 55.0983 90.8667 57.1751V61.8751ZM62.6667 25.8417C62.6667 26.4614 62.4829 27.0672 62.1386 27.5825C61.7943 28.0978 61.3049 28.4994 60.7324 28.7366C60.1599 28.9737 59.5299 29.0358 58.9221 28.9149C58.3142 28.794 57.7559 28.4955 57.3177 28.0573C56.8795 27.6191 56.5811 27.0608 56.4602 26.453C56.3393 25.8452 56.4014 25.2152 56.6385 24.6427C56.8757 24.0701 57.2773 23.5808 57.7925 23.2365C58.3078 22.8922 58.9136 22.7084 59.5333 22.7084C60.364 22.7094 61.1604 23.0398 61.7479 23.6272C62.3353 24.2146 62.6657 25.011 62.6667 25.8417ZM68.9333 25.8417C68.9333 25.222 69.1171 24.6162 69.4614 24.1009C69.8057 23.5857 70.2951 23.1841 70.8676 22.9469C71.4401 22.7098 72.0701 22.6477 72.678 22.7686C73.2858 22.8895 73.8441 23.1879 74.2823 23.6261C74.7205 24.0643 75.0189 24.6226 75.1398 25.2304C75.2607 25.8383 75.1986 26.4683 74.9615 27.0408C74.7243 27.6133 74.3227 28.1027 73.8075 28.447C73.2922 28.7913 72.6864 28.9751 72.0667 28.9751C71.236 28.9741 70.4396 28.6436 69.8521 28.0562C69.2647 27.4688 68.9343 26.6724 68.9333 25.8417ZM69.6456 30.9726L71.3544 33.5989C69.7012 34.6735 67.7718 35.2455 65.8 35.2455C63.8282 35.2455 61.8988 34.6735 60.2456 33.5989L61.9544 30.9726C63.099 31.7167 64.4348 32.1128 65.8 32.1128C67.1652 32.1128 68.501 31.7167 69.6456 30.9726ZM21.9333 46.2084H15.6667V43.0751H21.9333V46.2084ZM53.2667 43.0751V46.2084H3.13333V43.0751H53.2667ZM40.7333 43.0751V46.2084H34.4667V43.0751H40.7333ZM50.1333 46.2084H43.8667V43.0751H50.1333V46.2084ZM12.5333 43.0751V46.2084H6.26667V43.0751H12.5333Z" fill="white"/>
<rect x="53" y="3.27502" width="18" height="12" fill="white"/>
<rect x="50" y="7.27502" width="15" height="11" fill="white"/>
<rect x="73" y="6.27502" width="6" height="12" fill="white"/>
<rect x="75" y="10.275" width="7" height="11" fill="white"/>
</svg>
