<svg width="136" height="132" viewBox="0 0 136 132" fill="none" xmlns="http://www.w3.org/2000/svg">
<path fill-rule="evenodd" clip-rule="evenodd" d="M111.924 40.8221C116.289 49.5509 119.217 59.1538 117.696 68.7934C116.22 78.1489 109.967 85.6074 103.732 92.7369C97.391 99.9884 90.9908 108.233 81.5467 110.132C72.1329 112.024 63.6056 105.572 54.4609 102.643C43.7987 99.2274 30.5798 100.347 23.6204 91.5767C16.4808 82.5793 16.9666 69.5094 19.2341 58.2497C21.367 47.6583 27.6836 38.4697 35.7602 31.294C43.202 24.6822 52.8327 22.0582 62.525 19.7876C72.4548 17.4613 82.9377 14.0475 92.3214 18.0431C101.769 22.066 107.332 31.6373 111.924 40.8221Z" fill="#238CC3"/>
<path d="M50.0517 67.8666C48.4604 66.6093 46.466 65.9167 44.436 65.9167C41.6771 65.9167 39.108 67.1426 37.3872 69.2805C35.8826 71.1519 35.2014 73.4933 35.4699 75.8727C35.7388 78.2572 36.9283 80.393 38.8189 81.8874C40.4102 83.145 42.4039 83.8376 44.4336 83.8376C47.1945 83.8376 49.764 82.6094 51.4833 80.4694C52.9866 78.601 53.6671 76.2624 53.3996 73.8841C53.1315 71.4996 51.9426 69.3623 50.0517 67.8666Z" fill="white"/>
<path d="M86.1888 46.8184C87.5444 46.8184 88.8551 46.5215 90.0878 45.9341C92.2668 44.8915 93.9037 43.0677 94.6959 40.7983C95.484 38.5432 95.3422 36.1166 94.2975 33.9674C92.8032 30.8869 89.6117 28.8962 86.1672 28.8962C84.8088 28.8962 83.4953 29.1942 82.263 29.7823C80.0846 30.8215 78.4471 32.6439 77.6536 34.914C76.8641 37.1708 77.0055 39.5978 78.0519 41.748C79.551 44.8282 82.7449 46.8184 86.1888 46.8184Z" fill="white"/>
<path d="M63.8251 32.2951C64.4861 32.4444 65.1625 32.5201 65.8356 32.5201C70.0662 32.5201 73.6806 29.6588 74.6259 25.558C75.1572 23.2328 74.7485 20.839 73.4765 18.8169C72.1938 16.779 70.1891 15.3624 67.8334 14.8287C67.1696 14.678 66.4904 14.6013 65.8143 14.6013C61.5865 14.6013 57.9758 17.4657 57.0336 21.5658C56.4979 23.8893 56.9037 26.2834 58.1761 28.307C59.4599 30.3476 61.4666 31.7642 63.8251 32.2951Z" fill="white"/>
<path d="M47.4947 37.4221C49.3833 35.9257 50.5707 33.7882 50.8393 31.4033C51.1068 29.0256 50.4276 26.687 48.9236 24.8152C47.2002 22.6784 44.629 21.4529 41.8701 21.4529C39.8421 21.4529 37.8498 22.1434 36.2582 23.3986C34.3693 24.8906 33.1811 27.0247 32.9116 29.4079C32.6424 31.7886 33.3233 34.1314 34.8299 36.0062C36.552 38.1455 39.1236 39.3727 41.8855 39.3727C43.9152 39.3724 45.9075 38.6798 47.4947 37.4221Z" fill="white"/>
<path d="M131.541 17.3123C131.186 16.9541 130.553 16.5269 129.553 16.5269C128.38 16.5269 125.266 16.5269 106.352 32.6219C105.971 32.9452 105.588 33.273 105.203 33.6032C101.823 24.7875 95.8858 16.928 88.2346 11.2431C79.4617 4.72495 69.0153 1.27764 58.0257 1.2749C58.0223 1.2749 58.0199 1.2749 58.0172 1.2749C50.6006 1.2749 41.5852 3.86629 34.4882 8.03902C25.7885 13.1533 20.9983 19.9931 21 27.2977C21.0027 36.1165 25.9766 39.8052 29.9733 42.7689C33.2322 45.186 35.8061 47.0948 35.8075 51.2781C35.8085 55.4611 33.236 57.3682 29.9787 59.7828C25.9834 62.7448 21.0106 66.4315 21.0134 75.2513C21.0154 82.5549 25.8088 89.3964 34.5101 94.5151C41.6122 98.693 50.6324 101.29 58.0504 101.292C58.0555 101.292 58.06 101.292 58.0648 101.292C71.5269 101.292 84.1821 96.0958 93.7002 86.6601C103.097 77.345 108.323 64.9981 108.461 51.8408C111.652 48.2099 114.743 44.601 117.565 41.2003C122.392 35.3825 126.105 30.5819 128.599 26.9326C131.902 22.0988 133.349 19.1341 131.541 17.3123ZM90.8071 83.7413C82.0633 92.4094 70.4367 97.1819 58.0651 97.1819C58.0613 97.1819 58.0559 97.1819 58.0521 97.1819C44.7948 97.1781 25.1272 87.9675 25.1234 75.2499C25.1214 68.5002 28.6697 65.8695 32.4266 63.0842C35.9383 60.4805 39.9186 57.5295 39.9172 51.2767C39.9151 45.025 35.9339 42.0723 32.4211 39.4675C28.6625 36.6799 25.1121 34.0471 25.11 27.2966C25.1083 19.4872 32.29 14.0989 36.5713 11.5819C42.9754 7.81673 51.3924 5.38461 58.0172 5.38461C58.0196 5.38461 58.0223 5.38461 58.0243 5.38461C68.1251 5.38735 77.7241 8.55414 85.7836 14.5418C93.2166 20.0647 98.8906 27.8176 101.879 36.4788C92.9656 44.2619 83.3131 53.2355 76.1247 60.4473C64.1853 61.9926 62.5588 69.9497 61.3696 75.7952C60.3571 80.7725 59.6999 83.1789 55.858 83.4872C54.9113 83.5632 54.1403 84.2777 53.9927 85.2158C53.8448 86.1536 54.3589 87.0708 55.2364 87.4342C55.4833 87.5363 61.3593 89.9372 68.2245 89.9375C68.2255 89.9375 68.2262 89.9375 68.2268 89.9375C73.0109 89.9375 77.1148 88.7778 80.4241 86.4909C84.502 83.6728 87.267 79.2048 88.6565 73.2131C93.3533 68.4612 98.72 62.7311 104.027 56.8287C102.805 66.9908 98.2196 76.3932 90.8071 83.7413ZM84.5276 72.824C82.35 81.4537 76.8706 85.8282 68.2265 85.8278C68.2265 85.8278 68.2251 85.8278 68.2245 85.8278C65.9451 85.8278 63.7623 85.5168 61.9272 85.1291C64.1192 82.8936 64.8039 79.5295 65.3967 76.6152C66.526 71.0639 67.5939 65.8102 76.3305 64.5621L84.5276 72.824ZM112.906 40.3683C104.76 50.0738 94.899 60.973 86.7817 69.2599L85.525 67.9933L79.9802 62.4047C87.34 55.0785 96.7814 46.343 105.59 38.6979C106.617 37.8067 107.637 36.9268 108.643 36.0692C118.866 27.3508 124.223 23.5565 126.956 21.9053C125.324 24.6546 121.565 30.0528 112.906 40.3683Z" fill="white"/>
</svg>
