<svg width="141" height="142" viewBox="0 0 141 142" fill="none" xmlns="http://www.w3.org/2000/svg">
<path fill-rule="evenodd" clip-rule="evenodd" d="M125.272 52.265C125.99 64.7989 115.579 74.4355 111.11 86.168C106.439 98.4331 108.946 114.468 98.5374 122.462C88.0148 130.543 73.0329 126.874 59.8312 125.551C46.9153 124.257 31.6356 124.927 23.3577 114.929C15.1642 105.032 21.8582 90.1925 20.029 77.4753C18.4467 66.4743 9.83948 56.1649 13.3906 45.6334C16.9947 34.9447 28.4816 29.6174 38.1343 23.7811C47.7316 17.9782 57.6555 13.2296 68.8159 12.1214C81.9501 10.8173 96.3862 9.28045 107.143 16.9291C118.202 24.7931 124.495 38.7168 125.272 52.265Z" fill="#238CC3"/>
<path d="M114.385 96.401H110.369V94.3934C110.369 91.0715 107.665 88.3678 104.344 88.3678H102.335V43.3282C111.594 40.6971 118.402 32.1833 118.402 22.0914C118.402 9.91046 108.491 -0.000732422 96.31 -0.000732422C84.1293 -0.000732422 74.218 9.9107 74.218 22.0914C74.218 25.6343 75.0494 29.0463 76.632 32.1332H47.2554C33.3312 32.1332 22 43.4648 22 57.389C22 59.4496 22.2529 61.5094 22.7551 63.5139L23.7232 67.3888C22.6608 68.7505 22 70.4415 22 72.3013C22 76.7318 25.603 80.3345 30.0335 80.3345V82.3431C30.0335 88.9266 33.5822 94.6823 38.8582 97.8435C32.7401 103.085 29.3187 105.982 26.0187 122.51V124.519H86.268H86.2699H114.385C116.6 124.519 118.402 122.717 118.402 120.502V100.418C118.402 98.2028 116.601 96.401 114.385 96.401ZM114.387 108.451H86.2682V100.418H114.385L114.387 108.451ZM106.352 94.3934V96.401H94.3017V94.3934C94.3017 93.2849 95.2015 92.3849 96.31 92.3849H104.344C105.452 92.3849 106.352 93.2847 106.352 94.3934ZM98.3184 88.3678H96.31C92.9881 88.3678 90.2849 91.0715 90.2849 94.3934V96.401H86.2682C84.0531 96.401 82.2515 98.203 82.2515 100.418V107.481C80.0764 103.702 77.0878 100.4 73.4306 97.8416C78.7025 94.6804 82.2515 88.9266 82.2515 82.3431V80.3345C86.6819 80.3345 90.2849 76.7318 90.2849 72.3013C90.2849 70.6644 89.7869 69.1421 88.9433 67.8708L89.6603 65.0003C90.076 63.3494 90.2849 61.6442 90.2849 59.9369C90.2849 56.143 89.2184 52.4821 87.2763 49.2364C88.3648 47.3666 89.1862 45.328 89.6903 43.1649C91.8233 43.8358 94.0385 44.1835 96.31 44.1835C96.9889 44.1835 97.6556 44.1415 98.3184 44.0814V88.3678ZM48.7857 102.925L47.7031 100.398C47.8397 100.4 47.9721 100.418 48.1087 100.418H51.2921L48.7857 102.925ZM55.5259 108.451H56.7571L61.276 120.502H51.0072L55.5259 108.451ZM57.0763 104.435H55.2084L54.3086 103.085L56.1422 101.25L57.9758 103.083L57.0763 104.435ZM60.9928 100.418H64.1762C64.3128 100.418 64.4452 100.4 64.5818 100.398L63.4992 102.925L60.9928 100.418ZM84.6834 52.8077C85.7218 55.0309 86.268 57.4556 86.268 59.9378C86.268 61.3196 86.0993 62.6929 85.7657 64.0265L85.5267 64.9821C84.5245 64.5303 83.4199 64.2671 82.251 64.2671V62.2595C82.251 60.1788 81.6002 58.1938 80.4415 56.5288C82.0144 55.4785 83.4301 54.2175 84.6834 52.8077ZM82.2512 68.2842C84.4666 68.2842 86.268 70.0862 86.268 72.3013C86.268 74.5164 84.4663 76.3174 82.2512 76.3174V68.2842ZM78.2345 22.0914C78.2345 12.1239 86.3422 4.01637 96.3098 4.01637C106.277 4.01637 114.385 12.1239 114.385 22.0914C114.385 32.0589 106.277 40.1664 96.3098 40.1664C94.213 40.1664 92.1806 39.7951 90.2366 39.1001C90.2507 38.7848 90.2847 38.476 90.2847 38.1588V36.1503C90.2847 33.9352 88.4831 32.1332 86.268 32.1332H81.2932C79.2971 29.159 78.2345 25.7127 78.2345 22.0914ZM26.0167 72.3013C26.0167 70.0859 27.8183 68.2842 30.0335 68.2842V76.3174C27.8183 76.3174 26.0167 74.5167 26.0167 72.3013ZM68.1929 56.2339H46.1006C0.939604 56.2339 129.775 56.2339 68.1929 56.2339ZM34.0504 82.3431V62.2595C34.0504 59.2269 36.3098 56.7335 39.23 56.3198C40.6359 58.6615 43.1744 60.251 46.1006 60.251H68.1927C71.2734 60.251 74.2077 59.6117 76.875 58.4668C77.7425 59.5313 78.2347 60.8575 78.2347 62.2595V82.3431C78.2347 90.0933 71.9264 96.401 64.1762 96.401H48.1092C40.3585 96.4013 34.0504 90.0936 34.0504 82.3431ZM43.1301 99.9217L47.432 109.962L51.4126 105.982L51.8926 106.701L46.717 120.502H42.0837V112.468H38.0669V120.502H30.1117C30.7666 111.914 35.625 104.252 43.1301 99.9217ZM74.2178 120.502V112.468H70.201V120.502H65.5677L60.3921 106.701L60.8721 105.982L64.8526 109.962L69.1565 99.9198C76.6638 104.252 81.5242 111.914 82.1767 120.502H74.2178ZM86.2682 120.502V112.468H98.3184V116.486H102.335V112.468H114.387L114.389 120.502H86.2682Z" fill="white"/>
<path d="M94.302 31.7643V36.1506H98.3187V31.7643C98.3187 31.7643 99.4148 31.5978 100.68 30.6702C102.513 29.3261 102.335 26.1087 102.335 26.1087C102.335 22.7868 99.6323 20.0836 96.3103 20.0836C95.2018 20.0836 94.302 19.1838 94.302 18.0753C94.302 18.0753 94.2599 17.1726 94.8145 16.618C95.3691 16.0634 96.3103 16.0669 96.3103 16.0669C97.4189 16.0669 98.3187 16.9667 98.3187 18.0753V20.0836H102.335V18.0753C102.335 15.4603 100.65 13.2511 98.3187 12.4197V8.03345H94.302V12.4197C94.302 12.4197 93.1038 12.5856 92.004 13.5632C90.2454 15.1263 90.2852 18.0753 90.2852 18.0753C90.2852 21.3972 92.9884 24.1004 96.3103 24.1004C97.4189 24.1004 98.3187 25.0002 98.3187 26.1087C98.3187 26.1087 98.4239 26.9386 97.8693 27.4932C97.3147 28.0478 96.3103 28.1171 96.3103 28.1171C95.2018 28.1171 94.302 27.2173 94.302 26.1087V24.1004H90.2852V26.1087C90.2852 28.7237 91.9703 30.9329 94.302 31.7643Z" fill="white"/>
<path d="M50.1171 70.2932C50.1171 66.9712 47.4139 64.2681 44.092 64.2681C40.7701 64.2681 38.0669 66.9712 38.0669 70.2932C38.0669 73.6151 40.7701 76.3183 44.092 76.3183C47.4139 76.3183 50.1171 73.6151 50.1171 70.2932ZM44.092 72.3015C42.9835 72.3015 42.0836 71.4017 42.0836 70.2932C42.0836 69.1846 42.9835 68.2848 44.092 68.2848C45.2005 68.2848 46.1004 69.1846 46.1004 70.2932C46.1004 71.4017 45.2005 72.3015 44.092 72.3015Z" fill="white"/>
<path d="M68.1926 76.3183C71.5145 76.3183 74.2177 73.6151 74.2177 70.2932C74.2177 66.9712 71.5145 64.2681 68.1926 64.2681C64.8706 64.2681 62.1675 66.9712 62.1675 70.2932C62.1675 73.6151 64.8709 76.3183 68.1926 76.3183ZM68.1926 68.2848C69.3011 68.2848 70.2009 69.1846 70.2009 70.2932C70.2009 71.4017 69.3011 72.3015 68.1926 72.3015C67.084 72.3015 66.1842 71.4017 66.1842 70.2932C66.1842 69.1846 67.084 68.2848 68.1926 68.2848Z" fill="white"/>
<path d="M56.1429 92.3847C61.68 92.3847 66.1847 87.8799 66.1847 82.3428V80.3345H46.1011V82.3428C46.1011 87.8799 50.6058 92.3847 56.1429 92.3847ZM61.8246 84.351C60.9952 86.6888 58.7617 88.3677 56.1429 88.3677C53.5241 88.3677 51.2906 86.6888 50.4612 84.351H61.8246Z" fill="white"/>
</svg>
