<svg width="111" height="108" viewBox="0 0 111 108" fill="none" xmlns="http://www.w3.org/2000/svg">
<path fill-rule="evenodd" clip-rule="evenodd" d="M63.8652 11.2572C73.7813 13.0361 85.0929 11.0184 92.6485 17.6412C100.348 24.3899 101.916 35.486 103.043 45.5984C104.129 55.338 103.891 65.5069 98.9241 73.961C94.0912 82.1876 84.9989 86.3144 76.5078 90.7669C67.8003 95.3329 59.0623 100.73 49.2219 100.023C38.8781 99.2807 29.5374 93.8243 21.9051 86.8464C13.9841 79.6047 5.91593 70.7744 5.57123 60.1157C5.23595 49.7483 15.2596 42.6203 20.1792 33.4808C25.0043 24.5169 24.9681 11.776 34.089 7.13612C43.2129 2.4947 53.7552 9.4436 63.8652 11.2572Z" fill="#238CC3"/>
<path d="M23.0005 6.02563H80.5005C82.0255 6.02563 83.488 6.63144 84.5664 7.70977C85.6447 8.78811 86.2505 10.2506 86.2505 11.7756V52.0256C86.2505 53.5506 85.6447 55.0132 84.5664 56.0915C83.488 57.1698 82.0255 57.7756 80.5005 57.7756H40.2505V63.5256H57.5005V75.0256H40.2505V80.7756H71.8755C72.638 80.7756 73.3693 80.4727 73.9084 79.9336C74.4476 79.3944 74.7505 78.6631 74.7505 77.9006C74.7505 77.1381 74.4476 76.4069 73.9084 75.8677C73.3693 75.3285 72.638 75.0256 71.8755 75.0256H63.2505V63.5256H80.5005C83.5505 63.5256 86.4755 62.314 88.6322 60.1574C90.7889 58.0007 92.0005 55.0756 92.0005 52.0256V11.7756C92.0005 8.72565 90.7889 5.80057 88.6322 3.64391C86.4755 1.48724 83.5505 0.275635 80.5005 0.275635H23.0005C19.9505 0.275635 17.0254 1.48724 14.8688 3.64391C12.7121 5.80057 11.5005 8.72565 11.5005 11.7756V29.0256H17.2505V11.7756C17.2505 10.2506 17.8563 8.78811 18.9346 7.70977C20.013 6.63144 21.4755 6.02563 23.0005 6.02563Z" fill="white"/>
<path d="M14.3755 75.0256C13.613 75.0256 12.8817 75.3285 12.3426 75.8677C11.8034 76.4069 11.5005 77.1381 11.5005 77.9006C11.5005 78.6631 11.8034 79.3944 12.3426 79.9336C12.8817 80.4727 13.613 80.7756 14.3755 80.7756H20.1255C20.888 80.7756 21.6193 80.4727 22.1584 79.9336C22.6976 79.3944 23.0005 78.6631 23.0005 77.9006C23.0005 77.1381 22.6976 76.4069 22.1584 75.8677C21.6193 75.3285 20.888 75.0256 20.1255 75.0256H14.3755Z" fill="white"/>
<path d="M0.000488281 43.4006C0.000488281 41.1131 0.909191 38.9193 2.52669 37.3018C4.14419 35.6843 6.338 34.7756 8.62549 34.7756H25.8755C28.163 34.7756 30.3568 35.6843 31.9743 37.3018C33.5918 38.9193 34.5005 41.1131 34.5005 43.4006V83.6506C34.5005 85.9381 33.5918 88.1319 31.9743 89.7494C30.3568 91.3669 28.163 92.2756 25.8755 92.2756H8.62549C6.338 92.2756 4.14419 91.3669 2.52669 89.7494C0.909191 88.1319 0.000488281 85.9381 0.000488281 83.6506V43.4006ZM8.62549 40.5256C7.86299 40.5256 7.13172 40.8285 6.59256 41.3677C6.05339 41.9069 5.75049 42.6381 5.75049 43.4006V83.6506C5.75049 84.4131 6.05339 85.1444 6.59256 85.6836C7.13172 86.2227 7.86299 86.5256 8.62549 86.5256H25.8755C26.638 86.5256 27.3693 86.2227 27.9084 85.6836C28.4476 85.1444 28.7505 84.4131 28.7505 83.6506V43.4006C28.7505 42.6381 28.4476 41.9069 27.9084 41.3677C27.3693 40.8285 26.638 40.5256 25.8755 40.5256H8.62549Z" fill="white"/>
<path d="M51.3398 17.5256C46.5754 17.5256 42.7148 21.3862 42.7148 26.1506C42.7148 26.6081 42.8966 27.0469 43.2201 27.3704C43.5436 27.6939 43.9823 27.8756 44.4398 27.8756C44.8973 27.8756 45.3361 27.6939 45.6596 27.3704C45.9831 27.0469 46.1648 26.6081 46.1648 26.1506C46.1648 23.2906 48.4798 20.9756 51.3398 20.9756C54.1999 20.9756 56.5148 23.2906 56.5148 26.1506C56.5148 27.5582 56.1716 28.3828 55.7593 28.9607C55.3073 29.5903 54.6812 30.0612 53.8135 30.6598L53.6134 30.7943C52.8423 31.3222 51.8487 32.0001 51.0794 32.9454C50.1703 34.0632 49.6148 35.476 49.6148 37.3631V38.2256C49.6148 38.6831 49.7966 39.1219 50.1201 39.4454C50.4436 39.7689 50.8823 39.9506 51.3398 39.9506C51.7973 39.9506 52.2361 39.7689 52.5596 39.4454C52.8831 39.1219 53.0648 38.6831 53.0648 38.2256V37.3631C53.0648 36.2315 53.3719 35.5967 53.7548 35.1224C54.1982 34.5807 54.795 34.1702 55.6765 33.5647L55.7679 33.5009C56.6235 32.9144 57.7223 32.145 58.5624 30.9686C59.4473 29.7404 59.9648 28.1913 59.9648 26.1506C59.9648 21.3862 56.1043 17.5256 51.3398 17.5256Z" fill="white"/>
<path d="M51.3398 47.282C51.9117 47.282 52.4602 47.0548 52.8645 46.6504C53.2689 46.2461 53.4961 45.6976 53.4961 45.1257C53.4961 44.5539 53.2689 44.0054 52.8645 43.601C52.4602 43.1967 51.9117 42.9695 51.3398 42.9695C50.768 42.9695 50.2195 43.1967 49.8151 43.601C49.4108 44.0054 49.1836 44.5539 49.1836 45.1257C49.1836 45.6976 49.4108 46.2461 49.8151 46.6504C50.2195 47.0548 50.768 47.282 51.3398 47.282Z" fill="white"/>
<path d="M17.5064 47.9185C14.1888 47.9185 11.5005 50.6067 11.5005 53.9244C11.5005 54.243 11.627 54.5485 11.8523 54.7738C12.0776 54.999 12.3831 55.1256 12.7017 55.1256C13.0203 55.1256 13.3258 54.999 13.551 54.7738C13.7763 54.5485 13.9029 54.243 13.9029 53.9244C13.9029 51.9328 15.5149 50.3208 17.5064 50.3208C19.498 50.3208 21.11 51.9328 21.11 53.9244C21.11 54.9046 20.871 55.4787 20.5839 55.8811C20.2692 56.3196 19.8331 56.6475 19.2289 57.0643L19.0896 57.158C18.5527 57.5256 17.8608 57.9976 17.3251 58.6559C16.692 59.4343 16.3053 60.418 16.3053 61.7321V62.3327C16.3053 62.6513 16.4318 62.9568 16.6571 63.1821C16.8823 63.4074 17.1879 63.5339 17.5064 63.5339C17.825 63.5339 18.1305 63.4074 18.3558 63.1821C18.5811 62.9568 18.7076 62.6513 18.7076 62.3327V61.7321C18.7076 60.9442 18.9214 60.5021 19.1881 60.1718C19.4968 59.7946 19.9124 59.5087 20.5262 59.0871L20.5899 59.0427C21.1857 58.6343 21.9508 58.0985 22.5358 57.2793C23.152 56.4241 23.5124 55.3454 23.5124 53.9244C23.5124 50.6067 20.8241 47.9185 17.5064 47.9185Z" fill="white"/>
<path d="M17.5064 68.639C17.9046 68.639 18.2865 68.4808 18.5681 68.1992C18.8497 67.9176 19.0079 67.5357 19.0079 67.1375C19.0079 66.7393 18.8497 66.3573 18.5681 66.0758C18.2865 65.7942 17.9046 65.636 17.5064 65.636C17.1082 65.636 16.7262 65.7942 16.4447 66.0758C16.1631 66.3573 16.0049 66.7393 16.0049 67.1375C16.0049 67.5357 16.1631 67.9176 16.4447 68.1992C16.7262 68.4808 17.1082 68.639 17.5064 68.639Z" fill="white"/>
</svg>
