<svg width="99" height="81" viewBox="0 0 99 81" fill="none" xmlns="http://www.w3.org/2000/svg">
<path fill-rule="evenodd" clip-rule="evenodd" d="M53.1494 1.00194C61.2604 1.09307 68.5008 4.71571 75.6565 8.52105C84.014 12.9655 95.1056 15.8768 98.0111 24.8591C100.917 33.8414 93.6786 42.6852 89.4369 51.1235C85.8443 58.2706 81.6118 64.8233 75.3869 69.867C68.8454 75.1673 61.5712 80.1061 53.1494 80.5254C44.5004 80.9559 36.6241 76.6646 29.2362 72.1645C21.2356 67.2912 12.7345 62.2408 9.03739 53.656C5.17229 44.6812 4.83508 33.9365 8.95689 25.0757C12.8852 16.631 22.0725 12.4768 30.2703 8.01109C37.4464 4.10194 44.9709 0.910041 53.1494 1.00194Z" fill="#238CC3"/>
<path d="M48.7891 64.2947L48.5624 64.2944L45.3751 67.8672L42.1799 64.2853L42.0177 64.2852C37.7894 64.997 34.7402 67.0165 34.7402 69.3966C34.7402 72.3708 39.5016 74.7819 45.3751 74.7819C51.2486 74.7819 56.01 72.3708 56.01 69.3966C56.01 67.0272 52.9879 65.0151 48.7891 64.2947Z" fill="white"/>
<path d="M65.3882 14.7791C55.8246 14.7791 48.0439 22.5595 48.0439 32.1233C48.0439 41.687 55.8244 49.4675 65.3882 49.4675C74.9519 49.4675 82.7324 41.687 82.7324 32.1233C82.7324 22.5595 74.9517 14.7791 65.3882 14.7791ZM65.3882 45.9225C57.7793 45.9225 51.5889 39.7323 51.5889 32.1233C51.5889 24.5142 57.7791 18.324 65.3882 18.324C72.9972 18.324 79.1874 24.5142 79.1874 32.1233C79.1874 39.7323 72.9971 45.9225 65.3882 45.9225Z" fill="white"/>
<path d="M25.5566 14.7791C15.993 14.7791 8.2124 22.5595 8.2124 32.1233C8.2124 41.687 15.9929 49.4675 25.5566 49.4675C35.1204 49.4675 42.9008 41.687 42.9008 32.1233C42.9008 22.5595 35.1202 14.7791 25.5566 14.7791ZM25.5566 45.9225C17.9477 45.9225 11.7574 39.7323 11.7574 32.1233C11.7574 24.5142 17.9476 18.324 25.5566 18.324C33.1657 18.324 39.3559 24.5142 39.3559 32.1233C39.3559 39.7323 33.1655 45.9225 25.5566 45.9225Z" fill="white"/>
<path d="M60.7188 32.0971C61.6977 32.0971 62.4912 31.3036 62.4912 30.3247V28.4815C62.4912 27.5025 61.6977 26.709 60.7188 26.709C59.7398 26.709 58.9463 27.5025 58.9463 28.4815V30.3247C58.9463 31.3036 59.7398 32.0971 60.7188 32.0971Z" fill="white"/>
<path d="M70.0576 26.709C69.0787 26.709 68.2852 27.5025 68.2852 28.4815V30.3247C68.2852 31.3036 69.0787 32.0971 70.0576 32.0971C71.0366 32.0971 71.8301 31.3036 71.8301 30.3247V28.4815C71.8301 27.5025 71.0366 26.709 70.0576 26.709Z" fill="white"/>
<path d="M68.5038 35.674C66.7858 37.3921 63.9906 37.3921 62.2725 35.674C61.5804 34.9819 60.458 34.9819 59.7657 35.674C59.0735 36.3662 59.0735 37.4885 59.7657 38.1809C61.3159 39.7309 63.352 40.506 65.3882 40.506C67.4242 40.506 69.4604 39.7309 71.0105 38.1809C71.7026 37.4887 71.7026 36.3664 71.0105 35.674C70.3183 34.9817 69.1962 34.9817 68.5038 35.674Z" fill="white"/>
<path d="M20.7764 32.0971C21.7553 32.0971 22.5489 31.3036 22.5489 30.3247V28.4815C22.5489 27.5025 21.7553 26.709 20.7764 26.709C19.7974 26.709 19.0039 27.5025 19.0039 28.4815V30.3247C19.0039 31.3036 19.7974 32.0971 20.7764 32.0971Z" fill="white"/>
<path d="M30.1153 26.709C29.1363 26.709 28.3428 27.5025 28.3428 28.4815V30.3247C28.3428 31.3036 29.1363 32.0971 30.1153 32.0971C31.0942 32.0971 31.8877 31.3036 31.8877 30.3247V28.4815C31.8877 27.5025 31.0942 26.709 30.1153 26.709Z" fill="white"/>
<path d="M19.8233 37.1758C19.1312 37.868 19.1312 38.9903 19.8233 39.6826C20.5155 40.3748 21.6378 40.3748 22.3301 39.6826C24.048 37.9646 26.8434 37.9646 28.5615 39.6826C28.9076 40.0288 29.3612 40.2018 29.8148 40.2018C30.2684 40.2018 30.7221 40.0288 31.0681 39.6826C31.7602 38.9905 31.7602 37.8681 31.0681 37.1758C27.9678 34.0757 22.9237 34.0759 19.8233 37.1758Z" fill="white"/>
<path d="M82.5274 0.278809H8.22341C3.68906 0.278809 0 3.96769 0 8.50222V54.1837C0 58.7183 3.68906 62.4073 8.22341 62.4073H36.1814C37.4191 62.4073 40.0342 62.1824 40.8582 63.1061L42.7061 69.6399C43.0424 70.0168 44.8701 69.6399 45.3752 69.6399C45.8804 69.6399 47.9135 70.0169 48.2497 69.6399L49.6869 63.1061C50.5109 62.1824 53.3314 62.4073 54.5691 62.4073H82.5271C87.0616 62.4073 90.7505 58.7183 90.7505 54.1837V8.50222C90.7508 3.96769 87.062 0.278809 82.5274 0.278809ZM87.2059 54.1836C87.2059 56.7634 85.1071 58.8622 82.5274 58.8622H54.5694C52.3225 58.8622 48.9242 58.7602 47.4284 60.4369C47.4284 60.4369 46.6072 64.9539 46.1965 66.5965C46.0798 67.0632 44.7061 67.0529 44.554 66.5965C44.1433 65.3646 43.1167 60.4369 43.1167 60.4369C41.621 58.7603 38.4284 58.8622 36.1814 58.8622H8.22341C5.64375 58.8622 3.54496 56.7634 3.54496 54.1836V8.50222C3.54496 5.92255 5.64375 3.82376 8.22341 3.82376H82.5274C85.1071 3.82376 87.2059 5.92255 87.2059 8.50222V54.1836Z" fill="white"/>
</svg>
