<?xml version="1.0" encoding="utf-8"?><svg xmlns="http://www.w3.org/2000/svg" xmlns:xlink="http://www.w3.org/1999/xlink"><symbol viewBox="0 0 35 16" id="Arrow-video" xmlns="http://www.w3.org/2000/svg"><path d="M1 7a1 1 0 000 2V7zm33.707 1.707a1 1 0 000-1.414L28.343.929a1 1 0 10-1.414 1.414L32.586 8l-5.657 5.657a1 1 0 001.414 1.414l6.364-6.364zM1 9h33V7H1v2z"/></symbol><symbol viewBox="0 0 512 512" id="YOUTUBE_icon" xmlns="http://www.w3.org/2000/svg"><path d="M260.4 449c-57.1-1.8-111.4-3.2-165.7-5.3-11.7-.5-23.6-2.3-35-5-21.4-5-36.2-17.9-43.8-39-6.1-17-8.3-34.5-9.9-52.3-3.5-41.8-3.5-83.6-1.8-125.4 1-23.6 1.6-47.4 7.9-70.3 3.8-13.7 8.4-27.1 19.5-37 11.7-10.5 25.4-16.8 41-17.5 42.8-2.1 85.5-4.7 128.3-5.1 57.6-.6 115.3.2 172.9 1.3 24.9.5 50 1.8 74.7 5 22.6 3 39.5 15.6 48.5 37.6 6.9 16.9 9.5 34.6 11 52.6 3.9 45.1 4 90.2 1.8 135.3-1.1 22.9-2.2 45.9-8.7 68.2-7.4 25.6-23.1 42.5-49.3 48.3-10.2 2.2-20.8 3-31.2 3.4-54.4 1.9-108.7 3.6-160.2 5.2zm-55.3-113.7c45.6-23.6 90.7-47 136.7-70.9-45.9-24-91-47.5-136.7-71.4v142.3z"/></symbol><symbol stroke-width="2" stroke-linecap="round" stroke-linejoin="round" viewBox="0 0 24 24" id="clock" xmlns="http://www.w3.org/2000/svg"><circle cx="12" cy="12" r="10"/><path d="M12 6v6l4 2"/></symbol><symbol viewBox="0 0 42 42" id="clock2" xmlns="http://www.w3.org/2000/svg"><g filter="url(#dfilter0_f)" stroke-width="3" stroke-linecap="round" stroke-linejoin="round"><path d="M21 36c8.284 0 15-6.716 15-15 0-8.284-6.716-15-15-15-8.284 0-15 6.716-15 15 0 8.284 6.716 15 15 15z"/><path d="M25.5 27l-3.621-3.621A3 3 0 0121 21.258V12"/></g><path d="M21 36c8.284 0 15-6.716 15-15 0-8.284-6.716-15-15-15-8.284 0-15 6.716-15 15 0 8.284 6.716 15 15 15z"/><path d="M25.5 27l-3.621-3.621A3 3 0 0121 21.258V12"/><defs><filter id="dfilter0_f" x=".5" y=".5" width="41" height="41" filterUnits="userSpaceOnUse" color-interpolation-filters="sRGB"><feFlood flood-opacity="0" result="BackgroundImageFix"/><feBlend in="SourceGraphic" in2="BackgroundImageFix" result="shape"/><feGaussianBlur stdDeviation="2" result="effect1_foregroundBlur"/></filter></defs></symbol><symbol viewBox="0 0 24 14" id="faq" xmlns="http://www.w3.org/2000/svg"><path d="M13.06.94a1.5 1.5 0 00-2.12 0l-9.547 9.546a1.5 1.5 0 102.122 2.12L12 4.123l8.485 8.485a1.5 1.5 0 102.122-2.121L13.06.94zm.44 3.2V2h-3v2.14h3z"/></symbol><symbol viewBox="0 0 36 36" id="foot-be" xmlns="http://www.w3.org/2000/svg"><path d="M34.14.481H1.547C.765.481.131 1.115.131 1.898V34.49c0 .783.634 1.416 1.417 1.416H34.14c.784 0 1.417-.633 1.417-1.416V1.898c0-.783-.633-1.417-1.417-1.417zm-12.466 10.58h6.129v1.492h-6.129V11.06zm-3.83 12.305a3.965 3.965 0 01-1.196 1.373 5.256 5.256 0 01-1.718.784 7.41 7.41 0 01-1.975.252H5.622V10.67h7.13c.721 0 1.377.066 1.974.19a4.226 4.226 0 011.524.624c.42.288.753.673.987 1.152.23.473.35 1.067.35 1.77 0 .763-.173 1.391-.518 1.9-.35.51-.855.922-1.541 1.245.934.266 1.62.74 2.072 1.404.46.673.687 1.479.687 2.426 0 .77-.146 1.43-.443 1.984zm12.345-2.338h-7.9c0 .859.297 1.683.745 2.126.451.438 1.098.66 1.944.66.61 0 1.129-.156 1.572-.461.438-.306.704-.63.801-.966H30c-.425 1.316-1.072 2.254-1.948 2.821-.868.567-1.931.85-3.166.85-.864 0-1.639-.141-2.334-.412a4.96 4.96 0 01-1.767-1.173 5.368 5.368 0 01-1.111-1.824 6.638 6.638 0 01-.394-2.33c0-.819.137-1.58.402-2.289a5.319 5.319 0 012.919-3.05 5.751 5.751 0 012.28-.444c.93 0 1.736.178 2.436.54a4.94 4.94 0 011.709 1.453 5.92 5.92 0 01.96 2.077c.191.766.258 1.572.204 2.422zm-5.402-4.233c-.478 0-.881.084-1.191.248a2.48 2.48 0 00-.762.602 2.143 2.143 0 00-.403.77 3.32 3.32 0 00-.137.718h4.893c-.07-.766-.336-1.333-.69-1.732-.372-.394-.97-.606-1.71-.606zm-11.004-.448c.386-.279.572-.74.572-1.372a1.783 1.783 0 00-.182-.868 1.396 1.396 0 00-.514-.527 1.982 1.982 0 00-.735-.266 4.287 4.287 0 00-.854-.075H8.957v3.53h3.37c.58.004 1.071-.138 1.456-.422zm.523 3.189c-.434-.332-1.014-.496-1.736-.496H8.948v4.162h3.551c.332 0 .638-.03.934-.093.297-.062.563-.168.789-.319.226-.146.407-.345.544-.602.133-.257.2-.584.2-.979 0-.783-.222-1.337-.66-1.673z" fill-opacity=".75"/></symbol><symbol viewBox="0 0 42 36" id="foot-tell" xmlns="http://www.w3.org/2000/svg"><path d="M38.73.71L1.94 14.898c-2.511 1.008-2.497 2.409-.461 3.033l9.445 2.947L32.78 7.089c1.033-.629 1.977-.29 1.201.399l-17.706 15.98h-.004l.004.002-.652 9.736c.955 0 1.376-.438 1.911-.955l4.588-4.461 9.544 7.049c1.76.969 3.023.471 3.46-1.629L41.39 3.686c.642-2.57-.981-3.735-2.66-2.976z" fill-opacity=".75"/></symbol><symbol viewBox="0 0 42 37" id="foot-vect" xmlns="http://www.w3.org/2000/svg"><path d="M.958 27.866l3.41 5.894a4.076 4.076 0 003.64 2.242h22.63l-4.695-8.136H.958zm40.36.042a4.06 4.06 0 00-.652-2.21L27.408 2.65A4.076 4.076 0 0023.806.481h-7.008L37.28 35.967l3.228-5.592c.636-1.071.81-1.545.81-2.467zm-18.714-5.822L13.45 6.231 4.295 22.086h18.309z" fill-opacity=".75"/></symbol><symbol viewBox="0 0 18 18" id="h1" xmlns="http://www.w3.org/2000/svg"><path fill-rule="evenodd" clip-rule="evenodd" d="M0 9a9 9 0 1018 0A9 9 0 000 9zm16.457 0A7.457 7.457 0 111.543 9a7.457 7.457 0 0114.914 0z"/><path fill-rule="evenodd" clip-rule="evenodd" d="M5.143 9c0 4.651 1.533 8.486 3.857 8.486 2.323 0 3.857-3.835 3.857-8.486C12.857 4.349 11.323.514 9 .514 6.676.514 5.143 4.35 5.143 9zm6.171 0c0 3.87-1.229 6.943-2.314 6.943S6.686 12.87 6.686 9c0-3.87 1.229-6.943 2.314-6.943S11.314 5.13 11.314 9z"/><path d="M2.42 4.337l1.034-1.143c.103.092.215.185.334.274 1.308.98 3.395 1.584 5.673 1.584 1.945 0 3.756-.439 5.072-1.19a5.45 5.45 0 00.842-.587l1.002 1.174c-.319.272-.68.524-1.078.75-1.56.893-3.635 1.395-5.838 1.395-2.594 0-5.004-.697-6.599-1.891a6.237 6.237 0 01-.443-.366zm0 9.342l1.034 1.144c.103-.094.215-.185.334-.275 1.308-.98 3.395-1.584 5.673-1.584 1.945 0 3.756.44 5.072 1.191a5.5 5.5 0 01.842.586l1.002-1.173a7.04 7.04 0 00-1.078-.751c-1.56-.893-3.635-1.395-5.838-1.395-2.594 0-5.004.698-6.599 1.892a6.239 6.239 0 00-.443.365zM.514 9.771V8.23h16.972v1.54H.514z"/></symbol><symbol viewBox="0 0 20 18" id="h2" xmlns="http://www.w3.org/2000/svg"><path d="M18.15 2.4H16.2v1.2H18v13.2H1.2V3.6H3V2.4H1.05A1.068 1.068 0 000 3.486v13.428A1.068 1.068 0 001.05 18h17.1a1.068 1.068 0 001.05-1.086V3.486A1.07 1.07 0 0018.15 2.4z"/><path d="M3.6 7.2h1.2v1.2H3.6V7.2zm3.6 0h1.2v1.2H7.2V7.2zm3.6 0H12v1.2h-1.2V7.2zm3.6 0h1.2v1.2h-1.2V7.2zm-10.8 3h1.2v1.2H3.6v-1.2zm3.6 0h1.2v1.2H7.2v-1.2zm3.6 0H12v1.2h-1.2v-1.2zm3.6 0h1.2v1.2h-1.2v-1.2zm-10.8 3h1.2v1.2H3.6v-1.2zm3.6 0h1.2v1.2H7.2v-1.2zm3.6 0H12v1.2h-1.2v-1.2zm3.6 0h1.2v1.2h-1.2v-1.2zM4.8 4.8a.6.6 0 00.6-.6V.6a.6.6 0 00-1.2 0v3.6a.6.6 0 00.6.6zm9.6 0a.6.6 0 00.6-.6V.6a.6.6 0 10-1.2 0v3.6a.6.6 0 00.6.6zM6.6 2.4h6v1.2h-6V2.4z"/></symbol><symbol viewBox="0 0 20 20" id="h3" xmlns="http://www.w3.org/2000/svg"><path d="M10 19a9 9 0 100-18 9 9 0 000 18z"/><path d="M12.7 13.6l-2.173-2.173A1.8 1.8 0 0110 10.155V4.6"/></symbol><symbol viewBox="0 0 85 85" id="inst" xmlns="http://www.w3.org/2000/svg"><path fill-rule="evenodd" clip-rule="evenodd" d="M24.782.253C29.28.046 30.712 0 42.168 0c11.454 0 12.887.05 17.38.253 4.493.203 7.56.92 10.243 1.959a20.745 20.745 0 017.467 4.868 20.595 20.595 0 014.86 7.464c1.043 2.683 1.756 5.75 1.963 10.235.207 4.504.253 5.938.253 17.388 0 11.454-.05 12.887-.253 17.384-.203 4.485-.92 7.552-1.962 10.235a20.686 20.686 0 01-4.861 7.471 20.675 20.675 0 01-7.467 4.86c-2.684 1.043-5.75 1.756-10.235 1.963-4.5.207-5.934.253-17.388.253s-12.888-.05-17.385-.253c-4.485-.203-7.551-.92-10.235-1.962a20.69 20.69 0 01-7.47-4.861 20.67 20.67 0 01-4.865-7.467C1.173 67.106.46 64.04.253 59.555.046 55.05 0 53.617 0 42.167c0-11.454.05-12.888.253-17.38.203-4.493.92-7.56 1.959-10.243A20.685 20.685 0 017.08 7.076a20.67 20.67 0 017.464-4.864C17.227 1.173 20.294.46 24.779.253h.003zm34.424 7.59c-4.447-.203-5.78-.245-17.04-.245-11.258 0-12.592.042-17.038.245-4.114.188-6.345.874-7.832 1.453-1.966.767-3.373 1.675-4.85 3.15a13.08 13.08 0 00-3.15 4.85c-.579 1.487-1.265 3.718-1.453 7.832-.203 4.446-.245 5.78-.245 17.039 0 11.258.042 12.592.245 17.039.188 4.113.874 6.344 1.453 7.831a13.09 13.09 0 003.15 4.85 13.09 13.09 0 004.85 3.15c1.487.58 3.718 1.265 7.832 1.453 4.446.204 5.776.246 17.039.246 11.262 0 12.592-.043 17.039-.246 4.113-.188 6.344-.874 7.831-1.453 1.967-.766 3.374-1.675 4.85-3.15a13.09 13.09 0 003.15-4.85c.58-1.487 1.265-3.718 1.453-7.831.204-4.447.246-5.78.246-17.04 0-11.258-.043-12.592-.246-17.038-.188-4.114-.874-6.345-1.453-7.832-.766-1.966-1.675-3.373-3.15-4.85a13.083 13.083 0 00-4.85-3.15c-1.487-.579-3.718-1.265-7.831-1.453zM36.78 55.166a14.064 14.064 0 0015.333-22.947A14.068 14.068 0 1036.78 55.166zM26.84 26.84a21.674 21.674 0 1130.651 30.651A21.674 21.674 0 0126.84 26.84zm41.806-3.12a5.126 5.126 0 10-7.034-7.457 5.126 5.126 0 007.034 7.457z"/></symbol><symbol viewBox="0 0 37 36" id="loop" xmlns="http://www.w3.org/2000/svg"><path fill-rule="evenodd" clip-rule="evenodd" d="M4.271 4.087A14.582 14.582 0 1024.894 24.71 14.58 14.58 0 004.277 4.093l-.006-.006zM22.83 22.645A11.665 11.665 0 116.15 6.334a11.665 11.665 0 0116.68 16.311z" fill-opacity=".7"/><path d="M22.83 26.83a2.917 2.917 0 014.126-4.123l8.247 8.25a2.916 2.916 0 01-4.124 4.123l-8.25-8.25z" fill-opacity=".7"/></symbol><symbol viewBox="0 0 100 84" id="tell" xmlns="http://www.w3.org/2000/svg"><path d="M91.52.953L3.273 35.158c-3.552 1.593-4.753 4.783-.859 6.514l22.64 7.232L79.791 14.9c2.989-2.135 6.049-1.565 3.416.783L36.195 58.47l-1.477 18.107c1.368 2.796 3.873 2.809 5.47 1.419l13.007-12.37 22.276 16.766c5.174 3.08 7.99 1.092 9.102-4.55L99.184 8.297c1.517-6.946-1.07-10.006-7.665-7.345z"/></symbol><symbol viewBox="0 0 37 38" id="video1" xmlns="http://www.w3.org/2000/svg"><g filter="url(#ofilter0_f)"><path d="M6.857 29.714V6.857h2.857v10l3.572-2.143 3.571 2.143v-10H24v10.114a9.481 9.481 0 011.429-.114c.485 0 .957.043 1.428.114V6.857A2.866 2.866 0 0024 4H6.857A2.866 2.866 0 004 6.857v22.857a2.866 2.866 0 002.857 2.857H17.23a10.186 10.186 0 01-1.386-2.857H6.857zm18.572-10a7.145 7.145 0 00-7.143 7.143c0 3.943 3.2 7.143 7.143 7.143 3.942 0 7.142-3.2 7.142-7.143 0-3.943-3.2-7.143-7.142-7.143zM23.643 30.43v-7.143l5.714 3.571-5.714 3.572z"/></g><path d="M6.857 29.714V6.857h2.857v10l3.572-2.143 3.571 2.143v-10H24v10.114a9.481 9.481 0 011.429-.114c.485 0 .957.043 1.428.114V6.857A2.866 2.866 0 0024 4H6.857A2.866 2.866 0 004 6.857v22.857a2.866 2.866 0 002.857 2.857H17.23a10.186 10.186 0 01-1.386-2.857H6.857zm18.572-10a7.145 7.145 0 00-7.143 7.143c0 3.943 3.2 7.143 7.143 7.143 3.942 0 7.142-3.2 7.142-7.143 0-3.943-3.2-7.143-7.142-7.143zM23.643 30.43v-7.143l5.714 3.571-5.714 3.572z"/><defs><filter id="ofilter0_f" x="0" y="0" width="36.571" height="38" filterUnits="userSpaceOnUse" color-interpolation-filters="sRGB"><feFlood flood-opacity="0" result="BackgroundImageFix"/><feBlend in="SourceGraphic" in2="BackgroundImageFix" result="shape"/><feGaussianBlur stdDeviation="2" result="effect1_foregroundBlur"/></filter></defs></symbol><symbol viewBox="0 0 47 42" id="video2" xmlns="http://www.w3.org/2000/svg"><g filter="url(#pfilter0_f)"><path d="M23.508 9.739V36m0-26.261S14.754 2.235 6 8.489V36c8.754-6.253 17.508 0 17.508 0s8.753-6.253 17.507 0V8.488c-8.754-6.253-17.507 1.25-17.507 1.25z"/><path d="M9.37 16.04c1.786-.845 6.374-1.86 10.435.847M9.37 21.058c1.786-.846 6.373-1.861 10.434.846M9.37 26.075c1.786-.846 6.373-1.861 10.434.846M37.413 16.04c-1.786-.845-6.374-1.86-10.435.847m10.435 4.171c-1.786-.846-6.374-1.861-10.435.846m10.435 4.171c-1.786-.846-6.374-1.861-10.435.846"/></g><path d="M23.508 9.739V36m0-26.261S14.754 2.235 6 8.489V36c8.754-6.253 17.508 0 17.508 0s8.753-6.253 17.507 0V8.488c-8.754-6.253-17.507 1.25-17.507 1.25z"/><path d="M9.37 16.04c1.786-.845 6.374-1.86 10.435.847M9.37 21.058c1.786-.846 6.373-1.861 10.434.846M9.37 26.075c1.786-.846 6.373-1.861 10.434.846M37.413 16.04c-1.786-.845-6.374-1.86-10.435.847m10.435 4.171c-1.786-.846-6.374-1.861-10.435.846m10.435 4.171c-1.786-.846-6.374-1.861-10.435.846"/><defs><filter id="pfilter0_f" x=".75" y=".75" width="45.516" height="40.501" filterUnits="userSpaceOnUse" color-interpolation-filters="sRGB"><feFlood flood-opacity="0" result="BackgroundImageFix"/><feBlend in="SourceGraphic" in2="BackgroundImageFix" result="shape"/><feGaussianBlur stdDeviation="2" result="effect1_foregroundBlur"/></filter></defs></symbol><symbol viewBox="0 0 42 42" id="video3" xmlns="http://www.w3.org/2000/svg"><g filter="url(#qfilter0_f)" stroke-width="3" stroke-linecap="round" stroke-linejoin="round"><path d="M21 36c8.284 0 15-6.716 15-15 0-8.284-6.716-15-15-15-8.284 0-15 6.716-15 15 0 8.284 6.716 15 15 15z"/><path d="M25.5 27l-3.621-3.621A3 3 0 0121 21.258V12"/></g><path d="M21 36c8.284 0 15-6.716 15-15 0-8.284-6.716-15-15-15-8.284 0-15 6.716-15 15 0 8.284 6.716 15 15 15z"/><path d="M25.5 27l-3.621-3.621A3 3 0 0121 21.258V12"/><defs><filter id="qfilter0_f" x=".5" y=".5" width="41" height="41" filterUnits="userSpaceOnUse" color-interpolation-filters="sRGB"><feFlood flood-opacity="0" result="BackgroundImageFix"/><feBlend in="SourceGraphic" in2="BackgroundImageFix" result="shape"/><feGaussianBlur stdDeviation="2" result="effect1_foregroundBlur"/></filter></defs></symbol><symbol viewBox="0 0 33 38" id="video4" xmlns="http://www.w3.org/2000/svg"><g filter="url(#rfilter0_f)"><path d="M17.875 11.5a1.5 1.5 0 11-3 0 1.5 1.5 0 013 0zm-2.625 4.125v7.5a1.125 1.125 0 102.25 0v-7.5a1.125 1.125 0 10-2.25 0z"/><path d="M4 7.75A3.75 3.75 0 017.75 4H25a3.75 3.75 0 013.75 3.75v21.375a1.125 1.125 0 01-1.125 1.125H6.25a1.5 1.5 0 001.5 1.5h19.875a1.125 1.125 0 110 2.25H7.75A3.75 3.75 0 014 30.25V7.75zM26.5 28V7.75a1.5 1.5 0 00-1.5-1.5H7.75a1.5 1.5 0 00-1.5 1.5V28H26.5z"/></g><path d="M17.875 11.5a1.5 1.5 0 11-3 0 1.5 1.5 0 013 0zm-2.625 4.125v7.5a1.125 1.125 0 102.25 0v-7.5a1.125 1.125 0 10-2.25 0z"/><path d="M4 7.75A3.75 3.75 0 017.75 4H25a3.75 3.75 0 013.75 3.75v21.375a1.125 1.125 0 01-1.125 1.125H6.25a1.5 1.5 0 001.5 1.5h19.875a1.125 1.125 0 110 2.25H7.75A3.75 3.75 0 014 30.25V7.75zM26.5 28V7.75a1.5 1.5 0 00-1.5-1.5H7.75a1.5 1.5 0 00-1.5 1.5V28H26.5z"/><defs><filter id="rfilter0_f" x="0" y="0" width="32.75" height="38" filterUnits="userSpaceOnUse" color-interpolation-filters="sRGB"><feFlood flood-opacity="0" result="BackgroundImageFix"/><feBlend in="SourceGraphic" in2="BackgroundImageFix" result="shape"/><feGaussianBlur stdDeviation="2" result="effect1_foregroundBlur"/></filter></defs></symbol><symbol viewBox="0 0 121 85" id="youtube" xmlns="http://www.w3.org/2000/svg"><path d="M117.914 13.223a15.163 15.163 0 00-10.671-10.671C97.886 0 60.227 0 60.227 0S22.567.077 13.21 2.63A15.157 15.157 0 002.539 13.3c-2.83 16.626-3.928 41.959.078 57.92a15.158 15.158 0 0010.67 10.671c9.357 2.552 47.017 2.552 47.017 2.552s37.66 0 47.016-2.552a15.154 15.154 0 0010.671-10.671c2.985-16.65 3.905-41.967-.077-57.997z"/><path d="M48.24 60.317l31.241-18.095-31.24-18.095v36.19z"/></symbol></svg>